<svg width="49" height="40" viewBox="0 0 49 40" fill="none" xmlns="http://www.w3.org/2000/svg">
<path fill-rule="evenodd" clip-rule="evenodd" d="M20.4823 28.6599L0 28.6922V28.6912L21.0635 27.9498C20.8636 28.1801 20.6702 28.4186 20.4823 28.6599ZM4.60893 26.3186L22.1476 25.4961L23.8727 25.428L23.8285 25.4722C23.8147 25.4855 23.8008 25.499 23.7868 25.5125C23.5435 25.7482 23.2751 26.0082 22.9903 26.1841L22.9415 26.2154L21.944 26.2191L4.60893 26.3186ZM24.5284 22.9909L24.5294 22.9909L24.5285 22.9899C24.5285 22.9903 24.5285 22.9906 24.5284 22.9909ZM22.8356 23.0581L24.5284 22.9909C24.5239 23.2494 24.5312 23.5107 24.5506 23.7701L22.632 23.7793L2.91052 23.8226L22.8356 23.0581ZM1.37881 21.4214L23.5254 20.6182L25.0323 20.5602C24.9208 20.8117 24.8296 21.0705 24.7578 21.3367L23.32 21.3413L1.37881 21.4214ZM5.05288 18.9917L24.2125 18.1802H24.2116L27.3533 18.0586C27.0282 18.2392 26.7233 18.4473 26.4617 18.6665C26.3724 18.7411 26.2867 18.8167 26.2048 18.895L24.0081 18.9042L5.05288 18.9917ZM4.29025 16.5518L24.9006 15.7431L30.7483 15.5138C30.5052 15.8223 30.2242 16.0784 29.9194 16.3436L29.8061 16.445L24.697 16.4661L4.29025 16.5518ZM11.8714 13.9968L25.5886 13.306V13.3051L32.5554 13.0315C32.3049 13.3502 32.058 13.6744 31.8158 14.0005L25.385 14.0291L11.8714 13.9968ZM5.66629 11.6776L26.2766 10.8689L33.9932 10.565C33.8384 10.8984 33.6772 11.2291 33.5133 11.5597L26.0721 11.5892L5.66629 11.6776ZM10.2927 9.17052L26.9637 8.42907L35.0082 8.11315C34.8857 8.4521 34.7586 8.78551 34.6232 9.11801L26.7602 9.15209L10.2927 9.17052ZM27.6517 5.99105L34.1018 5.73684L34.1009 5.73777C34.5449 6.03987 35.0146 6.30698 35.5 6.53632C35.4932 6.5656 35.4855 6.59522 35.4777 6.62476C35.4727 6.64355 35.4678 6.6623 35.4632 6.68092L27.4473 6.715L1.81631 6.86605L27.6517 5.99105ZM31.4907 3.51066C31.6159 3.67093 31.7523 3.8229 31.8913 3.97119L31.8923 3.97211C31.9844 4.07066 32.0801 4.16553 32.1769 4.25948L28.1371 4.27606L11.2838 4.4225L20.3082 3.86895C20.3398 3.86687 20.3673 3.86502 20.3921 3.86335C20.488 3.85689 20.5445 3.85308 20.6499 3.84869C20.7908 3.84317 20.8654 3.84133 21.0156 3.84133L28.3416 3.55212L30.9067 3.45264C31.0531 3.47006 31.2016 3.48379 31.349 3.49743C31.3963 3.50181 31.4436 3.50618 31.4907 3.51066ZM2.25323 31.0555L9.57349 30.9763C9.73191 30.8575 9.91059 30.7461 10.1095 30.6447L2.25323 31.0555ZM1.00586 33.5562L6.18123 33.5C6.10018 33.4337 6.02466 33.3665 5.95374 33.2974L1.00586 33.5562Z" fill="#FFF9EB"/>
<path d="M36.085 0.102477C36.0252 0.0935175 35.9655 0.0845552 35.9058 0.0746002C35.845 0.0646453 35.7853 0.0546856 35.7266 0.0447307C35.6858 0.0377622 35.645 0.0317961 35.6041 0.0268186C35.5683 0.0218412 35.5325 0.0178597 35.4966 0.0148732C35.4887 0.0138778 35.4817 0.0128793 35.4727 0.0118839C35.4339 0.00790189 35.3951 0.00491979 35.3553 0.0039243C35.1522 -0.00702609 34.9451 0.00392041 34.749 0.049713C34.749 0.0507085 34.746 0.0507094 34.745 0.0507094H34.741C34.6923 0.0636508 34.6435 0.0765966 34.5957 0.0925244C34.5738 0.0994929 34.5529 0.108452 34.533 0.117412C34.4334 0.163204 34.3488 0.228907 34.2722 0.304564C34.1856 0.38719 34.1079 0.481755 34.0273 0.571349C33.871 0.74556 33.7207 0.923756 33.5644 1.09697C33.4081 1.27019 33.2528 1.4424 33.0965 1.61462C33.0965 1.61462 32.98 1.70821 33.0189 2.196C33.0208 2.23183 33.0238 2.26667 33.0258 2.30251C33.0258 2.30649 33.0268 2.30948 33.0268 2.31346V2.31744C33.0298 2.35328 33.0348 2.38912 33.0348 2.42595C33.0328 2.64993 33.0617 2.87392 33.0816 3.0979C33.0905 3.19148 33.0945 3.28605 33.1015 3.38062C33.1084 3.47519 33.1303 3.58171 33.0915 3.67031C33.0298 3.81068 32.9123 3.91022 32.7779 3.97792C32.6197 4.05556 32.4604 4.13222 32.3021 4.20987C32.1697 4.27458 32.0383 4.35223 31.9009 4.41096C31.886 4.41793 31.871 4.4239 31.8551 4.42987C31.8243 4.44281 31.7924 4.45376 31.7596 4.46372C31.7466 4.4677 31.7337 4.47168 31.7197 4.47466C31.7128 4.47666 31.7048 4.47865 31.6968 4.47965C31.6829 4.48363 31.668 4.48661 31.654 4.4886C31.6262 4.49358 31.5973 4.49756 31.5684 4.49955H31.5585C31.3225 4.51249 31.0786 4.4458 30.8596 4.36815L28.5053 3.53592C28.5053 3.53592 28.2714 3.41248 27.5496 3.37962L23.1406 3.16461C23.1406 3.16461 22.9514 3.15167 22.6916 3.45131C22.6269 3.52697 22.5622 3.60261 22.4975 3.67727C22.3303 3.87339 22.162 4.06851 21.9948 4.26462C21.7638 4.5334 21.5329 4.80318 21.3029 5.07295C21.0481 5.36961 20.7932 5.66727 20.5384 5.96393C20.2995 6.24266 20.0615 6.5214 19.8226 6.80014C19.6385 7.01417 19.4553 7.2282 19.2721 7.44223C19.1616 7.57065 19.0571 7.70504 18.9327 7.82052C18.8032 7.93998 18.6509 8.0236 18.4907 8.09428L16.8451 8.81003C16.8451 8.81003 16.7217 8.84288 16.7018 8.9922C16.6789 9.20424 16.655 9.41628 16.6321 9.62832C16.6142 9.79158 16.5913 9.95584 16.5793 10.1201C16.5674 10.2883 16.5096 10.4546 16.5246 10.6258C16.5355 10.7522 16.6102 10.8458 16.6838 10.9434C16.7416 11.022 16.7993 11.1016 16.8551 11.1823C16.9019 11.249 16.9506 11.3455 17.0233 11.3884C17.0422 11.3993 17.0631 11.4053 17.085 11.4073C17.2254 11.4232 17.3976 11.3605 17.534 11.3266C17.7251 11.2798 17.9192 11.237 18.1024 11.1644C18.2448 11.1076 18.3722 11.0349 18.4747 10.9195C18.5633 10.8209 18.634 10.7054 18.7117 10.5989C18.7684 10.5193 18.8261 10.4396 18.8839 10.36C19.0292 10.1579 19.1686 9.94986 19.3189 9.75176C19.3936 9.65221 19.4712 9.54869 19.5608 9.46109C19.6494 9.37348 19.75 9.29683 19.8435 9.21421C19.9919 9.0828 20.1452 8.95636 20.2985 8.82894C20.5364 8.63382 20.7743 8.43772 21.0122 8.24161C21.4841 7.85337 21.956 7.46512 22.4278 7.07588C22.6259 6.91262 22.824 6.75036 23.0221 6.5871C23.0988 6.52339 23.1754 6.46067 23.2521 6.39696C23.3576 6.31035 23.4601 6.19288 23.5886 6.14311C23.6772 6.10926 23.7767 6.11125 23.8693 6.13315C24.1679 6.20184 24.4527 6.39 24.7244 6.52638C25.0261 6.67869 25.3337 6.87281 25.6572 6.96837C25.8404 7.02213 26.0325 7.04503 26.2206 7.06892C26.4496 7.11471 26.6935 7.12367 26.9264 7.14757C27.0389 7.15852 27.1086 7.22321 27.1305 7.3367C27.1743 7.56666 27.02 7.71698 26.8757 7.86631C26.7731 7.97382 26.6706 8.08034 26.5671 8.18785C26.2206 8.56215 25.8742 8.93646 25.5278 9.31077C24.7931 10.1052 24.0584 10.8986 23.3238 11.693C22.6558 12.4147 21.9878 13.1364 21.3198 13.8582C21.0302 14.1717 20.7156 14.4674 20.4737 14.8218C20.3224 15.0438 20.2288 15.2847 20.1282 15.5306C19.9988 15.8481 19.8694 16.1647 19.74 16.4823C19.3328 17.4778 18.9267 18.4733 18.5205 19.4687C18.1104 20.4732 17.7002 21.4776 17.2901 22.4831C17.1398 22.8514 16.9895 23.2188 16.8391 23.5871C16.7764 23.7404 16.7217 23.8877 16.6152 24.0171C16.4559 24.2113 16.2428 24.3586 16.0457 24.5149C15.8815 24.6453 15.7162 24.7767 15.551 24.9071C15.107 25.2595 14.663 25.6119 14.219 25.9643C13.6635 26.4053 13.106 26.8404 12.5466 27.2754C12.2559 27.5014 12.0976 27.795 11.9065 28.0987C11.7582 28.3336 11.6098 28.5695 11.4615 28.8055C11.2057 29.2126 10.9488 29.6198 10.692 30.0269C10.5526 30.2479 10.4132 30.4699 10.2739 30.6909C10.0688 31.0174 9.86373 31.343 9.65866 31.6695C9.60491 31.7591 9.55015 31.8487 9.4964 31.9393C9.42273 32.0607 9.35205 32.2011 9.2306 32.2847C9.11712 32.3633 8.97576 32.3574 8.84336 32.3385C8.62435 32.3086 8.39738 32.2668 8.18534 32.2051C7.97728 32.1443 7.76325 32.0577 7.54225 32.0916C7.30731 32.1274 7.13211 32.2867 6.96287 32.439C6.76577 32.6152 6.56468 32.8163 6.34866 32.9696C6.34866 32.9696 6.12069 33.0871 6.21825 33.6595L6.47907 35.3299C6.47907 35.3299 6.54377 35.8117 6.49798 36.2338C6.47508 36.7136 6.45816 37.1935 6.43925 37.6723C6.42929 37.9152 6.41834 38.1591 6.4054 38.402C6.39445 38.609 6.33771 38.851 6.41735 39.0481C6.43228 39.0839 6.4502 39.1157 6.4711 39.1446C6.56966 39.28 6.72893 39.3427 6.8693 39.4403C7.03355 39.5548 7.19781 39.6702 7.36207 39.7847C7.47257 39.8614 7.66768 39.9828 7.84189 39.9978C7.86578 40.0007 7.88868 40.0007 7.91058 39.9978C7.92153 39.9968 7.9295 39.9958 7.93845 39.9928C7.98524 39.9848 8.02805 39.9639 8.06588 39.9291C8.09873 39.8972 8.11067 39.8484 8.11167 39.8036C8.11167 39.7897 8.11167 39.7758 8.11068 39.7618C8.11068 39.7479 8.11068 39.734 8.10769 39.72C8.10769 39.715 8.10769 39.7101 8.10669 39.7051C8.1057 39.6931 8.1047 39.6812 8.10271 39.6692C8.10172 39.6583 8.09972 39.6464 8.09773 39.6344C8.09773 39.6294 8.09574 39.6235 8.09475 39.6185C8.08877 39.5767 8.08081 39.5349 8.07384 39.493C8.05891 39.3995 8.04398 39.3059 8.02904 39.2123C7.98226 38.9186 7.87076 38.5682 7.97728 38.2766C8.10072 37.9381 8.22814 37.6006 8.35059 37.2612C8.48896 36.8759 8.59847 36.4608 8.81847 36.1044C8.96182 35.8724 9.11612 35.6425 9.28137 35.4245C9.4297 35.2294 9.55115 35.0113 9.69948 34.8142C10.0798 34.3095 10.5636 33.8954 11.0444 33.4902C11.565 33.0532 12.0777 32.6062 12.5914 32.1613C12.6073 32.1473 12.6242 32.1334 12.6402 32.1185C12.679 32.0866 12.7168 32.0527 12.7556 32.0199C13.0055 31.8039 13.2554 31.5869 13.5052 31.3718C13.5839 31.3031 13.6635 31.2344 13.7422 31.1668C13.7432 31.1668 13.7442 31.1648 13.7452 31.1648C13.8238 31.0961 13.9024 31.0284 13.9811 30.9597C14.1872 30.7825 14.3922 30.6043 14.5983 30.4261C15.0124 30.0687 15.4275 29.7104 15.8417 29.352C16.1383 29.0951 16.3971 28.8045 16.7237 28.5795C17.2951 28.1853 17.9531 28.1196 18.5454 27.81C18.9804 27.583 19.0262 27.1241 19.2572 26.7428C19.4852 26.3675 19.8385 26.0828 20.1531 25.7931C20.392 25.5731 20.63 25.3531 20.8689 25.1331C21.4592 24.5895 22.0485 24.046 22.6389 23.5025C23.1675 23.0147 23.6961 22.5279 24.2247 22.0411C24.4377 21.845 24.6488 21.6469 24.8638 21.4528C24.8638 21.4528 25.0131 21.3154 25.3257 21.4199L28.3888 22.4473C28.3888 22.4473 28.5839 22.506 28.2843 22.7469C27.9657 23.0067 27.6472 23.2655 27.3286 23.5254C26.8767 23.8947 26.354 24.2451 26.0096 24.721C25.6891 25.1649 25.3078 25.5771 24.9574 25.9992C24.7712 26.2222 24.586 26.4461 24.4009 26.6711C24.154 26.9708 23.9967 27.2067 23.5696 27.1888C23.3457 27.1798 23.1267 27.1271 22.9037 27.1191C22.6787 27.1111 22.4836 27.1848 22.2875 27.2903C22.0406 27.4257 21.8066 27.586 21.5936 27.7701C21.4055 27.9314 21.2004 28.1076 21.1735 28.3704C21.1377 28.7198 21.3646 29.0464 21.506 29.348C21.6912 29.7422 21.9171 30.1165 22.165 30.4749C22.5533 31.0403 22.9943 31.5669 23.4223 32.1025C23.7658 32.5326 24.2247 33.5291 24.9175 33.3867C26.2196 33.1209 24.9444 30.7696 24.7523 30.1135C24.6259 29.6805 24.6279 28.9359 25.045 28.6492C25.2301 28.5227 25.4422 28.4212 25.6373 28.3107C25.9688 28.1226 26.3003 27.9344 26.6318 27.7453C27.0907 27.4854 27.5496 27.2246 28.0085 26.9648C28.5182 26.6751 29.0279 26.3864 29.5376 26.0967C30.0204 25.823 30.5042 25.5482 30.9871 25.2745C31.7715 24.8295 32.6655 24.4512 33.2647 23.7563C33.8033 23.1312 34.1527 22.2551 33.8421 21.4438C33.6112 20.8395 33.2209 20.3149 32.8217 19.8112C32.4265 19.3125 31.89 18.9561 31.3783 18.5867C30.8895 18.2333 30.4216 17.8461 29.9458 17.4758C29.6232 17.2259 29.3017 16.975 28.9801 16.7252C28.9134 16.6734 28.8448 16.6236 28.7761 16.5749C28.7432 16.55 28.7094 16.5261 28.6765 16.5012L28.6048 16.4474C28.5949 16.4405 28.5859 16.4325 28.576 16.4255C28.5332 16.3927 28.4943 16.3479 28.4874 16.2951C28.4764 16.2075 28.5252 16.1408 28.5879 16.0871C28.6238 16.0552 28.6656 16.0273 28.7024 16.0034C28.8467 15.9099 28.9861 15.8083 29.1255 15.7068C29.234 15.6272 29.3395 15.5445 29.446 15.4599C29.5167 15.4042 29.5884 15.3464 29.6591 15.2907C29.7507 15.217 29.8432 15.1453 29.9358 15.0747C30.0234 15.009 30.112 14.9442 30.2026 14.8845C30.2066 14.8815 30.2096 14.8785 30.2136 14.8765C30.2982 14.8128 30.3818 14.7491 30.4664 14.6854C30.4714 14.6814 30.4774 14.6775 30.4823 14.6735C30.6068 14.5799 30.7312 14.4873 30.8556 14.3937C31.1364 14.1827 31.4171 13.9726 31.6968 13.7626C31.9945 13.5386 32.2921 13.3156 32.5888 13.0926C32.7003 13.009 32.8118 12.9254 32.9233 12.8418C33.0169 12.7721 33.1055 12.6815 33.212 12.6317C33.2568 12.6108 33.3085 12.6009 33.3573 12.6128C33.4101 12.6267 33.4539 12.6676 33.4867 12.7114C33.5664 12.8169 33.64 12.9284 33.7197 13.0349C33.8332 13.1852 33.9476 13.3365 34.0611 13.4868C34.2562 13.7477 34.4464 14.0145 34.6505 14.2693C34.8117 14.4704 34.9312 14.7312 35.1432 14.8865C35.3463 15.0368 35.5683 15.0089 35.8062 15.0149L36.5499 15.0328C36.6614 15.0358 36.7738 15.0388 36.8823 15.0149C37.0227 14.9831 37.1004 14.8955 37.2129 14.8178C37.3014 14.7561 37.391 14.6944 37.4796 14.6327C37.7166 14.4674 37.9535 14.3032 38.1904 14.1389C38.5717 13.8811 38.941 13.6053 39.3253 13.3535C40.0132 12.9005 40.499 12.2176 41.0236 11.5944C41.3501 11.2042 41.6786 10.8149 42.0061 10.4257C42.1794 10.2206 42.3337 9.99765 42.5308 9.81448C42.6871 9.66914 42.8712 9.57954 43.0574 9.479C43.3948 9.29483 43.7323 9.11166 44.0698 8.92849C44.1624 8.87772 44.255 8.82795 44.3475 8.77718C44.3475 8.77718 44.6203 8.66668 44.5038 8.34812C44.4043 8.01961 44.3057 7.69109 44.2072 7.36159C44.1843 7.28593 44.1664 7.21327 44.1295 7.14657C44.1235 7.13562 44.1166 7.12466 44.1096 7.11471C44.0977 7.09579 44.0837 7.07788 44.0668 7.06096C43.9882 6.98032 43.8966 6.91262 43.801 6.8519L43.4486 6.61299C43.371 6.56023 43.2943 6.50746 43.2167 6.45569C43.1529 6.41189 43.0783 6.35416 42.9947 6.37208C42.923 6.38601 42.8563 6.45172 42.8065 6.50149C42.7139 6.60005 42.6214 6.6996 42.5288 6.79914C42.3964 6.9415 42.2401 7.06892 42.1286 7.23019C42.038 7.3606 42.0231 7.51091 41.9803 7.65924C41.9434 7.78666 41.9056 7.91509 41.8688 8.04251C41.8528 8.09726 41.8389 8.153 41.824 8.20975C41.814 8.24957 41.8041 8.28939 41.7941 8.32921C41.7881 8.3541 41.7822 8.37799 41.7752 8.40188C41.7692 8.42577 41.7622 8.44966 41.7553 8.47355C41.7413 8.52432 41.7254 8.5741 41.7075 8.62188C41.6975 8.64976 41.6756 8.67166 41.6547 8.69157C41.6517 8.69356 41.6498 8.69654 41.6468 8.69854C41.6308 8.71347 41.6149 8.72741 41.599 8.74035C41.5791 8.75628 41.5602 8.77121 41.5402 8.78514C41.4188 8.87275 41.2824 8.94044 41.153 9.01411C40.9698 9.11665 40.7867 9.21918 40.6035 9.32271C40.1227 9.59249 39.6418 9.86326 39.161 10.133C38.8594 10.3023 38.5578 10.4725 38.2561 10.6417L38.2412 10.6507C37.8848 10.8448 37.5185 11.03 37.182 11.2569C37.1312 11.2918 37.0755 11.3236 37.0138 11.3326C36.9082 11.3485 36.8425 11.2868 36.8077 11.1932C36.7271 10.9742 36.6982 10.7423 36.6524 10.5143C36.5956 10.2236 36.4991 9.93493 36.3637 9.66814C36.2442 9.4342 36.084 9.22814 35.9416 9.00913C35.8032 8.80704 35.6738 8.598 35.5404 8.39293C35.4717 8.2874 35.4021 8.18188 35.3334 8.07635C35.2796 7.99373 35.2079 7.90911 35.1731 7.81653C35.1442 7.74088 35.1472 7.65725 35.1641 7.57961C35.184 7.49001 35.2288 7.40639 35.2736 7.32675C35.3095 7.26104 35.3373 7.18439 35.403 7.14258C35.4737 7.09679 35.5713 7.08882 35.6529 7.08982C36.289 7.09977 36.8505 7.24711 37.4697 7.00421C37.7454 6.8957 37.8639 6.77028 37.9415 6.48855C38.0013 6.27054 38.057 6.05252 38.1158 5.8355C38.1466 5.72301 38.1775 5.61152 38.2103 5.50002C38.2392 5.40147 38.2581 5.28101 38.3228 5.19938C38.3865 5.11875 38.4702 5.1088 38.5568 5.06898C38.6762 5.01323 38.6245 4.87784 38.6185 4.77331C38.5886 4.33131 38.4552 3.90624 38.3885 3.46922C38.3009 2.89781 38.2402 2.31544 38.2651 1.73607C38.2651 1.73607 38.4045 1.09797 38.0232 0.838146C38.0212 0.838146 38.0192 0.835156 38.0172 0.83416C37.7982 0.675877 37.5593 0.539496 37.3253 0.400128C37.2915 0.380218 37.2586 0.36031 37.2248 0.340401C37.1949 0.322482 37.1651 0.30456 37.1352 0.287637C37.1073 0.270713 37.0785 0.254786 37.0506 0.238859C37.0167 0.218949 36.9839 0.200028 36.951 0.182109C36.8953 0.152244 36.8385 0.127367 36.7728 0.117412C36.7111 0.117412 36.6494 0.120392 36.5867 0.123378C36.5827 0.123378 36.5787 0.123378 36.5747 0.123378C36.5359 0.125369 36.4961 0.128363 36.4573 0.130354H36.4473C36.3786 0.13334 36.3099 0.12935 36.2413 0.122382L36.085 0.10148V0.102477Z" fill="#E0AF43"/>
<path d="M40.0851 0.102477C40.0254 0.0935175 39.9656 0.0845552 39.9059 0.0746002C39.8452 0.0646453 39.7854 0.0546856 39.7267 0.0447307C39.6859 0.0377622 39.6451 0.0317961 39.6043 0.0268186C39.5684 0.0218412 39.5326 0.0178597 39.4967 0.0148732C39.4888 0.0138778 39.4818 0.0128793 39.4729 0.0118839C39.434 0.00790189 39.3952 0.00491979 39.3554 0.0039243C39.1523 -0.00702609 38.9452 0.00392041 38.7491 0.049713C38.7491 0.0507085 38.7461 0.0507094 38.7452 0.0507094H38.7412C38.6924 0.0636508 38.6436 0.0765966 38.5958 0.0925244C38.5739 0.0994929 38.553 0.108452 38.5331 0.117412C38.4336 0.163204 38.3489 0.228907 38.2723 0.304564C38.1857 0.38719 38.108 0.481755 38.0274 0.571349C37.8711 0.74556 37.7208 0.923756 37.5645 1.09697C37.4082 1.27019 37.2529 1.4424 37.0966 1.61462C37.0966 1.61462 36.9801 1.70821 37.019 2.196C37.021 2.23183 37.0239 2.26667 37.0259 2.30251C37.0259 2.30649 37.0269 2.30948 37.0269 2.31346V2.31744C37.0299 2.35328 37.0349 2.38912 37.0349 2.42595C37.0329 2.64993 37.0618 2.87392 37.0817 3.0979C37.0906 3.19148 37.0946 3.28605 37.1016 3.38062C37.1086 3.47519 37.1305 3.58171 37.0916 3.67031C37.0299 3.81068 36.9125 3.91022 36.7781 3.97792C36.6198 4.05556 36.4605 4.13222 36.3022 4.20987C36.1698 4.27458 36.0384 4.35223 35.901 4.41096C35.8861 4.41793 35.8712 4.4239 35.8552 4.42987C35.8244 4.44281 35.7925 4.45376 35.7597 4.46372C35.7467 4.4677 35.7338 4.47168 35.7199 4.47466C35.7129 4.47666 35.7049 4.47865 35.697 4.47965C35.683 4.48363 35.6681 4.48661 35.6542 4.4886C35.6263 4.49358 35.5974 4.49756 35.5685 4.49955H35.5586C35.3227 4.51249 35.0788 4.4458 34.8598 4.36815L32.5054 3.53592C32.5054 3.53592 32.2715 3.41248 31.5497 3.37962L27.1407 3.16461C27.1407 3.16461 26.9516 3.15167 26.6917 3.45131C26.627 3.52697 26.5623 3.60261 26.4976 3.67727C26.3304 3.87339 26.1621 4.06851 25.9949 4.26462C25.764 4.5334 25.533 4.80318 25.303 5.07295C25.0482 5.36961 24.7933 5.66727 24.5385 5.96393C24.2996 6.24266 24.0617 6.5214 23.8227 6.80014C23.6386 7.01417 23.4554 7.2282 23.2722 7.44223C23.1617 7.57065 23.0572 7.70504 22.9328 7.82052C22.8034 7.93998 22.6511 8.0236 22.4908 8.09428L20.8452 8.81003C20.8452 8.81003 20.7218 8.84288 20.7019 8.9922C20.679 9.20424 20.6551 9.41628 20.6322 9.62832C20.6143 9.79158 20.5914 9.95584 20.5794 10.1201C20.5675 10.2883 20.5098 10.4546 20.5247 10.6258C20.5356 10.7522 20.6103 10.8458 20.684 10.9434C20.7417 11.022 20.7994 11.1016 20.8552 11.1823C20.902 11.249 20.9508 11.3455 21.0234 11.3884C21.0423 11.3993 21.0632 11.4053 21.0851 11.4073C21.2255 11.4232 21.3977 11.3605 21.5341 11.3266C21.7252 11.2798 21.9194 11.237 22.1025 11.1644C22.2449 11.1076 22.3723 11.0349 22.4749 10.9195C22.5635 10.8209 22.6341 10.7054 22.7118 10.5989C22.7685 10.5193 22.8263 10.4396 22.884 10.36C23.0293 10.1579 23.1687 9.94986 23.319 9.75176C23.3937 9.65221 23.4713 9.54869 23.5609 9.46109C23.6495 9.37348 23.7501 9.29683 23.8437 9.21421C23.992 9.0828 24.1453 8.95636 24.2986 8.82894C24.5365 8.63382 24.7744 8.43772 25.0124 8.24161C25.4842 7.85337 25.9561 7.46512 26.4279 7.07588C26.626 6.91262 26.8241 6.75036 27.0223 6.5871C27.0989 6.52339 27.1756 6.46067 27.2522 6.39696C27.3577 6.31035 27.4603 6.19288 27.5887 6.14311C27.6773 6.10926 27.7768 6.11125 27.8694 6.13315C28.1681 6.20184 28.4528 6.39 28.7245 6.52638C29.0262 6.67869 29.3338 6.87281 29.6573 6.96837C29.8405 7.02213 30.0326 7.04503 30.2208 7.06892C30.4497 7.11471 30.6936 7.12367 30.9266 7.14757C31.0391 7.15852 31.1087 7.22321 31.1306 7.3367C31.1744 7.56666 31.0201 7.71698 30.8758 7.86631C30.7733 7.97382 30.6707 8.08034 30.5672 8.18785C30.2208 8.56215 29.8743 8.93646 29.5279 9.31077C28.7932 10.1052 28.0586 10.8986 27.3239 11.693C26.6559 12.4147 25.9879 13.1364 25.32 13.8582C25.0303 14.1717 24.7157 14.4674 24.4738 14.8218C24.3225 15.0438 24.2289 15.2847 24.1284 15.5306C23.9989 15.8481 23.8695 16.1647 23.7401 16.4823C23.333 17.4778 22.9268 18.4733 22.5206 19.4687C22.1105 20.4732 21.7004 21.4776 21.2902 22.4831C21.1399 22.8514 20.9896 23.2188 20.8393 23.5871C20.7765 23.7404 20.7218 23.8877 20.6153 24.0171C20.456 24.2113 20.243 24.3586 20.0459 24.5149C19.8816 24.6453 19.7163 24.7767 19.5511 24.9071C19.1071 25.2595 18.6631 25.6119 18.2191 25.9643C17.6636 26.4053 17.1062 26.8404 16.5467 27.2754C16.256 27.5014 16.0977 27.795 15.9066 28.0987C15.7583 28.3336 15.6099 28.5695 15.4616 28.8055C15.2058 29.2126 14.9489 29.6198 14.6921 30.0269C14.5527 30.2479 14.4134 30.4699 14.274 30.6909C14.0689 31.0174 13.8639 31.343 13.6588 31.6695C13.605 31.7591 13.5503 31.8487 13.4965 31.9393C13.4229 32.0607 13.3522 32.2011 13.2307 32.2847C13.1172 32.3633 12.9759 32.3574 12.8435 32.3385C12.6245 32.3086 12.3975 32.2668 12.1855 32.2051C11.9774 32.1443 11.7634 32.0577 11.5424 32.0916C11.3074 32.1274 11.1322 32.2867 10.963 32.439C10.7659 32.6152 10.5648 32.8163 10.3488 32.9696C10.3488 32.9696 10.1208 33.0871 10.2184 33.6595L10.4792 35.3299C10.4792 35.3299 10.5439 35.8117 10.4981 36.2338C10.4752 36.7136 10.4583 37.1935 10.4394 37.6723C10.4294 37.9152 10.4185 38.1591 10.4055 38.402C10.3946 38.609 10.3378 38.851 10.4175 39.0481C10.4324 39.0839 10.4503 39.1157 10.4712 39.1446C10.5698 39.28 10.7291 39.3427 10.8694 39.4403C11.0337 39.5548 11.1979 39.6702 11.3622 39.7847C11.4727 39.8614 11.6678 39.9828 11.842 39.9978C11.8659 40.0007 11.8888 40.0007 11.9107 39.9978C11.9217 39.9968 11.9296 39.9958 11.9386 39.9928C11.9854 39.9848 12.0282 39.9639 12.066 39.9291C12.0989 39.8972 12.1108 39.8484 12.1118 39.8036C12.1118 39.7897 12.1118 39.7758 12.1108 39.7618C12.1108 39.7479 12.1108 39.734 12.1078 39.72C12.1078 39.715 12.1078 39.7101 12.1068 39.7051C12.1058 39.6931 12.1048 39.6812 12.1028 39.6692C12.1018 39.6583 12.0998 39.6464 12.0979 39.6344C12.0979 39.6294 12.0959 39.6235 12.0949 39.6185C12.0889 39.5767 12.0809 39.5349 12.074 39.493C12.059 39.3995 12.0441 39.3059 12.0292 39.2123C11.9824 38.9186 11.8709 38.5682 11.9774 38.2766C12.1008 37.9381 12.2283 37.6006 12.3507 37.2612C12.4891 36.8759 12.5986 36.4608 12.8186 36.1044C12.9619 35.8724 13.1162 35.6425 13.2815 35.4245C13.4298 35.2294 13.5513 35.0113 13.6996 34.8142C14.0799 34.3095 14.5637 33.8954 15.0445 33.4902C15.5652 33.0532 16.0778 32.6062 16.5915 32.1613C16.6074 32.1473 16.6244 32.1334 16.6403 32.1185C16.6791 32.0866 16.7169 32.0527 16.7558 32.0199C17.0056 31.8039 17.2555 31.5869 17.5054 31.3718C17.584 31.3031 17.6636 31.2344 17.7423 31.1668C17.7433 31.1668 17.7443 31.1648 17.7453 31.1648C17.8239 31.0961 17.9026 31.0284 17.9812 30.9597C18.1873 30.7825 18.3923 30.6043 18.5984 30.4261C19.0125 30.0687 19.4277 29.7104 19.8418 29.352C20.1384 29.0951 20.3973 28.8045 20.7238 28.5795C21.2952 28.1853 21.9532 28.1196 22.5455 27.81C22.9806 27.583 23.0264 27.1241 23.2573 26.7428C23.4853 26.3675 23.8387 26.0828 24.1532 25.7931C24.3922 25.5731 24.6301 25.3531 24.869 25.1331C25.4593 24.5895 26.0487 24.046 26.639 23.5025C27.1676 23.0147 27.6962 22.5279 28.2248 22.0411C28.4378 21.845 28.6489 21.6469 28.8639 21.4528C28.8639 21.4528 29.0132 21.3154 29.3258 21.4199L32.3889 22.4473C32.3889 22.4473 32.5841 22.506 32.2844 22.7469C31.9659 23.0067 31.6473 23.2655 31.3287 23.5254C30.8768 23.8947 30.3542 24.2451 30.0097 24.721C29.6892 25.1649 29.3079 25.5771 28.9575 25.9992C28.7713 26.2222 28.5862 26.4461 28.401 26.6711C28.1541 26.9708 27.9968 27.2067 27.5698 27.1888C27.3458 27.1798 27.1268 27.1271 26.9038 27.1191C26.6788 27.1111 26.4837 27.1848 26.2876 27.2903C26.0407 27.4257 25.8068 27.586 25.5937 27.7701C25.4056 27.9314 25.2005 28.1076 25.1736 28.3704C25.1378 28.7198 25.3648 29.0464 25.5061 29.348C25.6913 29.7422 25.9173 30.1165 26.1651 30.4749C26.5534 31.0403 26.9944 31.5669 27.4224 32.1025C27.7659 32.5326 28.2248 33.5291 28.9177 33.3867C30.2198 33.1209 28.9445 30.7696 28.7524 30.1135C28.626 29.6805 28.628 28.9359 29.0451 28.6492C29.2303 28.5227 29.4423 28.4212 29.6374 28.3107C29.9689 28.1226 30.3004 27.9344 30.6319 27.7453C31.0908 27.4854 31.5497 27.2246 32.0087 26.9648C32.5184 26.6751 33.028 26.3864 33.5377 26.0967C34.0206 25.823 34.5044 25.5482 34.9872 25.2745C35.7716 24.8295 36.6656 24.4512 37.2649 23.7563C37.8034 23.1312 38.1528 22.2551 37.8422 21.4438C37.6113 20.8395 37.2211 20.3149 36.8219 19.8112C36.4267 19.3125 35.8901 18.9561 35.3784 18.5867C34.8896 18.2333 34.4217 17.8461 33.9459 17.4758C33.6234 17.2259 33.3018 16.975 32.9803 16.7252C32.9136 16.6734 32.8449 16.6236 32.7762 16.5749C32.7433 16.55 32.7095 16.5261 32.6766 16.5012L32.605 16.4474C32.595 16.4405 32.5861 16.4325 32.5761 16.4255C32.5333 16.3927 32.4945 16.3479 32.4875 16.2951C32.4765 16.2075 32.5253 16.1408 32.588 16.0871C32.6239 16.0552 32.6657 16.0273 32.7025 16.0034C32.8469 15.9099 32.9862 15.8083 33.1256 15.7068C33.2341 15.6272 33.3396 15.5445 33.4462 15.4599C33.5168 15.4042 33.5885 15.3464 33.6592 15.2907C33.7508 15.217 33.8434 15.1453 33.9359 15.0747C34.0235 15.009 34.1121 14.9442 34.2027 14.8845C34.2067 14.8815 34.2097 14.8785 34.2137 14.8765C34.2983 14.8128 34.3819 14.7491 34.4665 14.6854C34.4715 14.6814 34.4775 14.6775 34.4825 14.6735C34.6069 14.5799 34.7313 14.4873 34.8558 14.3937C35.1365 14.1827 35.4172 13.9726 35.697 13.7626C35.9946 13.5386 36.2923 13.3156 36.5889 13.0926C36.7004 13.009 36.8119 12.9254 36.9234 12.8418C37.017 12.7721 37.1056 12.6815 37.2121 12.6317C37.2569 12.6108 37.3087 12.6009 37.3574 12.6128C37.4102 12.6267 37.454 12.6676 37.4869 12.7114C37.5665 12.8169 37.6402 12.9284 37.7198 13.0349C37.8333 13.1852 37.9478 13.3365 38.0613 13.4868C38.2564 13.7477 38.4465 14.0145 38.6506 14.2693C38.8118 14.4704 38.9313 14.7312 39.1433 14.8865C39.3464 15.0368 39.5684 15.0089 39.8063 15.0149L40.55 15.0328C40.6615 15.0358 40.774 15.0388 40.8825 15.0149C41.0228 14.9831 41.1005 14.8955 41.213 14.8178C41.3016 14.7561 41.3912 14.6944 41.4798 14.6327C41.7167 14.4674 41.9536 14.3032 42.1905 14.1389C42.5718 13.8811 42.9411 13.6053 43.3254 13.3535C44.0133 12.9005 44.4991 12.2176 45.0237 11.5944C45.3502 11.2042 45.6787 10.8149 46.0063 10.4257C46.1795 10.2206 46.3338 9.99765 46.5309 9.81448C46.6872 9.66914 46.8713 9.57954 47.0575 9.479C47.395 9.29483 47.7324 9.11166 48.0699 8.92849C48.1625 8.87772 48.2551 8.82795 48.3477 8.77718C48.3477 8.77718 48.6204 8.66668 48.5039 8.34812C48.4044 8.01961 48.3058 7.69109 48.2073 7.36159C48.1844 7.28593 48.1665 7.21327 48.1296 7.14657C48.1237 7.13562 48.1167 7.12466 48.1097 7.11471C48.0978 7.09579 48.0839 7.07788 48.0669 7.06096C47.9883 6.98032 47.8967 6.91262 47.8011 6.8519L47.4487 6.61299C47.3711 6.56023 47.2944 6.50746 47.2168 6.45569C47.1531 6.41189 47.0784 6.35416 46.9948 6.37208C46.9231 6.38601 46.8564 6.45172 46.8066 6.50149C46.7141 6.60005 46.6215 6.6996 46.5289 6.79914C46.3965 6.9415 46.2402 7.06892 46.1287 7.23019C46.0381 7.3606 46.0232 7.51091 45.9804 7.65924C45.9435 7.78666 45.9057 7.91509 45.8689 8.04251C45.853 8.09726 45.839 8.153 45.8241 8.20975C45.8141 8.24957 45.8042 8.28939 45.7942 8.32921C45.7882 8.3541 45.7823 8.37799 45.7753 8.40188C45.7693 8.42577 45.7624 8.44966 45.7554 8.47355C45.7415 8.52432 45.7255 8.5741 45.7076 8.62188C45.6977 8.64976 45.6758 8.67166 45.6549 8.69157C45.6519 8.69356 45.6499 8.69654 45.6469 8.69854C45.631 8.71347 45.615 8.72741 45.5991 8.74035C45.5792 8.75628 45.5603 8.77121 45.5404 8.78514C45.4189 8.87275 45.2825 8.94044 45.1531 9.01411C44.97 9.11665 44.7868 9.21918 44.6036 9.32271C44.1228 9.59249 43.642 9.86326 43.1611 10.133C42.8595 10.3023 42.5579 10.4725 42.2562 10.6417L42.2413 10.6507C41.8849 10.8448 41.5186 11.03 41.1821 11.2569C41.1313 11.2918 41.0756 11.3236 41.0139 11.3326C40.9084 11.3485 40.8427 11.2868 40.8078 11.1932C40.7272 10.9742 40.6983 10.7423 40.6525 10.5143C40.5958 10.2236 40.4992 9.93493 40.3638 9.66814C40.2444 9.4342 40.0841 9.22814 39.9417 9.00913C39.8034 8.80704 39.6739 8.598 39.5405 8.39293C39.4719 8.2874 39.4022 8.18188 39.3335 8.07635C39.2797 7.99373 39.2081 7.90911 39.1732 7.81653C39.1443 7.74088 39.1473 7.65725 39.1643 7.57961C39.1842 7.49001 39.229 7.40639 39.2738 7.32675C39.3096 7.26104 39.3375 7.18439 39.4032 7.14258C39.4739 7.09679 39.5714 7.08882 39.653 7.08982C40.2892 7.09977 40.8506 7.24711 41.4698 7.00421C41.7456 6.8957 41.864 6.77028 41.9417 6.48855C42.0014 6.27054 42.0571 6.05252 42.1159 5.8355C42.1467 5.72301 42.1776 5.61152 42.2105 5.50002C42.2393 5.40147 42.2582 5.28101 42.3229 5.19938C42.3867 5.11875 42.4703 5.1088 42.5569 5.06898C42.6763 5.01323 42.6246 4.87784 42.6186 4.77331C42.5887 4.33131 42.4553 3.90624 42.3886 3.46922C42.301 2.89781 42.2403 2.31544 42.2652 1.73607C42.2652 1.73607 42.4046 1.09797 42.0233 0.838146C42.0213 0.838146 42.0193 0.835156 42.0173 0.83416C41.7983 0.675877 41.5594 0.539496 41.3255 0.400128C41.2916 0.380218 41.2588 0.36031 41.2249 0.340401C41.1951 0.322482 41.1652 0.30456 41.1353 0.287637C41.1075 0.270713 41.0786 0.254786 41.0507 0.238859C41.0169 0.218949 40.984 0.200028 40.9512 0.182109C40.8954 0.152244 40.8387 0.127367 40.773 0.117412C40.7112 0.117412 40.6495 0.120392 40.5868 0.123378C40.5828 0.123378 40.5788 0.123378 40.5749 0.123378C40.536 0.125369 40.4962 0.128363 40.4574 0.130354H40.4474C40.3788 0.13334 40.3101 0.12935 40.2414 0.122382L40.0851 0.10148V0.102477Z" fill="#2E3253"/>
</svg>
