<svg width="426" height="253" viewBox="0 0 426 253" fill="none" xmlns="http://www.w3.org/2000/svg">
<path d="M295.348 82.6109L264.11 84.19L260.477 206.056L291.715 204.477L295.348 82.6109Z" fill="#C2A587"/>
<path d="M292.745 82.6371L266.669 83.9738L263.081 206.03L289.156 204.693L292.745 82.6371Z" fill="#FFDDBA"/>
<path d="M266.767 90.4984C266.452 90.5191 266.18 90.8153 266.164 91.1552L265.119 113.442C265.103 113.782 265.348 114.044 265.663 114.022C265.979 114.001 266.25 113.706 266.266 113.366L267.311 91.0788C267.328 90.7382 267.083 90.4772 266.767 90.4984Z" fill="#856F59"/>
<path d="M269.987 90.4661C269.672 90.4875 269.401 90.783 269.384 91.1229L268.339 113.41C268.323 113.75 268.568 114.011 268.884 113.99C269.199 113.969 269.471 113.673 269.486 113.333L270.531 91.0465C270.547 90.7065 270.302 90.4447 269.987 90.4661Z" fill="#856F59"/>
<path d="M273.207 90.4339C272.892 90.4553 272.621 90.7509 272.605 91.0907L271.559 113.378C271.543 113.717 271.789 113.979 272.104 113.958C272.419 113.937 272.691 113.641 272.706 113.301L273.752 91.0143C273.767 90.6743 273.522 90.4133 273.207 90.4339Z" fill="#856F59"/>
<path d="M276.427 90.4022C276.111 90.4236 275.84 90.7189 275.824 91.0589L274.779 113.346C274.763 113.686 275.008 113.948 275.323 113.926C275.639 113.905 275.91 113.609 275.926 113.269L276.971 90.9825C276.988 90.642 276.743 90.381 276.427 90.4022Z" fill="#856F59"/>
<path d="M279.647 90.3699C279.332 90.3906 279.06 90.6867 279.045 91.0267L278 113.314C277.984 113.654 278.229 113.915 278.544 113.894C278.859 113.873 279.13 113.577 279.147 113.237L280.192 90.9503C280.207 90.6103 279.963 90.3486 279.647 90.3699Z" fill="#856F59"/>
<path d="M282.868 90.3377C282.552 90.3591 282.281 90.6544 282.265 90.9945L281.22 113.281C281.204 113.621 281.449 113.883 281.764 113.862C282.079 113.841 282.351 113.545 282.367 113.205L283.412 90.918C283.428 90.578 283.183 90.317 282.868 90.3377Z" fill="#856F59"/>
<path d="M286.087 90.306C285.772 90.3274 285.501 90.6229 285.485 90.9627L284.439 113.25C284.424 113.59 284.669 113.851 284.984 113.83C285.299 113.809 285.571 113.513 285.586 113.173L286.632 90.8863C286.648 90.5458 286.403 90.2848 286.087 90.306Z" fill="#856F59"/>
<path d="M289.307 90.2737C288.992 90.2944 288.721 90.5907 288.705 90.9305L287.659 113.217C287.644 113.557 287.889 113.819 288.204 113.798C288.519 113.777 288.791 113.481 288.806 113.141L289.852 90.8541C289.867 90.5141 289.623 90.2524 289.307 90.2737Z" fill="#856F59"/>
<path d="M267.057 119.687C266.742 119.709 266.471 120.004 266.455 120.344L265.41 142.631C265.394 142.971 265.639 143.233 265.954 143.211C266.269 143.19 266.541 142.895 266.557 142.555L267.602 120.268C267.618 119.927 267.373 119.666 267.057 119.687Z" fill="#C2A587"/>
<path d="M270.278 119.655C269.963 119.676 269.691 119.972 269.676 120.312L268.63 142.599C268.615 142.939 268.86 143.2 269.175 143.179C269.49 143.158 269.762 142.862 269.777 142.522L270.823 120.235C270.838 119.895 270.593 119.634 270.278 119.655Z" fill="#C2A587"/>
<path d="M273.498 119.623C273.182 119.644 272.911 119.939 272.895 120.279L271.85 142.566C271.834 142.906 272.079 143.167 272.394 143.147C272.71 143.125 272.981 142.83 272.997 142.49L274.042 120.203C274.058 119.863 273.813 119.602 273.498 119.623Z" fill="#C2A587"/>
<path d="M276.718 119.591C276.403 119.612 276.131 119.908 276.115 120.248L275.07 142.535C275.054 142.875 275.299 143.136 275.614 143.115C275.929 143.094 276.201 142.798 276.217 142.458L277.262 120.171C277.278 119.831 277.033 119.57 276.718 119.591Z" fill="#C2A587"/>
<path d="M279.938 119.559C279.623 119.58 279.351 119.876 279.335 120.216L278.29 142.503C278.275 142.843 278.52 143.104 278.835 143.083C279.15 143.062 279.422 142.766 279.437 142.426L280.482 120.139C280.498 119.799 280.253 119.538 279.938 119.559Z" fill="#C2A587"/>
<path d="M283.157 119.527C282.842 119.548 282.571 119.844 282.555 120.184L281.51 142.471C281.494 142.811 281.739 143.072 282.054 143.051C282.369 143.03 282.641 142.734 282.657 142.394L283.702 120.107C283.718 119.767 283.473 119.506 283.157 119.527Z" fill="#C2A587"/>
<path d="M286.377 119.495C286.062 119.516 285.79 119.812 285.775 120.152L284.73 142.439C284.713 142.778 284.959 143.04 285.274 143.019C285.589 142.998 285.861 142.702 285.877 142.362L286.922 120.075C286.938 119.735 286.693 119.474 286.377 119.495Z" fill="#C2A587"/>
<path d="M289.598 119.463C289.283 119.484 289.011 119.779 288.996 120.119L287.95 142.406C287.935 142.746 288.18 143.008 288.495 142.987C288.81 142.965 289.082 142.67 289.097 142.33L290.143 120.043C290.158 119.703 289.913 119.442 289.598 119.463Z" fill="#C2A587"/>
<path d="M267.348 148.876C267.033 148.898 266.761 149.193 266.746 149.533L265.7 171.82C265.684 172.16 265.929 172.422 266.245 172.4C266.56 172.379 266.832 172.083 266.847 171.743L267.893 149.457C267.908 149.117 267.663 148.855 267.348 148.876Z" fill="#856F59"/>
<path d="M270.568 148.844C270.252 148.865 269.981 149.16 269.965 149.5L268.92 171.787C268.904 172.127 269.149 172.389 269.464 172.368C269.78 172.347 270.051 172.051 270.067 171.711L271.112 149.424C271.128 149.084 270.884 148.822 270.568 148.844Z" fill="#856F59"/>
<path d="M273.788 148.812C273.473 148.833 273.201 149.129 273.185 149.469L272.14 171.756C272.125 172.096 272.369 172.358 272.685 172.336C273 172.315 273.272 172.019 273.287 171.679L274.332 149.393C274.348 149.052 274.103 148.791 273.788 148.812Z" fill="#856F59"/>
<path d="M277.008 148.78C276.693 148.801 276.421 149.097 276.406 149.437L275.36 171.724C275.345 172.064 275.59 172.325 275.905 172.304C276.22 172.283 276.492 171.987 276.507 171.647L277.553 149.36C277.569 149.02 277.323 148.759 277.008 148.78Z" fill="#856F59"/>
<path d="M280.228 148.747C279.913 148.769 279.641 149.064 279.625 149.404L278.58 171.691C278.565 172.031 278.809 172.293 279.125 172.272C279.44 172.25 279.712 171.955 279.727 171.615L280.772 149.328C280.789 148.988 280.544 148.727 280.228 148.747Z" fill="#856F59"/>
<path d="M283.448 148.716C283.133 148.737 282.861 149.033 282.846 149.373L281.8 171.66C281.785 172 282.03 172.261 282.345 172.24C282.66 172.219 282.932 171.923 282.947 171.583L283.993 149.296C284.008 148.956 283.763 148.695 283.448 148.716Z" fill="#856F59"/>
<path d="M286.669 148.684C286.354 148.704 286.082 149.001 286.066 149.34L285.021 171.627C285.005 171.967 285.25 172.229 285.565 172.208C285.881 172.186 286.152 171.891 286.168 171.551L287.213 149.264C287.229 148.924 286.984 148.662 286.669 148.684Z" fill="#856F59"/>
<path d="M289.888 148.651C289.573 148.673 289.302 148.968 289.285 149.308L288.24 171.595C288.225 171.935 288.47 172.196 288.785 172.175C289.1 172.155 289.372 171.859 289.387 171.519L290.432 149.232C290.449 148.892 290.204 148.631 289.888 148.651Z" fill="#856F59"/>
<path d="M267.638 178.065C267.323 178.085 267.052 178.382 267.035 178.722L265.99 201.008C265.974 201.348 266.219 201.61 266.535 201.589C266.85 201.567 267.121 201.272 267.137 200.932L268.182 178.645C268.199 178.305 267.954 178.044 267.638 178.065Z" fill="#C2A587"/>
<path d="M270.858 178.033C270.543 178.054 270.271 178.349 270.256 178.689L269.211 200.976C269.195 201.316 269.44 201.577 269.755 201.557C270.07 201.535 270.342 201.24 270.358 200.9L271.403 178.613C271.418 178.273 271.173 178.012 270.858 178.033Z" fill="#C2A587"/>
<path d="M274.078 178.001C273.763 178.022 273.492 178.318 273.476 178.658L272.43 200.945C272.414 201.285 272.66 201.546 272.975 201.525C273.29 201.504 273.561 201.208 273.577 200.868L274.623 178.581C274.639 178.241 274.394 177.98 274.078 178.001Z" fill="#C2A587"/>
<path d="M277.298 177.969C276.983 177.99 276.712 178.285 276.695 178.625L275.65 200.912C275.634 201.252 275.879 201.514 276.195 201.493C276.51 201.471 276.781 201.176 276.797 200.836L277.842 178.549C277.859 178.209 277.614 177.947 277.298 177.969Z" fill="#C2A587"/>
<path d="M280.519 177.936C280.203 177.957 279.932 178.253 279.916 178.593L278.871 200.88C278.855 201.22 279.1 201.482 279.415 201.46C279.731 201.439 280.002 201.144 280.018 200.804L281.063 178.517C281.079 178.177 280.834 177.916 280.519 177.936Z" fill="#C2A587"/>
<path d="M283.738 177.905C283.423 177.926 283.151 178.222 283.136 178.562L282.09 200.848C282.075 201.188 282.32 201.449 282.635 201.429C282.95 201.407 283.222 201.112 283.237 200.772L284.283 178.485C284.298 178.144 284.053 177.883 283.738 177.905Z" fill="#C2A587"/>
<path d="M286.958 177.872C286.643 177.894 286.372 178.189 286.356 178.529L285.311 200.816C285.295 201.156 285.54 201.418 285.855 201.396C286.17 201.375 286.442 201.08 286.458 200.74L287.503 178.453C287.519 178.113 287.274 177.852 286.958 177.872Z" fill="#C2A587"/>
<path d="M290.178 177.84C289.863 177.862 289.591 178.157 289.576 178.497L288.53 200.784C288.515 201.124 288.76 201.386 289.075 201.364C289.39 201.343 289.661 201.047 289.677 200.707L290.723 178.421C290.739 178.081 290.494 177.82 290.178 177.84Z" fill="#C2A587"/>
<path opacity="0.2" d="M260.505 101.94C262.906 98.6854 267.701 95.2025 277.294 94.7292C286.887 94.2556 291.484 97.2762 293.692 100.303L294.26 81.7243L261.074 83.3617L260.505 101.94Z" fill="#382F26"/>
<path d="M288.769 42.473L265.393 43.6314L260.143 50.5637L293.613 48.9042L288.769 42.473Z" fill="#856F59"/>
<g opacity="0.2">
<path d="M265.279 43.2172L260.143 50.0277L263.892 49.7862L267.898 43.0487L265.279 43.2172Z" fill="#382F26"/>
<path d="M288.859 42.9896L286.149 43.1635L289.673 49.6256L293.553 49.3764L288.859 42.9896Z" fill="#382F26"/>
</g>
<path d="M288.648 30.3697L265.426 31.4133L265.027 43.3112L288.25 42.2676L288.648 30.3697Z" fill="#C2A587"/>
<path d="M267.901 30.5773L265.57 30.7448L265.027 43.3112L267.357 43.1437L267.901 30.5773Z" fill="#856F59"/>
<path d="M288.649 30.3702L286.319 30.5377L285.776 43.1041L288.106 42.9366L288.649 30.3702Z" fill="#856F59"/>
<path d="M292.972 91.7527L260.051 93.3757C257.638 93.4945 255.744 91.5551 255.82 89.0444L256.868 54.7828C256.945 52.2716 258.963 50.1391 261.376 50.0204L294.298 48.3974C296.711 48.2786 298.605 50.2173 298.528 52.7287L297.481 86.9896C297.404 89.5017 295.386 91.6333 292.972 91.7527Z" fill="#FFDDBA"/>
<path d="M276.375 11.4993C276.137 11.511 275.947 11.3151 275.955 11.0637L276.24 1.63368C276.248 1.38237 276.45 1.16644 276.688 1.15401C276.927 1.14228 277.117 1.33824 277.11 1.58975L276.824 11.0198C276.816 11.2718 276.615 11.4878 276.375 11.4993Z" fill="#856F59"/>
<path d="M276.375 11.4993C276.137 11.511 275.947 11.3151 275.955 11.0637L276.24 1.63368C276.248 1.38237 276.45 1.16644 276.688 1.15401C276.927 1.14228 277.117 1.33824 277.11 1.58975L276.824 11.0198C276.816 11.2718 276.615 11.4878 276.375 11.4993Z" fill="#382F26"/>
<path d="M265.025 31.3171L277.246 5.13101L287.901 30.1881L265.025 31.3171Z" fill="#856F59"/>
<g opacity="0.2">
<path d="M267.45 30.609L276.521 5.06714L265.025 30.7759L267.45 30.609Z" fill="#382F26"/>
<path d="M277.476 5.23193L284.95 30.517L287.605 30.3434L277.476 5.23193Z" fill="#382F26"/>
</g>
<path d="M275.27 89.8363C284.983 90.1385 293.711 81.9006 294.764 71.4363C295.818 60.9721 288.798 52.2442 279.085 51.942C269.372 51.6398 260.644 59.8778 259.59 70.342C258.537 80.8062 265.557 89.5341 275.27 89.8363Z" fill="#C2A587"/>
<path d="M270.126 50.9401L261.935 51.4773C259.774 51.6191 257.934 53.5946 257.825 55.8902L257.41 64.5916C259.68 58.4617 264.378 53.4167 270.126 50.9401Z" fill="#E0C6A8"/>
<path d="M296.065 63.8384L296.491 54.9124C296.603 52.5573 294.893 50.7664 292.67 50.9118L284.245 51.463C289.951 53.2445 294.319 57.8173 296.065 63.8384Z" fill="#E0C6A8"/>
<path d="M284.221 90.8331L292.413 90.2961C294.574 90.1543 296.414 88.1788 296.524 85.8832L296.938 77.1825C294.669 83.3116 289.969 88.3565 284.221 90.8331Z" fill="#E0C6A8"/>
<path d="M258.284 77.9341L257.857 86.8602C257.745 89.2153 259.456 91.0062 261.678 90.8606L270.103 90.3096C264.397 88.5288 260.029 83.956 258.284 77.9341Z" fill="#E0C6A8"/>
<path d="M292.933 70.1097C292.656 79.1672 285.376 86.8567 276.672 87.2856C267.969 87.7145 261.139 80.7202 261.416 71.6627C261.693 62.6059 268.973 54.9157 277.676 54.4868C286.38 54.0578 293.21 61.0522 292.933 70.1097Z" fill="#856F59"/>
<path d="M288.867 79.0875C293.864 72.1634 292.681 62.8773 286.223 58.3463C279.765 53.8154 270.479 55.7554 265.482 62.6795C260.484 69.6036 261.668 78.8897 268.126 83.4207C274.584 87.9516 283.87 86.0116 288.867 79.0875Z" fill="white"/>
<path d="M277.065 71.0144C276.75 71.3482 276.251 71.372 275.955 71.0685L267.541 62.4259C267.244 62.1214 267.261 61.5996 267.576 61.2658C267.892 60.9321 268.391 60.9075 268.687 61.2118L277.1 69.855C277.397 70.1582 277.381 70.6807 277.065 71.0144Z" fill="#856F59"/>
<path d="M277.012 71.1327L276.947 70.9432C276.791 70.4825 277.035 69.9417 277.491 69.7413L284.926 66.4744C285.382 66.2742 285.883 66.4872 286.04 66.9472L286.105 67.1367C286.262 67.5968 286.017 68.1382 285.561 68.3386L278.127 71.6055C277.671 71.8059 277.169 71.5928 277.012 71.1327Z" fill="#856F59"/>
<path d="M279.085 70.7925C279.052 71.8894 278.17 72.8206 277.115 72.8719C276.06 72.9239 275.232 72.0763 275.266 70.9796C275.299 69.8827 276.181 68.9515 277.236 68.9002C278.291 68.8482 279.118 69.6956 279.085 70.7925Z" fill="#C2A587"/>
<path d="M278.525 70.8198C278.501 71.5951 277.878 72.2534 277.133 72.2904C276.387 72.3274 275.802 71.7281 275.825 70.9526C275.849 70.1774 276.472 69.519 277.217 69.4821C277.963 69.4451 278.549 70.0445 278.525 70.8198Z" fill="#856F59"/>
<path d="M277.099 57.6051C276.909 57.617 276.747 57.7912 276.738 57.9925L276.68 59.324C276.671 59.5253 276.819 59.6798 277.009 59.668C277.198 59.6562 277.36 59.4819 277.369 59.2806L277.428 57.9492C277.436 57.7477 277.288 57.5931 277.099 57.6051Z" fill="#856F59"/>
<path d="M277.342 82.1268C277.153 82.1387 276.991 82.313 276.982 82.5143L276.924 83.8457C276.915 84.047 277.063 84.2016 277.252 84.1897C277.442 84.1779 277.604 84.0036 277.613 83.8023L277.671 82.4709C277.68 82.2703 277.532 82.115 277.342 82.1268Z" fill="#856F59"/>
<path d="M286.484 61.3648C286.355 61.2306 286.135 61.2445 285.993 61.3962L285.057 62.3991C284.916 62.5508 284.905 62.7842 285.034 62.9184C285.162 63.0525 285.383 63.0387 285.524 62.887L286.46 61.884C286.601 61.7323 286.612 61.499 286.484 61.3648Z" fill="#856F59"/>
<path d="M269.317 78.8769C269.188 78.7427 268.968 78.7566 268.826 78.9082L267.89 79.9112C267.749 80.0629 267.738 80.2963 267.867 80.4305C267.995 80.5646 268.216 80.5508 268.357 80.3991L269.293 79.3961C269.434 79.2451 269.445 79.011 269.317 78.8769Z" fill="#856F59"/>
<path d="M290.445 70.712C290.454 70.5036 290.301 70.3436 290.104 70.356L288.801 70.4377C288.604 70.4501 288.436 70.6306 288.426 70.8391C288.417 71.0475 288.57 71.2075 288.767 71.1952L290.071 71.1134C290.267 71.1008 290.436 70.9205 290.445 70.712Z" fill="#856F59"/>
<path d="M265.924 70.9563C265.933 70.7479 265.779 70.5879 265.582 70.6002L264.279 70.682C264.082 70.6944 263.914 70.8749 263.905 71.0833C263.895 71.2918 264.049 71.4517 264.246 71.4394L265.549 71.3576C265.745 71.3451 265.914 71.1645 265.924 70.9563Z" fill="#856F59"/>
<path d="M286.606 80.1855C286.752 80.03 286.763 79.7909 286.631 79.6535L285.759 78.7432C285.627 78.6058 285.401 78.6201 285.256 78.7756C285.111 78.931 285.1 79.1702 285.231 79.3076L286.103 80.2179C286.235 80.356 286.461 80.341 286.606 80.1855Z" fill="#856F59"/>
<path d="M269.094 63.0185C269.239 62.863 269.251 62.6239 269.119 62.4865L268.247 61.5762C268.115 61.4388 267.889 61.4531 267.744 61.6086C267.599 61.764 267.587 62.0032 267.719 62.1413L268.591 63.0516C268.722 63.1888 268.949 63.1739 269.094 63.0185Z" fill="#856F59"/>
<path d="M295.66 114.649L259.709 115.888L259.608 118.201L295.559 116.961L295.66 114.649Z" fill="#856F59"/>
<path d="M291.866 114.687L263.503 115.72L263.402 118.163L291.765 117.129L291.866 114.687Z" fill="#C2A587"/>
<path d="M295.955 144.144L260.003 145.383L259.902 147.695L295.854 146.456L295.955 144.144Z" fill="#856F59"/>
<path d="M292.16 144.182L263.797 145.215L263.696 147.658L292.059 146.625L292.16 144.182Z" fill="#C2A587"/>
<path d="M296.247 173.331L260.295 174.57L260.194 176.883L296.146 175.644L296.247 173.331Z" fill="#856F59"/>
<path d="M292.453 173.369L264.09 174.402L263.989 176.845L292.352 175.812L292.453 173.369Z" fill="#C2A587"/>
<path d="M296.538 202.519L260.587 203.758L260.486 206.071L296.437 204.831L296.538 202.519Z" fill="#856F59"/>
<path d="M292.743 202.557L264.381 203.59L264.28 206.033L292.642 205L292.743 202.557Z" fill="#C2A587"/>
<path d="M390.749 21.2448C386.016 17.9762 380.523 15.3908 374.454 13.7667C368.386 12.1426 362.336 11.6389 356.602 12.1058L350.728 34.0534L384.875 43.1931L390.749 21.2448Z" fill="#DBD8D0"/>
<path d="M388.246 20.5741C384.279 17.5108 379.633 15.1519 374.455 13.766C369.275 12.38 364.073 12.1027 359.106 12.7749L353.232 34.7225L382.372 42.5217L388.246 20.5741Z" fill="#F0ECE4"/>
<path d="M380.89 17.7772C379.242 15.3344 376.946 14.4326 374.455 13.7659C371.965 13.0992 369.524 12.7333 366.876 14.026L360.795 36.7469L374.809 40.498L380.89 17.7772Z" fill="#F7F5F0"/>
<path d="M390.247 23.1219C390.054 23.0702 389.865 22.984 389.69 22.8634C384.969 19.6034 379.675 17.174 373.952 15.6431C368.231 14.1115 362.431 13.5717 356.712 14.037C355.68 14.1209 354.795 13.3241 354.734 12.2578C354.674 11.1908 355.46 10.2584 356.493 10.1738C362.624 9.67477 368.837 10.2514 374.957 11.8896C381.077 13.5278 386.748 16.1304 391.809 19.6262C392.662 20.2145 392.877 21.4156 392.292 22.3095C391.827 23.0193 390.996 23.3225 390.247 23.1219Z" fill="#CFCBC4"/>
<path d="M390.887 20.7301C390.694 20.6784 390.505 20.5922 390.33 20.4715C385.609 17.2116 380.314 14.7821 374.592 13.2513C368.871 11.7204 363.071 11.1798 357.352 11.6452C356.554 11.7102 355.849 11.2456 355.54 10.5405C355.022 10.9236 354.694 11.559 354.734 12.2579C354.795 13.3241 355.68 14.1209 356.712 14.0371C362.431 13.5717 368.231 14.1115 373.952 15.6431C379.674 17.1748 384.969 19.6035 389.69 22.8634C389.866 22.9841 390.054 23.0702 390.247 23.122C390.996 23.3225 391.827 23.0201 392.292 22.3103C392.675 21.7251 392.71 21.0113 392.452 20.4214C391.998 20.7559 391.422 20.8735 390.887 20.7301Z" fill="#ABA7A1"/>
<path d="M362.636 28.9022L364.768 20.9384C365.314 18.8952 364.115 16.7822 362.101 16.2432C360.087 15.7042 357.992 16.935 357.445 18.979L354.985 28.1696C357.535 28.2637 360.088 28.5097 362.636 28.9022Z" fill="#6E6A67"/>
<path d="M384.292 36.0583L386.763 26.8254C387.31 24.7821 386.109 22.6692 384.096 22.1301C382.082 21.5911 379.988 22.8219 379.441 24.866L377.304 32.8485C379.706 33.7879 382.038 34.8596 384.292 36.0583Z" fill="#6E6A67"/>
<path d="M383.283 35.5201L385.688 26.5371C386.074 25.094 385.226 23.6015 383.804 23.2207C382.382 22.84 380.902 23.7096 380.516 25.1527L378.348 33.2536C380.03 33.9454 381.676 34.7006 383.283 35.5201Z" fill="#8A8682"/>
<path d="M369.993 30.4354C371.221 30.7637 372.427 31.1358 373.624 31.5268L376.036 22.5171C376.583 20.4738 375.382 18.3609 373.369 17.8219C371.355 17.2828 369.261 18.5136 368.714 20.5577L366.302 29.5673C367.535 29.8259 368.765 30.1071 369.993 30.4354Z" fill="#6E6A67"/>
<path d="M369.993 30.4355C370.858 30.6674 371.715 30.9181 372.565 31.1813L374.96 22.2296C375.347 20.7865 374.499 19.2941 373.077 18.9133C371.655 18.5325 370.175 19.4022 369.789 20.8453L367.393 29.797C368.261 29.9944 369.128 30.2044 369.993 30.4355Z" fill="#8A8682"/>
<path d="M361.531 28.7276L363.692 20.651C364.078 19.2079 363.231 17.7154 361.809 17.3346C360.387 16.9539 358.907 17.8235 358.521 19.2666L356.125 28.2152C357.927 28.3139 359.73 28.4808 361.531 28.7276Z" fill="#8A8682"/>
<path d="M388.689 44.6629C382.867 40.643 376.112 37.4622 368.646 35.4644C361.181 33.4666 353.74 32.8477 346.688 33.4219L339.463 60.4165L381.464 71.6575L388.689 44.6629Z" fill="#DBD8D0"/>
<path d="M385.609 43.8387C380.731 40.0711 375.016 37.1692 368.646 35.4644C362.276 33.7596 355.876 33.4188 349.768 34.2461L342.543 61.2415L378.384 70.8341L385.609 43.8387Z" fill="#F0ECE4"/>
<path d="M376.562 40.3978C374.535 37.3932 371.71 36.2839 368.646 35.4644C365.583 34.6441 362.581 34.1944 359.324 35.784L351.845 63.7297L369.082 68.3435L376.562 40.3978Z" fill="#F7F5F0"/>
<path d="M388.072 46.9717C387.834 46.9075 387.602 46.8025 387.386 46.6536C381.579 42.6447 375.066 39.6558 368.03 37.7724C360.993 35.889 353.858 35.2246 346.824 35.7974C345.555 35.9 344.466 34.9207 344.391 33.6084C344.317 32.2961 345.285 31.1484 346.554 31.0457C354.096 30.4315 361.737 31.1413 369.264 33.1563C376.792 35.1714 383.767 38.3733 389.993 42.6721C391.041 43.396 391.307 44.8736 390.587 45.9728C390.015 46.8464 388.992 47.2185 388.072 46.9717Z" fill="#CFCBC4"/>
<path d="M388.858 44.0306C388.62 43.9671 388.388 43.8614 388.173 43.7125C382.366 39.7028 375.853 36.7147 368.815 34.8313C361.778 32.9479 354.643 32.2835 347.61 32.8562C346.628 32.9361 345.761 32.365 345.381 31.4969C344.744 31.9678 344.341 32.7497 344.39 33.6091C344.464 34.9206 345.552 35.9007 346.822 35.7981C353.856 35.2254 360.991 35.8898 368.028 37.7732C375.066 39.6566 381.579 42.6447 387.385 46.6544C387.6 46.8032 387.832 46.9082 388.07 46.9725C388.992 47.2192 390.013 46.8471 390.585 45.9735C391.056 45.2543 391.098 44.3761 390.782 43.6498C390.224 44.0619 389.516 44.2061 388.858 44.0306Z" fill="#ABA7A1"/>
<path d="M352.255 52.3188L354.897 42.4465C355.42 40.4903 354.311 38.4784 352.432 37.9754C350.552 37.4724 348.587 38.6609 348.063 40.6172L345 52.0587C347.415 52.0164 349.835 52.0932 352.255 52.3188Z" fill="#6E6A67"/>
<path d="M351.199 52.2427L353.893 42.1777C354.263 40.7965 353.479 39.3753 352.152 39.0196C350.825 38.6647 349.437 39.5038 349.067 40.8858L346.081 52.0421C347.785 52.0406 349.492 52.1111 351.199 52.2427Z" fill="#8A8682"/>
<path d="M362.164 54.0079L365.095 43.056C365.618 41.0998 364.509 39.0879 362.629 38.5849C360.75 38.0819 358.784 39.2704 358.261 41.2267L355.201 52.6612C357.528 52.9824 359.85 53.4399 362.164 54.0079Z" fill="#6E6A67"/>
<path d="M361.154 53.7603L364.091 42.7873C364.461 41.4061 363.678 39.9849 362.35 39.63C361.023 39.2751 359.635 40.1142 359.264 41.4962L356.232 52.8249C357.876 53.0771 359.517 53.3842 361.154 53.7603Z" fill="#8A8682"/>
<path d="M371.704 57.0782L374.764 45.6438C375.288 43.6875 374.178 41.6756 372.3 41.1726C370.42 40.6696 368.455 41.8581 367.93 43.8144L365 54.7663C367.287 55.4306 369.528 56.1945 371.704 57.0782Z" fill="#6E6A67"/>
<path d="M370.728 56.7037L373.76 45.375C374.13 43.9938 373.347 42.5726 372.019 42.2177C370.692 41.862 369.304 42.7019 368.934 44.0839L365.997 55.0569C367.603 55.5481 369.179 56.102 370.728 56.7037Z" fill="#8A8682"/>
<path d="M380.842 61.652L383.904 50.2105C384.427 48.2542 383.318 46.2423 381.439 45.7393C379.559 45.2364 377.593 46.4256 377.07 48.3811L374.428 58.2526C376.637 59.2664 378.772 60.4087 380.842 61.652Z" fill="#6E6A67"/>
<path d="M379.914 61.0973L382.9 49.9418C383.27 48.5605 382.486 47.1394 381.159 46.7837C379.832 46.4288 378.443 47.2678 378.073 48.6499L375.379 58.7141C376.924 59.4529 378.439 60.2441 379.914 61.0973Z" fill="#8A8682"/>
<path d="M382.332 68.4148C376.51 64.3949 369.755 61.2141 362.289 59.2163C354.824 57.2185 347.383 56.5996 340.331 57.1739L333.106 84.1692L375.107 95.4102L382.332 68.4148Z" fill="#DBD8D0"/>
<path d="M379.252 67.5907C374.374 63.823 368.659 60.9211 362.289 59.2163C355.919 57.5116 349.519 57.1708 343.411 57.9981L336.186 84.9927L372.027 94.5852L379.252 67.5907Z" fill="#F0ECE4"/>
<path d="M370.205 64.1505C368.179 61.146 365.353 60.0374 362.289 59.2172C359.226 58.3969 356.225 57.9472 352.968 59.5376L345.488 87.4833L362.726 92.097L370.205 64.1505Z" fill="#F7F5F0"/>
<path d="M381.714 70.7245C381.476 70.661 381.244 70.5552 381.029 70.4064C375.222 66.3967 368.709 63.4086 361.671 61.5252C354.634 59.6418 347.499 58.9774 340.465 59.5501C339.196 59.6527 338.107 58.6734 338.033 57.3611C337.958 56.0489 338.927 54.9019 340.196 54.7985C347.737 54.1843 355.378 54.8941 362.907 56.9091C370.435 58.9241 377.409 62.1253 383.635 66.4249C384.683 67.1488 384.949 68.6264 384.229 69.7256C383.657 70.5983 382.635 70.9705 381.714 70.7245Z" fill="#CFCBC4"/>
<path d="M382.501 67.7825C382.263 67.7191 382.031 67.6133 381.816 67.4645C376.009 63.4555 369.496 60.4675 362.458 58.5833C355.421 56.6998 348.287 56.0355 341.253 56.6082C340.271 56.6881 339.404 56.117 339.024 55.2489C338.387 55.7198 337.984 56.5016 338.033 57.3611C338.107 58.6726 339.195 59.6527 340.465 59.55C347.499 58.9773 354.634 59.6417 361.671 61.5251C368.709 63.4085 375.222 66.3966 381.029 70.4063C381.244 70.5552 381.476 70.6609 381.714 70.7244C382.635 70.9712 383.657 70.599 384.229 69.7255C384.7 69.0063 384.742 68.128 384.426 67.4018C383.866 67.8139 383.16 67.9588 382.501 67.7825Z" fill="#ABA7A1"/>
<path d="M345.898 76.0707L348.54 66.1992C349.063 64.243 347.954 62.2311 346.074 61.7281C344.195 61.2251 342.229 62.4136 341.706 64.3699L338.643 75.8114C341.058 75.7691 343.478 75.8459 345.898 76.0707Z" fill="#6E6A67"/>
<path d="M344.842 75.9955L347.536 65.9305C347.905 64.5493 347.122 63.1281 345.795 62.7732C344.468 62.4183 343.079 63.2574 342.709 64.6394L339.723 75.7957C341.428 75.7926 343.135 75.8639 344.842 75.9955Z" fill="#8A8682"/>
<path d="M355.807 77.7606L358.738 66.8087C359.262 64.8525 358.152 62.8406 356.273 62.3376C354.393 61.8346 352.428 63.0231 351.904 64.9794L348.844 76.4138C351.17 76.735 353.493 77.1926 355.807 77.7606Z" fill="#6E6A67"/>
<path d="M354.798 77.5122L357.735 66.5392C358.105 65.158 357.321 63.7368 355.994 63.3811C354.667 63.0262 353.279 63.8653 352.909 65.2473L349.877 76.576C351.519 76.8299 353.16 77.1362 354.798 77.5122Z" fill="#8A8682"/>
<path d="M365.347 80.8302L368.407 69.3957C368.93 67.4394 367.821 65.4275 365.942 64.9246C364.063 64.4216 362.097 65.6101 361.573 67.5663L358.642 78.5182C360.931 79.1834 363.171 79.9464 365.347 80.8302Z" fill="#6E6A67"/>
<path d="M364.371 80.4565L367.403 69.1278C367.773 67.7466 366.99 66.3254 365.663 65.9697C364.335 65.6148 362.947 66.4539 362.577 67.8359L359.64 78.8089C361.246 79.3009 362.822 79.854 364.371 80.4565Z" fill="#8A8682"/>
<path d="M374.485 85.404L377.548 73.9625C378.071 72.0062 376.962 69.9943 375.083 69.4913C373.203 68.9884 371.238 70.1776 370.714 72.1331L368.072 82.0046C370.28 83.0192 372.414 84.1615 374.485 85.404Z" fill="#6E6A67"/>
<path d="M373.557 84.8501L376.543 73.6946C376.913 72.3134 376.129 70.8922 374.802 70.5365C373.475 70.1808 372.087 71.0207 371.717 72.4027L369.023 82.4669C370.568 83.2057 372.081 83.997 373.557 84.8501Z" fill="#8A8682"/>
<path d="M376.049 91.8893C370.226 87.8694 363.471 84.6886 356.006 82.6908C348.541 80.693 341.1 80.0741 334.048 80.6484L326.823 107.643L368.824 118.884L376.049 91.8893Z" fill="#DBD8D0"/>
<path d="M372.97 91.0651C368.092 87.2975 362.377 84.3956 356.007 82.6908C349.637 80.986 343.237 80.6453 337.129 81.4726L329.904 108.468L365.745 118.061L372.97 91.0651Z" fill="#F0ECE4"/>
<path d="M363.922 87.6242C361.895 84.6197 359.07 83.5103 356.006 82.6908C352.943 81.8706 349.941 81.4209 346.685 83.0105L339.205 110.956L356.443 115.57L363.922 87.6242Z" fill="#F7F5F0"/>
<path d="M375.431 94.1982C375.193 94.1347 374.961 94.0289 374.746 93.8801C368.939 89.8704 362.426 86.8823 355.388 84.9989C348.351 83.1155 341.217 82.4511 334.183 83.0238C332.914 83.1264 331.825 82.1471 331.75 80.8349C331.676 79.5226 332.644 78.3756 333.913 78.2722C341.455 77.658 349.096 78.3678 356.623 80.382C364.151 82.3971 371.126 85.5982 377.352 89.8978C378.4 90.6217 378.665 92.0993 377.945 93.1985C377.374 94.0728 376.353 94.445 375.431 94.1982Z" fill="#CFCBC4"/>
<path d="M376.219 91.257C375.981 91.1936 375.749 91.0878 375.534 90.9389C369.727 86.9292 363.214 83.9412 356.176 82.0578C349.139 80.1743 342.004 79.51 334.971 80.0827C333.989 80.1626 333.122 79.5915 332.742 78.7234C332.105 79.1942 331.702 79.9761 331.751 80.8356C331.825 82.1471 332.913 83.1272 334.183 83.0245C341.217 82.4518 348.352 83.1162 355.389 84.9996C362.427 86.883 368.939 89.8711 374.746 93.8808C374.962 94.0297 375.194 94.1346 375.432 94.1989C376.353 94.4457 377.375 94.0735 377.947 93.2C378.418 92.4808 378.46 91.6025 378.143 90.8763C377.584 91.2884 376.877 91.4333 376.219 91.257Z" fill="#ABA7A1"/>
<path d="M339.615 99.5452L342.256 89.6729C342.78 87.7167 341.67 85.7048 339.791 85.2018C337.911 84.6988 335.946 85.8873 335.422 87.8436L332.36 99.2851C334.775 99.2428 337.195 99.3196 339.615 99.5452Z" fill="#6E6A67"/>
<path d="M338.559 99.4692L341.253 89.4042C341.622 88.023 340.839 86.6018 339.512 86.2461C338.185 85.8912 336.796 86.7303 336.427 88.1123L333.441 99.2686C335.146 99.2671 336.852 99.3376 338.559 99.4692Z" fill="#8A8682"/>
<path d="M349.524 101.234L352.455 90.2825C352.979 88.3262 351.869 86.3143 349.99 85.8113C348.11 85.3084 346.145 86.4977 345.621 88.4531L342.561 99.8876C344.888 100.209 347.21 100.666 349.524 101.234Z" fill="#6E6A67"/>
<path d="M348.515 100.987L351.453 90.0138C351.822 88.6325 351.039 87.2114 349.712 86.8557C348.385 86.5008 346.996 87.3399 346.626 88.7219L343.594 100.051C345.237 100.304 346.878 100.611 348.515 100.987Z" fill="#8A8682"/>
<path d="M359.064 104.305L362.124 92.8702C362.648 90.9139 361.538 88.902 359.659 88.3991C357.779 87.8961 355.814 89.0854 355.29 91.0408L352.359 101.993C354.648 102.657 356.888 103.421 359.064 104.305Z" fill="#6E6A67"/>
<path d="M358.089 103.93L361.121 92.6015C361.49 91.2203 360.707 89.7991 359.38 89.4442C358.053 89.0893 356.664 89.9284 356.295 91.3104L353.357 102.283C354.963 102.775 356.538 103.328 358.089 103.93Z" fill="#8A8682"/>
<path d="M368.201 108.879L371.264 97.437C371.787 95.4808 370.678 93.4689 368.798 92.9659C366.919 92.4629 364.953 93.6514 364.43 95.6077L361.788 105.479C363.997 106.493 366.132 107.635 368.201 108.879Z" fill="#6E6A67"/>
<path d="M367.275 108.324L370.261 97.1683C370.631 95.7871 369.847 94.3659 368.52 94.011C367.193 93.6553 365.804 94.4952 365.435 95.8772L362.741 105.942C364.285 106.68 365.799 107.471 367.275 108.324Z" fill="#8A8682"/>
<path d="M369.681 115.684C363.859 111.664 357.103 108.483 349.638 106.485C342.174 104.487 334.732 103.868 327.681 104.443L320.456 131.437L362.456 142.678L369.681 115.684Z" fill="#DBD8D0"/>
<path d="M366.601 114.859C361.723 111.092 356.008 108.19 349.638 106.485C343.268 104.78 336.868 104.439 330.76 105.267L323.535 132.262L359.376 141.855L366.601 114.859Z" fill="#F0ECE4"/>
<path d="M357.554 111.419C355.527 108.415 352.702 107.305 349.638 106.486C346.575 105.666 343.573 105.216 340.317 106.806L332.837 134.752L350.074 139.366L357.554 111.419Z" fill="#F7F5F0"/>
<path d="M369.063 117.993C368.825 117.93 368.593 117.824 368.377 117.675C362.57 113.665 356.057 110.677 349.02 108.794C341.983 106.91 334.848 106.246 327.814 106.819C326.545 106.921 325.456 105.942 325.381 104.63C325.307 103.318 326.275 102.17 327.545 102.067C335.086 101.453 342.727 102.163 350.255 104.178C357.783 106.193 364.758 109.394 370.984 113.694C372.032 114.417 372.298 115.895 371.578 116.994C371.006 117.867 369.984 118.239 369.063 117.993Z" fill="#CFCBC4"/>
<path d="M369.851 115.051C369.612 114.988 369.38 114.882 369.165 114.733C363.358 110.723 356.845 107.735 349.808 105.852C342.771 103.969 335.636 103.304 328.602 103.877C327.62 103.957 326.753 103.386 326.373 102.518C325.736 102.988 325.333 103.77 325.382 104.63C325.456 105.941 326.545 106.921 327.814 106.819C334.848 106.246 341.983 106.91 349.02 108.794C356.058 110.677 362.571 113.665 368.378 117.675C368.593 117.824 368.825 117.93 369.063 117.993C369.985 118.24 371.006 117.868 371.578 116.994C372.049 116.275 372.091 115.397 371.775 114.67C371.215 115.083 370.509 115.227 369.851 115.051Z" fill="#ABA7A1"/>
<path d="M333.246 123.339L335.888 113.468C336.412 111.512 335.302 109.5 333.424 108.997C331.544 108.494 329.578 109.682 329.054 111.639L325.992 123.08C328.406 123.038 330.826 123.115 333.246 123.339Z" fill="#6E6A67"/>
<path d="M332.191 123.263L334.885 113.198C335.254 111.817 334.471 110.396 333.144 110.041C331.817 109.685 330.428 110.525 330.058 111.907L327.073 123.064C328.777 123.061 330.483 123.132 332.191 123.263Z" fill="#8A8682"/>
<path d="M343.156 125.029L346.087 114.077C346.611 112.121 345.501 110.109 343.622 109.606C341.742 109.103 339.777 110.293 339.253 112.248L336.192 123.683C338.519 124.004 340.842 124.461 343.156 125.029Z" fill="#6E6A67"/>
<path d="M342.146 124.781L345.084 113.808C345.453 112.427 344.67 111.006 343.343 110.651C342.016 110.295 340.627 111.135 340.258 112.517L337.226 123.846C338.868 124.099 340.509 124.405 342.146 124.781Z" fill="#8A8682"/>
<path d="M352.695 128.099L355.755 116.664C356.279 114.708 355.169 112.696 353.29 112.193C351.41 111.69 349.445 112.88 348.921 114.835L345.99 125.787C348.279 126.452 350.52 127.215 352.695 128.099Z" fill="#6E6A67"/>
<path d="M351.72 127.725L354.752 116.396C355.122 115.015 354.338 113.594 353.011 113.238C351.684 112.883 350.295 113.723 349.926 115.105L346.989 126.078C348.595 126.57 350.17 127.123 351.72 127.725Z" fill="#8A8682"/>
<path d="M361.834 132.673L364.896 121.231C365.419 119.275 364.31 117.263 362.431 116.76C360.551 116.257 358.585 117.446 358.061 119.402L355.419 129.273C357.629 130.288 359.764 131.43 361.834 132.673Z" fill="#6E6A67"/>
<path d="M360.906 132.119L363.892 120.963C364.262 119.582 363.478 118.161 362.151 117.806C360.824 117.451 359.436 118.29 359.066 119.672L356.373 129.737C357.917 130.474 359.43 131.266 360.906 132.119Z" fill="#8A8682"/>
<path d="M363.398 139.158C357.575 135.138 350.819 131.957 343.355 129.959C335.89 127.962 328.449 127.342 321.397 127.917L314.172 154.912L356.173 166.153L363.398 139.158Z" fill="#DBD8D0"/>
<path d="M360.319 138.334C355.44 134.566 349.726 131.664 343.355 129.96C336.985 128.255 330.585 127.914 324.477 128.741L317.252 155.737L353.094 165.329L360.319 138.334Z" fill="#F0ECE4"/>
<path d="M351.271 134.893C349.244 131.888 346.419 130.779 343.355 129.96C340.291 129.139 337.29 128.69 334.033 130.28L326.554 158.226L343.791 162.839L351.271 134.893Z" fill="#F7F5F0"/>
<path d="M362.78 141.467C362.542 141.403 362.31 141.298 362.095 141.149C356.288 137.139 349.775 134.151 342.737 132.268C335.7 130.384 328.565 129.72 321.531 130.292C320.262 130.395 319.173 129.416 319.099 128.104C319.024 126.791 319.993 125.644 321.262 125.541C328.803 124.927 336.444 125.636 343.972 127.651C351.5 129.666 358.474 132.868 364.7 137.167C365.749 137.891 366.014 139.369 365.294 140.468C364.723 141.341 363.701 141.714 362.78 141.467Z" fill="#CFCBC4"/>
<path d="M363.568 138.525C363.33 138.462 363.098 138.356 362.882 138.207C357.075 134.197 350.563 131.209 343.525 129.326C336.488 127.442 329.353 126.778 322.319 127.351C321.338 127.431 320.47 126.859 320.09 125.991C319.453 126.462 319.051 127.244 319.099 128.104C319.174 129.415 320.262 130.395 321.532 130.292C328.566 129.72 335.7 130.384 342.737 132.268C349.775 134.151 356.288 137.139 362.095 141.149C362.31 141.298 362.542 141.403 362.78 141.467C363.702 141.714 364.723 141.341 365.295 140.468C365.766 139.749 365.808 138.87 365.493 138.144C364.933 138.557 364.226 138.701 363.568 138.525Z" fill="#ABA7A1"/>
<path d="M326.963 146.814L329.605 136.942C330.128 134.985 329.019 132.973 327.139 132.47C325.26 131.967 323.294 133.156 322.771 135.112L319.708 146.554C322.123 146.511 324.543 146.588 326.963 146.814Z" fill="#6E6A67"/>
<path d="M325.907 146.738L328.601 136.673C328.971 135.292 328.187 133.871 326.86 133.516C325.533 133.161 324.145 134 323.775 135.382L320.789 146.538C322.493 146.536 324.2 146.606 325.907 146.738Z" fill="#8A8682"/>
<path d="M336.872 148.503L339.803 137.551C340.327 135.595 339.217 133.583 337.339 133.08C335.459 132.577 333.493 133.766 332.969 135.722L329.909 147.156C332.236 147.478 334.558 147.935 336.872 148.503Z" fill="#6E6A67"/>
<path d="M335.863 148.255L338.8 137.282C339.17 135.901 338.387 134.48 337.06 134.125C335.732 133.77 334.344 134.609 333.974 135.991L330.942 147.32C332.584 147.572 334.226 147.879 335.863 148.255Z" fill="#8A8682"/>
<path d="M346.413 151.573L349.473 140.139C349.996 138.183 348.887 136.171 347.008 135.668C345.129 135.165 343.163 136.354 342.639 138.31L339.708 149.261C341.996 149.926 344.236 150.69 346.413 151.573Z" fill="#6E6A67"/>
<path d="M345.437 151.199L348.469 139.87C348.839 138.489 348.056 137.068 346.728 136.712C345.401 136.357 344.013 137.196 343.643 138.578L340.706 149.55C342.312 150.043 343.887 150.597 345.437 151.199Z" fill="#8A8682"/>
<path d="M355.55 156.147L358.613 144.706C359.136 142.749 358.027 140.737 356.148 140.234C354.268 139.731 352.303 140.921 351.779 142.876L349.137 152.748C351.345 153.761 353.48 154.904 355.55 156.147Z" fill="#6E6A67"/>
<path d="M354.623 155.592L357.608 144.437C357.978 143.056 357.195 141.634 355.868 141.279C354.54 140.924 353.152 141.763 352.782 143.145L350.089 153.209C351.633 153.948 353.147 154.739 354.623 155.592Z" fill="#8A8682"/>
<path d="M357.016 163.005C351.193 158.986 344.438 155.805 336.973 153.807C329.508 151.809 322.067 151.19 315.015 151.764L307.79 178.759L349.791 190L357.016 163.005Z" fill="#DBD8D0"/>
<path d="M353.936 162.18C349.057 158.413 343.343 155.511 336.973 153.806C330.602 152.101 324.202 151.761 318.095 152.588L310.87 179.583L346.711 189.176L353.936 162.18Z" fill="#F0ECE4"/>
<path d="M344.889 158.74C342.862 155.736 340.037 154.626 336.973 153.807C333.909 152.987 330.908 152.537 327.651 154.127L320.172 182.072L337.409 186.686L344.889 158.74Z" fill="#F7F5F0"/>
<path d="M356.398 165.314C356.16 165.251 355.928 165.145 355.712 164.996C349.905 160.986 343.392 157.998 336.355 156.115C329.318 154.232 322.183 153.567 315.149 154.14C313.88 154.243 312.791 153.263 312.716 151.951C312.642 150.639 313.61 149.492 314.88 149.388C322.421 148.774 330.062 149.484 337.589 151.498C345.118 153.513 352.092 156.715 358.318 161.014C359.366 161.738 359.632 163.215 358.912 164.315C358.341 165.189 357.319 165.56 356.398 165.314Z" fill="#CFCBC4"/>
<path d="M357.186 162.372C356.947 162.309 356.715 162.203 356.5 162.054C350.693 158.045 344.18 155.057 337.142 153.173C330.106 151.29 322.971 150.625 315.937 151.198C314.955 151.278 314.088 150.707 313.708 149.839C313.071 150.31 312.668 151.091 312.717 151.951C312.791 153.262 313.879 154.243 315.149 154.14C322.183 153.567 329.318 154.232 336.355 156.115C343.393 157.998 349.906 160.986 355.713 164.996C355.928 165.145 356.16 165.25 356.398 165.314C357.319 165.561 358.341 165.189 358.913 164.315C359.384 163.596 359.426 162.718 359.11 161.992C358.55 162.404 357.844 162.549 357.186 162.372Z" fill="#ABA7A1"/>
<path d="M317.704 181.412L322.871 162.108C323.394 160.151 322.285 158.139 320.406 157.636C318.526 157.133 316.561 158.322 316.036 160.278L310.87 179.583L317.704 181.412Z" fill="#6E6A67"/>
<path d="M316.7 181.144L321.866 161.84C322.236 160.458 321.453 159.037 320.126 158.682C318.798 158.327 317.41 159.166 317.04 160.548L311.874 179.852L316.7 181.144Z" fill="#8A8682"/>
<path d="M327.372 184L333.069 162.718C333.592 160.762 332.483 158.75 330.603 158.247C328.724 157.744 326.758 158.933 326.235 160.889L320.538 182.171L327.372 184Z" fill="#6E6A67"/>
<path d="M326.369 183.732L332.065 162.449C332.435 161.068 331.651 159.647 330.324 159.291C328.997 158.936 327.609 159.775 327.239 161.157L321.542 182.44L326.369 183.732Z" fill="#8A8682"/>
<path d="M337.041 186.588L342.738 165.306C343.261 163.349 342.152 161.337 340.272 160.834C338.393 160.332 336.427 161.521 335.903 163.476L330.207 184.759L337.041 186.588Z" fill="#6E6A67"/>
<path d="M336.038 186.319L341.734 165.037C342.104 163.656 341.321 162.234 339.994 161.879C338.666 161.524 337.278 162.363 336.908 163.745L331.212 185.027L336.038 186.319Z" fill="#8A8682"/>
<path d="M346.711 189.176L351.878 169.872C352.401 167.915 351.292 165.903 349.413 165.4C347.534 164.897 345.568 166.086 345.044 168.042L339.877 187.346L346.711 189.176Z" fill="#6E6A67"/>
<path d="M345.707 188.907L350.874 169.603C351.244 168.222 350.46 166.8 349.133 166.446C347.806 166.091 346.418 166.93 346.048 168.312L340.881 187.616L345.707 188.907Z" fill="#8A8682"/>
<path d="M226.601 175.733C226.305 175.815 225.988 175.626 225.893 175.31L222.187 162.915C222.093 162.599 222.257 162.275 222.552 162.192C222.848 162.109 223.165 162.299 223.26 162.615L226.966 175.01C227.06 175.326 226.897 175.65 226.601 175.733Z" fill="#003847"/>
<path d="M272.685 187.928C272.604 187.949 272.516 187.955 272.426 187.94L257.701 185.65C257.483 185.616 257.288 185.476 257.182 185.274C257.075 185.074 257.069 184.839 257.169 184.649L261.779 175.772L248.456 175.93C248.18 175.934 247.92 175.76 247.804 175.498C247.689 175.235 247.743 174.938 247.94 174.757L254.627 168.601L241.601 171.438C241.302 171.503 240.985 171.342 240.839 171.055C240.694 170.767 240.761 170.429 241 170.245L248.412 164.548L236.597 169.336C236.331 169.45 236 169.35 235.809 169.1C235.618 168.852 235.609 168.515 235.787 168.283L243.697 157.983L229.614 167.78C229.395 167.931 229.098 167.922 228.866 167.758C228.634 167.593 228.518 167.307 228.573 167.039L229.619 162.055L224.648 168.922C224.482 169.153 224.177 169.232 223.899 169.118L215.644 165.713L219.469 169.422C219.674 169.62 219.745 169.919 219.646 170.171C219.547 170.422 219.3 170.572 219.027 170.551L201.337 169.069L214.103 173.958C214.39 174.068 214.582 174.358 214.566 174.66C214.551 174.963 214.339 175.209 214.039 175.24L201.223 176.898L210.853 178.136C211.163 178.175 211.419 178.429 211.466 178.743C211.514 179.057 211.339 179.345 211.048 179.434L198.359 183.328L207.646 185.303C207.92 185.362 208.141 185.586 208.199 185.864C208.256 186.141 208.138 186.414 207.903 186.544L196.544 192.846L205.68 198.125C205.876 198.238 206.01 198.439 206.038 198.66C206.066 198.881 205.985 199.095 205.821 199.229L194.721 208.278C194.449 208.499 194.033 208.442 193.794 208.15C193.555 207.857 193.581 207.439 193.854 207.217L204.219 198.766L194.905 193.383C194.691 193.26 194.553 193.035 194.542 192.793C194.531 192.552 194.649 192.333 194.852 192.22L205.664 186.221L195.613 184.084C195.315 184.02 195.083 183.763 195.05 183.458C195.017 183.153 195.191 182.88 195.473 182.793L207.659 179.053L195.981 177.553C195.651 177.51 195.385 177.227 195.362 176.892C195.337 176.557 195.556 176.269 195.888 176.232L211.232 174.246L196.603 168.643C196.291 168.524 196.097 168.195 196.147 167.873C196.196 167.55 196.477 167.331 196.803 167.358L217.281 169.073L212.358 164.3C212.124 164.073 212.068 163.722 212.225 163.46C212.381 163.199 212.706 163.098 213.003 163.22L223.85 167.696L230.383 158.674C230.561 158.428 230.895 158.356 231.182 158.501C231.469 158.648 231.629 158.971 231.565 159.275L230.219 165.69L246.522 154.347C246.78 154.167 247.147 154.216 247.38 154.466C247.613 154.714 247.642 155.085 247.449 155.338L238.385 167.142L252.531 161.409C252.823 161.283 253.188 161.418 253.366 161.713C253.543 162.008 253.486 162.376 253.232 162.571L244.243 169.481L256.754 166.756C257.043 166.694 257.351 166.841 257.502 167.115C257.653 167.388 257.609 167.718 257.396 167.916L250.158 174.578L262.841 174.428C263.078 174.425 263.308 174.553 263.441 174.763C263.574 174.972 263.589 175.23 263.482 175.437L258.782 184.488L272.533 186.626C272.894 186.683 273.164 187.023 273.134 187.387C273.112 187.657 272.928 187.865 272.685 187.928Z" fill="#005E78"/>
<path d="M208.128 156.429C207.984 156.468 207.823 156.45 207.677 156.367L199.764 151.851C199.591 151.753 199.468 151.578 199.435 151.379C199.402 151.182 199.461 150.985 199.594 150.85L205.603 144.768L199.012 139.464C198.861 139.342 198.769 139.16 198.76 138.969C198.752 138.777 198.829 138.598 198.969 138.483L204.709 133.756L198.318 129.545C198.146 129.431 198.033 129.24 198.018 129.035C198.002 128.829 198.085 128.635 198.239 128.516L203.592 124.384L197.158 119.337C196.981 119.198 196.883 118.975 196.903 118.754C196.922 118.532 197.055 118.346 197.252 118.266L201.814 116.401L196.474 112.484C196.298 112.355 196.193 112.144 196.199 111.929C196.203 111.713 196.316 111.523 196.497 111.425L204.076 107.348L195.511 104.324C195.313 104.255 195.157 104.087 195.096 103.881C195.036 103.674 195.079 103.456 195.212 103.303L201.089 96.5112L194.24 94.5315C194.051 94.4773 193.892 94.3329 193.815 94.1443C193.737 93.9559 193.75 93.7459 193.848 93.5803L198.08 86.4535L192.561 85.2847C192.358 85.2422 192.184 85.0969 192.098 84.8996C192.012 84.7021 192.026 84.4799 192.136 84.3082L195.882 78.4236L190.115 73.3125C189.878 73.1012 189.818 72.7497 189.975 72.4915L192.624 68.174L188.955 66.0323C188.805 65.945 188.693 65.7992 188.647 65.6298C188.6 65.4604 188.622 65.2828 188.708 65.1406L190.68 61.861L187.25 59.8416C186.953 59.6665 186.834 59.2848 186.985 58.987C187.135 58.6898 187.498 58.5909 187.795 58.766L191.801 61.1249C191.951 61.213 192.062 61.3583 192.108 61.5277C192.155 61.6964 192.133 61.8733 192.046 62.0162L190.076 65.2939L193.75 67.438C193.901 67.5258 194.013 67.673 194.059 67.8432C194.106 68.0135 194.083 68.1914 193.995 68.3347L191.282 72.7564L197.056 77.8739C197.297 78.0873 197.355 78.4445 197.191 78.7022L193.654 84.2582L199.143 85.4209C199.342 85.4629 199.515 85.6041 199.602 85.7975C199.689 85.9908 199.68 86.2102 199.578 86.3822L195.312 93.5666L202.326 95.5937C202.533 95.6535 202.7 95.8192 202.769 96.0308C202.837 96.242 202.795 96.4689 202.659 96.6262L196.741 103.465L205.774 106.655C206.007 106.737 206.179 106.953 206.21 107.203C206.241 107.453 206.126 107.689 205.917 107.801L197.952 112.085L203.391 116.074C203.576 116.21 203.68 116.434 203.665 116.66C203.649 116.886 203.515 117.077 203.315 117.158L198.713 119.04L204.94 123.924C205.095 124.046 205.191 124.233 205.198 124.429C205.205 124.626 205.123 124.808 204.975 124.921L199.681 129.007L206.048 133.203C206.218 133.315 206.33 133.501 206.348 133.703C206.366 133.906 206.289 134.099 206.141 134.221L200.337 139L206.87 144.257C207.013 144.371 207.104 144.541 207.12 144.722C207.136 144.903 207.076 145.077 206.954 145.2L201.034 151.191L208.206 155.283C208.505 155.454 208.629 155.835 208.483 156.134C208.408 156.287 208.278 156.389 208.128 156.429Z" fill="#005E78"/>
<path d="M233.556 149.179C233.406 149.219 233.238 149.199 233.087 149.106C232.793 148.927 232.68 148.542 232.836 148.249L236.566 141.204L228.145 139.097C227.973 139.054 227.823 138.937 227.733 138.775C227.644 138.614 227.623 138.425 227.679 138.257L230.205 130.547L222.573 129.407C222.378 129.378 222.202 129.253 222.103 129.073C222.003 128.893 221.991 128.679 222.071 128.5L225.063 121.769L218.257 120.961C218.068 120.938 217.895 120.825 217.788 120.656C217.682 120.486 217.657 120.281 217.718 120.1L220.199 112.857L215.235 113.566C215.02 113.597 214.797 113.503 214.655 113.32C214.513 113.137 214.474 112.895 214.553 112.688L216.877 106.596L207.7 106.955C207.459 106.964 207.227 106.823 207.111 106.596C206.995 106.369 207.016 106.1 207.167 105.914L212.987 98.7017L204.083 95.8772C203.878 95.8117 203.713 95.6416 203.65 95.429C203.588 95.2164 203.635 94.9918 203.776 94.8376L208.552 89.6172L200.848 85.6748C200.664 85.5807 200.531 85.399 200.494 85.1926C200.458 84.9856 200.523 84.7799 200.668 84.6449L204.647 80.9175L198.488 77.9879C198.202 77.852 198.047 77.521 198.129 77.2201L200.093 70.0069L195.278 67.6241C195.123 67.5473 195.001 67.4078 194.943 67.2407C194.885 67.0729 194.896 66.893 194.974 66.7436L196.858 63.0939L193.322 61.3075C193.169 61.2302 193.049 61.0917 192.991 60.9253C192.935 60.7594 192.945 60.5804 193.021 60.4313L195.064 56.4341C195.215 56.1375 195.578 56.0406 195.874 56.2161C196.171 56.392 196.288 56.775 196.137 57.0714L194.389 60.4934L197.926 62.2807C198.081 62.3585 198.2 62.4977 198.257 62.6636C198.314 62.8303 198.302 63.0095 198.226 63.1588L196.344 66.8033L201.045 69.13C201.326 69.2686 201.476 69.5966 201.395 69.8941L199.433 77.0986L205.956 80.2018C206.146 80.2922 206.285 80.4737 206.324 80.683C206.365 80.8928 206.3 81.1028 206.153 81.24L202.152 84.9873L209.795 88.8979C209.973 88.9886 210.103 89.1601 210.144 89.3583C210.186 89.5565 210.135 89.7569 210.006 89.8981L205.343 94.9958L214.185 97.8007C214.384 97.8641 214.545 98.0264 214.612 98.2319C214.679 98.4367 214.642 98.6563 214.514 98.8141L208.996 105.653L217.729 105.311C217.937 105.303 218.142 105.408 218.269 105.588C218.397 105.768 218.428 105.998 218.353 106.194L216.07 112.176L220.993 111.473C221.204 111.442 221.423 111.533 221.566 111.711C221.708 111.888 221.752 112.125 221.682 112.332L219.119 119.815L226.001 120.633C226.2 120.656 226.38 120.779 226.484 120.961C226.588 121.144 226.601 121.361 226.521 121.543L223.518 128.298L231.066 129.425C231.251 129.452 231.418 129.566 231.52 129.731C231.622 129.897 231.648 130.098 231.59 130.276L229.042 138.055L237.59 140.194C237.78 140.242 237.942 140.378 238.026 140.563C238.111 140.747 238.107 140.956 238.018 141.126L233.902 148.9C233.826 149.044 233.699 149.14 233.556 149.179Z" fill="#005E78"/>
<path d="M195.027 54.9773C194.923 55.0042 194.81 55.0031 194.696 54.9693L187.247 52.7308C186.912 52.6299 186.702 52.2803 186.777 51.95C186.851 51.6196 187.184 51.4334 187.519 51.5335L194.968 53.7721C195.302 53.8729 195.513 54.2223 195.438 54.5529C195.388 54.7704 195.227 54.9254 195.027 54.9773Z" fill="#003847"/>
<path d="M188.822 56.5844C188.622 56.6361 188.393 56.5822 188.221 56.4212C187.961 56.1776 187.93 55.7816 188.153 55.5363L193.117 50.0826C193.34 49.8379 193.732 49.8366 193.992 50.0802C194.252 50.3236 194.283 50.7198 194.06 50.9651L189.096 56.4188C189.021 56.5024 188.925 56.5578 188.822 56.5844Z" fill="#003847"/>
<path d="M273.62 188.76L257.552 192.951L257.278 192.611C257.129 192.427 242.237 174.18 228.75 177.697C215.254 181.216 213.477 203.809 213.46 204.037L213.43 204.456L197.361 208.646L197.422 207.713C197.44 207.437 199.25 179.912 199.55 163.623C200.479 113.163 185.446 54.619 185.294 54.0334L185.142 53.447L192.04 51.6482L192.258 52.2174C192.476 52.7851 214.439 109.528 245.105 151.744C255.006 165.374 272.836 187.776 273.015 188.001L273.62 188.76ZM257.945 191.517L271.46 187.993C268.249 183.946 252.999 164.677 244.115 152.446C214.993 112.354 193.706 59.2414 191.317 53.1689L186.652 54.3853C188.229 60.6695 201.684 115.824 200.801 163.74C200.532 178.358 199.05 201.991 198.731 206.958L212.247 203.434C212.552 200.147 214.96 179.962 228.356 176.469C241.752 172.976 255.742 188.885 257.945 191.517ZM234.853 151.583L208.124 158.553L208.061 157.744C208.037 157.428 205.588 126.01 202.633 115.861L202.458 115.259L214.004 112.249L214.212 112.841C217.724 122.846 234.26 150.59 234.426 150.869L234.853 151.583ZM209.246 156.93L232.943 150.751C230.316 146.323 216.882 123.495 213.25 113.778L204.001 116.189C206.685 126.154 208.845 151.921 209.246 156.93Z" fill="#003847"/>
<path d="M243.152 144.811L195.824 158.083C195.016 158.31 194.397 158.966 194.187 159.819L193.233 163.689L248.432 148.21L245.494 145.432C244.846 144.819 243.961 144.585 243.152 144.811Z" fill="#005E78"/>
<path d="M196.395 56.1843L188.426 58.2418L185.48 49.1504L193.448 47.0929L196.395 56.1843ZM189.198 56.7522L194.852 55.2923L192.677 48.5815L187.024 50.0413L189.198 56.7522Z" fill="#003847"/>
<path d="M193.562 49.4462L187.368 51.0762L185.517 34.6993L193.562 49.4462ZM188.374 49.5478L191.814 48.6427L187.347 40.4545L188.374 49.5478Z" fill="#003847"/>
<path d="M189.748 49.6369L186.556 37.6608L190.401 49.4524C190.464 49.6442 190.37 49.8454 190.191 49.9018C190.012 49.9583 189.817 49.8491 189.754 49.6573C189.752 49.6505 189.75 49.643 189.748 49.6369Z" fill="#003847"/>
<path d="M193.463 50.8713L187.916 52.3274C186.819 52.6154 185.625 51.9204 185.262 50.7826C184.9 49.6449 185.5 48.4788 186.598 48.1908L192.145 46.7347C193.242 46.4467 194.436 47.1417 194.799 48.2795C195.161 49.4172 194.561 50.5833 193.463 50.8713Z" fill="#003847"/>
<path d="M261.04 190.159C260.859 189.898 242.764 164.067 224.138 168.928C205.502 173.791 205.497 204.345 205.5 204.652L204.248 204.569C204.24 203.274 204.253 172.787 223.745 167.7C243.235 162.614 261.289 188.387 262.049 189.486L261.04 190.159Z" fill="#003847"/>
<path d="M209.863 203.823C209.584 203.895 209.271 203.757 209.122 203.479L205.055 195.889C204.905 195.608 204.971 195.272 205.213 195.098L211.462 190.592L208.764 182.198C208.659 181.87 208.823 181.536 209.134 181.439L217.687 178.784L215.653 172.453C215.584 172.239 215.628 172.013 215.769 171.856C215.908 171.699 216.126 171.634 216.341 171.684L225.671 173.836L232.282 167.532C232.436 167.387 232.657 167.338 232.869 167.403C233.081 167.467 233.252 167.637 233.321 167.851L235.355 174.182L244.162 172.317C244.484 172.249 244.82 172.453 244.925 172.78L247.623 181.175L255.58 181.982C255.887 182.013 256.143 182.265 256.182 182.575L257.245 190.947C257.289 191.295 257.049 191.596 256.705 191.611C256.363 191.63 256.05 191.364 256.006 191.016L255.011 183.183L247.15 182.386C246.888 182.36 246.658 182.17 246.575 181.912L243.928 173.674L235.121 175.539C234.799 175.607 234.463 175.403 234.358 175.076L232.457 169.162L226.338 174.996C226.197 175.131 225.995 175.184 225.796 175.138L217.162 173.145L219.062 179.059C219.167 179.386 219.004 179.721 218.692 179.817L210.139 182.473L212.786 190.711C212.869 190.969 212.787 191.24 212.58 191.388L206.406 195.84L210.211 202.941C210.38 203.256 210.273 203.632 209.973 203.781C209.937 203.8 209.9 203.813 209.863 203.823Z" fill="#003847"/>
<path d="M218.763 180.763C218.639 180.795 218.501 180.787 218.368 180.731L212.334 178.199C212.011 178.065 211.839 177.699 211.95 177.384C212.06 177.069 212.411 176.924 212.734 177.059L218.768 179.591C219.091 179.725 219.263 180.091 219.152 180.406C219.086 180.591 218.939 180.717 218.763 180.763Z" fill="#003847"/>
<path d="M214.112 186.507C213.956 186.547 213.78 186.524 213.625 186.426L208.883 183.457C208.588 183.271 208.479 182.891 208.642 182.606C208.804 182.323 209.175 182.241 209.472 182.427L214.213 185.397C214.509 185.582 214.617 185.963 214.455 186.247C214.377 186.382 214.253 186.471 214.112 186.507Z" fill="#003847"/>
<path d="M211.744 192.107C211.643 192.133 211.533 192.134 211.421 192.102L206.124 190.587C205.789 190.491 205.573 190.145 205.644 189.813C205.715 189.481 206.043 189.29 206.379 189.386L211.676 190.901C212.011 190.997 212.226 191.343 212.156 191.675C212.109 191.896 211.946 192.055 211.744 192.107Z" fill="#003847"/>
<path d="M209.554 197.93C209.456 197.955 209.348 197.956 209.239 197.926L204.498 196.631C204.162 196.539 203.943 196.195 204.009 195.862C204.075 195.53 204.4 195.334 204.738 195.426L209.479 196.72C209.815 196.812 210.034 197.156 209.968 197.49C209.924 197.715 209.76 197.877 209.554 197.93Z" fill="#003847"/>
<path d="M235.911 175.654C235.734 175.699 235.534 175.663 235.368 175.537C235.087 175.324 235.013 174.933 235.205 174.665L238.794 169.648C238.987 169.379 239.371 169.337 239.651 169.549C239.932 169.762 240.006 170.153 239.815 170.421L236.225 175.438C236.147 175.549 236.034 175.622 235.911 175.654Z" fill="#003847"/>
<path d="M242.924 178.065C242.783 178.101 242.625 178.085 242.479 178.008C242.171 177.844 242.034 177.471 242.174 177.173L244.407 172.404C244.547 172.105 244.909 171.997 245.216 172.159C245.523 172.323 245.66 172.696 245.521 172.994L243.288 177.763C243.214 177.92 243.08 178.024 242.924 178.065Z" fill="#003847"/>
<path d="M247.868 181.524C247.665 181.577 247.433 181.521 247.262 181.356C247.004 181.109 246.979 180.713 247.206 180.472L250.782 176.659C251.009 176.416 251.401 176.421 251.658 176.669C251.915 176.916 251.941 177.311 251.714 177.553L248.137 181.365C248.062 181.446 247.969 181.498 247.868 181.524Z" fill="#003847"/>
<path d="M252.819 185.295C252.614 185.348 252.379 185.289 252.207 185.12C251.952 184.87 251.932 184.474 252.162 184.236L255.399 180.875C255.63 180.637 256.022 180.647 256.275 180.896C256.53 181.146 256.55 181.542 256.32 181.78L253.083 185.141C253.009 185.218 252.918 185.269 252.819 185.295Z" fill="#003847"/>
<path d="M248.367 156.246L197.59 170.23C197.141 170.353 196.649 170.166 196.358 169.76L192.639 164.567C192.158 163.896 192.436 162.969 193.18 162.764L247.91 147.692C248.654 147.487 249.409 148.13 249.379 148.942L249.146 155.223C249.127 155.714 248.817 156.122 248.367 156.246Z" fill="#003847"/>
<path d="M209.126 115.288C208.819 115.376 208.492 115.179 208.395 114.848L191.991 58.6436C191.894 58.3128 192.065 57.9737 192.372 57.8858C192.679 57.7978 193.006 57.9948 193.102 58.325L209.507 114.53C209.603 114.86 209.433 115.2 209.126 115.288Z" fill="#003847"/>
<path d="M196.979 57.5453L188.469 59.8098C187.472 60.075 186.389 59.4404 186.062 58.3996C185.735 57.3589 186.282 56.2904 187.279 56.0253L195.789 53.7608C196.786 53.4956 197.869 54.1302 198.196 55.1709C198.523 56.2117 197.976 57.2802 196.979 57.5453Z" fill="#003847"/>
<path d="M212.745 226.684C212.745 226.684 32.903 265.84 14.9589 235.267C6.59271 221.013 45.9757 199.83 45.9757 199.83C45.9757 199.83 19.774 218.495 31.7298 225.836C54.0183 239.521 177.039 208.457 177.039 208.457L212.745 226.684Z" fill="white"/>
<path d="M105.707 248.58L132.596 244.643C137.067 243.958 141.549 243.373 146.014 242.656C150.488 242.01 154.951 241.31 159.414 240.608C163.874 239.896 168.34 239.205 172.787 238.416C177.255 237.735 181.677 236.829 186.138 236.1C195.019 234.433 203.868 232.639 212.746 230.718C204.237 233.891 195.473 236.367 186.64 238.492C182.215 239.512 177.774 240.479 173.315 241.334C168.859 242.216 164.375 242.934 159.901 243.701C155.408 244.347 150.921 245.039 146.416 245.587C144.164 245.868 141.911 246.134 139.655 246.375C137.401 246.632 135.145 246.871 132.884 247.062C123.851 247.899 114.79 248.508 105.707 248.58Z" fill="white"/>
<path d="M37.832 211.9C37.475 212.414 37.1734 212.958 36.9187 213.515C36.6525 214.064 36.4333 214.631 36.2955 215.205C36.1369 215.775 36.0899 216.35 36.0826 216.901C36.1379 217.447 36.2141 217.978 36.4688 218.432C36.8999 219.365 37.7287 220.074 38.7005 220.595C39.6566 221.139 40.7735 221.499 41.8904 221.81C44.169 222.363 46.5687 222.665 48.9862 222.794C51.3974 222.978 53.8451 223.009 56.2897 222.991C58.7396 222.999 61.1946 222.93 63.6559 222.83C66.1183 222.764 68.5816 222.626 71.0544 222.519C75.999 222.307 80.9508 221.987 85.9642 221.966C81.1335 223.279 76.2349 224.277 71.283 224.952C70.0482 225.148 68.8082 225.308 67.5629 225.423C66.3176 225.546 65.0776 225.704 63.826 225.791C61.3282 225.983 58.8178 226.079 56.3002 226.122C51.2742 226.047 46.1512 225.853 41.168 224.136C39.9405 223.648 38.6953 223.156 37.5846 222.307C36.4845 221.503 35.4417 220.379 35.0315 218.953C34.6129 217.528 34.9 216.068 35.4866 214.904C36.0544 213.716 36.8926 212.727 37.832 211.9Z" fill="white"/>
<path d="M240.275 235.266C238.917 233.696 220.009 220.495 218.59 219.506L221.817 218.951C221.817 218.951 239.102 233.634 240.275 235.266Z" fill="#FFC725"/>
<path opacity="0.5" d="M240.275 235.266C238.917 233.696 220.009 220.495 218.59 219.506L221.817 218.951C221.817 218.951 239.102 233.634 240.275 235.266Z" fill="white"/>
<path d="M240.337 235.385C240.337 235.394 240.337 235.402 240.337 235.402C240.337 235.42 240.329 235.438 240.319 235.464C240.169 235.799 238.873 236.09 237.427 236.284C237.409 236.284 237.391 236.284 237.374 236.293C235.601 236.513 233.635 236.584 233.316 236.372C232.91 236.09 219.269 229.265 210.917 225.093C210.802 225.039 210.697 224.987 210.59 224.934C210.555 224.916 210.529 224.899 210.519 224.899H210.511V224.89C210.105 224.688 209.708 224.494 209.329 224.299C207.91 223.594 206.728 223.003 205.89 222.589C205.035 222.165 204.55 221.919 204.55 221.919L218.589 219.511C219.392 220.067 225.776 224.521 231.421 228.585C231.615 228.718 231.808 228.859 232.002 229C232.531 229.379 233.043 229.749 233.554 230.111C236.984 232.607 239.781 234.697 240.274 235.27C240.292 235.296 240.31 235.323 240.318 235.341C240.327 235.358 240.337 235.375 240.337 235.385Z" fill="#FFC725"/>
<g opacity="0.1">
<path d="M240.337 235.385C240.337 235.394 240.337 235.403 240.337 235.403C240.337 235.42 240.329 235.438 240.319 235.464C240.169 235.799 238.873 236.09 237.427 236.285C237.409 236.285 237.391 236.285 237.373 236.293C235.601 236.513 233.635 236.584 233.316 236.372C232.902 236.09 218.906 229.087 210.59 224.934C211.957 225.596 229.903 234.229 233.554 230.11C236.984 232.606 239.781 234.696 240.274 235.269C240.292 235.295 240.31 235.322 240.318 235.34C240.327 235.358 240.337 235.375 240.337 235.385Z" fill="black"/>
</g>
<path d="M425.271 250.79V250.799C425.271 252.678 414.927 253.286 413.516 252.88C411.973 252.439 299.376 208.126 299.376 208.126L340.806 191.723C341.123 191.943 341.52 192.226 341.997 192.552C342.164 192.667 342.34 192.79 342.526 192.913C350.163 198.204 372.968 214.016 392.889 227.932C393.286 228.205 393.674 228.479 394.062 228.752C394.591 229.114 395.111 229.484 395.632 229.846C409.442 239.494 421.417 247.916 425.271 250.79Z" fill="#FFC725"/>
<path d="M425.271 250.79C415.183 243.259 349.413 197.684 340.806 191.723L346.053 189.642C346.053 189.642 422.67 247.916 424.98 250.235C425.174 250.438 425.271 250.614 425.271 250.79Z" fill="#FFC725"/>
<path opacity="0.5" d="M425.271 250.79C415.183 243.259 349.413 197.684 340.806 191.723L346.053 189.642C346.053 189.642 422.67 247.916 424.98 250.235C425.174 250.438 425.271 250.614 425.271 250.79Z" fill="white"/>
<g opacity="0.5">
<path opacity="0.1" d="M425.271 250.79V250.799C425.271 252.678 414.927 253.286 413.516 252.88C411.973 252.439 299.376 208.126 299.376 208.126L340.806 191.723C340.806 191.723 330.559 203.443 354.871 221.469C371.442 233.753 389.079 236.301 395.631 229.846C409.442 239.494 421.417 247.916 425.271 250.79Z" fill="black"/>
</g>
<path d="M331.373 222.663C328.173 224.217 324.692 225.438 324.44 222.222C324.337 220.904 325.358 219.494 330.507 217.016C331.714 216.434 334.663 215.143 335.531 217.817C336.367 220.393 332.578 222.076 331.373 222.663Z" fill="#FFC725"/>
<path opacity="0.1" d="M331.373 222.663C328.173 224.217 324.692 225.438 324.44 222.222C324.337 220.904 325.358 219.494 330.507 217.016C331.714 216.434 334.663 215.143 335.531 217.817C336.367 220.393 332.578 222.076 331.373 222.663Z" fill="black"/>
<path d="M357.498 233.356C354.297 234.91 350.816 236.131 350.565 232.915C350.463 231.596 351.483 230.187 356.633 227.709C357.84 227.127 360.789 225.836 361.657 228.51C362.492 231.085 358.703 232.77 357.498 233.356Z" fill="#FFC725"/>
<path opacity="0.1" d="M357.498 233.356C354.297 234.91 350.816 236.131 350.565 232.915C350.463 231.596 351.483 230.187 356.633 227.709C357.84 227.127 360.789 225.836 361.657 228.51C362.492 231.085 358.703 232.77 357.498 233.356Z" fill="black"/>
<path d="M383.623 244.047C380.423 245.602 376.942 246.823 376.69 243.607C376.588 242.288 377.609 240.878 382.758 238.4C383.966 237.819 386.914 236.528 387.783 239.202C388.618 241.778 384.829 243.462 383.623 244.047Z" fill="#FFC725"/>
<path opacity="0.1" d="M383.623 244.047C380.423 245.602 376.942 246.823 376.69 243.607C376.588 242.288 377.609 240.878 382.758 238.4C383.966 237.819 386.914 236.528 387.783 239.202C388.618 241.778 384.829 243.462 383.623 244.047Z" fill="black"/>
<path d="M375.084 215.956C371.936 221.556 364.793 223.575 360.268 225.383C348.257 230.18 339.544 232.879 335.25 221.971C334.695 220.56 334.386 219.245 334.289 218.02C333.583 209.793 342.103 205.682 346.433 203.408C346.441 203.399 346.441 203.399 346.441 203.399C351.662 200.648 355.357 198.867 358.108 197.712C362.596 195.815 364.598 195.577 366.662 195.507C369.086 195.428 374.572 196.036 376.371 206.099C377.112 210.286 376.495 213.47 375.084 215.956Z" fill="#FFC725"/>
<path d="M375.227 208.134C375.227 214.263 371.394 219.231 366.665 219.231C361.937 219.231 358.104 214.262 358.104 208.134C358.104 202.006 361.937 197.037 366.665 197.037C371.394 197.037 375.227 202.006 375.227 208.134Z" fill="#263238"/>
<path d="M374.23 208.134C374.23 213.549 370.844 217.939 366.666 217.939C362.488 217.939 359.101 213.548 359.101 208.134C359.101 202.72 362.488 198.33 366.666 198.33C370.844 198.33 374.23 202.72 374.23 208.134Z" fill="#455A64"/>
<path d="M195.838 205.199L193.853 205.922L189.391 207.545C185.388 205.807 179.885 203.436 173.941 200.878C158.975 194.45 141.267 186.901 137.855 185.745C137.978 185.781 138.128 185.825 138.287 185.878C138.402 185.913 138.533 185.957 138.675 186.001C138.834 186.054 139.01 186.106 139.195 186.168C139.292 186.204 139.389 186.23 139.495 186.265C139.848 186.38 140.244 186.503 140.676 186.644C141.055 186.767 141.452 186.9 141.884 187.041C142.889 187.366 144.027 187.746 145.28 188.161C145.659 188.293 146.047 188.416 146.443 188.549C146.796 188.664 147.157 188.787 147.528 188.91C147.73 188.981 147.925 189.043 148.127 189.104C148.726 189.307 149.335 189.51 149.97 189.721C150.375 189.862 150.782 189.995 151.196 190.136C155.984 191.741 161.549 193.61 167.087 195.48L168.595 195.983C170.588 196.661 172.582 197.333 174.513 197.985C178.182 199.228 181.673 200.401 184.725 201.433C185.219 201.601 185.695 201.768 186.163 201.926C187.812 202.482 189.311 202.985 190.607 203.425L190.625 203.435C191.021 203.566 191.4 203.699 191.763 203.823C191.947 203.885 192.124 203.946 192.292 203.999C192.381 204.035 192.468 204.061 192.556 204.087C194.629 204.793 195.838 205.199 195.838 205.199Z" fill="#FFC725"/>
<path opacity="0.5" d="M195.838 205.199L193.853 205.922L189.391 207.545C185.388 205.807 179.885 203.436 173.941 200.878C158.975 194.45 141.267 186.901 137.855 185.745C137.978 185.781 138.128 185.825 138.287 185.878C138.402 185.913 138.533 185.957 138.675 186.001C138.834 186.054 139.01 186.106 139.195 186.168C139.292 186.204 139.389 186.23 139.495 186.265C139.848 186.38 140.244 186.503 140.676 186.644C141.055 186.767 141.452 186.9 141.884 187.041C142.889 187.366 144.027 187.746 145.28 188.161C145.659 188.293 146.047 188.416 146.443 188.549C146.796 188.664 147.157 188.787 147.528 188.91C147.73 188.981 147.925 189.043 148.127 189.104C148.726 189.307 149.335 189.51 149.97 189.721C150.375 189.862 150.782 189.995 151.196 190.136C155.984 191.741 161.549 193.61 167.087 195.48L168.595 195.983C170.588 196.661 172.582 197.333 174.513 197.985C178.182 199.228 181.673 200.401 184.725 201.433C185.219 201.601 185.695 201.768 186.163 201.926C187.812 202.482 189.311 202.985 190.607 203.425L190.625 203.435C191.021 203.566 191.4 203.699 191.763 203.823C191.947 203.885 192.124 203.946 192.292 203.999C192.381 204.035 192.468 204.061 192.556 204.087C194.629 204.793 195.838 205.199 195.838 205.199Z" fill="white"/>
<path d="M189.391 207.544L177.424 211.9C177.424 211.9 150.704 199.501 134.769 191.732C134.654 191.678 134.592 191.652 134.592 191.652C134.521 191.617 134.452 191.581 134.381 191.547C132.714 190.736 131.171 189.977 129.795 189.298C125.677 187.235 123.067 185.833 123.164 185.639C123.604 184.757 133.526 184.537 137.494 185.639C137.53 185.647 137.556 185.657 137.601 185.665C137.672 185.683 137.759 185.709 137.856 185.744C141.155 186.864 157.805 193.946 172.425 200.224C172.54 200.276 172.646 200.321 172.76 200.365C173.157 200.541 173.554 200.708 173.942 200.876C179.884 203.435 185.387 205.806 189.391 207.544Z" fill="#FFC725"/>
<g opacity="0.1">
<path d="M189.392 207.544L177.424 211.9C177.424 211.9 150.704 199.501 134.769 191.732C137.406 192.852 164.446 204.763 171.116 203.11C172.689 202.72 173.589 201.812 173.942 200.876C179.885 203.435 185.388 205.806 189.392 207.544Z" fill="black"/>
</g>
<path d="M220.168 190.488L191.137 204.448C191.137 204.448 191.437 179.563 191.657 161.66C191.665 161.044 191.675 160.435 191.683 159.835C191.693 159.341 191.693 158.856 191.701 158.38C191.78 152.25 191.851 147.312 191.877 145.072C191.984 137.868 192.759 136.403 194.664 137.577C196.578 138.75 205.052 146.122 207.601 149.411C209.691 152.11 214.321 168.45 217.337 179.686C217.363 179.783 217.389 179.871 217.408 179.968C217.584 180.62 217.761 181.256 217.919 181.863C219.26 186.918 220.168 190.488 220.168 190.488Z" fill="#FFC725"/>
<g opacity="0.1">
<path d="M220.168 190.488L191.137 204.448C191.137 204.448 191.437 179.563 191.657 161.66C195.935 171.194 204.374 184.218 217.919 181.863C219.26 186.918 220.168 190.488 220.168 190.488Z" fill="black"/>
</g>
<path d="M170.857 219.672C167.869 212.202 180.557 205.415 194.962 198.948C209.365 192.481 351.346 129.869 371.922 124.284C392.499 118.698 416.464 126.347 420.516 138.1C426.598 155.737 400.989 170.514 309.016 208.649C296.964 213.645 243.059 226.588 212.746 226.685C180.337 226.789 172.327 223.347 170.857 219.672Z" fill="#FFC725"/>
<path opacity="0.5" d="M170.857 219.672C167.869 212.202 180.557 205.415 194.962 198.948C209.365 192.481 351.346 129.869 371.922 124.284C392.499 118.698 416.464 126.347 420.516 138.1C426.598 155.737 400.989 170.514 309.016 208.649C296.964 213.645 243.059 226.588 212.746 226.685C180.337 226.789 172.327 223.347 170.857 219.672Z" fill="white"/>
<path opacity="0.1" d="M309.018 208.65C296.963 213.65 243.054 226.587 212.745 226.684C180.337 226.791 172.33 223.351 170.857 219.674C169.297 215.767 172.021 212.046 177.04 208.456C177.004 209.188 177.127 209.92 177.428 210.661C178.768 214.003 186.035 217.125 215.436 217.028C242.942 216.94 282.502 194.665 293.437 190.133C376.888 155.529 409.482 152.652 403.961 136.646C401.562 129.68 391.448 124.3 379.507 122.827C398.008 120.613 416.959 127.765 420.514 138.101C426.597 155.738 400.988 170.518 309.018 208.65Z" fill="black"/>
<path d="M215.864 195.032L219.127 193.621V198.418L215.864 199.83V195.032Z" fill="#455A64"/>
<path d="M221.817 192.457L225.3 190.949V195.746L221.817 197.254V192.457Z" fill="#455A64"/>
<path d="M227.99 189.785L231.473 188.278V193.074L227.99 194.582V189.785Z" fill="#455A64"/>
<path d="M234.163 187.113L237.646 185.605V190.402L234.163 191.91V187.113Z" fill="#455A64"/>
<path d="M240.336 184.441L243.82 182.933V187.731L240.336 189.238V184.441Z" fill="#455A64"/>
<path d="M246.509 181.768L249.992 180.261V185.059L246.509 186.567V181.768Z" fill="#455A64"/>
<path d="M252.683 179.096L256.166 177.589V182.386L252.683 183.895V179.096Z" fill="#455A64"/>
<path d="M258.856 176.425L262.339 174.917V179.714L258.856 181.223V176.425Z" fill="#455A64"/>
<path d="M265.029 173.753L268.512 172.245V177.042L265.029 178.55V173.753Z" fill="#455A64"/>
<path d="M271.202 171.081L274.685 169.573V174.37L271.202 175.878V171.081Z" fill="#455A64"/>
<path d="M277.375 168.409L280.859 166.9V171.698L277.375 173.206V168.409Z" fill="#455A64"/>
<path d="M283.548 165.736L287.031 164.229V169.026L283.548 170.534V165.736Z" fill="#455A64"/>
<path d="M289.72 163.064L293.204 161.557V166.353L289.72 167.862V163.064Z" fill="#455A64"/>
<path d="M295.895 160.392L299.378 158.885V163.682L295.895 165.19V160.392Z" fill="#455A64"/>
<path d="M302.066 157.72L305.551 156.213V161.01L302.066 162.517V157.72Z" fill="#455A64"/>
<path d="M308.24 155.049L311.724 153.541V158.338L308.24 159.846V155.049Z" fill="#455A64"/>
<path d="M314.412 152.377L317.895 150.868V155.666L314.412 157.174V152.377Z" fill="#455A64"/>
<path d="M320.585 149.705L324.069 148.196V152.994L320.585 154.502V149.705Z" fill="#455A64"/>
<path d="M326.759 147.032L330.242 145.524V150.322L326.759 151.83V147.032Z" fill="#455A64"/>
<path d="M332.932 144.36L336.415 142.852V147.649L332.932 149.158V144.36Z" fill="#455A64"/>
<path d="M339.105 141.688L342.589 140.18V144.977L339.105 146.486V141.688Z" fill="#455A64"/>
<path d="M348.761 137.508V142.305L345.278 143.813V139.016L348.761 137.508Z" fill="#455A64"/>
<path d="M354.934 134.837V139.633L351.451 141.141V136.344L354.934 134.837Z" fill="#455A64"/>
<path d="M361.107 132.164V136.962L357.624 138.469V133.672L361.107 132.164Z" fill="#455A64"/>
<path d="M367.281 129.492V134.29L363.797 135.797V131L367.281 129.492Z" fill="#455A64"/>
<path d="M383.418 127.53C385.323 126.013 387.581 125.105 389.891 124.514V127.706C387.81 127.627 385.685 127.574 383.418 127.53Z" fill="#455A64"/>
<path d="M397.466 123.756V128.165C395.843 128.014 394.221 127.917 392.58 127.838V123.984C394.195 123.756 395.835 123.676 397.466 123.756Z" fill="#455A64"/>
<path d="M412.996 129.982C411.629 129.946 410.377 129.708 409.116 129.558C407.847 129.435 406.647 129.188 405.421 129.073C403.649 128.799 401.894 128.605 400.156 128.438V124.037C402.281 124.346 404.371 124.875 406.329 125.722C407.573 126.19 408.728 126.86 409.866 127.53C410.43 127.847 410.96 128.271 411.489 128.685C412.009 129.1 412.52 129.514 412.996 129.982Z" fill="#455A64"/>
<path d="M302.067 169.07L261.152 188.758C261.152 188.758 196.119 153.893 149.451 128.417C149.398 128.391 149.363 128.373 149.345 128.364L149.327 128.356C124.415 114.747 105.402 104.183 105.711 103.777C106.496 102.718 119.027 102.851 123.983 103.521C124.574 103.592 125.059 103.68 125.403 103.777C127.502 104.35 201.084 131.608 252.612 150.718C280.593 161.099 302.067 169.07 302.067 169.07Z" fill="#FFC725"/>
<g opacity="0.1">
<path d="M302.066 169.07L261.152 188.758C261.152 188.758 196.118 153.893 149.45 128.417C153.101 130.26 236.764 172.422 247.69 166.09C251.817 163.7 252.893 157.536 252.61 150.719C280.593 161.099 302.066 169.07 302.066 169.07Z" fill="black"/>
</g>
<path d="M308.039 166.363L295.889 172.209C264.803 159.183 135.509 108.063 124.68 103.777C124.557 103.724 124.442 103.68 124.345 103.644C124.239 103.609 124.151 103.573 124.081 103.557C124.037 103.539 124.01 103.531 123.984 103.521C124.575 103.592 125.06 103.68 125.403 103.777C128.639 104.659 308.039 166.363 308.039 166.363Z" fill="#FFC725"/>
<path opacity="0.5" d="M308.039 166.363L295.889 172.209C264.803 159.183 135.509 108.063 124.68 103.777C124.557 103.724 124.442 103.68 124.345 103.644C124.239 103.609 124.151 103.573 124.081 103.557C124.037 103.539 124.01 103.531 123.984 103.521C124.575 103.592 125.06 103.68 125.403 103.777C128.639 104.659 308.039 166.363 308.039 166.363Z" fill="white"/>
<path d="M220.412 167.311C216.411 169.253 212.061 170.779 211.748 166.76C211.619 165.112 212.896 163.35 219.331 160.253C220.84 159.527 224.526 157.912 225.611 161.255C226.654 164.473 221.919 166.579 220.412 167.311Z" fill="#FFC725"/>
<path opacity="0.1" d="M220.412 167.311C216.411 169.253 212.061 170.779 211.748 166.76C211.619 165.112 212.896 163.35 219.331 160.253C220.84 159.527 224.526 157.912 225.611 161.255C226.654 164.473 221.919 166.579 220.412 167.311Z" fill="black"/>
<path d="M185.79 149.82C181.789 151.764 177.439 153.289 177.126 149.269C176.997 147.621 178.274 145.859 184.709 142.762C186.218 142.036 189.904 140.421 190.989 143.764C192.032 146.983 187.298 149.089 185.79 149.82Z" fill="#FFC725"/>
<path opacity="0.1" d="M185.79 149.82C181.789 151.764 177.439 153.289 177.126 149.269C176.997 147.621 178.274 145.859 184.709 142.762C186.218 142.036 189.904 140.421 190.989 143.764C192.032 146.983 187.298 149.089 185.79 149.82Z" fill="black"/>
<path d="M151.054 132.12C147.328 133.93 143.275 135.351 142.983 131.607C142.863 130.071 144.052 128.431 150.047 125.546C151.453 124.868 154.887 123.365 155.898 126.48C156.869 129.478 152.457 131.439 151.054 132.12Z" fill="#FFC725"/>
<path opacity="0.1" d="M151.054 132.12C147.328 133.93 143.275 135.351 142.983 131.607C142.863 130.071 144.052 128.431 150.047 125.546C151.453 124.868 154.887 123.365 155.898 126.48C156.869 129.478 152.457 131.439 151.054 132.12Z" fill="black"/>
<path d="M272.069 163.35C268.921 168.95 261.778 170.97 257.255 172.777C245.243 177.574 236.531 180.273 232.236 169.364C231.681 167.953 231.372 166.639 231.275 165.413C230.57 157.185 239.088 153.075 243.418 150.801C243.426 150.791 243.426 150.791 243.426 150.791C248.647 148.04 252.342 146.258 255.093 145.104C259.581 143.208 261.583 142.969 263.647 142.899C266.072 142.82 271.557 143.428 273.356 153.491C274.099 157.68 273.481 160.864 272.069 163.35Z" fill="#FFC725"/>
<path d="M263.652 166.625C268.38 166.625 272.213 161.657 272.213 155.528C272.213 149.399 268.38 144.431 263.652 144.431C258.923 144.431 255.09 149.399 255.09 155.528C255.09 161.657 258.923 166.625 263.652 166.625Z" fill="#263238"/>
<path d="M271.216 155.528C271.216 160.943 267.829 165.333 263.652 165.333C259.475 165.333 256.087 160.942 256.087 155.528C256.087 150.114 259.475 145.724 263.652 145.724C267.829 145.724 271.216 150.113 271.216 155.528Z" fill="#455A64"/>
<path d="M141.885 187.041C141.463 186.9 141.057 186.767 140.678 186.644C141.057 186.767 141.453 186.9 141.885 187.041Z" fill="#FFC725"/>
<path d="M2.50725 148.667C2.50725 148.667 96.92 151.42 104.334 133.392C107.791 124.987 86.382 117.691 86.382 117.691C86.382 117.691 100.286 124.307 95.1935 130.067C84.2102 142.49 2.50725 148.667 2.50725 148.667Z" fill="white"/>
<path d="M59.1671 148.168C54.471 149.06 49.755 149.659 45.0389 150.13C43.8597 150.258 42.6801 150.359 41.5008 150.451C40.3215 150.552 39.1417 150.638 37.9619 150.717C35.6024 150.882 33.2444 150.966 30.8854 151.076C28.5283 151.119 26.171 151.189 23.8173 151.168C21.4639 151.16 19.1128 151.091 16.767 150.991C12.0793 150.743 7.40703 150.298 2.82518 149.447C7.5242 149.58 12.2007 149.646 16.8858 149.641C19.2333 149.579 21.571 149.618 23.9188 149.529C26.2619 149.501 28.6091 149.418 30.9554 149.348C33.3021 149.272 35.649 149.193 37.9979 149.085C40.3459 149.016 42.6959 148.874 45.0456 148.788L59.1671 148.168Z" fill="white"/>
<path d="M91.1757 124.449C91.703 124.811 92.1425 125.349 92.3612 126.029C92.4876 126.365 92.5032 126.743 92.4981 127.121C92.4621 127.498 92.3816 127.879 92.2385 128.236C91.9513 128.951 91.4987 129.576 90.9978 130.108C90.5039 130.661 89.9369 131.103 89.3721 131.54C87.0653 133.211 84.5221 134.265 81.9891 135.185C80.713 135.62 79.4324 136.019 78.1444 136.365C77.5002 136.541 76.8537 136.697 76.2072 136.847C75.5616 137.004 74.9147 137.156 74.2645 137.273C71.6722 137.814 69.0622 138.17 66.4453 138.359C68.9836 137.489 71.5303 136.781 74.0576 136.009C75.3182 135.612 76.5872 135.267 77.8374 134.847C79.0948 134.461 80.3461 134.058 81.5808 133.61C82.8242 133.193 84.05 132.722 85.2529 132.208C86.458 131.704 87.6363 131.13 88.7508 130.468C89.2981 130.124 89.8338 129.757 90.3146 129.34C90.8095 128.934 91.2367 128.458 91.5404 127.924C91.6999 127.659 91.8067 127.374 91.8871 127.078C91.9372 126.782 91.9763 126.471 91.9308 126.164C91.8589 125.55 91.5867 124.943 91.1757 124.449Z" fill="white"/>
<path d="M94.7302 28.539C90.9282 31.764 87.6222 36.082 87.0602 41.156C87.0172 41.653 86.2872 41.756 86.1022 41.301C84.7062 38.118 81.3612 34.974 77.6482 36.284C77.1022 36.371 76.4262 36.755 75.9112 36.953L74.2812 37.921C76.1892 36.176 78.7512 34.798 81.4102 35.555C84.0512 36.28 85.8732 38.533 87.0222 40.912L86.0652 41.057C86.6602 35.778 90.3032 31.249 94.7302 28.539Z" fill="#1C1716"/>
<path d="M36.79 25.556C39.405 24.664 44.572 22.992 45.56 26.821L44.6111 26.676C45.0181 25.943 45.4721 25.302 45.9751 24.672C47.4451 22.837 49.47 21.201 51.884 21C51.117 21.16 50.392 21.442 49.735 21.84C47.813 23.069 46.4271 25.049 45.5181 27.099C45.3311 27.569 44.599 27.454 44.569 26.954C44.101 23.905 38.917 25.076 36.79 25.556Z" fill="#1C1716"/>
<path d="M111.214 41.48C108.795 42.795 104.641 44.482 104.893 47.7C104.975 48.142 104.402 48.448 104.079 48.147C102.583 46.906 100.637 45.973 98.6453 46.063C97.9613 46.052 97.3103 46.278 96.6353 46.486C99.1043 44.679 102.535 45.556 104.737 47.416L103.925 47.874C103.474 43.966 108.103 42.15 111.214 41.48Z" fill="#1C1716"/>
</svg>
