<svg width="21" height="20" viewBox="0 0 21 20" fill="none" xmlns="http://www.w3.org/2000/svg">
<g id="20px">
<path id="Vector" d="M10.5001 1.66669C5.91675 1.66669 2.16675 5.41669 2.16675 10C2.16675 14.5834 5.91675 18.3334 10.5001 18.3334C12.0001 18.3334 13.4167 17.9167 14.6667 17.25C15.0834 17 15.1667 16.5 15.0001 16.0834C14.7501 15.6667 14.2501 15.5834 13.8334 15.75C10.6667 17.5834 6.58342 16.5 4.75008 13.3334C2.91675 10.1667 4.00008 6.08335 7.16675 4.25002C10.3334 2.41669 14.4167 3.50002 16.2501 6.66669C16.8334 7.66669 17.1667 8.83335 17.1667 10V10.6667C17.1667 11.5 16.5001 12.1667 15.6667 12.1667C14.8334 12.1667 14.1667 11.5 14.1667 10.6667V7.08335C14.1667 6.58335 13.8334 6.25002 13.3334 6.25002C12.9167 6.25002 12.5834 6.50002 12.5001 6.91669C10.8334 5.75002 8.41675 6.16669 7.25008 7.83335C6.08342 9.50002 6.50008 11.9167 8.16675 13.0834C9.75008 14.1667 11.8334 13.9167 13.0834 12.5C14.1667 13.8334 16.0834 14.0834 17.4167 13.0834C18.1667 12.5 18.6667 11.5834 18.6667 10.5834V10C18.8334 5.41669 15.0834 1.66669 10.5001 1.66669ZM10.5001 12.0834C9.33342 12.0834 8.41675 11.1667 8.41675 10C8.41675 8.83335 9.33342 7.91669 10.5001 7.91669C11.6667 7.91669 12.5834 8.83335 12.5834 10C12.5834 11.1667 11.6667 12.0834 10.5001 12.0834Z" fill="#728095"/>
</g>
</svg>
