<svg width="455" height="307" viewBox="0 0 455 307" fill="none" xmlns="http://www.w3.org/2000/svg">
<path d="M166.94 7.539C163.138 10.764 159.832 15.082 159.27 20.156C159.227 20.653 158.497 20.756 158.312 20.301C156.916 17.118 153.571 13.974 149.858 15.284C149.312 15.371 148.636 15.755 148.121 15.953L146.491 16.921C148.399 15.176 150.961 13.798 153.62 14.555C156.261 15.28 158.083 17.533 159.232 19.912L158.275 20.057C158.87 14.778 162.513 10.249 166.94 7.539Z" fill="#1C1716"/>
<path d="M109 4.556C111.615 3.664 116.782 1.992 117.77 5.821L116.821 5.676C117.228 4.943 117.682 4.302 118.185 3.672C119.655 1.837 121.68 0.201 124.094 0C123.327 0.16 122.602 0.442 121.945 0.84C120.023 2.069 118.637 4.049 117.728 6.099C117.541 6.569 116.809 6.454 116.779 5.954C116.311 2.905 111.127 4.076 109 4.556Z" fill="#1C1716"/>
<path d="M183.424 20.48C181.005 21.795 176.851 23.482 177.103 26.7C177.185 27.142 176.612 27.448 176.289 27.147C174.793 25.906 172.847 24.973 170.855 25.063C170.171 25.052 169.52 25.278 168.845 25.486C171.314 23.679 174.745 24.556 176.947 26.416L176.135 26.874C175.684 22.966 180.313 21.15 183.424 20.48Z" fill="#1C1716"/>
<path d="M215.482 276.006C215.482 276.006 209.84 279.838 210.542 281.115C211.243 282.392 216.281 292.777 219.087 294.392C221.893 296.008 231.447 295.573 232.413 294.712C233.38 293.851 231.708 292.757 228.07 291.955C223.871 291.03 224.667 286.228 224.667 286.228L215.482 276.006Z" fill="#C98C5F"/>
<path d="M336.541 159.734C336.541 159.734 333.312 165.848 335.007 167.801C335.007 167.801 313.351 172.118 303.261 166.096C303.261 166.096 302.407 156.86 311.827 154.358L336.541 159.734Z" fill="#C98C5F"/>
<path d="M295.443 125.607C295.443 125.607 312.152 152.606 314.755 155.21C314.755 155.21 309.011 167.29 303.26 166.097L287.088 144.252C287.088 144.252 285.678 130.598 295.443 125.607Z" fill="#C98C5F"/>
<path d="M342.007 86.2669C341.385 90.3985 339.534 110.36 339.57 115.027C339.606 119.693 340.54 244.031 340.162 248.263C339.784 252.494 338.784 296.761 338.784 296.761C338.784 296.761 337.473 297.738 336.761 296.761C336.761 296.761 337.964 251.518 338.252 247.286C338.54 243.055 337.562 222.224 337.829 217.015C338.096 211.808 338.94 205.126 338.784 198.539C338.629 191.953 337.384 138.378 337.74 127.571C338.096 116.764 340.548 75.8781 340.789 70.9322C341.03 65.9862 342.63 82.1354 342.007 86.2669Z" fill="#E3AA24"/>
<path d="M340.159 155.255C341.558 154.879 342.905 155.993 342.802 157.438C342.499 161.674 341.736 169.114 340.101 169.66C337.804 170.426 334.358 170.042 333.976 168.32C333.593 166.597 334.55 158.059 334.741 157.255C334.856 156.772 337.821 155.884 340.159 155.255Z" fill="#C98C5F"/>
<path d="M340.296 159.001L335.007 159.734" stroke="#191919" stroke-width="0.5" stroke-miterlimit="10" stroke-linecap="round"/>
<path d="M339.645 162.609L334.089 163.091" stroke="#191919" stroke-width="0.5" stroke-miterlimit="10" stroke-linecap="round"/>
<path d="M338.994 166.18H334.089" stroke="#191919" stroke-width="0.5" stroke-miterlimit="10" stroke-linecap="round"/>
<path d="M335.268 157.718C335.268 157.718 337.84 160.759 336.791 162.154C335.741 163.549 335.234 164.105 333.858 162.453C332.481 160.8 330.345 158.411 330.79 157.644C331.235 156.877 332.786 154.321 335.268 157.718Z" fill="#C98C5F"/>
<path d="M247.458 212.394C247.458 212.394 244.232 238.198 240.649 241.424C237.065 244.649 213.412 276.904 213.412 276.904C213.412 276.904 222.013 290.164 226.313 289.447L264.661 245.007L278.638 212.394C278.638 212.394 295.123 245.394 295.482 250.935C295.841 256.476 301.933 291.956 301.933 291.956L323.077 288.014C323.077 288.014 316.269 232.465 315.193 231.031C314.118 229.598 299.424 199.494 299.424 199.494L247.458 212.394Z" fill="#422F2A"/>
<path d="M283.117 113.211C283.117 113.211 274.516 116.974 271.559 124.232C268.602 131.49 240.648 214.545 240.648 214.545C240.648 214.545 261.076 223.863 267.168 223.146L273.261 206.302L276.486 223.185C276.486 223.185 299.065 223.146 308.383 219.562C308.383 219.562 310.533 160.07 301.215 125.307C301.215 125.307 295.123 108.642 283.117 113.211Z" fill="#4A6B3E"/>
<path d="M294.109 84.0866C300.781 82.9347 307.416 86.3287 310.709 92.2458C311.368 93.4294 311.823 94.2481 311.585 95.2528C310.915 98.0818 314.452 112.867 311.572 113.628C308.692 114.39 294.424 114.834 289.133 106.77C284.87 100.273 281.679 86.2317 294.109 84.0866Z" fill="#C98C5F"/>
<path d="M301.839 110.462L298.119 122.35C298.119 122.35 288.875 118.54 286.028 113.077L290.877 102.627L301.839 110.462Z" fill="#C98C5F"/>
<path d="M300.365 86.17C300.365 86.17 299.85 90.6964 297.296 91.7328L297.619 101.213C297.619 101.213 290.301 100.113 289.134 106.769C289.134 106.769 282.651 100.222 283.752 91.2895C283.752 91.2895 290.607 84.9168 300.365 86.17Z" fill="#542E1C"/>
<path d="M290.079 100.16C289.862 102.516 291.482 104.59 293.697 104.794C295.911 104.997 297.883 103.252 298.1 100.897C298.316 98.5409 296.697 96.4663 294.482 96.2627C292.267 96.06 290.296 97.8041 290.079 100.16Z" fill="#C98C5F"/>
<path d="M293.104 98.5991C293.104 98.5991 294.836 99.1992 295.101 100.988C295.101 100.988 292.612 100.833 293.42 102.158" stroke="#191919" stroke-width="0.5" stroke-miterlimit="10" stroke-linecap="round"/>
<path d="M311.514 96.8981C311.514 96.8981 311.729 98.4113 312.936 100.03C314.144 101.649 314.174 103.321 311.239 104.241L311.514 96.8981Z" fill="#C98C5F"/>
<path d="M311.033 105.39C311.033 105.39 308.656 106.74 306.654 104.586L311.033 105.39Z" fill="#191919"/>
<path d="M286.028 102.377C286.028 102.377 295.745 91.7072 309.747 90.7255L308.843 85.2093C308.843 81.2602 302.86 82.0604 302.86 82.0604C302.86 82.0604 287.043 78.4682 283.121 90.8735C283.121 90.8735 277.76 96.7633 286.028 102.377Z" fill="#EBE5D8"/>
<path d="M283.121 90.8735C283.121 90.8735 291.415 83.8768 308.843 85.2093C308.843 85.2093 290.155 86.259 285.344 100.987" stroke="#655F51" stroke-width="0.5" stroke-miterlimit="10" stroke-linecap="round" stroke-linejoin="round"/>
<path d="M302.86 82.0604C302.86 82.0604 299.643 83.8865 299.03 85.3345" stroke="#655F51" stroke-width="0.5" stroke-miterlimit="10" stroke-linecap="round" stroke-linejoin="round"/>
<path d="M287.018 145.893C287.018 145.893 274.426 137.404 269.752 139.325L264.875 167.739C264.875 167.739 271.415 182.506 277.111 174.81L287.018 145.893Z" fill="#C98C5F"/>
<path d="M286.816 197.927C286.816 197.927 281.904 199.684 280.898 200.679C280.898 200.679 264.255 177.301 264.875 167.74C264.875 167.74 270.498 156.979 278.242 167.626L286.816 197.927Z" fill="#C98C5F"/>
<path d="M304.717 291.436C304.717 291.436 304.221 293.803 305.501 294.497C306.782 295.192 319.843 293.751 323.076 293.591C326.31 293.431 335.69 293.297 336.037 292.05C336.384 290.803 337.28 290.939 329.195 290.113C324.917 289.676 323.076 288.013 323.076 288.013L304.717 291.436Z" fill="#C98C5F"/>
<path d="M293.063 207.356C293.063 207.356 293.82 214.137 294.23 215.268C294.641 216.398 292.402 215.878 291.786 214.747C291.17 213.615 290.779 208.798 290.681 208.8C290.583 208.803 293.063 207.356 293.063 207.356Z" fill="#C98C5F"/>
<path d="M291.614 205.401C291.614 205.401 295.767 210.815 296.703 211.57C297.638 212.327 295.453 213.039 294.341 212.388C293.228 211.738 290.404 207.816 290.321 207.869C290.238 207.923 291.614 205.401 291.614 205.401Z" fill="#C98C5F"/>
<path d="M286.139 195.415C286.139 195.415 291.521 203.809 293.054 206.906C294.034 208.886 292.079 213.058 291.572 215.288C291.065 217.518 288.542 215.603 288.846 213.271C289.15 210.939 289.095 209.3 289.095 209.3L286.949 206.394C285.749 206.074 286.916 206.566 283.517 205.219C282.104 204.658 278.878 201.356 279.411 198.743L286.139 195.415Z" fill="#C98C5F"/>
<path d="M290.47 204.427C290.47 204.427 292.166 207.181 292.675 208.501C293.183 209.819 292.583 212.572 292.583 212.572" stroke="#191919" stroke-width="0.5" stroke-miterlimit="10" stroke-linecap="round"/>
<path d="M210.481 280.244C210.481 280.244 219.828 293.599 221.204 293.84C222.581 294.079 221.876 291.446 226.25 291.622C230.625 291.799 233.633 293.54 233.325 294.859C233.018 296.18 220.9 295.322 220.06 295.481C219.219 295.639 209.555 281.474 209.615 281.114C209.676 280.754 210.481 280.244 210.481 280.244Z" fill="#422F2A"/>
<path d="M304.623 292.879C304.623 292.879 326.546 291.339 327.266 291.349C327.986 291.359 327.656 289.668 329.516 289.787C331.377 289.907 336.91 290.662 336.762 291.349C336.614 292.037 335.398 293.12 335.189 293.12C334.979 293.12 306.401 295.655 305.026 294.686C304.278 294.158 304.623 292.879 304.623 292.879Z" fill="#422F2A"/>
<path d="M167.185 198.872C138.51 198.872 115.265 222.118 115.265 250.792C115.265 279.466 138.51 302.711 167.185 302.711C195.859 302.711 219.104 279.466 219.104 250.792C219.104 222.118 195.859 198.872 167.185 198.872ZM167.185 285.045C148.267 285.045 132.931 269.709 132.931 250.792C132.931 231.875 148.266 216.538 167.185 216.538C186.103 216.538 201.438 231.874 201.438 250.792C201.437 269.709 186.102 285.045 167.185 285.045Z" fill="#422F2A"/>
<path d="M169.345 202.596H165.023V298.987H169.345V202.596Z" fill="#422F2A"/>
<path d="M215.38 252.953V248.631L118.988 248.631V252.953L215.38 252.953Z" fill="#422F2A"/>
<path d="M202.787 218.236L199.731 215.18L131.572 283.339L134.628 286.395L202.787 218.236Z" fill="#422F2A"/>
<path d="M199.739 286.4L202.795 283.344L134.636 215.185L131.58 218.241L199.739 286.4Z" fill="#422F2A"/>
<path d="M212.499 234.283L210.84 230.292L121.831 267.297L123.49 271.288L212.499 234.283Z" fill="#422F2A"/>
<path d="M183.695 296.104L187.686 294.444L150.681 205.436L146.69 207.095L183.695 296.104Z" fill="#422F2A"/>
<path d="M210.835 271.291L212.494 267.3L123.486 230.286L121.826 234.276L210.835 271.291Z" fill="#422F2A"/>
<path d="M187.704 207.121L183.713 205.461L146.708 294.47L150.699 296.129L187.704 207.121Z" fill="#422F2A"/>
<path d="M175.955 259.565C180.801 254.719 180.801 246.863 175.955 242.017C171.109 237.172 163.253 237.172 158.408 242.017C153.562 246.863 153.562 254.719 158.408 259.565C163.253 264.41 171.109 264.41 175.955 259.565Z" fill="#422F2A"/>
<path d="M167.184 256.905C170.561 256.905 173.298 254.168 173.298 250.792C173.298 247.415 170.561 244.678 167.184 244.678C163.808 244.678 161.071 247.415 161.071 250.792C161.071 254.168 163.808 256.905 167.184 256.905Z" fill="#422F2A"/>
<path d="M167.185 207.987C143.544 207.987 124.379 227.151 124.379 250.791C124.379 274.431 143.543 293.596 167.185 293.596C190.826 293.596 209.99 274.432 209.99 250.791C209.989 227.152 190.825 207.987 167.185 207.987ZM167.185 285.045C148.267 285.045 132.931 269.709 132.931 250.791C132.931 231.874 148.266 216.538 167.185 216.538C186.103 216.538 201.438 231.874 201.438 250.791C201.437 269.709 186.102 285.045 167.185 285.045Z" fill="#422F2A"/>
<path d="M214.028 152.298L19.2332 199.373L36.3261 270.103L231.121 223.027L214.028 152.298Z" fill="#624036"/>
<path d="M225.631 200.31L30.8362 247.385L32.8261 255.619L227.621 208.544L225.631 200.31Z" fill="#7D5B54"/>
<path d="M193.119 84.6608C191.956 87.6335 190.312 89.7689 189.447 89.4296C188.582 89.0912 188.822 86.4067 189.984 83.4349C191.146 80.4623 192.79 78.3269 193.656 78.6662C194.522 79.0046 194.281 81.6891 193.119 84.6608Z" fill="#FFC725"/>
<path d="M136.039 94.8761C134.876 97.8488 133.233 99.9842 132.366 99.6449C131.501 99.3065 131.742 96.622 132.903 93.6502C134.066 90.6776 135.709 88.5421 136.576 88.8814C137.442 89.2199 137.201 91.9035 136.039 94.8761Z" fill="#FFC725"/>
<path d="M129.64 98.7432C131.269 101.488 131.942 104.097 131.143 104.571C130.344 105.045 128.375 103.206 126.745 100.462C125.116 97.7174 124.443 95.1079 125.242 94.6337C126.041 94.1596 128.01 95.9997 129.64 98.7432Z" fill="#FFC725"/>
<path d="M234.878 102.677C232.466 99.2244 223.607 98.8657 223.607 98.8657C211.338 84.0034 202.203 93.5726 202.203 93.5726C191.072 86.6728 191.977 98.2638 191.977 98.2638C182.933 85.6805 167.03 100.803 167.03 100.803C148.683 87.3708 128.324 108.652 128.324 108.652C126.41 96.2773 113.936 102.707 113.936 102.707C108.233 90.9948 95.0546 100.936 95.0546 100.936C69.36 75.2053 54.9956 96.3584 54.9956 96.3584C48.9075 91.6046 44.0489 95.374 40.9035 99.7418C40.9035 99.7418 6.79507 95.4612 12.558 116.612C12.558 116.612 -6.41045 121.934 4.87471 131.288C4.87471 131.288 -27.0586 144.369 -11.9327 160.513C-7.82672 164.895 -3.72334 167.954 0.108589 170.021C-11.1722 171.615 -21.272 176.011 -11.2127 184.795C-4.28121 190.848 2.54805 193.432 8.14965 194.1C2.30217 199.445 -1.87436 206.366 4.87382 206.563C16.879 206.912 19.2277 199.382 19.2277 199.382L52.7712 191.276C52.7712 191.276 53.0541 199.789 55.1348 199.469C56.6701 199.233 58.1154 194.645 58.2556 192.51C59.9873 194.262 65.4664 197.212 67.4599 194.347C69.0648 192.04 66.5231 190.3 64.8328 189.517C67.8433 190.101 75.063 190.189 77.7043 188.104C80.7457 185.703 79.4845 184.821 79.4845 184.821L156.936 166.106C156.936 166.106 153.417 171.936 158.058 170.816C162.7 169.696 161.42 166.174 161.42 166.174C161.42 166.174 164.941 171.936 166.542 169.215C168.142 166.494 164.923 164.176 164.923 164.176L187.187 158.796L211.527 152.916C211.527 152.916 244.93 145.685 229.106 126.957C228.609 126.369 228.125 125.822 227.656 125.316C235.741 120.601 240.99 111.423 234.878 102.677Z" fill="#FFC725"/>
<path d="M52.773 191.275C52.773 191.275 18.8294 135.433 40.9044 99.7418" stroke="#655F51" stroke-width="0.5" stroke-miterlimit="10"/>
<path d="M113.936 102.707C113.936 102.707 77.3862 139.922 85.0694 183.621" stroke="#655F51" stroke-width="0.5" stroke-miterlimit="10"/>
<path d="M167.031 100.802C167.031 100.802 165.417 142.65 187.189 158.796" stroke="#655F51" stroke-width="0.5" stroke-miterlimit="10"/>
<path d="M452.49 185.691C447.277 179.32 443.255 156.455 443.196 154.624C443.106 151.831 439.169 148.911 436.272 146.705C433.376 144.499 426.425 141.96 422.95 141.96C419.475 141.96 418.316 145.435 403.546 149.779C388.776 154.123 386.748 148.621 386.748 148.621C387.038 134.43 379.218 126.61 371.11 123.425C363.001 120.239 357.788 127.769 353.444 135.299C349.1 142.829 346.204 142.829 318.111 145.435C290.019 148.042 251.791 141.96 248.315 141.96C244.84 141.96 236.73 147.173 226.015 151.228C215.299 155.283 215.299 172.08 218.775 191.941C222.25 211.801 240.496 213.494 266.561 219.576C292.625 225.658 309.133 225.658 323.904 224.499C324.343 224.465 324.795 224.43 325.257 224.397C325.259 224.398 336.504 229.423 355.616 236.807C374.731 244.193 388.704 224.209 394.786 219.431C400.868 214.652 401.085 210.743 402.171 203.357C402.826 198.908 405.107 197.178 406.82 196.5C406.986 196.478 407.161 196.394 407.312 196.448C417.703 200.117 414.552 192.931 418.317 191.94C422.082 190.948 430.191 192.641 431.929 191.94C433.667 191.238 441.196 196.985 446.988 196.406C452.78 195.827 457.704 192.062 452.49 185.691Z" fill="#EBE5D8"/>
<path d="M434.018 149.407C434.525 148.979 434.473 148.19 433.922 147.821C431.459 146.169 426.221 141.573 430.095 134.212C435.048 124.805 443.066 125.246 442.148 124.734C441.229 124.222 429.121 121.433 423.925 131.751C419.951 139.643 424.469 146.991 426.587 148.95C428.507 150.282 430.733 151.553 433.394 149.933L434.018 149.407Z" fill="#655F51"/>
<path d="M357.173 267.252C358.441 267.071 360.251 266.637 362.422 265.623C366.766 263.596 378.93 257.225 376.034 252.881C373.138 248.537 355.135 229.8 349.39 226.526C343.646 223.252 343.053 214.652 343.053 214.652L377.772 212.625C377.772 212.625 372.559 224.789 377.772 233.188C382.985 241.587 389.067 255.198 386.46 257.515C383.854 259.832 370.531 270.258 367.635 273.154C364.739 276.05 358.947 275.181 358.947 275.181" fill="#EBE5D8"/>
<path d="M287.413 207.701C287.413 207.701 271.484 203.682 266.271 225.096C261.058 246.509 262.796 261.858 269.457 268.229C276.118 274.6 287.413 290.819 287.413 290.819C287.413 290.819 293.784 294.294 294.653 298.059C294.653 298.059 285.965 299.797 281.331 298.059C281.331 298.059 248.027 253.459 247.447 251.722C246.868 249.984 250.633 225.077 243.392 220.444C236.152 215.81 221.866 208.26 219.655 195.631C217.447 183.001 287.413 207.701 287.413 207.701Z" fill="#EBE5D8"/>
<path d="M199.372 237.531C199.372 237.531 203.137 234.345 207.77 223.34C212.404 212.335 204.295 185.98 205.743 178.161C207.191 170.341 221.672 159.336 221.672 159.336V165.411C221.672 165.411 209.621 174.028 209.187 180.11C208.752 186.193 221.165 221.096 199.372 237.531Z" fill="#EBE5D8"/>
<path d="M437.793 179.981C437.793 179.981 418.905 166.347 406.031 149.016" stroke="#BF9779" stroke-width="2" stroke-miterlimit="10" stroke-linecap="round"/>
<path d="M452.616 194.466C452.616 194.466 450.809 194.383 450.449 193.361C450.144 192.494 450.789 185.55 451.958 187.168C454.444 190.606 454.599 189.703 454.599 189.703C455.171 193.115 452.616 194.466 452.616 194.466Z" fill="#4F4D48"/>
<path d="M359.526 219.575C359.526 219.575 359.236 249.695 359.526 254.618C359.816 259.541 358.947 281.841 362.132 285.606C365.318 289.371 367.924 289.95 370.241 296.611C370.241 296.611 363.902 296.901 359.397 296.611C359.397 296.611 354.313 292.267 354.023 288.212C353.733 284.157 354.023 271.704 351.996 265.913C349.969 260.121 348.521 256.645 347.941 254.908C347.362 253.17 343.051 216.969 343.051 216.969L359.526 219.575Z" fill="#EBE5D8"/>
<path d="M245.709 202.488C245.709 202.488 237.855 249.695 238.145 254.619C238.435 259.542 237.566 281.842 240.751 285.607C243.937 289.372 246.543 289.951 248.86 296.612C248.86 296.612 242.521 296.902 238.016 296.612C238.016 296.612 232.932 292.268 232.642 288.213C232.352 284.158 232.642 271.705 230.615 265.913C228.588 260.121 227.14 256.646 226.56 254.909C225.981 253.171 217.756 185.447 217.756 185.447L245.709 202.488Z" fill="#EBE5D8"/>
<path d="M415.286 166.577C415.286 166.577 413.992 174.831 415.286 177.003C416.58 179.175 433.139 192.035 433.139 192.035" stroke="#655F51" stroke-width="0.5" stroke-miterlimit="10"/>
<path d="M205.304 229.922C205.304 229.922 208.315 236.756 202.461 246.143C196.609 255.53 196.056 260.941 196.056 260.941L196.719 248.904C196.719 248.904 195.283 253.763 194.62 255.861C194.62 255.861 191.307 246.806 196.497 238.523C201.689 230.241 205.304 229.922 205.304 229.922Z" fill="#655F51"/>
<path d="M422.334 155.603C422.334 155.603 405.023 171.826 407.292 172.343C409.562 172.86 417.873 167.907 418.904 166.347C419.936 164.786 422.334 155.603 422.334 155.603Z" fill="#D49985"/>
<path d="M407.165 171.539C407.579 168.313 421.754 146.418 421.754 146.418L421.912 156.001L407.165 171.539Z" fill="#EBE5D8"/>
<path d="M421.754 146.418C421.754 146.418 407.58 168.313 407.165 171.539" stroke="#655F51" stroke-width="0.5" stroke-miterlimit="10" stroke-linecap="round" stroke-linejoin="round"/>
<path d="M267.931 219.889C267.931 219.889 256.181 216.935 241.407 212.624" stroke="#655F51" stroke-width="0.5" stroke-miterlimit="10" stroke-linecap="round" stroke-linejoin="round"/>
<path d="M377.771 233.187C377.771 233.187 378.352 226.152 376.902 219.575C375.452 212.998 380.137 203.26 380.137 196.058" stroke="#655F51" stroke-width="0.5" stroke-miterlimit="10" stroke-linecap="round" stroke-linejoin="round"/>
<path d="M346.25 233.536C353.35 236.351 360.169 238.659 362.875 238.393C362.875 238.393 353.231 229.018 351.311 227.772C349.39 226.526 344.495 224.543 343.053 216.968" stroke="#655F51" stroke-width="0.5" stroke-miterlimit="10" stroke-linecap="round" stroke-linejoin="round"/>
<path d="M363.851 287.435C360.537 290.884 354.339 289.741 354.339 289.741C355.507 293.288 359.398 296.611 359.398 296.611C363.903 296.901 370.242 296.611 370.242 296.611C368.355 291.189 366.277 289.797 363.851 287.435Z" fill="#655F51"/>
<path d="M287.413 290.819C281.306 292.518 276.487 291.559 276.487 291.559C279.41 295.487 281.331 298.059 281.331 298.059C285.965 299.797 294.653 298.059 294.653 298.059C293.784 294.295 287.413 290.819 287.413 290.819Z" fill="#655F51"/>
<path d="M241.948 286.915C236.466 289.029 232.595 286.925 232.578 286.916C232.597 287.401 232.617 287.851 232.644 288.213C232.934 292.268 238.018 296.612 238.018 296.612C242.523 296.902 248.862 296.612 248.862 296.612C246.841 290.804 244.6 289.619 241.948 286.915Z" fill="#655F51"/>
<path d="M359.653 266.689C356.894 267.527 355.182 267.361 355.182 267.361C346.783 280.682 346.396 282.182 346.396 282.182C353.355 282.431 358.32 277.169 358.823 275.603L358.946 275.18C358.946 275.18 357.546 269.662 359.653 266.689Z" fill="#655F51"/>
<path d="M450.148 181.649C450.148 181.649 443.287 177.663 437.794 179.981C435.93 180.768 432.324 186.505 433.14 192.035" stroke="#BF9779" stroke-width="2" stroke-miterlimit="10" stroke-linecap="round"/>
<path d="M154.776 203.161C126.102 203.161 102.857 226.406 102.857 255.08C102.857 283.755 126.102 307 154.776 307C183.451 307 206.696 283.755 206.696 255.08C206.696 226.406 183.451 203.161 154.776 203.161ZM154.776 289.333C135.859 289.333 120.523 273.998 120.523 255.079C120.523 236.161 135.858 220.827 154.776 220.827C173.694 220.827 189.029 236.162 189.029 255.079C189.029 273.997 173.695 289.333 154.776 289.333Z" fill="#7D5B54"/>
<path d="M156.937 206.884H152.615V303.276H156.937V206.884Z" fill="#7D5B54"/>
<path d="M202.972 257.241V252.919L106.581 252.919V257.241H202.972Z" fill="#7D5B54"/>
<path d="M190.384 222.525L187.328 219.469L119.169 287.628L122.225 290.684L190.384 222.525Z" fill="#7D5B54"/>
<path d="M187.331 290.688L190.387 287.632L122.228 219.473L119.172 222.529L187.331 290.688Z" fill="#7D5B54"/>
<path d="M200.089 238.569L198.429 234.578L109.421 271.583L111.08 275.574L200.089 238.569Z" fill="#7D5B54"/>
<path d="M171.287 300.431L175.278 298.772L138.263 209.773L134.273 211.432L171.287 300.431Z" fill="#7D5B54"/>
<path d="M198.453 275.561L200.112 271.57L111.113 234.556L109.454 238.546L198.453 275.561Z" fill="#7D5B54"/>
<path d="M175.275 211.429L171.284 209.769L134.27 298.778L138.26 300.438L175.275 211.429Z" fill="#7D5B54"/>
<path d="M166.849 257.974C168.448 251.31 164.343 244.612 157.679 243.012C151.016 241.413 144.317 245.518 142.718 252.182C141.118 258.845 145.224 265.544 151.887 267.143C158.551 268.743 165.249 264.637 166.849 257.974Z" fill="#422F2A"/>
<path d="M154.776 261.194C151.4 261.194 148.663 258.457 148.663 255.08C148.663 251.704 151.4 248.967 154.776 248.967C158.153 248.967 160.89 251.704 160.89 255.08C160.89 258.457 158.153 261.194 154.776 261.194Z" fill="#7D5B54"/>
<path d="M154.777 212.275C131.136 212.275 111.971 231.439 111.971 255.079C111.971 278.72 131.135 297.884 154.777 297.884C178.417 297.884 197.581 278.72 197.581 255.079C197.581 231.439 178.417 212.275 154.777 212.275ZM154.777 289.333C135.859 289.333 120.523 273.998 120.523 255.079C120.523 236.161 135.858 220.826 154.777 220.826C173.695 220.826 189.03 236.162 189.03 255.079C189.03 273.997 173.695 289.333 154.777 289.333Z" fill="#422F2A"/>
</svg>
