<svg width="32" height="32" viewBox="0 0 32 32" fill="none" xmlns="http://www.w3.org/2000/svg">
<path fill-rule="evenodd" clip-rule="evenodd" d="M12.8001 12.7999C11.0328 12.7999 9.6001 11.3672 9.6001 9.5999C9.6001 7.83259 11.0328 6.3999 12.8001 6.3999H16.0001H19.2001C20.9674 6.3999 22.4001 7.83259 22.4001 9.5999C22.4001 11.3672 20.9674 12.7999 19.2001 12.7999H16.0001V15.9999V19.1999V22.3999C16.0001 24.1672 14.5674 25.5999 12.8001 25.5999C11.0328 25.5999 9.6001 24.1672 9.6001 22.3999C9.6001 20.6334 11.0314 19.2012 12.7976 19.1999C11.0314 19.1986 9.6001 17.7664 9.6001 15.9999C9.6001 14.2326 11.0328 12.7999 12.8001 12.7999ZM16.0001 15.9999C16.0001 17.7672 17.4328 19.1999 19.2001 19.1999C20.9674 19.1999 22.4001 17.7672 22.4001 15.9999C22.4001 14.2326 20.9674 12.7999 19.2001 12.7999C17.4328 12.7999 16.0001 14.2326 16.0001 15.9999Z" fill="#6F647C"/>
</svg>
