<svg width="615" height="198" viewBox="0 0 615 198" fill="none" xmlns="http://www.w3.org/2000/svg">
<path opacity="0.1" d="M599.193 158.285L594.701 146.285L593.306 142.518L592.589 140.632C591.877 138.71 589.611 137.744 587.586 138.467L586.95 138.7L588.941 144.045L584.325 131.774L583.699 130.12C579.588 119.195 566.802 113.699 555.095 117.825L553.982 118.233L548.447 103.464C550.033 102.919 550.861 99.077 550.662 98.7979C550.432 98.4418 549.96 98.2097 549.529 98.3147C548.628 98.521 548.476 99.9498 547.682 100.241C547.975 99.6405 548.049 98.9445 547.775 98.2878C547.474 97.5174 546.845 96.9733 546.104 96.7513C546.233 96.6161 546.358 96.5175 546.487 96.3823C547.515 95.3371 547.961 92.9382 547.345 91.5439L550.483 91.8569L550.788 62.7508C550.775 62.1571 550.644 61.5888 550.434 61.0495C550.301 60.1477 549.937 59.2598 549.372 58.4631L534.079 38.4632C532.383 35.3693 528.058 34.0122 524.054 32.8723L524.077 32.6525L519.653 31.5077L518.278 31.1484L517.781 27.9149L517.252 24.2709C517.252 24.2709 517.369 24.2456 517.411 24.2127C519.114 18.6072 519.486 15.8306 519.254 13.6972L519.266 13.5873C519.229 13.2134 519.189 12.8762 519.11 12.5352L518.606 9.37497C517.97 6.01652 514.572 3.123 511.087 2.84934L505.518 2.40491C500.631 2.02836 496.781 5.90186 496.279 10.6276C496.263 10.7742 496.247 10.9207 496.232 11.0672L496.115 12.1662C496.115 12.1662 494.129 12.5234 491.942 12.9717C489.445 13.463 486.751 14.0088 486.732 14.1919C487.911 15.6794 489.622 16.1093 491.921 16.0424C493.109 16.0128 494.467 15.8151 495.98 15.5958C495.977 16.336 496.051 17.0838 496.154 17.9086C496.252 18.0664 496.346 18.2609 496.447 18.3821C496.575 18.617 496.711 18.7786 496.809 18.9365C496.91 19.0577 496.974 19.1752 496.974 19.1752L496.943 19.4682L496.829 19.827L496.101 22.7162C495.948 23.4414 496.52 24.1649 497.318 24.2074L498.49 24.3243C498.639 25.0797 499.132 29.4234 499.132 29.4234C499.315 30.2192 499.683 31.0704 500.217 31.7901C500.349 31.9883 500.522 32.1537 500.696 32.3191C501.42 33.0577 502.401 33.5259 503.574 33.2727L505.019 32.9726L501.164 35.1055C501.164 35.1055 500.887 35.189 500.728 35.2471C500.49 35.3344 500.289 35.4255 500.089 35.5165C499.608 35.7277 499.127 35.9389 498.71 36.2675C498.297 36.5595 497.914 36.9285 497.573 37.2647C496.932 37.9042 496.388 38.7015 496.136 39.6389L489.919 61.8245L489.239 64.2741C489.06 64.5154 488.848 64.7164 488.67 64.9577L487.001 67.7161L475.57 86.4936L476.976 87.6336L476.836 87.8787C475.154 90.0433 474.113 93.0123 473.769 94.0887C473.704 94.3414 473.601 94.5903 473.544 94.7697C473.359 95.7879 473.092 99.0192 473.092 99.0192L474.223 103.834C474.387 104.443 475.07 104.844 475.766 104.765C476.001 104.715 476.202 104.624 476.327 104.525C476.674 104.856 477.271 104.989 477.744 104.851C478.141 104.706 478.403 104.399 478.476 104.073C478.627 104.088 478.786 104.03 478.907 103.968C479.471 103.691 479.613 103.076 479.286 102.562L478.691 101.688C478.953 101.381 479 100.941 478.732 100.581L476.877 97.9158L476.722 96.4936L476.812 95.651L478.49 93.523L478.137 96.1165C478.075 96.7026 478.546 97.3049 479.26 97.4132C479.974 97.5215 480.588 97.1384 480.688 96.5561L481.252 92.688C481.276 92.4682 481.371 92.2925 481.47 92.0803L481.747 91.6267L484.104 93.5278L494.282 77.9202L489.829 109.389L491.417 109.548C490.801 110.671 490.151 111.754 489.576 112.844C486.546 118.354 484.095 123.441 483.416 126.594L483.412 126.631C483.347 126.883 483.282 127.136 483.255 127.393L483.232 127.612L477.189 169.363C477.026 170.532 477.556 171.658 478.477 172.342C478.76 172.556 479.088 172.699 479.42 172.807C478.48 173.749 477.188 174.398 475.981 174.981C475.011 175.477 472.977 175.57 470.903 176.029C470.472 176.134 470.082 176.207 469.692 176.279C467.43 176.72 465.607 176.982 464.598 177.844C463.621 178.413 463.59 179.78 463.26 181.45C463.195 181.702 463.281 181.97 463.496 182.103C465.466 183.336 469.413 184.655 472.725 184.763L475.504 184.855L482.585 185.081C482.585 185.081 482.812 185.103 482.925 185.115L484.21 185.243L487.204 185.467C487.734 185.52 488.271 185.5 488.778 185.402L490.601 185.14C490.601 185.14 490.839 185.053 490.927 184.95C491.238 184.537 490.858 177.687 490.679 176.855L490.687 176.781C490.635 176.554 490.319 175.93 490.065 175.09C490.065 175.09 490.065 175.09 490.103 175.094C490.178 175.102 490.292 175.113 490.375 175.047C490.45 175.055 490.526 175.062 490.609 174.997L490.685 175.004C490.761 175.012 490.882 174.95 490.961 174.921C491.037 174.928 491.12 174.862 491.2 174.833C491.238 174.837 491.275 174.841 491.321 174.771C491.321 174.771 491.359 174.775 491.397 174.779C491.397 174.779 491.472 174.786 491.514 174.754L491.552 174.757C491.631 174.728 491.711 174.699 491.794 174.633C491.794 174.633 491.874 174.604 491.915 174.571C491.995 174.542 492.078 174.477 492.158 174.448C492.158 174.448 492.158 174.448 492.195 174.451C492.195 174.451 492.237 174.418 492.279 174.386C492.279 174.386 492.317 174.389 492.358 174.357C492.358 174.357 492.438 174.327 492.442 174.291C492.525 174.225 492.608 174.159 492.692 174.094C492.692 174.094 492.73 174.097 492.775 174.028C492.775 174.028 492.859 173.962 492.9 173.929C492.9 173.929 492.984 173.864 492.988 173.827C492.988 173.827 492.992 173.79 493.033 173.757C493.12 173.655 493.204 173.589 493.329 173.491C493.375 173.421 493.416 173.388 493.462 173.319C493.462 173.319 493.466 173.282 493.507 173.249C493.507 173.249 493.511 173.213 493.553 173.18C493.64 173.078 493.731 172.939 493.781 172.832C493.789 172.759 493.83 172.726 493.876 172.657C493.925 172.551 493.975 172.445 494.024 172.338C494.032 172.265 494.116 172.199 494.165 172.093C494.177 171.983 494.264 171.881 494.276 171.771C494.276 171.771 494.276 171.771 494.28 171.734C494.386 171.449 494.418 171.156 494.487 170.867C494.49 170.83 494.494 170.793 494.502 170.72C496.209 164.004 497.519 157.434 498.246 150.953C499.011 144.477 499.231 138.094 498.823 131.87C498.91 131.768 499.039 131.633 499.126 131.53C501.82 128.467 505.044 124.013 508.296 119.302C509.175 124.684 511.63 132.852 512.881 135.457C512.881 135.457 512.877 135.494 512.873 135.531C512.963 135.762 513.091 135.997 513.219 136.231L534.169 173.456C534.748 174.476 535.865 175.106 537.014 175.072C537.434 175.077 537.866 174.972 538.263 174.827L539.225 174.404C538.998 175.455 538.47 176.476 537.983 177.464C537.545 178.346 536.082 179.533 534.822 180.962C534.56 181.269 534.302 181.54 534.082 181.814C532.656 183.375 531.423 184.548 531.185 185.708C530.778 186.667 531.546 187.707 532.237 189.108C532.327 189.34 532.542 189.472 532.773 189.458C534.929 189.303 538.638 188.192 541.15 186.48L543.249 185.061L548.637 181.452C548.637 181.452 548.804 181.32 548.883 181.291L549.413 180.974L549.902 180.69L550.19 180.496L552.273 179.223C552.683 178.968 553.058 178.672 553.437 178.34L554.332 177.466L554.632 177.163C554.632 177.163 554.768 176.955 554.784 176.808C554.797 176.328 550.619 171.431 549.985 170.924L549.947 170.92C549.947 170.92 549.23 170.478 548.559 169.967C549.822 168.501 550.12 166.421 549.203 164.626C549.139 164.509 549.075 164.391 549.011 164.274C548.339 162.689 547.63 161.1 546.916 159.548C546.202 157.996 545.447 156.477 544.692 154.958C540.528 146.693 535.719 139.105 530.133 132.365C529.624 131.759 529.115 131.153 528.607 130.547C528.611 130.511 528.619 130.437 528.626 130.364C528.682 129.481 528.471 127.868 528.391 126.823C528.399 126.75 528.411 126.64 528.381 126.563C528.252 124.181 527.471 120.031 527.398 117.839C527.382 116.912 527.336 115.908 527.286 114.94C527.265 114.42 527.244 113.899 527.227 113.342L530.1 113.629C530.1 113.629 531.225 65.3158 532.424 56.5501L538.464 64.4091L539.524 91.0968L540.96 91.2401C540.96 91.2401 540.873 91.3425 540.827 91.412C540.591 91.8327 540.433 99.0733 540.763 99.9207C541.037 100.577 541.886 101.217 542.493 101.611C543.139 102.009 543.678 102.322 544.226 102.562L574.475 183.104C574.475 183.104 574.309 183.236 574.225 183.301C574.142 183.367 574.055 183.469 573.933 183.531C573.767 183.663 573.634 183.835 573.501 184.006C573.455 184.076 573.372 184.142 573.326 184.211C573.148 184.453 572.969 184.694 572.863 184.979C572.855 185.053 572.809 185.122 572.764 185.192C572.665 185.404 572.566 185.616 572.505 185.832C572.493 185.942 572.481 186.052 572.432 186.158C572.412 186.341 572.389 186.561 572.369 186.744C572.358 186.854 572.346 186.964 572.334 187.074C572.311 187.294 572.329 187.481 572.344 187.704C572.332 187.814 572.324 187.887 572.388 188.005C572.433 188.306 572.515 188.61 572.635 188.918C572.755 189.226 572.913 189.538 573.112 189.817C574.192 191.517 576.311 192.432 578.448 192.09C578.796 192.05 579.152 191.938 579.507 191.825C581.612 191.072 582.952 189.244 583.083 187.295C583.153 186.635 583.034 185.957 582.798 185.304C582.678 184.996 582.554 184.725 582.393 184.449C582.325 184.368 582.295 184.291 582.227 184.211C582.091 184.049 581.956 183.887 581.82 183.726C581.752 183.645 581.647 183.56 581.579 183.48C581.439 183.355 581.262 183.226 581.122 183.101C581.055 183.02 580.945 182.972 580.873 182.928C580.696 182.799 580.477 182.703 580.258 182.607C580.183 182.6 580.115 182.519 580.039 182.511C579.745 182.408 579.45 182.305 579.151 182.238C579.076 182.23 578.962 182.219 578.887 182.211C578.66 182.189 578.433 182.166 578.206 182.143C578.093 182.132 577.98 182.121 577.866 182.11C577.753 182.098 577.639 182.087 577.526 182.076L576.874 180.307L589.933 175.687C590.527 175.487 591.053 175.206 591.58 174.926C591.743 174.831 591.906 174.736 592.068 174.641C592.398 174.415 592.728 174.189 593.061 173.926C593.228 173.794 593.357 173.659 593.524 173.527C593.82 173.261 594.077 172.99 594.302 172.68C594.431 172.544 594.563 172.372 594.655 172.233C594.924 171.853 595.156 171.469 595.388 171.085C595.437 170.979 595.521 170.913 595.532 170.803C595.776 170.309 595.982 169.811 596.112 169.306C596.131 169.123 596.147 168.976 596.242 168.801C596.319 168.438 596.395 168.075 596.434 167.709C596.458 167.489 596.477 167.306 596.5 167.086C596.52 166.903 596.536 166.757 596.555 166.574C596.555 166.574 596.555 166.574 596.517 166.57C596.501 165.643 596.368 164.741 596.008 163.816L595.888 163.508L596.524 163.275C598.587 162.556 599.656 160.404 598.943 158.482L599.193 158.285Z" fill="#513E15"/>
<g clip-path="url(#clip0_40_4853)">
<g style="mix-blend-mode:multiply" opacity="0.1">
<path d="M82.0138 99.6724C81.507 99.965 81.1923 100.339 81.0486 100.759C80.9259 101.215 81.0313 101.732 81.3649 102.31L83.4917 105.994C83.7529 106.614 84.1687 106.999 84.6251 107.121C85.0815 107.243 85.5631 107.157 86.0698 106.865C86.5766 106.572 86.8914 106.198 87.035 105.778C87.1578 105.322 87.0524 104.805 86.7187 104.227L84.592 100.543C84.3308 99.9238 83.9149 99.5379 83.4585 99.4162C83.0021 99.2944 82.5206 99.3799 82.0138 99.6724Z" fill="#513E15"/>
<path d="M57.6541 120.093L60.426 118.54L56.454 114.67L57.6541 120.093Z" fill="#513E15"/>
<path d="M91.5933 96.4529C91.2597 95.875 90.8856 95.5614 90.45 95.4758C90.0145 95.3901 89.5176 95.5326 88.99 95.7891L87.3973 96.7086L89.1959 99.9076L90.7886 98.988C91.2954 98.6954 91.6519 98.3933 91.8317 97.9524C92.0115 97.5116 91.927 97.0307 91.5933 96.4529Z" fill="#513E15"/>
<path d="M75.5289 103.32L73.8638 104.281L75.9127 107.914L77.5778 106.952C78.0846 106.66 78.4202 106.322 78.543 105.865C78.6657 105.409 78.5603 104.892 78.2267 104.315L78.1433 104.17C77.7888 103.556 77.3938 103.206 76.9736 103.064C76.5173 102.942 76.0357 103.027 75.5289 103.32Z" fill="#513E15"/>
<path d="M62.2325 25.285L1.15832 59.4387L49.5204 145.879L110.595 111.726C114.871 109.353 116.35 103.973 114.004 99.7415L74.2598 28.6457C71.8927 24.3785 66.5093 22.9121 62.2687 25.2641L62.2325 25.285ZM30.3106 70.3917C34.307 64.8581 39.2087 60.3909 44.9641 57.068C50.8391 53.8687 57.2267 52.0588 64.0282 51.5508L65.463 51.4447L66.0272 52.7562C68.0642 57.4547 69.5417 62.1873 70.4752 66.8971C69.1862 67.256 67.8611 67.6359 66.6139 68.067C65.8276 63.9465 64.6113 59.8335 62.9078 55.7128C57.2155 56.3027 51.8481 57.957 46.9505 60.592C42.1724 63.3507 37.9573 67.0844 34.4806 71.5955C37.089 75.1938 39.9912 78.3816 43.0788 81.2216C42.0456 82.1071 41.0486 82.9716 40.0362 83.8932C36.5119 80.6311 33.2607 76.9225 30.2979 72.7103L29.4804 71.5451L30.3106 70.3917ZM49.0674 64.4259C45.8458 66.2858 42.8799 68.6723 40.2784 71.5226C42.2974 74.0165 44.4502 76.2406 46.7423 78.2879C45.9877 78.8199 45.2901 79.3671 44.5563 79.9353C42.0458 77.6769 39.6692 75.1487 37.4625 72.3298L36.7756 71.4744L37.4929 70.6269C40.4344 67.1951 43.896 64.3298 47.7329 62.1145C51.6686 59.9867 55.9072 58.5508 60.3763 57.8485L61.4689 57.651L61.8663 58.6736C63.1318 62.0359 64.0035 65.3848 64.6108 68.6938C63.7673 68.9882 62.9084 69.3396 62.0857 69.6702C61.5519 66.6558 60.7746 63.6376 59.7176 60.6364C55.9429 61.3712 52.3669 62.6172 49.0674 64.4259ZM54.8178 74.6367C57.2431 73.2365 59.7572 72.0739 62.3339 71.0196C63.8137 70.406 65.2781 69.8495 66.7842 69.3651C68.0676 68.9131 69.3565 68.5541 70.6817 68.1743C74.4399 67.1602 78.2508 66.4045 82.2131 65.9948C80.7117 67.8247 79.309 69.7421 78.0774 71.7051C80.1598 73.0549 82.1698 74.4465 84.0921 75.9369C79.7776 76.4055 75.5993 77.277 71.5932 78.5305C71.319 78.6407 71.0239 78.7147 70.7858 78.804C70.2889 78.9465 69.7766 79.1459 69.2644 79.3454C68.6951 79.5296 68.1104 79.7709 67.5619 79.9912C66.884 80.2381 66.227 80.5212 65.5699 80.8042C64.6386 81.1975 63.7282 81.6268 62.8177 82.0561C61.7987 82.5482 60.8367 83.0554 59.8594 83.6197C58.882 84.184 57.9047 84.7482 56.9844 85.3277C56.1157 85.8293 55.2886 86.4031 54.4824 87.013C53.9088 87.4405 53.3351 87.868 52.7615 88.2955C52.2964 88.6603 51.7952 89.046 51.3301 89.4108C50.9012 89.7547 50.5086 90.0777 50.0797 90.4217C49.8472 90.6041 49.6146 90.7865 49.4391 90.9841C46.2518 93.7392 43.3299 96.8707 40.6681 100.285C40.4318 97.8698 40.2678 95.4124 40.1971 92.9493C37.8605 92.9982 35.5502 93.1764 33.173 93.4895C39.1875 85.6833 46.5801 79.3446 54.8957 74.688L54.8178 74.6367ZM65.4868 82.2486C65.3348 84.744 65.0172 87.2869 64.5131 89.8411L64.2128 91.4109L62.7394 90.8651C60.2907 89.9676 57.9812 88.8933 55.7595 87.7202C56.6228 87.1255 57.4707 86.5879 58.3547 86.0293C59.5901 86.6643 60.877 87.2214 62.2001 87.7576C62.4544 86.3589 62.6154 84.9658 62.7193 83.5576C63.6451 83.0712 64.5555 82.6419 65.523 82.2277L65.4868 82.2486ZM53.848 117.764C54.1191 118.233 54.2969 118.708 54.3397 119.117C54.3826 119.526 54.3684 119.919 54.2193 120.246C54.091 120.609 53.8848 120.92 53.6216 121.217C53.3584 121.513 53.0173 121.758 52.6553 121.967L50.9902 122.929L52.768 126.092C52.8306 126.2 52.8207 126.35 52.79 126.464C52.7231 126.599 52.6145 126.662 52.4698 126.745C52.325 126.829 52.2164 126.892 52.0452 126.846C51.8949 126.836 51.817 126.785 51.7336 126.641L47.0883 118.344C47.0883 118.344 47.0202 118.142 47.0509 118.028C47.0816 117.914 47.1693 117.815 47.2779 117.753L49.5946 116.415C49.9774 116.242 50.324 116.09 50.7124 116.011C51.1007 115.931 51.4375 115.929 51.816 115.999C52.1582 116.091 52.506 116.275 52.8385 116.517C53.1709 116.758 53.4573 117.171 53.7284 117.64L53.7909 117.748L53.848 117.764ZM63.51 120.371C63.51 120.371 63.283 120.647 63.1382 120.73C63.0658 120.772 62.9572 120.835 62.8793 120.783C62.786 120.789 62.7081 120.738 62.6302 120.687L61.0601 119.137L57.8385 120.997L58.281 123.101C58.3282 123.267 58.2252 123.422 58.008 123.548C57.8632 123.631 57.6975 123.679 57.5472 123.669C57.3608 123.681 57.2258 123.614 57.1424 123.47C57.1424 123.47 57.1216 123.434 57.0799 123.361L55.0155 113.767C55.0155 113.767 54.999 113.488 55.1229 113.368C55.1898 113.233 55.3346 113.149 55.4794 113.066C55.6242 112.982 55.7328 112.92 55.9401 112.944C56.0904 112.954 56.2407 112.963 56.3395 113.051L63.4408 119.833C63.4408 119.833 63.4408 119.833 63.4616 119.869C63.4616 119.869 63.4616 119.869 63.4825 119.906C63.545 120.014 63.5352 120.164 63.4529 120.356L63.51 120.371ZM68.8 115.824C68.8429 116.233 68.8078 116.59 68.6796 116.953C68.5513 117.316 68.3813 117.607 68.0819 117.924C67.8187 118.221 67.4775 118.466 67.0794 118.696C66.6812 118.926 66.2775 119.062 65.91 119.178C65.5217 119.258 65.2058 119.296 64.869 119.298C64.5684 119.279 64.304 119.239 64.0912 119.121C63.8992 119.039 63.7434 118.936 63.66 118.792C63.5974 118.684 63.5502 118.518 63.5962 118.347C63.6423 118.176 63.7092 118.041 63.8178 117.978C63.8902 117.937 64.0196 117.91 64.1908 117.956C64.3619 118.001 64.533 118.047 64.7612 118.108C64.9894 118.169 65.233 118.173 65.5489 118.135C65.8286 118.118 66.1391 117.987 66.5219 117.814C67.0287 117.521 67.4005 117.162 67.5441 116.742C67.7239 116.301 67.6602 115.856 67.3475 115.315C67.1181 114.917 66.858 114.634 66.4949 114.507C66.168 114.358 65.8103 114.324 65.4165 114.311C65.0435 114.333 64.6343 114.377 64.189 114.442C63.7436 114.506 63.3706 114.529 62.9406 114.536C62.5467 114.523 62.1474 114.417 61.7996 114.232C61.4518 114.048 61.1138 113.713 60.8219 113.208C60.5717 112.774 60.451 112.314 60.429 111.942C60.4069 111.569 60.5352 111.206 60.6843 110.879C60.8335 110.552 61.0605 110.277 61.3446 110.017C61.6287 109.756 61.8974 109.553 62.2232 109.365C62.4403 109.24 62.6937 109.093 62.9526 109.04C63.2115 108.987 63.4649 108.841 63.7238 108.787C63.9827 108.734 64.2053 108.702 64.4127 108.727C64.62 108.752 64.755 108.818 64.8384 108.963C64.9009 109.071 64.9273 109.2 64.9383 109.386C64.9493 109.573 64.8824 109.708 64.7376 109.791C64.6652 109.833 64.5928 109.875 64.4425 109.865C64.3493 109.871 64.199 109.861 64.0125 109.873C63.8622 109.863 63.6604 109.932 63.4377 109.964C63.2358 110.032 62.9978 110.121 62.7082 110.289C62.491 110.414 62.2739 110.539 62.0984 110.737C61.902 110.899 61.799 111.054 61.6805 111.267C61.5983 111.459 61.516 111.651 61.5479 111.873C61.5227 112.081 61.6116 112.318 61.7576 112.571C61.9452 112.896 62.2206 113.122 62.5059 113.198C62.7911 113.274 63.1487 113.309 63.5217 113.286C63.8947 113.263 64.3039 113.22 64.7284 113.119C65.1738 113.054 65.5468 113.032 65.9977 113.06C66.4123 113.11 66.8117 113.216 67.2012 113.473C67.5698 113.694 67.9495 114.1 68.2622 114.642C68.5124 115.075 68.6694 115.514 68.7123 115.923L68.8 115.824ZM74.9953 112.344C75.0382 112.752 75.0031 113.11 74.8748 113.473C74.7466 113.836 74.5766 114.126 74.2772 114.444C74.0139 114.74 73.6728 114.985 73.2746 115.215C72.8765 115.445 72.4728 115.582 72.1053 115.698C71.717 115.777 71.4011 115.815 71.0643 115.817C70.7637 115.798 70.4993 115.758 70.2864 115.64C70.0944 115.558 69.9386 115.456 69.8552 115.311C69.7927 115.203 69.7455 115.038 69.7915 114.867C69.8376 114.696 69.9045 114.561 70.0131 114.498C70.0854 114.456 70.2149 114.43 70.386 114.475C70.5572 114.521 70.7283 114.566 70.9565 114.627C71.1847 114.688 71.4283 114.692 71.7442 114.654C72.0239 114.637 72.3343 114.506 72.7172 114.333C73.2239 114.041 73.5958 113.681 73.7394 113.261C73.9192 112.821 73.8555 112.376 73.5636 111.87C73.3342 111.473 73.0742 111.19 72.711 111.062C72.3841 110.914 72.0265 110.88 71.6326 110.866C71.2596 110.889 70.8505 110.933 70.4051 110.997C69.9597 111.062 69.5867 111.084 69.1567 111.092C68.7629 111.079 68.3635 110.972 68.0157 110.788C67.6679 110.603 67.33 110.269 67.0381 109.763C66.7879 109.33 66.6671 108.87 66.6451 108.497C66.6593 108.104 66.7513 107.762 66.9005 107.435C67.0496 107.108 67.2766 106.832 67.5607 106.572C67.8448 106.312 68.1135 106.109 68.4393 105.92C68.6565 105.795 68.9099 105.649 69.1687 105.596C69.443 105.485 69.681 105.396 69.9399 105.343C70.1988 105.29 70.4215 105.258 70.6288 105.282C70.8362 105.307 70.9711 105.374 71.0545 105.518C71.1171 105.626 71.1434 105.756 71.1544 105.942C71.1654 106.128 71.0985 106.263 70.9538 106.347C70.8814 106.389 70.809 106.43 70.6587 106.421C70.5654 106.426 70.4151 106.417 70.2286 106.428C70.0783 106.419 69.8765 106.487 69.6538 106.519C69.452 106.588 69.2139 106.677 68.9244 106.844C68.7072 106.97 68.49 107.095 68.3145 107.293C68.1182 107.454 68.0151 107.61 67.8966 107.823C67.8144 108.015 67.7322 108.207 67.764 108.429C67.7388 108.636 67.8277 108.874 67.9737 109.127C68.1614 109.452 68.4368 109.678 68.722 109.754C69.0281 109.866 69.3649 109.864 69.7379 109.842C70.1108 109.819 70.52 109.775 70.9445 109.675C71.3899 109.61 71.7629 109.587 72.2138 109.616C72.6285 109.665 73.0278 109.772 73.4173 110.029C73.786 110.249 74.1656 110.656 74.4784 111.198C74.7286 111.631 74.8855 112.07 74.9284 112.479L74.9953 112.344ZM66.3764 98.2514C60.6299 96.6576 55.3528 94.4557 50.5089 91.6666C51.6145 90.7394 52.7771 89.8273 53.9245 88.9723C57.522 90.9401 61.3981 92.5544 65.5166 93.8362C66.616 89.6382 67.2339 85.5255 67.4218 81.4204C68.7568 80.8904 70.1488 80.3756 71.5254 79.9179C71.4257 85.5131 70.5228 91.1385 68.8225 96.8873L68.2799 98.7896L66.3764 98.2514ZM79.1929 103.564C79.464 104.034 79.6418 104.509 79.6847 104.917C79.7275 105.326 79.7133 105.719 79.5642 106.046C79.4359 106.409 79.2298 106.721 78.9665 107.017C78.7033 107.314 78.3622 107.559 78.0002 107.768L76.3351 108.729L78.1129 111.892C78.1755 112 78.1656 112.151 78.0988 112.285C78.0319 112.42 77.9233 112.483 77.7785 112.567C77.6337 112.65 77.5251 112.713 77.354 112.667C77.2037 112.658 77.1258 112.606 77.0424 112.462L72.397 104.165C72.397 104.165 72.3289 103.964 72.3596 103.85C72.3903 103.736 72.4781 103.637 72.6229 103.553L74.9395 102.216C75.3223 102.043 75.669 101.891 76.0573 101.811C76.4456 101.731 76.7824 101.73 77.1609 101.8C77.5032 101.891 77.851 102.076 78.1834 102.317C78.5159 102.559 78.8023 102.971 79.0733 103.441L79.1359 103.549L79.1929 103.564ZM87.6905 103.57C87.9824 104.075 88.1393 104.514 88.1822 104.923C88.2251 105.331 88.2109 105.725 88.0826 106.088C87.9543 106.451 87.7481 106.763 87.4641 107.023C87.18 107.283 86.8597 107.564 86.4977 107.773C86.1358 107.982 85.7321 108.119 85.3646 108.235C84.9763 108.315 84.6033 108.337 84.261 108.246C83.9187 108.155 83.5709 107.97 83.2385 107.729C82.906 107.488 82.6196 107.075 82.3486 106.606L80.2218 102.922C80.0023 102.375 79.8453 101.935 79.7663 101.548C79.6872 101.16 79.7376 100.746 79.8659 100.383C79.9941 100.02 80.1641 99.729 80.4482 99.4687C80.7323 99.2083 81.0525 98.9271 81.4145 98.7181C81.7765 98.5092 82.1802 98.3724 82.5476 98.2565C82.936 98.1768 83.309 98.1541 83.6512 98.2454C84.0297 98.3158 84.3775 98.5002 84.6738 98.7625C85.0062 99.0039 85.2926 99.4164 85.5637 99.8859L87.6905 103.57ZM95.976 102.205C95.976 102.205 95.7698 102.516 95.625 102.6C95.5164 102.663 95.4232 102.668 95.3091 102.638C95.195 102.608 95.06 102.541 94.9613 102.454L91.0663 99.887L89.6546 100.702L91.6827 104.298C91.7452 104.407 91.7354 104.557 91.7047 104.671C91.6378 104.806 91.5292 104.868 91.3844 104.952C91.2396 105.036 91.131 105.098 90.9599 105.053C90.8096 105.043 90.7317 104.992 90.6483 104.847L86.0029 96.5505C86.0029 96.5505 85.8987 96.37 85.9655 96.235C85.9962 96.121 86.0478 96.0431 86.1564 95.9804L88.4006 94.6847C88.7626 94.4757 89.1663 94.339 89.5546 94.2592C89.9221 94.1434 90.2951 94.1206 90.6736 94.191C91.0312 94.2253 91.3581 94.3736 91.6906 94.615C92.023 94.8565 92.3248 95.2119 92.5388 95.6662C92.7473 96.0274 92.8626 96.3942 92.957 96.7249C93.0152 97.0765 93.0317 97.3559 92.955 97.641C92.8782 97.926 92.7806 98.175 92.6469 98.4448C92.4922 98.6786 92.2805 98.8971 92.0689 99.1156L95.8442 101.559C95.8442 101.559 95.943 101.646 95.9847 101.718C96.0681 101.863 96.0582 102.013 95.976 102.205ZM97.8166 90.5966C97.8166 90.5966 97.7553 90.8247 97.6105 90.9083L95.6196 92.0577L99.8897 99.7045C99.9522 99.8128 99.9424 99.9629 99.8755 100.098C99.8086 100.233 99.7 100.295 99.5552 100.379C99.4104 100.463 99.3018 100.525 99.1307 100.48C98.9804 100.47 98.9025 100.419 98.8191 100.274L94.5282 92.5915L92.5373 93.741C92.5373 93.741 92.2784 93.7941 92.1797 93.7067C92.0447 93.6401 91.946 93.5527 91.8626 93.4082C91.8 93.2999 91.7375 93.1916 91.7835 93.0205C91.7934 92.8704 91.8449 92.7925 91.9897 92.7089L97.0266 89.8971C97.0266 89.8971 97.2647 89.8078 97.3996 89.8744C97.5346 89.9409 97.5971 90.0492 97.6597 90.1576C97.7222 90.2659 97.7848 90.3743 97.7387 90.5453L97.8166 90.5966Z" fill="#513E15"/>
<path d="M50.1993 117.463L48.5342 118.424L50.5831 122.056L52.2482 121.095C52.755 120.802 53.0906 120.464 53.2134 120.008C53.3361 119.552 53.2307 119.035 52.8971 118.457L52.8137 118.313C52.4801 117.735 52.0642 117.349 51.6441 117.206C51.1877 117.085 50.7061 117.17 50.1993 117.463Z" fill="#513E15"/>
</g>
</g>
<defs>
<clipPath id="clip0_40_4853">
<rect width="80" height="100" fill="white" transform="translate(0 60.1074) rotate(-30)"/>
</clipPath>
</defs>
</svg>
