<svg width="949" height="511" viewBox="0 0 949 511" fill="none" xmlns="http://www.w3.org/2000/svg">
<g clip-path="url(#clip0_18_7888)">
<path d="M846.81 388.97C846.81 386.77 845.78 383.94 844.53 382.68C843.28 381.42 842.25 378.67 842.25 376.55C842.25 374.43 840.64 372.71 838.66 372.71C836.68 372.71 835.07 374.51 835.07 376.71V381.53C835.07 383.73 834.12 386.48 832.96 387.64C831.8 388.8 829.35 389.75 827.53 389.75C825.71 389.75 822.94 388.48 821.38 386.92L821.12 386.66C819.56 385.1 818.29 382.03 818.29 379.83V376.71C818.29 374.51 816.49 372.71 814.29 372.71H804.06C801.86 372.71 798.79 373.98 797.23 375.54L786.64 386.13C785.08 387.69 783.81 390.36 783.81 392.07C783.81 393.78 782.01 395.18 779.81 395.18H775.27C773.07 395.18 770 396.45 768.44 398.01L761.84 404.61C760.28 406.17 759.01 409.24 759.01 411.44V427.4C759.01 429.6 760.28 432.67 761.84 434.23L767.58 439.97C769.14 441.53 772.21 442.8 774.41 442.8H784.17C786.37 442.8 789.44 441.53 791 439.97L794.76 436.21C796.32 434.65 799.39 433.38 801.59 433.38H807.95C810.15 433.38 813.22 434.65 814.78 436.21L830.88 452.31C832.44 453.87 835.51 455.14 837.71 455.14H847.51C849.71 455.14 852.78 453.87 854.34 452.31L864.92 441.73C866.48 440.17 867.75 437.1 867.75 434.9V419.42C867.75 417.22 866.48 414.15 864.92 412.59L849.64 397.31C848.08 395.75 846.81 392.68 846.81 390.48V388.95V388.97Z" fill="#F6BF46"/>
<path d="M711.91 321.2C710.2 321.2 708.8 322.3 708.8 323.65C708.8 325 710.07 327.37 711.63 328.92L721.63 338.92C723.19 340.48 724.46 342.81 724.46 344.11C724.46 345.41 725.73 347.74 727.29 349.3L727.95 349.96C729.51 351.52 732.01 352.79 733.51 352.79C735.01 352.79 736.25 350.99 736.25 348.79V346.43C736.25 344.23 734.98 341.16 733.42 339.6L717.86 324.04C716.3 322.48 713.63 321.21 711.92 321.21L711.91 321.2Z" fill="#F6BF46"/>
<path d="M767.45 358.33C765.89 356.77 762.82 355.5 760.62 355.5H747.73C745.53 355.5 743.17 356.06 742.48 356.75C741.79 357.44 742.1 358.88 743.18 359.95C744.26 361.02 746.93 361.9 749.13 361.9H767.04C769.24 361.9 769.77 360.63 768.21 359.07L767.46 358.32L767.45 358.33Z" fill="#F6BF46"/>
<path d="M903.27 470.06C901.71 471.62 901.71 474.16 903.27 475.72L903.49 475.94C905.05 477.5 907.59 477.5 909.15 475.94L918.75 466.34C920.31 464.78 921.58 461.71 921.58 459.51V459.29C921.58 457.09 921.18 454.89 920.7 454.41C920.22 453.93 918.54 454.8 916.99 456.36L903.28 470.07L903.27 470.06Z" fill="#F6BF46"/>
<path d="M836.6 221.96C838.16 220.4 839.43 217.33 839.43 215.13V210.45C839.43 208.25 838.62 206.45 837.62 206.45C836.62 206.45 834.54 207.72 832.98 209.28L823.17 219.09C821.61 220.65 820.34 223.42 820.34 225.26C820.34 227.1 818.54 228.6 816.34 228.6H812.64C810.44 228.6 808.64 230.18 808.64 232.12C808.64 234.06 810.44 235.64 812.64 235.64H818.92C821.12 235.64 824.19 234.37 825.75 232.81L836.6 221.96Z" fill="#F6BF46"/>
<path d="M412.25 16.29C412.25 14.09 410.98 11.02 409.42 9.45999L402.78 2.81999C401.22 1.25999 398.15 -0.0100098 395.95 -0.0100098H347.79C345.59 -0.0100098 342.52 1.25999 340.96 2.81999L334.21 9.56999C332.65 11.13 329.58 12.4 327.38 12.4H294.85C292.65 12.4 289.58 13.67 288.02 15.23L272.01 31.24C270.45 32.8 267.38 34.07 265.18 34.07H256.95C254.75 34.07 252.95 35.87 252.95 38.07V43.93C252.95 46.13 254.75 47.93 256.95 47.93H277.65C279.85 47.93 282.92 49.2 284.48 50.76L300.69 66.97C302.25 68.53 303.52 71.6 303.52 73.8V104.39C303.52 106.59 304.79 109.66 306.35 111.22L317.48 122.35C319.04 123.91 322.11 125.18 324.31 125.18H331.98C334.18 125.18 337.25 123.91 338.81 122.35L361.33 99.83C362.89 98.27 365.96 97 368.16 97H372.94C375.14 97 378.21 95.73 379.77 94.17L395.64 78.3C397.2 76.74 398.47 73.67 398.47 71.47V49.41C398.47 47.21 399.74 44.14 401.3 42.58L409.42 34.46C410.98 32.9 412.25 29.83 412.25 27.63V16.28V16.29Z" fill="#F6BF46"/>
<path d="M214.97 44.2099C214.97 46.4099 216.77 48.2099 218.97 48.2099H241C243.2 48.2099 245 46.4099 245 44.2099V29.7799C245 27.5799 246.8 25.7799 249 25.7799H259.37C261.57 25.7799 264.64 24.5099 266.2 22.9499L285.92 3.2299C287.48 1.6699 286.95 0.399902 284.75 0.399902H229.01C226.81 0.399902 223.74 1.6699 222.18 3.2299L209.98 15.4299C208.42 16.9899 207.15 20.0199 207.15 22.1699C207.15 24.3199 208.91 26.0799 211.06 26.0799C213.21 26.0799 214.97 27.8799 214.97 30.0799V44.2099Z" fill="#F6BF46"/>
<path d="M256.64 69.9799C255.08 68.4199 252.01 67.1499 249.81 67.1499H217.92C215.72 67.1499 213.92 68.9499 213.92 71.1499V75.2499C213.92 77.4499 215.72 79.2499 217.92 79.2499H234.68C236.88 79.2499 239.95 80.5199 241.51 82.0799L248.82 89.3899C250.38 90.9499 251.65 94.0199 251.65 96.2199V100.83C251.65 103.03 252.92 106.1 254.48 107.66L267.49 120.67C269.05 122.23 271.59 122.23 273.15 120.67L281.35 112.47C282.91 110.91 282.91 108.37 281.35 106.81L277.26 102.72C275.7 101.16 275.7 98.6199 277.26 97.0599L277.66 96.6599C279.22 95.0999 279.22 92.5599 277.66 90.9999L256.64 69.9799Z" fill="#F6BF46"/>
<path d="M445.52 167.49C447.08 165.93 448.35 162.86 448.35 160.66V156.89C448.35 154.69 447.08 151.62 445.52 150.06L443.45 147.99C441.89 146.43 440.62 143.36 440.62 141.16V139.97C440.62 137.77 438.82 135.97 436.62 135.97H436.4C434.2 135.97 432.4 137.77 432.4 139.97V169.55C432.4 171.75 433.99 173.55 435.93 173.55C437.87 173.55 440.74 172.28 442.29 170.72L445.51 167.5L445.52 167.49Z" fill="#F6BF46"/>
<path d="M421.94 156.37H418.94C416.731 156.37 414.94 158.161 414.94 160.37V163.37C414.94 165.579 416.731 167.37 418.94 167.37H421.94C424.149 167.37 425.94 165.579 425.94 163.37V160.37C425.94 158.161 424.149 156.37 421.94 156.37Z" fill="#F6BF46"/>
<path d="M607.932 48.7787L582.858 73.8527C581.296 75.4148 581.296 77.9475 582.858 79.5096L584.293 80.945C585.855 82.5071 588.388 82.5071 589.95 80.945L615.024 55.871C616.586 54.3089 616.586 51.7763 615.024 50.2142L613.589 48.7787C612.027 47.2166 609.494 47.2166 607.932 48.7787Z" fill="#F6BF46"/>
<path d="M772.45 344.12C774.01 342.56 775.28 339.49 775.28 337.29V322.21C775.28 320.01 773.72 318.21 771.82 318.21C769.92 318.21 767.09 319.48 765.53 321.04L759.42 327.15C757.86 328.71 755.13 329.98 753.35 329.98C751.57 329.98 750.11 331.65 750.11 333.68C750.11 335.71 751.38 338.65 752.94 340.21L757.41 344.68C758.97 346.24 762.04 347.51 764.24 347.51H765.06C767.26 347.51 770.33 346.24 771.89 344.68L772.45 344.12Z" fill="#F6BF46"/>
<path d="M805.71 342.2C805.71 343.49 807.51 344.55 809.71 344.55H810.58C812.78 344.55 815.85 345.82 817.41 347.38L830 359.97C831.56 361.53 834.63 362.8 836.83 362.8H847.77C849.97 362.8 853.04 364.07 854.6 365.63L856.67 367.7C858.23 369.26 860.38 369.64 861.47 368.56C862.56 367.48 862.16 365.32 860.61 363.76L855.74 358.89C854.18 357.33 852.91 354.54 852.91 352.67C852.91 350.8 851.64 348.01 850.08 346.45L845.35 341.72C843.79 340.16 840.72 338.89 838.52 338.89H831.67C829.47 338.89 826.64 339.92 825.39 341.17C824.14 342.42 822.5 343.45 821.77 343.45C821.04 343.45 819.16 342.18 817.6 340.62L815.8 338.82C814.24 337.26 812.21 335.99 811.27 335.99C810.33 335.99 808.7 336.86 807.64 337.92C806.58 338.98 805.71 340.9 805.71 342.19V342.2Z" fill="#F6BF46"/>
<path d="M571.88 384.57C570.32 386.13 569.05 389.2 569.05 391.4V405.83C569.05 408.03 570.85 409.83 573.05 409.83H575.01C577.21 409.83 579.01 408.03 579.01 405.83V400.53C579.01 398.33 580.28 395.26 581.84 393.7L584.61 390.93C586.17 389.37 587.44 386.3 587.44 384.1V382.17C587.44 379.97 586.41 377.14 585.15 375.88C583.89 374.62 581.59 374.86 580.03 376.42L571.88 384.57Z" fill="#F6BF46"/>
<path d="M92.78 43.0701H84.73C82.5208 43.0701 80.73 44.8609 80.73 47.0701V55.1201C80.73 57.3292 82.5208 59.1201 84.73 59.1201H92.78C94.9891 59.1201 96.78 57.3292 96.78 55.1201V47.0701C96.78 44.8609 94.9891 43.0701 92.78 43.0701Z" fill="#F6BF46"/>
<path d="M166.12 63.1301V47.0801C166.12 44.8801 164.32 43.0801 162.12 43.0801H154.07C151.87 43.0801 148.8 44.3501 147.24 45.9101L144.87 48.2801C143.31 49.8401 140.24 51.1101 138.04 51.1101H110.74C108.54 51.1101 106.74 52.9101 106.74 55.1101V63.1601C106.74 65.3601 108.54 67.1601 110.74 67.1601H162.12C164.32 67.1601 166.12 65.3601 166.12 63.1601V63.1301Z" fill="#F6BF46"/>
<path d="M885.96 85.1699C883.76 85.1699 880.69 83.8999 879.13 82.3399L871.04 74.2499C869.48 72.6899 866.41 71.4199 864.21 71.4199H754.83C752.63 71.4199 749.56 70.1499 748 68.5899L745.95 66.5399C744.39 64.9799 744.39 62.4399 745.95 60.8799L753.48 53.3499C755.04 51.7899 756.31 48.8699 756.31 46.8499C756.31 44.8299 754.51 43.1799 752.31 43.1799H719.54C717.34 43.1799 714.27 44.4499 712.71 46.0099L697.98 60.7399C696.42 62.2999 693.35 63.5699 691.15 63.5699H638.09C635.89 63.5699 634.09 65.3699 634.09 67.5699V72.3399C634.09 74.5399 632.29 76.3399 630.09 76.3399H609.39C607.19 76.3399 604.12 77.6099 602.56 79.1699L564.62 117.11C563.06 118.67 559.99 119.94 557.79 119.94H551.44C549.24 119.94 547.44 118.14 547.44 115.94V111.82C547.44 109.62 549.24 107.82 551.44 107.82H552.63C554.83 107.82 557.9 106.55 559.46 104.99L561.88 102.57C563.44 101.01 564.71 97.9399 564.71 95.7399V90.0899C564.71 87.8899 562.91 86.0899 560.71 86.0899H497.76C495.56 86.0899 492.49 87.3599 490.93 88.9199L465.43 114.42C463.87 115.98 462.6 119.05 462.6 121.25V137.26C462.6 139.46 464.4 141.26 466.6 141.26H477.96C480.16 141.26 481.96 143.06 481.96 145.26V145.62C481.96 147.82 483.76 149.62 485.96 149.62H494.12C496.32 149.62 498.12 147.82 498.12 145.62V128.55C498.12 126.35 499.39 123.28 500.95 121.72L511.45 111.22C513.01 109.66 514.28 110.19 514.28 112.39V115.81C514.28 118.01 513.37 120.72 512.26 121.83C511.15 122.94 510.24 125.65 510.24 127.85V146.46C510.24 148.66 508.97 151.73 507.41 153.29L505.06 155.64C503.5 157.2 500.43 158.47 498.23 158.47H469.9C467.7 158.47 464.63 159.74 463.07 161.3L447.61 176.76C446.05 178.32 444.78 181.39 444.78 183.59V188.16C444.78 190.36 442.98 192.16 440.78 192.16H437.39C435.19 192.16 432.12 193.43 430.56 194.99L428.51 197.04C426.95 198.6 425.68 201.67 425.68 203.87V215.84C425.68 218.04 427.48 219.84 429.68 219.84H443.88C446.08 219.84 449.15 218.57 450.71 217.01L468.83 198.89C470.39 197.33 472.93 197.33 474.49 198.89L491.03 215.43C492.59 216.99 495.13 216.99 496.69 215.43L497.9 214.22C499.46 212.66 499.46 210.12 497.9 208.56L495.61 206.27C494.05 204.71 493.83 202.39 495.11 201.11C496.39 199.83 498.72 200.05 500.27 201.61L509.94 211.28C511.5 212.84 514.57 214.11 516.77 214.11H519.98C522.18 214.11 525.25 215.38 526.81 216.94L530.59 220.72C532.15 222.28 535.22 223.55 537.42 223.55H543.44C545.64 223.55 547.44 225.35 547.44 227.55V229.59C547.44 231.79 546.17 234.86 544.61 236.42L544.14 236.89C542.58 238.45 539.51 239.72 537.31 239.72H525.25C523.05 239.72 519.98 238.45 518.42 236.89L517.95 236.42C516.39 234.86 513.32 233.59 511.12 233.59H502.78C500.58 233.59 497.51 234.86 495.95 236.42L495.66 236.71C494.1 238.27 491.56 238.27 490 236.71L483.21 229.92C481.65 228.36 478.58 227.09 476.38 227.09H439.43C437.23 227.09 434.16 228.36 432.6 229.92L408.73 253.79C407.17 255.35 405.9 258.42 405.9 260.62V290.79C405.9 292.99 407.17 296.06 408.73 297.62L428.01 316.9C429.57 318.46 432.64 319.73 434.84 319.73H471C473.2 319.73 475 321.53 475 323.73V351.62C475 353.82 476.27 356.89 477.83 358.45L485.45 366.07C487.01 367.63 488.28 370.7 488.28 372.9V417.37C488.28 419.57 489.55 422.64 491.11 424.2L503.05 436.14C504.61 437.7 507.68 438.97 509.88 438.97H519.11C521.31 438.97 524.38 437.7 525.94 436.14L538 424.08C539.56 422.52 540.83 419.45 540.83 417.25V399.73C540.83 397.53 542.1 394.46 543.66 392.9L556.26 380.3C557.82 378.74 559.09 375.67 559.09 373.47V346.61C559.09 344.41 560.36 341.34 561.92 339.78L582.11 319.59C583.67 318.03 584.94 314.96 584.94 312.76V306.49C584.94 304.29 583.14 302.49 580.94 302.49H573.55C571.35 302.49 568.28 301.22 566.72 299.66L554.55 287.49C552.99 285.93 551.72 282.86 551.72 280.66V261.73C551.72 259.53 553.18 257.73 554.96 257.73C556.74 257.73 558.2 259.53 558.2 261.73V266.7C558.2 268.9 559.47 271.97 561.03 273.53L577.78 290.28C579.34 291.84 582.3 293.11 584.37 293.11C586.44 293.11 589.4 291.84 590.96 290.28L604.53 276.71C606.09 275.15 607.36 272.13 607.36 269.98C607.36 267.83 605.56 266.08 603.36 266.08H600.77C598.57 266.08 595.5 264.81 593.94 263.25L582.88 252.19C581.32 250.63 580.99 248.42 582.14 247.27C583.29 246.12 585.5 246.45 587.06 248.01L591.99 252.94C593.55 254.5 596.62 255.77 598.82 255.77H626.2C628.4 255.77 631.47 257.04 633.03 258.6L639.63 265.2C641.19 266.76 644.03 268.03 645.94 268.03C647.85 268.03 649.42 269.83 649.42 272.03V294.68C649.42 296.88 650.69 299.95 652.25 301.51L656.48 305.74C658.04 307.3 660.72 308.57 662.44 308.57C664.16 308.57 666.75 307.39 668.19 305.96C669.63 304.53 670.8 301.55 670.8 299.35V294.05C670.8 291.85 672.07 288.78 673.63 287.22L681.8 279.05C683.36 277.49 684.63 274.63 684.63 272.69C684.63 270.75 686.43 269.16 688.63 269.16H689.86C692.06 269.16 695.13 270.43 696.69 271.99L706.29 281.59C707.85 283.15 710.89 284.42 713.05 284.42C715.21 284.42 716.99 286.22 716.99 288.42V305.73C716.99 307.93 718.07 310.81 719.38 312.12C720.69 313.43 721.77 315.26 721.77 316.17C721.77 317.08 723.04 319.1 724.6 320.65L730.74 326.79C732.3 328.35 734.12 329.06 734.8 328.39C735.48 327.72 736.03 325.92 736.03 324.4C736.03 322.88 734.76 320.36 733.2 318.81L725.14 310.75C723.58 309.19 722.31 306.12 722.31 303.92V301.87C722.31 299.67 723.63 297.87 725.25 297.87C726.87 297.87 729.46 299.14 731.02 300.7L734.65 304.33C736.21 305.89 738.54 307.16 739.85 307.16C741.16 307.16 743.49 305.89 745.05 304.33L746.31 303.07C747.87 301.51 749.14 298.44 749.14 296.24V293.14C749.14 290.94 747.87 287.87 746.31 286.31L742.42 282.42C740.86 280.86 739.59 278.12 739.59 276.33C739.59 274.54 741.39 273.07 743.59 273.07H749.91C752.11 273.07 755.18 271.8 756.74 270.24L776.99 249.99C778.55 248.43 779.82 245.36 779.82 243.16V239.18C779.82 236.98 778.55 233.91 776.99 232.35L774.57 229.93C773.01 228.37 771.74 225.3 771.74 223.1V216.61C771.74 214.41 773.01 211.34 774.57 209.78L776.92 207.43C778.48 205.87 781.02 205.87 782.58 207.43L786.6 211.45C788.16 213.01 789.43 216.08 789.43 218.28V223.93C789.43 226.13 791.15 227.93 793.26 227.93C795.37 227.93 798.28 226.74 799.74 225.28C801.2 223.82 802.39 220.83 802.39 218.63V212.56C802.39 210.36 803.66 207.29 805.22 205.73L829.72 181.23C831.28 179.67 832.55 176.6 832.55 174.4V165.06C832.55 162.86 830.75 161.06 828.55 161.06H826.73C824.53 161.06 822.73 159.26 822.73 157.06V151.97C822.73 149.77 824 146.7 825.56 145.14L835.23 135.47C836.79 133.91 839.86 132.64 842.06 132.64H886.99C889.19 132.64 889.72 133.91 888.16 135.47L875.99 147.64C874.43 149.2 873.16 152.27 873.16 154.47V167.92C873.16 170.12 874.96 171.92 877.16 171.92H878.35C880.55 171.92 883.62 170.65 885.18 169.09L898.47 155.8C900.03 154.24 901.3 151.17 901.3 148.97V136.63C901.3 134.43 903.1 132.63 905.3 132.63H913.64C915.84 132.63 918.91 131.36 920.47 129.8L945.78 104.49C947.34 102.93 948.61 99.8599 948.61 97.6599V89.1799C948.61 86.9799 946.81 85.1799 944.61 85.1799H885.98L885.96 85.1699Z" fill="#F6BF46"/>
<path d="M236.27 303.13C234.07 303.13 231 301.86 229.44 300.3L211 281.86C209.44 280.3 206.37 279.03 204.17 279.03H196.52C194.32 279.03 191.25 277.76 189.69 276.2L187.48 273.99C185.92 272.43 184.65 269.36 184.65 267.16V255.59C184.65 253.39 185.92 250.32 187.48 248.76L192.31 243.93C193.87 242.37 196.94 241.1 199.14 241.1H213.32C215.52 241.1 218.59 242.37 220.15 243.93L224.47 248.25C226.03 249.81 229.1 251.08 231.3 251.08H232.55C234.75 251.08 236.55 249.28 236.55 247.08V239.7C236.55 237.5 237.82 234.43 239.38 232.87L268.59 203.66C270.15 202.1 271.42 199.03 271.42 196.83V180.55C271.42 178.35 273.22 176.55 275.42 176.55H288.08C290.28 176.55 292.08 174.75 292.08 172.55V161.61C292.08 159.41 290.81 156.34 289.25 154.78L261.85 127.38C260.29 125.82 257.22 124.55 255.02 124.55H243.7C241.5 124.55 239.7 126.35 239.7 128.55V155.84C239.7 158.04 237.9 159.84 235.7 159.84H229.96C227.76 159.84 224.69 158.57 223.13 157.01L207.1 140.98C205.54 139.42 204.27 136.35 204.27 134.15V127.15C204.27 124.95 205.54 121.88 207.1 120.32L223.15 104.27C224.71 102.71 225.98 99.6401 225.98 97.4401V95.3901C225.98 93.1901 224.18 91.3901 221.98 91.3901H216.31C214.11 91.3901 211.04 90.1201 209.48 88.5601L205.48 84.5601C203.92 83.0001 202.65 79.9301 202.65 77.7301V55.0901C202.65 52.8901 201.91 51.0901 201 51.0901H191.2C189 51.0901 187.2 52.8901 187.2 55.0901V77.7301C187.2 79.9301 185.93 83.0001 184.37 84.5601L180.93 88.0001C179.37 89.5601 176.3 90.8301 174.1 90.8301H137.74C135.54 90.8301 132.47 89.5601 130.91 88.0001L129.04 86.1301C127.48 84.5701 124.41 83.3001 122.21 83.3001H59.72C57.52 83.3001 54.47 82.0501 52.93 80.5101C51.39 78.9701 48.34 77.7201 46.14 77.7201H21.95C19.75 77.7201 16.68 78.9901 15.12 80.5501L1.13997 94.5301C-0.420029 96.0901 -0.420029 98.6301 1.13997 100.19L10.88 109.93C12.44 111.49 12.44 114.03 10.88 115.59L1.13997 125.33C-0.420029 126.89 -0.420029 129.43 1.13997 130.99L15.96 145.81C17.52 147.37 20.59 148.64 22.79 148.64H28.3C30.5 148.64 33.57 147.37 35.13 145.81L43.33 137.61C44.89 136.05 47.96 134.78 50.16 134.78H74.55C76.75 134.78 79.82 136.05 81.38 137.61L114.62 170.85C116.18 172.41 117.45 175.48 117.45 177.68V214.15C117.45 216.35 118.72 219.42 120.28 220.98L153.54 254.24C155.1 255.8 156.37 258.87 156.37 261.07V264.3C156.37 266.5 157.64 269.57 159.2 271.13L176.48 288.41C178.04 289.97 181.11 291.24 183.31 291.24H199.09C201.29 291.24 204.36 292.51 205.92 294.07L227.8 315.95C229.36 317.51 230.63 320.58 230.63 322.78V349C230.63 351.2 231.9 354.27 233.46 355.83L250.25 372.62C251.81 374.18 253.08 377.25 253.08 379.45V439.27C253.08 441.47 251.81 444.54 250.25 446.1L246.05 450.3C244.49 451.86 243.22 454.93 243.22 457.13V490.54C243.22 492.74 244.49 495.81 246.05 497.37L256.82 508.14C258.38 509.7 261.45 510.97 263.65 510.97H267.25C269.45 510.97 271.25 509.17 271.25 506.97V480.71C271.25 478.51 272.52 475.44 274.08 473.88L313.74 434.22C315.3 432.66 316.57 429.59 316.57 427.39V418.3C316.57 416.1 317.84 413.03 319.4 411.47L339.56 391.31C341.12 389.75 342.39 386.68 342.39 384.48V348.09C342.39 345.89 341.12 342.82 339.56 341.26L304.26 305.96C302.7 304.4 299.63 303.13 297.43 303.13H236.24H236.27Z" fill="#F6BF46"/>
<path d="M313.7 317.43L311.8 315.53C311.53 315.26 311.15 315.13 310.77 315.18L291.27 317.63C290.8 317.09 290.32 316.54 289.83 315.99C284.02 309.37 278.44 308.58 277.49 309.53C276.54 310.48 277.33 316.05 283.95 321.87C284.5 322.36 285.05 322.84 285.59 323.31L283.14 342.81C283.09 343.19 283.22 343.57 283.49 343.84L285.39 345.74L293.76 330.45L302.97 337.89L302.05 347.04L303.43 348.42L307.38 341.44C307.38 341.44 309.96 343.42 310.67 342.71C311.38 342 309.4 339.42 309.4 339.42L316.38 335.47L315 334.09L305.85 335.01L298.41 325.8L313.7 317.43Z" fill="#F5F9FF"/>
<path d="M230.11 171.26C223.2 171.26 217.61 176.86 217.61 183.76C217.61 193.65 225.66 201.05 228.84 203.59C229.58 204.18 230.64 204.18 231.38 203.59C234.56 201.05 242.61 193.66 242.61 183.76C242.61 176.85 237.01 171.26 230.11 171.26Z" fill="#D6A946"/>
<path d="M236.587 186.444C238.069 182.868 236.37 178.767 232.793 177.285C229.216 175.804 225.116 177.502 223.634 181.079C222.153 184.656 223.851 188.757 227.428 190.238C231.005 191.72 235.105 190.021 236.587 186.444Z" fill="#F5F9FF"/>
<path d="M230.11 212.87C227.91 212.87 226.13 214.65 226.13 216.85C226.13 219.05 227.91 220.83 230.11 220.83C232.31 220.83 234.09 219.05 234.09 216.85C234.09 214.65 232.31 212.87 230.11 212.87Z" fill="#F5F9FF"/>
<path d="M37.4199 62.5901C30.5099 62.5901 24.9199 68.1901 24.9199 75.0901C24.9199 84.9801 32.9699 92.3801 36.1499 94.9201C36.8899 95.5101 37.9499 95.5101 38.6899 94.9201C41.8699 92.3801 49.9199 84.9901 49.9199 75.0901C49.9199 68.1801 44.3199 62.5901 37.4199 62.5901Z" fill="#D6A946"/>
<path d="M43.9005 77.7668C45.3821 74.1899 43.6836 70.0893 40.1067 68.6077C36.5299 67.1262 32.4293 68.8247 30.9477 72.4015C29.4662 75.9784 31.1647 80.079 34.7415 81.5605C38.3183 83.0421 42.419 81.3436 43.9005 77.7668Z" fill="#F5F9FF"/>
<path d="M37.4199 104.19C35.2199 104.19 33.4399 105.97 33.4399 108.17C33.4399 110.37 35.2199 112.15 37.4199 112.15C39.6199 112.15 41.3999 110.37 41.3999 108.17C41.3999 105.97 39.6199 104.19 37.4199 104.19Z" fill="#F5F9FF"/>
<path d="M271.68 405.49C264.77 405.49 259.18 411.09 259.18 417.99C259.18 427.88 267.23 435.28 270.41 437.82C271.15 438.41 272.21 438.41 272.95 437.82C276.13 435.28 284.18 427.89 284.18 417.99C284.18 411.08 278.58 405.49 271.68 405.49Z" fill="#D6A946"/>
<path d="M278.156 420.671C279.638 417.094 277.939 412.993 274.362 411.512C270.786 410.03 266.685 411.729 265.203 415.306C263.722 418.882 265.42 422.983 268.997 424.465C272.574 425.946 276.675 424.248 278.156 420.671Z" fill="#F5F9FF"/>
<path d="M271.68 447.1C269.48 447.1 267.7 448.88 267.7 451.08C267.7 453.28 269.48 455.06 271.68 455.06C273.88 455.06 275.66 453.28 275.66 451.08C275.66 448.88 273.88 447.1 271.68 447.1Z" fill="#F5F9FF"/>
<path d="M524.6 372.71C517.69 372.71 512.1 378.31 512.1 385.21C512.1 395.1 520.15 402.5 523.33 405.04C524.07 405.63 525.13 405.63 525.87 405.04C529.05 402.5 537.1 395.11 537.1 385.21C537.1 378.3 531.5 372.71 524.6 372.71Z" fill="#D6A946"/>
<path d="M531.079 387.893C532.561 384.316 530.862 380.215 527.285 378.734C523.708 377.252 519.608 378.951 518.126 382.528C516.645 386.104 518.343 390.205 521.92 391.687C525.497 393.168 529.597 391.47 531.079 387.893Z" fill="#F5F9FF"/>
<path d="M524.6 414.32C522.4 414.32 520.62 416.1 520.62 418.3C520.62 420.5 522.4 422.28 524.6 422.28C526.8 422.28 528.58 420.5 528.58 418.3C528.58 416.1 526.8 414.32 524.6 414.32Z" fill="#F5F9FF"/>
<path d="M490.47 131.59C483.56 131.59 477.97 137.19 477.97 144.09C477.97 153.98 486.02 161.38 489.2 163.92C489.94 164.51 491 164.51 491.74 163.92C494.92 161.38 502.97 153.99 502.97 144.09C502.97 137.18 497.37 131.59 490.47 131.59Z" fill="#D6A946"/>
<path d="M496.943 146.768C498.425 143.191 496.726 139.091 493.149 137.609C489.572 136.128 485.472 137.826 483.99 141.403C482.509 144.98 484.207 149.08 487.784 150.562C491.361 152.044 495.461 150.345 496.943 146.768Z" fill="#F5F9FF"/>
<path d="M490.47 173.2C488.27 173.2 486.49 174.98 486.49 177.18C486.49 179.38 488.27 181.16 490.47 181.16C492.67 181.16 494.45 179.38 494.45 177.18C494.45 174.98 492.67 173.2 490.47 173.2Z" fill="#F5F9FF"/>
<path d="M847.08 389.15C840.17 389.15 834.58 394.75 834.58 401.65C834.58 411.54 842.63 418.94 845.81 421.48C846.55 422.07 847.61 422.07 848.35 421.48C851.53 418.94 859.58 411.55 859.58 401.65C859.58 394.74 853.98 389.15 847.08 389.15Z" fill="#D6A946"/>
<path d="M853.556 404.338C855.038 400.761 853.339 396.66 849.762 395.179C846.185 393.697 842.085 395.396 840.603 398.972C839.122 402.549 840.82 406.65 844.397 408.131C847.974 409.613 852.074 407.914 853.556 404.338Z" fill="#F5F9FF"/>
<path d="M847.08 430.76C844.88 430.76 843.1 432.54 843.1 434.74C843.1 436.94 844.88 438.72 847.08 438.72C849.28 438.72 851.06 436.94 851.06 434.74C851.06 432.54 849.28 430.76 847.08 430.76Z" fill="#F5F9FF"/>
<path d="M827.56 175.76C820.65 175.76 815.06 181.36 815.06 188.26C815.06 198.15 823.11 205.55 826.29 208.09C827.03 208.68 828.09 208.68 828.83 208.09C832.01 205.55 840.06 198.16 840.06 188.26C840.06 181.35 834.46 175.76 827.56 175.76Z" fill="#D6A946"/>
<path d="M834.039 190.951C835.521 187.374 833.822 183.273 830.246 181.792C826.669 180.31 822.568 182.009 821.087 185.586C819.605 189.162 821.304 193.263 824.88 194.745C828.457 196.226 832.558 194.528 834.039 190.951Z" fill="#F5F9FF"/>
<path d="M827.56 217.37C825.36 217.37 823.58 219.15 823.58 221.35C823.58 223.55 825.36 225.33 827.56 225.33C829.76 225.33 831.54 223.55 831.54 221.35C831.54 219.15 829.76 217.37 827.56 217.37Z" fill="#F5F9FF"/>
<path d="M664.76 230.7C657.85 230.7 652.26 236.3 652.26 243.2C652.26 253.09 660.31 260.49 663.49 263.03C664.23 263.62 665.29 263.62 666.03 263.03C669.21 260.49 677.26 253.1 677.26 243.2C677.26 236.29 671.66 230.7 664.76 230.7Z" fill="#D6A946"/>
<path d="M671.236 245.883C672.718 242.306 671.02 238.206 667.443 236.724C663.866 235.242 659.765 236.941 658.284 240.518C656.802 244.095 658.501 248.195 662.077 249.677C665.654 251.158 669.755 249.46 671.236 245.883Z" fill="#F5F9FF"/>
<path d="M664.76 272.3C662.56 272.3 660.78 274.08 660.78 276.28C660.78 278.48 662.56 280.26 664.76 280.26C666.96 280.26 668.74 278.48 668.74 276.28C668.74 274.08 666.96 272.3 664.76 272.3Z" fill="#F5F9FF"/>
<path d="M233.87 231.98C233.47 231.98 233.08 231.82 232.81 231.54C232.74 231.47 232.67 231.39 232.62 231.31C232.57 231.23 232.52 231.14 232.48 231.05C232.44 230.96 232.42 230.86 232.4 230.77C232.38 230.67 232.37 230.57 232.37 230.48C232.37 230.38 232.37 230.28 232.4 230.18C232.42 230.09 232.44 229.99 232.48 229.9C232.52 229.81 232.57 229.72 232.62 229.64C232.67 229.56 232.74 229.48 232.81 229.42C232.87 229.35 232.95 229.28 233.03 229.23C233.11 229.18 233.2 229.13 233.29 229.09C233.38 229.05 233.48 229.02 233.57 229.01C234.06 228.91 234.58 229.07 234.93 229.42C235 229.48 235.06 229.56 235.11 229.64C235.17 229.72 235.21 229.81 235.25 229.9C235.29 229.99 235.32 230.09 235.34 230.18C235.36 230.28 235.37 230.38 235.37 230.48C235.37 230.57 235.36 230.67 235.34 230.77C235.32 230.86 235.29 230.96 235.25 231.05C235.21 231.14 235.17 231.23 235.11 231.31C235.06 231.39 235 231.47 234.93 231.54C234.86 231.61 234.78 231.67 234.7 231.72C234.62 231.78 234.53 231.82 234.44 231.86C234.35 231.9 234.25 231.93 234.16 231.95C234.06 231.97 233.96 231.98 233.87 231.98Z" fill="#F5F9FF"/>
<path d="M498.79 418.45C497.97 418.35 497.38 417.6 497.49 416.78C497.59 415.96 498.34 415.37 499.16 415.48C499.98 415.58 500.56 416.33 500.46 417.15C500.37 417.91 499.72 418.47 498.98 418.47C498.91 418.47 498.85 418.46 498.79 418.45ZM487.05 416.85C486.23 416.73 485.67 415.97 485.79 415.15C485.91 414.33 486.67 413.76 487.49 413.88C488.31 414.01 488.88 414.77 488.76 415.59C488.64 416.33 488 416.87 487.27 416.87C487.2 416.87 487.13 416.87 487.05 416.85ZM475.36 414.97C474.54 414.82 473.99 414.05 474.14 413.23C474.28 412.42 475.05 411.87 475.87 412.01C476.69 412.15 477.23 412.93 477.09 413.75C476.96 414.48 476.33 414.99 475.62 414.99C475.53 414.99 475.44 414.99 475.36 414.97ZM463.72 412.79C462.9 412.63 462.38 411.84 462.54 411.03C462.7 410.21 463.49 409.69 464.3 409.85C465.12 410.01 465.64 410.8 465.48 411.61C465.34 412.33 464.71 412.82 464.01 412.82C463.91 412.82 463.81 412.82 463.72 412.79ZM452.13 410.31C451.32 410.12 450.82 409.32 451 408.51C451.19 407.7 451.99 407.2 452.8 407.38C453.61 407.57 454.11 408.37 453.93 409.18C453.77 409.88 453.15 410.35 452.47 410.35C452.36 410.35 452.24 410.33 452.13 410.31ZM440.62 407.51C439.82 407.3 439.33 406.49 439.54 405.68C439.75 404.88 440.57 404.4 441.37 404.61C442.17 404.81 442.65 405.63 442.44 406.43C442.27 407.11 441.66 407.56 440.99 407.56C440.87 407.56 440.74 407.54 440.62 407.51ZM429.19 404.39C428.39 404.15 427.93 403.32 428.16 402.53C428.39 401.73 429.23 401.27 430.02 401.5C430.82 401.73 431.28 402.57 431.05 403.36C430.86 404.02 430.25 404.45 429.6 404.45C429.47 404.45 429.33 404.43 429.19 404.39ZM417.85 400.92C417.07 400.67 416.63 399.82 416.89 399.04C417.14 398.25 417.99 397.81 418.77 398.07C419.56 398.32 420 399.17 419.74 399.96C419.54 400.59 418.95 401 418.31 401C418.16 401 418.01 400.97 417.85 400.92ZM406.63 397.11C405.85 396.83 405.44 395.97 405.72 395.19C406 394.41 406.86 394.01 407.64 394.29C408.42 394.56 408.83 395.42 408.55 396.2C408.33 396.82 407.75 397.2 407.13 397.2C406.97 397.2 406.8 397.17 406.63 397.11ZM395.53 392.94C394.76 392.63 394.39 391.76 394.69 391C394.99 390.22 395.87 389.85 396.63 390.15C397.4 390.45 397.78 391.32 397.48 392.1C397.25 392.69 396.68 393.05 396.08 393.05C395.9 393.05 395.71 393.01 395.53 392.94ZM384.58 388.4C383.82 388.07 383.47 387.19 383.8 386.43C384.13 385.67 385.01 385.32 385.78 385.65C386.53 385.98 386.88 386.87 386.55 387.62C386.31 388.19 385.76 388.53 385.18 388.53C384.98 388.53 384.77 388.49 384.58 388.4ZM373.79 383.49C373.04 383.13 372.72 382.24 373.08 381.49C373.44 380.74 374.33 380.42 375.08 380.78C375.83 381.13 376.15 382.03 375.79 382.78C375.53 383.32 374.99 383.63 374.43 383.63C374.22 383.63 374 383.59 373.79 383.49ZM363.18 378.19C362.44 377.81 362.16 376.9 362.54 376.17C362.92 375.43 363.83 375.15 364.57 375.53C365.3 375.91 365.58 376.82 365.2 377.55C364.93 378.07 364.41 378.36 363.87 378.36C363.64 378.36 363.4 378.3 363.18 378.19ZM352.77 372.5C352.05 372.09 351.8 371.17 352.21 370.45C352.62 369.73 353.53 369.49 354.25 369.9C354.97 370.31 355.22 371.22 354.81 371.94C354.54 372.43 354.03 372.7 353.51 372.7C353.26 372.7 353 372.64 352.77 372.5ZM342.58 366.42C341.87 365.98 341.66 365.06 342.1 364.35C342.54 363.65 343.46 363.44 344.17 363.87C344.87 364.31 345.08 365.24 344.64 365.94C344.36 366.4 343.87 366.65 343.37 366.65C343.1 366.65 342.83 366.57 342.58 366.42ZM332.63 359.94C331.95 359.48 331.77 358.54 332.24 357.86C332.71 357.17 333.64 357 334.32 357.46C335.01 357.93 335.19 358.86 334.72 359.55C334.43 359.97 333.96 360.2 333.48 360.2C333.19 360.2 332.89 360.12 332.63 359.94ZM322.96 353.07C322.29 352.58 322.16 351.64 322.65 350.97C323.14 350.31 324.08 350.17 324.75 350.66C325.41 351.16 325.55 352.09 325.06 352.76C324.76 353.16 324.31 353.37 323.85 353.37C323.54 353.37 323.23 353.27 322.96 353.07ZM313.57 345.8C312.93 345.28 312.83 344.34 313.35 343.7C313.87 343.05 314.81 342.95 315.46 343.47C316.1 343.99 316.2 344.94 315.68 345.58C315.38 345.95 314.95 346.14 314.51 346.14C314.18 346.14 313.85 346.03 313.57 345.8ZM304.5 338.15C303.88 337.6 303.82 336.65 304.37 336.03C304.91 335.41 305.86 335.35 306.48 335.9C307.1 336.44 307.16 337.39 306.62 338.01C306.32 338.35 305.91 338.52 305.49 338.52C305.14 338.52 304.78 338.4 304.5 338.15ZM295.76 330.11C295.16 329.53 295.14 328.58 295.72 327.99C296.29 327.39 297.24 327.37 297.84 327.94C298.43 328.52 298.45 329.47 297.88 330.06C297.59 330.37 297.19 330.53 296.8 330.53C296.43 330.53 296.05 330.39 295.76 330.11ZM287.38 321.69C286.81 321.09 286.83 320.14 287.43 319.57C288.03 319 288.98 319.02 289.55 319.62C290.12 320.22 290.1 321.17 289.5 321.74C289.21 322.02 288.84 322.16 288.47 322.16C288.07 322.16 287.67 322 287.38 321.69ZM279.38 312.91C278.83 312.28 278.9 311.34 279.53 310.79C280.15 310.25 281.1 310.31 281.64 310.94C282.18 311.56 282.12 312.51 281.5 313.06C281.21 313.3 280.86 313.42 280.51 313.42C280.09 313.42 279.68 313.25 279.38 312.91ZM271.78 303.77C271.27 303.12 271.38 302.18 272.02 301.67C272.67 301.15 273.62 301.26 274.13 301.91C274.65 302.56 274.54 303.5 273.89 304.01C273.61 304.23 273.28 304.34 272.96 304.34C272.52 304.34 272.08 304.15 271.78 303.77ZM264.61 294.3C264.13 293.62 264.28 292.68 264.95 292.2C265.62 291.72 266.56 291.87 267.04 292.54C267.53 293.21 267.38 294.15 266.7 294.64C266.44 294.83 266.13 294.92 265.83 294.92C265.36 294.92 264.91 294.7 264.61 294.3ZM257.89 284.49C257.44 283.8 257.63 282.87 258.33 282.42C259.02 281.96 259.95 282.16 260.4 282.85C260.86 283.55 260.66 284.48 259.96 284.93C259.71 285.09 259.43 285.17 259.15 285.17C258.66 285.17 258.18 284.93 257.89 284.49ZM251.64 274.37C251.22 273.65 251.47 272.74 252.18 272.32C252.9 271.9 253.81 272.14 254.23 272.86C254.65 273.57 254.41 274.49 253.69 274.91C253.46 275.05 253.2 275.12 252.94 275.12C252.42 275.12 251.92 274.85 251.64 274.37ZM245.9 263.95C245.52 263.21 245.81 262.31 246.54 261.93C247.28 261.55 248.18 261.83 248.57 262.57C248.95 263.31 248.66 264.21 247.92 264.59C247.7 264.71 247.47 264.76 247.23 264.76C246.69 264.76 246.17 264.46 245.9 263.95ZM240.71 253.23C240.37 252.48 240.71 251.59 241.46 251.25C242.22 250.91 243.11 251.25 243.45 252C243.79 252.76 243.45 253.65 242.7 253.99C242.5 254.08 242.29 254.12 242.08 254.12C241.51 254.12 240.96 253.79 240.71 253.23ZM236.15 242.22C235.85 241.45 236.25 240.58 237.02 240.29C237.8 240 238.66 240.39 238.95 241.16C239.25 241.94 238.85 242.8 238.08 243.1C237.91 243.16 237.73 243.19 237.55 243.19C236.95 243.19 236.37 242.82 236.15 242.22Z" fill="#F5F9FF"/>
<path d="M510.79 419.8C510.59 419.8 510.4 419.76 510.22 419.69C510.04 419.61 509.87 419.5 509.73 419.36C509.59 419.22 509.48 419.06 509.41 418.88C509.33 418.7 509.29 418.5 509.29 418.3C509.29 417.91 509.45 417.52 509.73 417.24C509.8 417.17 509.88 417.11 509.96 417.05C510.04 417 510.13 416.95 510.22 416.92C510.31 416.88 510.4 416.85 510.5 416.83C510.69 416.79 510.89 416.79 511.09 416.83C511.18 416.85 511.28 416.88 511.37 416.92C511.46 416.95 511.54 417 511.63 417.05C511.71 417.11 511.79 417.17 511.85 417.24C512.13 417.52 512.29 417.91 512.29 418.3C512.29 418.5 512.25 418.7 512.18 418.88C512.1 419.06 511.99 419.22 511.85 419.36C511.71 419.5 511.55 419.61 511.37 419.69C511.19 419.76 510.99 419.8 510.79 419.8Z" fill="#F5F9FF"/>
<path d="M241.6 214.88C241.21 214.88 240.82 214.72 240.54 214.44C240.26 214.16 240.1 213.77 240.1 213.38C240.1 212.99 240.26 212.6 240.54 212.32C240.89 211.97 241.41 211.81 241.89 211.91C241.99 211.93 242.08 211.95 242.17 211.99C242.26 212.03 242.35 212.08 242.43 212.13C242.51 212.18 242.59 212.25 242.66 212.32C242.94 212.59 243.1 212.98 243.1 213.38C243.1 213.78 242.94 214.16 242.66 214.44C242.59 214.51 242.51 214.57 242.43 214.62C242.35 214.68 242.26 214.73 242.17 214.76C242.08 214.8 241.99 214.83 241.89 214.85C241.8 214.87 241.7 214.88 241.6 214.88Z" fill="#F5F9FF"/>
<path d="M251.1 208.51C250.75 207.76 251.07 206.87 251.83 206.52C252.58 206.17 253.47 206.49 253.82 207.24C254.17 207.99 253.84 208.89 253.09 209.24C252.89 209.33 252.67 209.38 252.46 209.38C251.9 209.38 251.35 209.06 251.1 208.51ZM262.23 203.57C261.92 202.8 262.28 201.93 263.05 201.61C263.82 201.3 264.69 201.66 265.01 202.43C265.32 203.2 264.96 204.07 264.19 204.39C264.01 204.46 263.81 204.5 263.62 204.5C263.03 204.5 262.47 204.15 262.23 203.57ZM273.57 199.11C273.29 198.34 273.69 197.47 274.47 197.19C275.24 196.91 276.11 197.31 276.39 198.09C276.67 198.86 276.27 199.73 275.49 200.01C275.33 200.07 275.15 200.1 274.98 200.1C274.37 200.1 273.79 199.72 273.57 199.11ZM285.07 195.1C284.81 194.31 285.25 193.47 286.03 193.21C286.82 192.95 287.67 193.39 287.92 194.18C288.18 194.96 287.75 195.81 286.96 196.06C286.81 196.11 286.65 196.14 286.5 196.14C285.86 196.14 285.28 195.73 285.07 195.1ZM296.71 191.5C296.48 190.7 296.94 189.87 297.74 189.65C298.53 189.42 299.36 189.88 299.59 190.68C299.82 191.47 299.36 192.3 298.56 192.53C298.42 192.57 298.28 192.59 298.15 192.59C297.5 192.59 296.89 192.16 296.71 191.5ZM308.46 188.31C308.26 187.51 308.75 186.69 309.55 186.49C310.35 186.29 311.17 186.78 311.37 187.59C311.57 188.39 311.08 189.2 310.28 189.4C310.15 189.43 310.03 189.45 309.91 189.45C309.24 189.45 308.63 188.99 308.46 188.31ZM320.31 185.51C320.14 184.71 320.65 183.91 321.47 183.73C322.27 183.56 323.07 184.08 323.24 184.89C323.42 185.7 322.9 186.49 322.09 186.67C321.99 186.69 321.88 186.7 321.78 186.7C321.08 186.7 320.46 186.22 320.31 185.51ZM332.25 183.12C332.1 182.3 332.65 181.52 333.46 181.37C334.28 181.23 335.06 181.77 335.2 182.58C335.35 183.4 334.81 184.18 333.99 184.33C333.9 184.34 333.81 184.35 333.72 184.35C333.01 184.35 332.38 183.84 332.25 183.12ZM466.72 184.11C465.9 183.97 465.35 183.2 465.49 182.38C465.63 181.56 466.41 181.02 467.23 181.16C468.04 181.3 468.59 182.07 468.45 182.89C468.32 183.62 467.69 184.14 466.97 184.14C466.89 184.14 466.8 184.14 466.72 184.11ZM344.26 181.11C344.14 180.29 344.71 179.53 345.53 179.4C346.35 179.29 347.11 179.85 347.23 180.67C347.35 181.49 346.78 182.25 345.96 182.37C345.89 182.38 345.81 182.39 345.74 182.39C345.01 182.39 344.37 181.85 344.26 181.11ZM454.74 182.23C453.92 182.11 453.35 181.36 453.46 180.53C453.58 179.71 454.34 179.14 455.16 179.26C455.98 179.38 456.55 180.13 456.43 180.96C456.33 181.7 455.69 182.25 454.95 182.25C454.88 182.25 454.81 182.24 454.74 182.23ZM356.33 179.49C356.24 178.67 356.83 177.92 357.65 177.83C358.48 177.74 359.22 178.33 359.31 179.15C359.4 179.98 358.81 180.72 357.99 180.81C357.93 180.82 357.88 180.82 357.82 180.82C357.07 180.82 356.42 180.26 356.33 179.49ZM442.71 180.72C441.88 180.63 441.29 179.89 441.38 179.06C441.47 178.24 442.21 177.65 443.04 177.74C443.86 177.83 444.45 178.57 444.36 179.39C444.28 180.16 443.63 180.73 442.87 180.73C442.82 180.73 442.76 180.72 442.71 180.72ZM368.45 178.26C368.38 177.44 368.99 176.72 369.82 176.65C370.65 176.58 371.37 177.2 371.44 178.02C371.5 178.85 370.89 179.57 370.06 179.64H369.94C369.17 179.64 368.51 179.05 368.45 178.26ZM430.64 179.58C429.81 179.52 429.19 178.79 429.26 177.97C429.32 177.14 430.05 176.53 430.87 176.59C431.7 176.66 432.32 177.38 432.25 178.2C432.19 178.99 431.53 179.59 430.76 179.59C430.76 179.59 430.68 179.58 430.64 179.58ZM380.59 177.43C380.55 176.6 381.19 175.9 382.02 175.86C382.85 175.82 383.55 176.46 383.59 177.28C383.63 178.11 382.99 178.82 382.17 178.85C382.17 178.85 382.12 178.86 382.09 178.86C381.3 178.86 380.63 178.23 380.59 177.43ZM418.54 178.82C417.71 178.78 417.07 178.08 417.11 177.26C417.15 176.43 417.85 175.79 418.68 175.83C419.5 175.87 420.14 176.57 420.11 177.4C420.07 178.2 419.4 178.83 418.61 178.83C418.61 178.83 418.56 178.83 418.54 178.83V178.82ZM392.76 176.98C392.75 176.15 393.41 175.47 394.24 175.46C395.07 175.45 395.75 176.11 395.76 176.93C395.78 177.76 395.12 178.44 394.29 178.46H394.26C393.44 178.46 392.78 177.8 392.76 176.98ZM406.42 178.45C405.59 178.45 404.93 177.75 404.94 176.93C404.95 176.1 405.63 175.44 406.46 175.45C407.29 175.46 407.95 176.14 407.94 176.97C407.94 177.79 407.26 178.45 406.44 178.45H406.42Z" fill="#F5F9FF"/>
<path d="M478.95 186.4C478.56 186.4 478.17 186.24 477.89 185.96C477.61 185.68 477.45 185.29 477.45 184.89C477.45 184.8 477.46 184.7 477.48 184.6C477.5 184.51 477.53 184.41 477.57 184.32C477.6 184.23 477.65 184.14 477.7 184.06C477.76 183.98 477.82 183.9 477.89 183.83C478.24 183.49 478.75 183.33 479.24 183.43C479.34 183.44 479.43 183.47 479.53 183.51C479.62 183.55 479.7 183.59 479.78 183.65C479.87 183.7 479.94 183.77 480.01 183.83C480.08 183.9 480.14 183.98 480.2 184.06C480.25 184.14 480.3 184.23 480.34 184.32C480.37 184.41 480.4 184.51 480.42 184.6C480.44 184.7 480.45 184.8 480.45 184.89C480.45 185.29 480.29 185.68 480.01 185.96C479.94 186.03 479.87 186.09 479.78 186.14C479.7 186.2 479.62 186.24 479.53 186.28C479.43 186.32 479.34 186.35 479.24 186.37C479.15 186.39 479.05 186.4 478.95 186.4Z" fill="#F5F9FF"/>
<path d="M666.95 293.05C666.75 293.05 666.56 293.01 666.37 292.93C666.19 292.86 666.03 292.75 665.89 292.61C665.75 292.46 665.64 292.3 665.56 292.12C665.49 291.94 665.45 291.74 665.45 291.54C665.45 291.45 665.46 291.35 665.48 291.25C665.5 291.16 665.53 291.06 665.56 290.97C665.6 290.88 665.65 290.79 665.7 290.71C665.76 290.63 665.82 290.55 665.89 290.48C665.96 290.42 666.03 290.35 666.12 290.3C666.2 290.24 666.28 290.2 666.37 290.16C666.47 290.12 666.56 290.09 666.66 290.08C667.14 289.98 667.66 290.14 668.01 290.48C668.29 290.76 668.45 291.15 668.45 291.54C668.45 291.93 668.29 292.32 668.01 292.61C667.87 292.75 667.7 292.86 667.52 292.93C667.34 293.01 667.15 293.05 666.95 293.05Z" fill="#F5F9FF"/>
<path d="M822.29 431.92C821.48 431.75 820.97 430.95 821.15 430.14C821.33 429.33 822.13 428.82 822.94 429C823.74 429.17 824.26 429.97 824.08 430.79C823.92 431.48 823.3 431.96 822.62 431.96C822.51 431.96 822.4 431.96 822.29 431.92ZM810.42 429C809.62 428.79 809.15 427.96 809.37 427.16C809.58 426.36 810.41 425.89 811.21 426.11C812 426.33 812.48 427.15 812.26 427.95C812.08 428.62 811.47 429.06 810.81 429.06C810.68 429.06 810.55 429.04 810.42 429ZM798.7 425.49C797.92 425.23 797.49 424.38 797.75 423.59C798 422.81 798.85 422.38 799.64 422.64C800.43 422.9 800.86 423.74 800.6 424.53C800.39 425.16 799.8 425.56 799.17 425.56C799.02 425.56 798.86 425.54 798.7 425.49ZM787.19 421.36C786.41 421.06 786.03 420.19 786.33 419.42C786.63 418.64 787.5 418.26 788.28 418.56C789.05 418.86 789.43 419.73 789.13 420.5C788.9 421.1 788.33 421.46 787.73 421.46C787.55 421.46 787.37 421.43 787.19 421.36ZM775.91 416.6C775.16 416.26 774.82 415.37 775.17 414.62C775.51 413.86 776.4 413.53 777.16 413.87C777.91 414.21 778.24 415.1 777.9 415.86C777.65 416.41 777.1 416.74 776.53 416.74C776.32 416.74 776.11 416.69 775.91 416.6ZM764.92 411.21C764.19 410.83 763.91 409.92 764.29 409.19C764.68 408.45 765.59 408.17 766.32 408.56C767.05 408.94 767.33 409.85 766.95 410.58C766.68 411.09 766.16 411.39 765.62 411.39C765.38 411.39 765.14 411.33 764.92 411.21ZM754.26 405.19C753.55 404.76 753.32 403.84 753.75 403.13C754.18 402.42 755.1 402.19 755.81 402.63C756.52 403.05 756.75 403.98 756.32 404.69C756.04 405.15 755.54 405.41 755.03 405.41C754.77 405.41 754.5 405.34 754.26 405.19ZM743.98 398.55C743.29 398.08 743.12 397.14 743.59 396.46C744.06 395.78 745 395.61 745.68 396.08C746.36 396.55 746.53 397.48 746.06 398.16C745.77 398.58 745.3 398.81 744.83 398.81C744.53 398.81 744.24 398.72 743.98 398.55ZM734.11 391.29C733.45 390.78 733.34 389.84 733.85 389.19C734.36 388.53 735.3 388.42 735.96 388.93C736.61 389.44 736.72 390.38 736.21 391.04C735.92 391.41 735.48 391.61 735.03 391.61C734.71 391.61 734.38 391.51 734.11 391.29ZM724.7 383.45C724.07 382.9 724.02 381.95 724.57 381.33C725.12 380.71 726.06 380.65 726.69 381.21C727.31 381.75 727.36 382.7 726.81 383.32C726.52 383.66 726.1 383.83 725.69 383.83C725.34 383.83 724.98 383.7 724.7 383.45ZM715.78 375.05C715.19 374.46 715.19 373.52 715.78 372.93C716.36 372.34 717.31 372.34 717.9 372.93C718.48 373.52 718.48 374.46 717.9 375.05C717.61 375.34 717.22 375.49 716.84 375.49C716.45 375.49 716.07 375.34 715.78 375.05ZM707.38 366.13C706.83 365.51 706.89 364.56 707.51 364.01C708.13 363.46 709.08 363.52 709.63 364.14C710.18 364.76 710.12 365.71 709.5 366.26C709.21 366.51 708.86 366.63 708.5 366.63C708.09 366.63 707.68 366.46 707.38 366.13ZM699.53 356.72C699.02 356.07 699.13 355.13 699.79 354.61C700.44 354.1 701.38 354.22 701.89 354.87C702.4 355.52 702.29 356.46 701.64 356.97C701.36 357.19 701.04 357.29 700.71 357.29C700.27 357.29 699.83 357.1 699.53 356.72ZM692.25 346.86C691.78 346.18 691.95 345.25 692.63 344.78C693.31 344.3 694.25 344.47 694.72 345.15C695.19 345.83 695.02 346.77 694.34 347.24C694.08 347.42 693.78 347.51 693.49 347.51C693.01 347.51 692.54 347.28 692.25 346.86ZM685.57 336.59C685.14 335.88 685.36 334.96 686.07 334.53C686.77 334.1 687.7 334.32 688.13 335.03C688.56 335.74 688.34 336.66 687.63 337.09C687.39 337.24 687.12 337.31 686.85 337.31C686.34 337.31 685.85 337.06 685.57 336.59ZM679.49 325.95C679.1 325.22 679.38 324.31 680.11 323.92C680.84 323.53 681.75 323.81 682.14 324.54C682.53 325.27 682.25 326.18 681.52 326.57C681.3 326.69 681.06 326.74 680.82 326.74C680.28 326.74 679.76 326.45 679.49 325.95ZM674.06 314.95C673.72 314.2 674.06 313.31 674.8 312.96C675.56 312.62 676.45 312.96 676.79 313.71C677.13 314.46 676.8 315.35 676.05 315.7C675.85 315.79 675.64 315.83 675.43 315.83C674.86 315.83 674.31 315.5 674.06 314.95ZM669.33 303.62C669.04 302.85 669.43 301.98 670.21 301.69C670.98 301.4 671.85 301.79 672.14 302.56C672.43 303.34 672.04 304.21 671.27 304.5C671.09 304.56 670.91 304.59 670.74 304.59C670.13 304.59 669.56 304.22 669.33 303.62Z" fill="#F5F9FF"/>
<path d="M834.58 434.31C834.18 434.31 833.8 434.15 833.52 433.87C833.24 433.59 833.08 433.21 833.08 432.81C833.08 432.71 833.09 432.61 833.11 432.51C833.13 432.42 833.16 432.32 833.19 432.23C833.23 432.14 833.28 432.05 833.33 431.97C833.39 431.89 833.45 431.81 833.52 431.75C834.08 431.19 835.08 431.19 835.64 431.75C835.71 431.82 835.77 431.89 835.82 431.97C835.88 432.05 835.93 432.14 835.96 432.23C836 432.32 836.03 432.42 836.05 432.51C836.07 432.61 836.08 432.71 836.08 432.81C836.08 433.21 835.92 433.58 835.64 433.87C835.5 434.01 835.33 434.12 835.15 434.19C834.97 434.27 834.78 434.31 834.58 434.31Z" fill="#F5F9FF"/>
<path d="M675.56 281.76C675.36 281.76 675.16 281.72 674.98 281.65C674.8 281.57 674.64 281.46 674.5 281.32C674.36 281.18 674.24 281.02 674.17 280.84C674.1 280.66 674.06 280.46 674.06 280.26C674.06 280.17 674.06 280.07 674.09 279.97C674.11 279.87 674.13 279.78 674.17 279.69C674.21 279.6 674.26 279.51 674.31 279.43C674.36 279.35 674.43 279.27 674.5 279.2C674.84 278.85 675.36 278.69 675.85 278.79C675.95 278.81 676.04 278.84 676.13 278.88C676.22 278.92 676.31 278.96 676.39 279.01C676.47 279.07 676.55 279.13 676.62 279.2C676.9 279.48 677.06 279.87 677.06 280.26C677.06 280.46 677.02 280.65 676.94 280.84C676.87 281.02 676.76 281.18 676.62 281.32C676.48 281.46 676.31 281.57 676.13 281.65C675.95 281.72 675.76 281.76 675.56 281.76Z" fill="#F5F9FF"/>
<path d="M710.84 286.14C710.01 286.12 709.35 285.44 709.37 284.61C709.39 283.78 710.07 283.12 710.9 283.14C711.73 283.16 712.38 283.85 712.37 284.67C712.35 285.49 711.68 286.14 710.87 286.14H710.84ZM721.25 284.57C721.21 283.74 721.85 283.04 722.68 283C723.51 282.96 724.21 283.6 724.25 284.43C724.29 285.25 723.65 285.96 722.82 286H722.75C721.95 286 721.29 285.37 721.25 284.57ZM698.87 285.49C698.05 285.42 697.44 284.69 697.51 283.87C697.58 283.04 698.31 282.43 699.13 282.5C699.96 282.57 700.57 283.3 700.5 284.13C700.43 284.91 699.77 285.5 699 285.5C699 285.5 698.91 285.5 698.87 285.5V285.49ZM733.11 283.69C733.01 282.87 733.59 282.12 734.42 282.03C735.24 281.93 735.99 282.51 736.09 283.34C736.18 284.16 735.6 284.9 734.77 285C734.71 285.01 734.65 285.02 734.59 285.02C733.84 285.02 733.19 284.46 733.1 283.69H733.11ZM686.98 284.05C686.16 283.93 685.6 283.16 685.72 282.34C685.85 281.52 686.62 280.96 687.44 281.09C688.25 281.22 688.81 281.98 688.69 282.8C688.57 283.54 687.93 284.07 687.21 284.07C687.13 284.07 687.05 284.07 686.98 284.05ZM744.86 281.94C744.7 281.12 745.22 280.33 746.03 280.17C746.85 280 747.64 280.53 747.8 281.34C747.96 282.15 747.44 282.94 746.63 283.11C746.53 283.13 746.43 283.14 746.33 283.14C745.63 283.14 745 282.65 744.86 281.94ZM756.43 279.22C756.2 278.43 756.65 277.59 757.45 277.36C758.24 277.13 759.07 277.58 759.31 278.38C759.54 279.18 759.08 280.01 758.29 280.24C758.15 280.28 758.01 280.3 757.87 280.3C757.22 280.3 756.62 279.88 756.43 279.22ZM767.71 275.5C767.41 274.73 767.78 273.86 768.55 273.56C769.32 273.25 770.2 273.63 770.5 274.4C770.81 275.17 770.43 276.04 769.66 276.35C769.48 276.42 769.29 276.45 769.11 276.45C768.51 276.45 767.95 276.09 767.71 275.5ZM778.59 270.74C778.21 270 778.5 269.09 779.24 268.71C779.97 268.33 780.88 268.63 781.26 269.36C781.64 270.1 781.35 271 780.61 271.38C780.39 271.5 780.16 271.55 779.93 271.55C779.38 271.55 778.86 271.25 778.59 270.74ZM788.94 264.9C788.48 264.2 788.68 263.28 789.37 262.82C790.06 262.37 790.99 262.57 791.45 263.26C791.9 263.95 791.7 264.88 791.01 265.34C790.76 265.5 790.47 265.58 790.19 265.58C789.7 265.58 789.22 265.34 788.94 264.9ZM798.62 258.02C798.09 257.38 798.19 256.44 798.83 255.91C799.48 255.39 800.42 255.49 800.94 256.13C801.46 256.77 801.37 257.72 800.73 258.24C800.45 258.47 800.12 258.58 799.78 258.58C799.35 258.58 798.91 258.39 798.62 258.02ZM807.53 250.17C806.94 249.59 806.94 248.64 807.53 248.05C808.12 247.47 809.07 247.46 809.65 248.05C810.24 248.63 810.24 249.58 809.65 250.17C809.35 250.46 808.97 250.61 808.58 250.61C808.2 250.61 807.82 250.46 807.53 250.17ZM815.58 241.45C814.94 240.93 814.84 239.98 815.36 239.34C815.89 238.7 816.83 238.6 817.47 239.12C818.11 239.64 818.21 240.59 817.69 241.23C817.39 241.6 816.96 241.78 816.53 241.78C816.19 241.78 815.86 241.67 815.58 241.45Z" fill="#F5F9FF"/>
<path d="M823.59 232.2C823.19 232.2 822.81 232.04 822.53 231.76C822.46 231.69 822.4 231.61 822.34 231.53C822.29 231.45 822.24 231.36 822.2 231.27C822.16 231.18 822.14 231.09 822.12 230.99C822.1 230.89 822.09 230.79 822.09 230.7C822.09 230.3 822.25 229.91 822.53 229.64C822.87 229.29 823.39 229.13 823.88 229.23C823.98 229.25 824.07 229.27 824.16 229.31C824.25 229.35 824.34 229.4 824.42 229.45C824.5 229.51 824.58 229.57 824.65 229.64C824.93 229.92 825.09 230.3 825.09 230.7C825.09 231.1 824.93 231.48 824.65 231.76C824.37 232.04 823.98 232.2 823.59 232.2Z" fill="#F5F9FF"/>
<path d="M501.82 180.48C501.72 180.48 501.62 180.47 501.52 180.45C501.43 180.43 501.33 180.4 501.24 180.37C501.15 180.33 501.07 180.28 500.99 180.23C500.9 180.17 500.83 180.11 500.76 180.04C500.48 179.76 500.32 179.38 500.32 178.98C500.32 178.58 500.48 178.2 500.76 177.92C500.83 177.85 500.9 177.79 500.99 177.73C501.07 177.68 501.15 177.63 501.24 177.6C501.33 177.56 501.43 177.53 501.52 177.51C502.01 177.41 502.53 177.57 502.88 177.92C503.16 178.2 503.32 178.59 503.32 178.98C503.32 179.37 503.16 179.76 502.88 180.04C502.81 180.11 502.73 180.17 502.65 180.23C502.57 180.28 502.48 180.33 502.39 180.37C502.3 180.4 502.21 180.43 502.11 180.45C502.01 180.47 501.92 180.48 501.82 180.48Z" fill="#F5F9FF"/>
<path d="M650.43 256.52C649.98 255.83 650.17 254.9 650.87 254.45C651.56 253.99 652.49 254.19 652.94 254.89C653.39 255.58 653.2 256.51 652.51 256.96C652.25 257.13 651.97 257.2 651.69 257.2C651.2 257.2 650.72 256.96 650.43 256.52ZM643.76 247.04C643.26 246.38 643.39 245.44 644.05 244.94C644.71 244.44 645.65 244.57 646.15 245.23C646.65 245.89 646.52 246.83 645.86 247.33C645.59 247.54 645.27 247.64 644.96 247.64C644.5 247.64 644.06 247.43 643.76 247.04ZM636.44 238.06C635.9 237.43 635.96 236.49 636.58 235.94C637.2 235.39 638.15 235.46 638.7 236.08C639.24 236.7 639.18 237.65 638.56 238.2C638.27 238.45 637.92 238.57 637.57 238.57C637.15 238.57 636.74 238.39 636.44 238.06ZM628.49 229.63C627.9 229.04 627.89 228.09 628.47 227.5C629.06 226.91 630.01 226.91 630.6 227.49C631.18 228.07 631.19 229.02 630.6 229.61C630.31 229.91 629.92 230.06 629.53 230.06C629.15 230.06 628.77 229.91 628.48 229.63H628.49ZM619.94 221.79C619.31 221.26 619.24 220.31 619.77 219.68C620.31 219.05 621.25 218.97 621.89 219.51C622.52 220.05 622.59 220.99 622.06 221.63C621.76 221.97 621.34 222.15 620.91 222.15C620.57 222.15 620.23 222.04 619.94 221.79ZM610.85 214.61C610.18 214.12 610.03 213.18 610.52 212.51C611.01 211.85 611.95 211.7 612.62 212.19C613.29 212.68 613.43 213.62 612.94 214.29C612.65 214.69 612.19 214.9 611.73 214.9C611.42 214.9 611.11 214.81 610.85 214.61ZM601.25 208.1C600.55 207.66 600.34 206.73 600.78 206.03C601.22 205.33 602.15 205.11 602.85 205.56C603.55 206 603.76 206.92 603.32 207.63C603.03 208.08 602.55 208.33 602.05 208.33C601.78 208.33 601.5 208.25 601.25 208.1ZM591.22 202.27C590.49 201.88 590.21 200.97 590.61 200.24C591 199.51 591.91 199.24 592.64 199.63C593.37 200.02 593.64 200.93 593.25 201.66C592.98 202.16 592.46 202.45 591.93 202.45C591.69 202.45 591.45 202.39 591.22 202.27ZM580.81 197.14C580.05 196.8 579.72 195.91 580.06 195.16C580.4 194.4 581.29 194.07 582.04 194.41C582.8 194.75 583.13 195.64 582.79 196.39C582.54 196.95 582 197.27 581.42 197.27C581.22 197.27 581.01 197.23 580.81 197.14ZM570.08 192.7C569.3 192.41 568.91 191.55 569.2 190.77C569.5 189.99 570.36 189.6 571.14 189.9C571.91 190.19 572.3 191.05 572.01 191.83C571.78 192.43 571.21 192.8 570.61 192.8C570.43 192.8 570.25 192.77 570.08 192.7ZM559.08 188.95C558.29 188.71 557.85 187.87 558.09 187.08C558.33 186.28 559.17 185.84 559.97 186.08C560.76 186.33 561.2 187.17 560.96 187.96C560.76 188.6 560.17 189.02 559.52 189.02C559.38 189.02 559.23 189 559.08 188.95ZM547.88 185.87C547.07 185.68 546.58 184.86 546.78 184.06C546.97 183.25 547.78 182.76 548.59 182.96C549.39 183.15 549.88 183.96 549.69 184.77C549.52 185.45 548.91 185.91 548.23 185.91C548.12 185.91 548 185.91 547.88 185.87ZM536.51 183.46C535.7 183.31 535.16 182.53 535.31 181.72C535.46 180.9 536.24 180.36 537.05 180.51C537.87 180.66 538.41 181.44 538.26 182.25C538.13 182.98 537.5 183.48 536.79 183.48C536.7 183.48 536.61 183.48 536.52 183.46H536.51ZM525.01 181.72C524.19 181.62 523.6 180.87 523.7 180.05C523.8 179.23 524.55 178.64 525.37 178.74C526.19 178.84 526.78 179.59 526.68 180.41C526.59 181.17 525.94 181.73 525.19 181.73C525.13 181.73 525.07 181.73 525.01 181.72ZM513.43 180.68C512.6 180.63 511.97 179.92 512.02 179.09C512.07 178.26 512.78 177.63 513.6 177.68C514.43 177.73 515.06 178.44 515.01 179.26C514.97 180.06 514.31 180.68 513.51 180.68H513.43Z" fill="#F5F9FF"/>
<path d="M657.75 267.22C657.35 267.22 656.98 267.06 656.69 266.78C656.41 266.5 656.25 266.12 656.25 265.72C656.25 265.32 656.41 264.94 656.69 264.66C657.25 264.1 658.25 264.1 658.81 264.66C659.09 264.94 659.25 265.33 659.25 265.72C659.25 265.92 659.21 266.11 659.14 266.29C659.06 266.47 658.95 266.64 658.81 266.78C658.53 267.06 658.15 267.22 657.75 267.22Z" fill="#F5F9FF"/>
<path d="M486.49 192.09C486.1 192.09 485.71 191.93 485.43 191.65C485.36 191.58 485.3 191.5 485.24 191.42C485.19 191.34 485.14 191.25 485.11 191.16C485.07 191.07 485.04 190.98 485.02 190.88C485 190.79 484.99 190.69 484.99 190.59C484.99 190.49 485 190.39 485.02 190.3C485.04 190.2 485.07 190.11 485.11 190.02C485.14 189.92 485.19 189.84 485.24 189.76C485.3 189.67 485.36 189.6 485.43 189.53C485.78 189.18 486.3 189.02 486.78 189.12C486.88 189.14 486.97 189.17 487.07 189.2C487.16 189.24 487.24 189.29 487.32 189.34C487.41 189.4 487.48 189.46 487.55 189.53C487.62 189.6 487.68 189.67 487.74 189.76C487.79 189.84 487.84 189.92 487.88 190.02C487.91 190.11 487.94 190.2 487.96 190.3C487.98 190.39 487.99 190.49 487.99 190.59C487.99 190.69 487.99 190.79 487.96 190.88C487.94 190.98 487.91 191.07 487.88 191.16C487.84 191.25 487.79 191.34 487.74 191.42C487.68 191.5 487.62 191.58 487.55 191.65C487.48 191.72 487.41 191.78 487.32 191.84C487.24 191.89 487.16 191.94 487.07 191.97C486.97 192.01 486.88 192.04 486.78 192.06C486.69 192.08 486.59 192.09 486.49 192.09Z" fill="#F5F9FF"/>
<path d="M506.37 398.93C505.99 398.2 506.28 397.29 507.02 396.91C507.75 396.53 508.66 396.82 509.04 397.55C509.42 398.29 509.13 399.19 508.4 399.58C508.18 399.69 507.94 399.74 507.71 399.74C507.16 399.74 506.64 399.45 506.37 398.93ZM501.11 388.23C500.76 387.48 501.08 386.58 501.83 386.24C502.58 385.89 503.47 386.21 503.82 386.96C504.17 387.72 503.85 388.61 503.1 388.96C502.89 389.05 502.68 389.1 502.46 389.1C501.9 389.1 501.36 388.78 501.1 388.23H501.11ZM496.32 377.31C496 376.54 496.37 375.66 497.13 375.35C497.9 375.03 498.77 375.39 499.09 376.16C499.41 376.92 499.04 377.8 498.28 378.12C498.09 378.2 497.9 378.23 497.7 378.23C497.12 378.23 496.56 377.88 496.32 377.31ZM492 366.19C491.72 365.41 492.12 364.55 492.9 364.27C493.68 363.98 494.54 364.38 494.82 365.16C495.1 365.94 494.7 366.8 493.92 367.08C493.76 367.15 493.58 367.17 493.41 367.17C492.8 367.17 492.22 366.8 492 366.19ZM488.17 354.89C487.92 354.1 488.36 353.26 489.15 353.01C489.94 352.76 490.78 353.2 491.03 353.99C491.28 354.78 490.84 355.62 490.05 355.87C489.9 355.92 489.75 355.94 489.6 355.94C488.96 355.94 488.37 355.53 488.17 354.89ZM484.82 343.45C484.6 342.64 485.08 341.82 485.88 341.6C486.68 341.39 487.5 341.86 487.72 342.66C487.93 343.46 487.46 344.29 486.66 344.5C486.53 344.54 486.4 344.55 486.27 344.55C485.61 344.55 485 344.11 484.82 343.45ZM481.96 331.87C481.78 331.06 482.29 330.25 483.09 330.07C483.9 329.89 484.7 330.4 484.89 331.21C485.07 332.02 484.56 332.82 483.75 333C483.64 333.02 483.53 333.04 483.42 333.04C482.74 333.04 482.12 332.56 481.96 331.87ZM479.59 320.18C479.44 319.36 479.98 318.58 480.8 318.43C481.61 318.28 482.39 318.83 482.54 319.64C482.69 320.46 482.15 321.24 481.33 321.38C481.24 321.4 481.15 321.41 481.06 321.41C480.35 321.41 479.72 320.9 479.59 320.18ZM477.7 308.4C477.59 307.58 478.16 306.82 478.98 306.71C479.8 306.59 480.56 307.17 480.68 307.99C480.8 308.81 480.23 309.56 479.41 309.68C479.33 309.68 479.26 309.68 479.2 309.68C478.46 309.68 477.82 309.14 477.71 308.39L477.7 308.4ZM476.3 296.56C476.22 295.73 476.82 295 477.64 294.92C478.47 294.84 479.2 295.44 479.28 296.26C479.36 297.09 478.76 297.82 477.94 297.9C477.94 297.9 477.84 297.9 477.79 297.9C477.03 297.9 476.37 297.32 476.3 296.55V296.56ZM475.37 284.67C475.32 283.84 475.95 283.13 476.78 283.08C477.61 283.04 478.32 283.67 478.36 284.5C478.41 285.32 477.78 286.03 476.95 286.08H476.87C476.07 286.08 475.41 285.47 475.37 284.67ZM474.91 272.75C474.89 271.93 475.55 271.24 476.38 271.23C477.21 271.21 477.89 271.87 477.91 272.7C477.92 273.52 477.26 274.21 476.44 274.23H476.41C475.59 274.23 474.92 273.57 474.91 272.75ZM476.39 262.36C475.56 262.34 474.9 261.66 474.92 260.83C474.92 260 475.62 259.34 476.45 259.36C477.27 259.38 477.93 260.06 477.92 260.89C477.9 261.71 477.23 262.36 476.41 262.36H476.39ZM476.79 250.5C475.97 250.45 475.33 249.74 475.38 248.92C475.43 248.09 476.14 247.46 476.97 247.51C477.8 247.56 478.43 248.27 478.38 249.09C478.33 249.89 477.67 250.5 476.88 250.5H476.79ZM477.66 238.67C476.84 238.59 476.23 237.86 476.32 237.03C476.4 236.2 477.14 235.6 477.96 235.68C478.79 235.76 479.39 236.5 479.31 237.32C479.23 238.1 478.58 238.68 477.82 238.68C477.82 238.68 477.72 238.68 477.67 238.68L477.66 238.67ZM478.99 226.88C478.17 226.77 477.6 226.01 477.71 225.19C477.82 224.37 478.58 223.79 479.4 223.91C480.22 224.02 480.8 224.78 480.68 225.6C480.58 226.35 479.93 226.89 479.2 226.89C479.13 226.89 479.06 226.89 478.99 226.89V226.88ZM480.8 215.15C479.98 215 479.44 214.22 479.59 213.41C479.74 212.59 480.52 212.05 481.33 212.2C482.15 212.35 482.69 213.13 482.54 213.94C482.41 214.67 481.78 215.17 481.07 215.17C480.98 215.17 480.89 215.17 480.8 215.15ZM483.11 203.51C482.31 203.33 481.8 202.52 481.99 201.71C482.18 200.91 482.98 200.4 483.79 200.59C484.59 200.78 485.1 201.58 484.91 202.39C484.75 203.08 484.13 203.55 483.45 203.55C483.34 203.55 483.23 203.55 483.11 203.51Z" fill="#F5F9FF"/>
<path d="M513.4 410.17C513.2 410.17 513 410.13 512.82 410.05C512.64 409.98 512.48 409.87 512.34 409.73C512.05 409.44 511.9 409.07 511.9 408.67C511.9 408.57 511.9 408.47 511.93 408.37C511.95 408.28 511.97 408.18 512.01 408.09C512.05 408 512.1 407.91 512.15 407.83C512.2 407.75 512.27 407.67 512.34 407.61C512.68 407.26 513.2 407.1 513.69 407.19C513.79 407.21 513.88 407.24 513.97 407.28C514.06 407.32 514.15 407.36 514.23 407.42C514.31 407.47 514.39 407.54 514.46 407.61C514.74 407.88 514.9 408.27 514.9 408.67C514.9 409.07 514.74 409.44 514.46 409.73C514.32 409.87 514.15 409.98 513.97 410.05C513.79 410.13 513.6 410.17 513.4 410.17Z" fill="#F5F9FF"/>
<path d="M500.38 169.26C500.28 169.26 500.19 169.26 500.09 169.23C499.99 169.21 499.9 169.19 499.81 169.15C499.72 169.11 499.63 169.06 499.55 169.01C499.47 168.96 499.39 168.89 499.32 168.82C499.25 168.75 499.19 168.68 499.14 168.6C499.08 168.51 499.04 168.43 499 168.34C498.96 168.25 498.93 168.15 498.91 168.06C498.89 167.96 498.88 167.86 498.88 167.76C498.88 167.67 498.88 167.57 498.91 167.47C498.93 167.37 498.96 167.28 499 167.19C499.04 167.1 499.08 167.01 499.14 166.93C499.19 166.85 499.25 166.77 499.32 166.7C499.88 166.14 500.88 166.14 501.44 166.7C501.51 166.77 501.57 166.85 501.63 166.93C501.68 167.01 501.73 167.1 501.77 167.19C501.81 167.28 501.83 167.37 501.85 167.47C501.87 167.57 501.88 167.67 501.88 167.76C501.88 167.86 501.87 167.96 501.85 168.06C501.83 168.15 501.81 168.25 501.77 168.34C501.73 168.43 501.68 168.51 501.63 168.6C501.57 168.68 501.51 168.75 501.44 168.82C501.37 168.89 501.3 168.96 501.21 169.01C501.13 169.06 501.05 169.11 500.96 169.15C500.87 169.19 500.77 169.21 500.68 169.23C500.58 169.25 500.48 169.26 500.38 169.26Z" fill="#F5F9FF"/>
<path d="M811.2 204.53C810.62 203.93 810.64 202.98 811.24 202.41C811.84 201.84 812.79 201.86 813.36 202.46C813.93 203.06 813.91 204.01 813.32 204.58C813.02 204.86 812.65 205 812.28 205C811.88 205 811.49 204.84 811.2 204.53ZM802.65 195.93C802.05 195.35 802.03 194.4 802.61 193.81C803.19 193.21 804.14 193.2 804.73 193.77C805.33 194.35 805.34 195.3 804.77 195.89C804.47 196.2 804.08 196.35 803.69 196.35C803.31 196.35 802.94 196.21 802.65 195.93ZM793.76 187.69C793.13 187.14 793.08 186.19 793.63 185.57C794.18 184.95 795.13 184.89 795.75 185.44C796.37 185.99 796.42 186.94 795.87 187.56C795.58 187.89 795.16 188.06 794.75 188.06C794.4 188.06 794.04 187.94 793.76 187.69ZM784.52 179.84C783.87 179.32 783.77 178.37 784.3 177.73C784.82 177.08 785.76 176.99 786.41 177.51C787.05 178.03 787.15 178.98 786.63 179.62C786.33 179.98 785.9 180.17 785.46 180.17C785.13 180.17 784.79 180.06 784.52 179.84ZM774.93 172.42C774.27 171.93 774.12 170.99 774.61 170.33C775.1 169.66 776.04 169.52 776.71 170.01C777.38 170.5 777.52 171.44 777.03 172.1C776.74 172.5 776.28 172.72 775.82 172.72C775.51 172.72 775.2 172.62 774.93 172.42ZM765 165.48C764.32 165.02 764.13 164.09 764.58 163.4C765.04 162.71 765.97 162.52 766.66 162.98C767.35 163.44 767.54 164.37 767.08 165.06C766.79 165.49 766.32 165.73 765.83 165.73C765.55 165.73 765.26 165.65 765 165.48ZM509.58 162.32C509.18 161.59 509.45 160.68 510.18 160.28C510.9 159.88 511.81 160.15 512.21 160.88C512.61 161.6 512.34 162.52 511.62 162.91C511.39 163.04 511.14 163.1 510.9 163.1C510.36 163.1 509.85 162.81 509.58 162.32ZM754.74 159.04C754.03 158.62 753.8 157.7 754.22 156.99C754.64 156.28 755.56 156.04 756.27 156.46C756.99 156.88 757.22 157.8 756.8 158.52C756.52 158.99 756.02 159.25 755.51 159.25C755.25 159.25 754.98 159.19 754.74 159.04ZM520.39 156.66C520.03 155.92 520.34 155.02 521.08 154.65C521.82 154.29 522.72 154.6 523.08 155.35C523.45 156.09 523.14 156.99 522.4 157.35C522.18 157.46 521.96 157.5 521.74 157.5C521.18 157.5 520.65 157.19 520.39 156.66ZM744.17 153.15C743.43 152.77 743.15 151.86 743.53 151.13C743.92 150.39 744.82 150.11 745.56 150.49C746.29 150.88 746.57 151.78 746.19 152.52C745.92 153.03 745.4 153.32 744.86 153.32C744.62 153.32 744.39 153.27 744.17 153.15ZM531.44 151.49C531.11 150.73 531.44 149.85 532.21 149.51C532.97 149.18 533.85 149.53 534.19 150.29C534.52 151.04 534.17 151.93 533.41 152.26C533.22 152.35 533.01 152.39 532.81 152.39C532.23 152.39 531.68 152.05 531.44 151.49ZM733.29 147.83C732.53 147.49 732.2 146.6 732.55 145.85C732.89 145.09 733.78 144.76 734.53 145.11C735.28 145.45 735.62 146.34 735.28 147.09C735.02 147.64 734.48 147.97 733.91 147.97C733.7 147.97 733.49 147.93 733.29 147.83ZM542.69 146.77C542.39 146 542.77 145.13 543.54 144.83C544.31 144.53 545.18 144.91 545.48 145.68C545.78 146.46 545.4 147.33 544.63 147.63C544.45 147.7 544.27 147.73 544.08 147.73C543.49 147.73 542.92 147.37 542.69 146.77ZM554.12 142.52C553.85 141.73 554.26 140.88 555.05 140.61C555.83 140.34 556.69 140.76 556.95 141.54C557.22 142.32 556.81 143.18 556.03 143.45C555.86 143.5 555.7 143.53 555.54 143.53C554.91 143.53 554.33 143.14 554.12 142.52ZM722.14 143.12C721.37 142.82 720.98 141.95 721.28 141.18C721.59 140.41 722.45 140.03 723.23 140.33C724 140.63 724.38 141.5 724.08 142.27C723.85 142.86 723.28 143.23 722.68 143.23C722.5 143.23 722.32 143.19 722.14 143.12ZM565.71 138.72C565.47 137.93 565.92 137.09 566.72 136.86C567.51 136.62 568.35 137.07 568.58 137.87C568.82 138.66 568.37 139.49 567.58 139.73C567.44 139.78 567.3 139.8 567.16 139.8C566.51 139.8 565.91 139.37 565.72 138.72H565.71ZM710.74 139.05C709.95 138.79 709.52 137.94 709.78 137.16C710.04 136.37 710.88 135.94 711.67 136.19C712.46 136.45 712.89 137.3 712.63 138.09C712.42 138.72 711.84 139.12 711.21 139.12C711.05 139.12 710.9 139.1 710.74 139.05ZM577.45 135.42C577.24 134.61 577.73 133.8 578.53 133.59C579.34 133.39 580.15 133.88 580.36 134.68C580.56 135.48 580.07 136.3 579.27 136.5C579.15 136.53 579.02 136.55 578.9 136.55C578.23 136.55 577.62 136.1 577.45 135.42ZM699.13 135.62C698.33 135.41 697.85 134.58 698.07 133.78C698.28 132.98 699.1 132.5 699.9 132.72C700.7 132.93 701.18 133.75 700.96 134.55C700.79 135.22 700.18 135.67 699.52 135.67C699.39 135.67 699.26 135.65 699.13 135.62ZM589.32 132.61C589.15 131.8 589.67 131.01 590.48 130.84C591.29 130.67 592.08 131.19 592.25 132C592.42 132.81 591.9 133.61 591.09 133.77C590.99 133.8 590.89 133.81 590.79 133.81C590.09 133.81 589.46 133.32 589.32 132.61ZM687.35 132.85C686.53 132.68 686.01 131.89 686.18 131.08C686.34 130.27 687.14 129.74 687.95 129.91C688.76 130.08 689.28 130.87 689.12 131.68C688.97 132.39 688.35 132.88 687.65 132.88C687.55 132.88 687.45 132.87 687.35 132.85ZM601.3 130.33C601.16 129.51 601.72 128.75 602.54 128.61C603.36 128.48 604.13 129.04 604.26 129.86C604.39 130.67 603.83 131.44 603.01 131.58C602.93 131.59 602.85 131.59 602.78 131.59C602.05 131.59 601.41 131.07 601.3 130.33ZM675.42 130.75C674.6 130.63 674.04 129.86 674.16 129.04C674.28 128.22 675.04 127.66 675.86 127.78C676.68 127.9 677.25 128.66 677.13 129.48C677.02 130.23 676.38 130.76 675.65 130.76C675.57 130.76 675.5 130.76 675.42 130.76V130.75ZM613.37 128.61C613.27 127.78 613.86 127.04 614.69 126.94C615.51 126.85 616.25 127.44 616.35 128.27C616.44 129.09 615.85 129.83 615.03 129.93C614.97 129.93 614.91 129.94 614.86 129.94C614.1 129.94 613.45 129.37 613.37 128.61ZM663.4 129.31C662.58 129.23 661.97 128.5 662.04 127.68C662.12 126.85 662.85 126.24 663.68 126.32C664.5 126.4 665.11 127.13 665.03 127.95C664.96 128.73 664.3 129.31 663.54 129.31H663.4ZM625.5 127.45C625.45 126.63 626.08 125.91 626.91 125.86C627.73 125.81 628.45 126.43 628.5 127.26C628.55 128.09 627.92 128.8 627.1 128.85C627.1 128.85 627.03 128.86 627 128.86C626.22 128.86 625.56 128.25 625.5 127.45ZM651.32 128.52C650.5 128.49 649.85 127.79 649.88 126.97C649.92 126.14 650.61 125.49 651.44 125.52C652.27 125.56 652.91 126.25 652.88 127.08C652.85 127.89 652.19 128.52 651.38 128.52H651.33H651.32ZM637.68 126.9C637.68 126.07 638.33 125.39 639.16 125.38C639.99 125.37 640.67 126.03 640.68 126.86C640.68 127.69 640.03 128.37 639.2 128.38H639.18C638.36 128.38 637.69 127.72 637.68 126.9Z" fill="#F5F9FF"/>
<path d="M820.55 214C820.16 214 819.78 213.84 819.49 213.56C819.42 213.49 819.36 213.42 819.31 213.33C819.25 213.25 819.21 213.17 819.17 213.07C819.13 212.98 819.1 212.89 819.08 212.79C819.06 212.7 819.05 212.6 819.05 212.5C819.05 212.11 819.21 211.72 819.49 211.44C820.05 210.88 821.05 210.88 821.62 211.44C821.89 211.72 822.06 212.11 822.06 212.5C822.06 212.6 822.04 212.7 822.03 212.79C822.01 212.89 821.98 212.98 821.94 213.07C821.9 213.17 821.86 213.25 821.8 213.33C821.75 213.42 821.68 213.49 821.62 213.56C821.33 213.84 820.95 214 820.55 214Z" fill="#F5F9FF"/>
<path d="M223.1 230.18C223 230.18 222.9 230.18 222.8 230.15C222.71 230.13 222.61 230.1 222.52 230.06C222.43 230.02 222.35 229.98 222.26 229.92C222.18 229.87 222.11 229.81 222.04 229.74C221.97 229.67 221.9 229.59 221.85 229.51C221.8 229.43 221.75 229.34 221.71 229.25C221.67 229.16 221.64 229.06 221.63 228.97C221.61 228.87 221.6 228.77 221.6 228.68C221.6 228.58 221.6 228.48 221.63 228.38C221.64 228.29 221.67 228.19 221.71 228.1C221.75 228.01 221.8 227.92 221.85 227.84C221.9 227.76 221.97 227.68 222.04 227.61C222.11 227.55 222.18 227.48 222.26 227.43C222.35 227.37 222.43 227.33 222.52 227.29C222.61 227.25 222.71 227.22 222.8 227.21C223 227.17 223.2 227.17 223.39 227.21C223.49 227.21 223.58 227.25 223.67 227.29C223.76 227.33 223.85 227.37 223.93 227.43C224.01 227.48 224.09 227.55 224.16 227.61C224.23 227.68 224.29 227.76 224.34 227.84C224.4 227.92 224.44 228.01 224.48 228.1C224.52 228.19 224.55 228.29 224.57 228.38C224.59 228.48 224.6 228.58 224.6 228.68C224.6 228.77 224.59 228.87 224.57 228.97C224.55 229.06 224.52 229.16 224.48 229.25C224.44 229.34 224.4 229.43 224.34 229.51C224.29 229.59 224.23 229.67 224.16 229.74C224.09 229.81 224.01 229.87 223.93 229.92C223.85 229.98 223.76 230.02 223.67 230.06C223.58 230.1 223.49 230.13 223.39 230.15C223.29 230.17 223.19 230.18 223.1 230.18Z" fill="#F5F9FF"/>
<path d="M253.38 436.45C252.82 435.84 252.85 434.9 253.46 434.33C254.06 433.77 255.01 433.8 255.58 434.41C256.14 435.02 256.11 435.97 255.5 436.53C255.21 436.8 254.85 436.93 254.48 436.93C254.08 436.93 253.68 436.77 253.38 436.45ZM245.28 427.13C244.76 426.48 244.86 425.54 245.5 425.02C246.15 424.5 247.09 424.6 247.62 425.24H247.61C248.13 425.88 248.04 426.83 247.39 427.35C247.12 427.57 246.78 427.68 246.45 427.68C246.01 427.68 245.58 427.49 245.28 427.13ZM237.84 417.27C237.37 416.59 237.54 415.65 238.21 415.18C238.89 414.7 239.83 414.87 240.3 415.55C240.78 416.22 240.61 417.16 239.93 417.64C239.67 417.82 239.37 417.91 239.08 417.91C238.6 417.91 238.14 417.68 237.84 417.27ZM231.12 406.9C230.7 406.19 230.93 405.27 231.64 404.84C232.35 404.42 233.27 404.65 233.7 405.36C234.12 406.07 233.89 406.99 233.18 407.42C232.94 407.56 232.67 407.63 232.41 407.63C231.9 407.63 231.4 407.37 231.12 406.9ZM225.16 396.08C224.79 395.34 225.09 394.44 225.83 394.06C226.57 393.69 227.47 393.99 227.84 394.73C228.21 395.47 227.92 396.37 227.18 396.74C226.96 396.85 226.73 396.9 226.5 396.9C225.95 396.9 225.43 396.6 225.16 396.08ZM220 384.85C219.68 384.08 220.05 383.21 220.81 382.89C221.58 382.57 222.45 382.93 222.77 383.7C223.09 384.46 222.73 385.34 221.96 385.66C221.78 385.74 221.58 385.77 221.39 385.77C220.8 385.77 220.24 385.42 220 384.85ZM215.67 373.28C215.4 372.49 215.83 371.64 216.61 371.38C217.4 371.12 218.25 371.54 218.51 372.33C218.77 373.11 218.35 373.96 217.57 374.23C217.41 374.28 217.25 374.3 217.09 374.3C216.46 374.3 215.88 373.91 215.67 373.28ZM212.16 361.43C211.95 360.63 212.43 359.81 213.23 359.61C214.03 359.4 214.85 359.88 215.06 360.68C215.27 361.49 214.79 362.3 213.99 362.51C213.86 362.54 213.73 362.56 213.61 362.56C212.94 362.56 212.33 362.11 212.16 361.43ZM209.47 349.38C209.31 348.57 209.85 347.78 210.66 347.63C211.48 347.48 212.26 348.01 212.41 348.83C212.57 349.64 212.03 350.42 211.22 350.58C211.12 350.58 211.03 350.6 210.94 350.6C210.23 350.6 209.6 350.1 209.47 349.38ZM207.57 337.18C207.47 336.35 208.06 335.61 208.88 335.51C209.7 335.41 210.45 335.99 210.55 336.82C210.65 337.64 210.07 338.38 209.25 338.49C209.18 338.49 209.12 338.49 209.06 338.49C208.31 338.49 207.67 337.93 207.57 337.17V337.18ZM206.45 324.89C206.4 324.06 207.03 323.35 207.86 323.3C208.69 323.25 209.4 323.88 209.45 324.71C209.5 325.53 208.87 326.24 208.04 326.29H207.95C207.16 326.29 206.5 325.68 206.45 324.89ZM206.07 312.55C206.07 311.72 206.74 311.05 207.57 311.05C208.4 311.05 209.07 311.72 209.07 312.55C209.07 313.37 208.4 314.05 207.57 314.05C206.75 314.05 206.07 313.38 206.07 312.55ZM207.81 301.8C206.98 301.75 206.34 301.05 206.39 300.22C206.43 299.39 207.14 298.76 207.97 298.8C208.79 298.85 209.43 299.55 209.39 300.38C209.34 301.18 208.68 301.8 207.89 301.8H207.81ZM208.71 289.58C207.89 289.49 207.29 288.75 207.38 287.93C207.46 287.11 208.2 286.51 209.03 286.6C209.85 286.68 210.45 287.42 210.36 288.25C210.28 289.02 209.63 289.59 208.87 289.59C208.82 289.59 208.76 289.59 208.71 289.59V289.58ZM210.24 277.42C209.43 277.29 208.87 276.52 209 275.71C209.13 274.89 209.9 274.33 210.71 274.46C211.53 274.59 212.09 275.36 211.96 276.18C211.84 276.91 211.2 277.44 210.48 277.44C210.4 277.44 210.32 277.44 210.24 277.42ZM212.39 265.36C211.58 265.19 211.06 264.39 211.23 263.58C211.4 262.77 212.2 262.25 213.01 262.42C213.82 262.59 214.34 263.39 214.17 264.2C214.02 264.91 213.39 265.39 212.7 265.39C212.6 265.39 212.49 265.38 212.39 265.36ZM215.13 253.41C214.33 253.2 213.85 252.38 214.07 251.58C214.28 250.78 215.1 250.3 215.9 250.51C216.7 250.72 217.18 251.54 216.97 252.34C216.79 253.02 216.18 253.46 215.52 253.46C215.39 253.46 215.26 253.45 215.13 253.41ZM218.48 241.63C217.69 241.37 217.26 240.53 217.52 239.74C217.77 238.95 218.61 238.52 219.4 238.77C220.19 239.02 220.62 239.87 220.37 240.66C220.17 241.29 219.58 241.7 218.94 241.7C218.79 241.7 218.64 241.67 218.48 241.63Z" fill="#F5F9FF"/>
<path d="M263.12 445.65C262.92 445.65 262.73 445.62 262.55 445.54C262.37 445.46 262.2 445.35 262.06 445.21C261.78 444.93 261.62 444.55 261.62 444.15C261.62 444.06 261.62 443.96 261.65 443.86C261.67 443.77 261.7 443.67 261.74 443.58C261.77 443.49 261.82 443.4 261.87 443.32C261.93 443.24 261.99 443.16 262.06 443.09C262.62 442.53 263.63 442.54 264.18 443.09C264.25 443.16 264.31 443.24 264.37 443.32C264.42 443.4 264.47 443.49 264.51 443.58C264.54 443.67 264.57 443.77 264.59 443.86C264.61 443.96 264.62 444.06 264.62 444.15C264.62 444.55 264.47 444.93 264.18 445.21C264.04 445.36 263.88 445.46 263.7 445.54C263.51 445.62 263.32 445.65 263.12 445.65Z" fill="#F5F9FF"/>
<path d="M44.4299 122.18C44.3399 122.18 44.2399 122.18 44.1399 122.15C44.0399 122.12 43.9499 122.1 43.8599 122.06C43.7699 122.02 43.6799 121.98 43.5999 121.92C43.5199 121.87 43.4399 121.81 43.3699 121.74C43.0899 121.46 42.9299 121.07 42.9299 120.68C42.9299 120.29 43.0899 119.89 43.3699 119.62C43.9299 119.06 44.9299 119.06 45.4899 119.62C45.7699 119.89 45.9299 120.28 45.9299 120.68C45.9299 121.08 45.7699 121.46 45.4899 121.74C45.2199 122.02 44.8299 122.18 44.4299 122.18Z" fill="#F5F9FF"/>
<path d="M205.29 217.99C204.46 217.94 203.83 217.24 203.88 216.41C203.92 215.58 204.63 214.95 205.46 215C206.29 215.04 206.92 215.76 206.87 216.58C206.82 217.38 206.16 218 205.37 218C205.37 218 205.32 218 205.29 217.99ZM193.09 216.94C192.27 216.84 191.68 216.1 191.78 215.28C191.87 214.45 192.61 213.86 193.44 213.96C194.26 214.05 194.85 214.8 194.76 215.62C194.67 216.38 194.02 216.95 193.27 216.95C193.21 216.95 193.15 216.95 193.09 216.95V216.94ZM180.98 215.17C180.16 215.02 179.62 214.25 179.76 213.43C179.91 212.61 180.68 212.07 181.5 212.21C182.31 212.36 182.86 213.14 182.72 213.95C182.59 214.68 181.96 215.19 181.24 215.19C181.16 215.19 181.07 215.18 180.98 215.17ZM168.99 212.67C168.18 212.48 167.69 211.67 167.88 210.86C168.08 210.06 168.88 209.56 169.69 209.75C170.5 209.95 170.99 210.76 170.8 211.56C170.63 212.25 170.02 212.71 169.34 212.71C169.22 212.71 169.11 212.7 168.99 212.67ZM157.18 209.44C156.38 209.2 155.94 208.36 156.18 207.57C156.42 206.78 157.26 206.33 158.05 206.58C158.85 206.82 159.29 207.66 159.05 208.45C158.85 209.1 158.26 209.51 157.61 209.51C157.47 209.51 157.32 209.49 157.18 209.44ZM145.58 205.49C144.8 205.2 144.41 204.33 144.7 203.56C145 202.78 145.86 202.39 146.64 202.68C147.41 202.97 147.8 203.84 147.51 204.61C147.29 205.21 146.71 205.59 146.11 205.59C145.93 205.59 145.76 205.56 145.58 205.49ZM134.25 200.82C133.5 200.48 133.16 199.6 133.5 198.84C133.84 198.09 134.73 197.75 135.48 198.09C136.24 198.43 136.58 199.31 136.24 200.07C135.99 200.63 135.44 200.96 134.87 200.96C134.66 200.96 134.45 200.91 134.25 200.82ZM123.24 195.47C122.5 195.09 122.22 194.18 122.6 193.45C122.99 192.71 123.89 192.43 124.63 192.81C125.36 193.2 125.64 194.1 125.26 194.84C124.99 195.35 124.47 195.64 123.93 195.64C123.69 195.64 123.46 195.59 123.24 195.47ZM112.56 189.46C111.85 189.03 111.62 188.11 112.05 187.4C112.48 186.69 113.4 186.46 114.11 186.89C114.82 187.32 115.05 188.24 114.62 188.95C114.34 189.41 113.84 189.67 113.34 189.67C113.07 189.67 112.8 189.6 112.56 189.46ZM102.27 182.82C101.58 182.35 101.41 181.41 101.88 180.73C102.35 180.05 103.28 179.88 103.97 180.34C104.65 180.81 104.82 181.75 104.35 182.43C104.06 182.85 103.59 183.08 103.12 183.08C102.82 183.08 102.53 182.99 102.27 182.82ZM92.3801 175.59C91.7201 175.08 91.6101 174.14 92.1101 173.48C92.6201 172.83 93.5601 172.71 94.2201 173.22C94.8701 173.72 94.9901 174.67 94.4801 175.32C94.1901 175.7 93.7401 175.9 93.3001 175.9C92.9801 175.9 92.6501 175.8 92.3801 175.59ZM82.9201 167.8C82.3001 167.26 82.2301 166.31 82.7801 165.68C83.3201 165.06 84.2701 164.99 84.8901 165.54C85.5201 166.08 85.5801 167.03 85.0401 167.65C84.7401 168 84.3201 168.17 83.9101 168.17C83.5601 168.17 83.2101 168.05 82.9201 167.8ZM73.9201 159.5C73.3201 158.92 73.3101 157.97 73.8901 157.38C74.4701 156.78 75.4201 156.77 76.0101 157.35C76.6001 157.93 76.6201 158.88 76.0401 159.47C75.7401 159.77 75.3501 159.92 74.9601 159.92C74.5801 159.92 74.2101 159.78 73.9201 159.5ZM65.3901 150.7C64.8301 150.09 64.8701 149.14 65.4801 148.58C66.0901 148.02 67.0401 148.06 67.6001 148.67C68.1601 149.28 68.1201 150.23 67.5101 150.79C67.2201 151.06 66.8501 151.19 66.4901 151.19C66.0901 151.19 65.6801 151.03 65.3901 150.7ZM57.3601 141.44C56.8401 140.8 56.9301 139.85 57.5701 139.33C58.2201 138.8 59.1601 138.9 59.6801 139.54C60.2101 140.18 60.1101 141.13 59.4701 141.65C59.1901 141.88 58.8601 141.99 58.5201 141.99C58.0901 141.99 57.6601 141.8 57.3601 141.44ZM49.8901 131.71C49.4101 131.03 49.5601 130.1 50.2301 129.61C50.9101 129.13 51.8401 129.28 52.3301 129.96C52.8101 130.63 52.6601 131.57 51.9801 132.05C51.7201 132.24 51.4101 132.33 51.1101 132.33C50.6401 132.33 50.1801 132.12 49.8901 131.71Z" fill="#F5F9FF"/>
<path d="M217.53 218.35C217.14 218.35 216.75 218.19 216.47 217.91C216.19 217.63 216.03 217.25 216.03 216.85C216.03 216.45 216.19 216.07 216.47 215.79C217.03 215.23 218.03 215.23 218.59 215.79C218.87 216.07 219.03 216.46 219.03 216.85C219.03 217.24 218.87 217.63 218.59 217.91C218.31 218.19 217.93 218.35 217.53 218.35Z" fill="#F5F9FF"/>
<path d="M198.28 377.93L199.22 380.45C199.35 380.81 199.65 381.09 200.01 381.2L218.77 387.05C218.98 387.74 219.19 388.43 219.4 389.14C221.95 397.57 226.7 400.6 227.95 400.13C229.2 399.66 230.79 394.26 227.18 386.23C226.88 385.56 226.58 384.9 226.28 384.24L236.59 367.51C236.79 367.18 236.83 366.78 236.7 366.42L235.76 363.9L221.81 374.36L216.51 363.77L221.14 355.82L220.46 354L213.97 358.71C213.97 358.71 212.44 355.84 211.5 356.19C210.56 356.54 211.29 359.71 211.29 359.71L203.3 360.42L203.98 362.24L212.69 365.19L215.65 376.65L198.26 377.93H198.28Z" fill="#F5F9FF"/>
<path d="M357.64 159.35L354.97 159.69C354.59 159.74 354.25 159.96 354.06 160.29L344.07 177.21C343.35 177.25 342.63 177.3 341.89 177.34C333.1 177.89 329.06 181.82 329.23 183.14C329.4 184.46 334.29 187.26 342.94 185.58C343.66 185.44 344.38 185.3 345.08 185.16L359 199.03C359.27 199.3 359.65 199.43 360.03 199.38L362.7 199.04L355.72 183.06L367.24 180.33L373.91 186.66L375.84 186.41L372.74 179.02C372.74 179.02 375.88 178.19 375.75 177.2C375.62 176.21 372.37 176.19 372.37 176.19L373.51 168.25L371.58 168.5L366.71 176.3L354.87 176.55L357.61 159.33L357.64 159.35Z" fill="#F5F9FF"/>
<path d="M59.68 169.95L61.58 171.85C61.85 172.12 62.23 172.25 62.61 172.2L82.11 169.75C82.58 170.29 83.06 170.84 83.55 171.39C89.36 178.01 94.94 178.8 95.89 177.85C96.84 176.9 96.05 171.33 89.43 165.51C88.88 165.02 88.33 164.54 87.79 164.07L90.24 144.57C90.29 144.19 90.16 143.81 89.89 143.54L87.99 141.64L79.62 156.93L70.41 149.49L71.33 140.34L69.95 138.96L66 145.94C66 145.94 63.42 143.96 62.71 144.67C62 145.38 63.98 147.96 63.98 147.96L57 151.91L58.38 153.29L67.53 152.37L74.97 161.58L59.68 169.95Z" fill="#F5F9FF"/>
<path d="M496.37 275.83V273.14C496.37 272.76 496.19 272.39 495.89 272.16L480.37 260.1C480.42 259.38 480.46 258.66 480.51 257.92C481.08 249.13 477.69 244.63 476.36 244.63C475.03 244.63 471.64 249.13 472.21 257.92C472.26 258.66 472.31 259.38 472.35 260.1L456.83 272.16C456.53 272.4 456.35 272.76 456.35 273.14V275.83L473.08 270.93L474.33 282.7L467.21 288.52V290.46L474.94 288.32C474.94 288.32 475.37 291.54 476.37 291.54C477.37 291.54 477.8 288.32 477.8 288.32L485.53 290.46V288.52L478.41 282.7L479.66 270.93L496.39 275.83H496.37Z" fill="#F5F9FF"/>
<path d="M702.21 387.02L704.11 388.92C704.38 389.19 704.76 389.32 705.14 389.27L724.64 386.82C725.11 387.36 725.59 387.91 726.08 388.46C731.89 395.08 737.47 395.87 738.42 394.92C739.37 393.97 738.58 388.4 731.96 382.58C731.41 382.09 730.86 381.61 730.32 381.14L732.77 361.64C732.82 361.26 732.69 360.88 732.42 360.61L730.52 358.71L722.15 374L712.94 366.56L713.86 357.41L712.48 356.03L708.53 363.01C708.53 363.01 705.95 361.03 705.24 361.74C704.53 362.45 706.51 365.03 706.51 365.03L699.53 368.98L700.91 370.36L710.06 369.44L717.5 378.65L702.21 387.02Z" fill="#F5F9FF"/>
<path d="M653.8 106.84H651.11C650.73 106.84 650.36 107.02 650.13 107.32L638.07 122.84C637.35 122.79 636.63 122.75 635.89 122.7C627.1 122.13 622.6 125.52 622.6 126.85C622.6 128.18 627.1 131.57 635.89 131C636.63 130.95 637.35 130.9 638.07 130.86L650.13 146.38C650.37 146.68 650.73 146.86 651.11 146.86H653.8L648.9 130.13L660.67 128.88L666.49 136H668.43L666.29 128.27C666.29 128.27 669.51 127.84 669.51 126.84C669.51 125.84 666.29 125.41 666.29 125.41L668.43 117.68H666.49L660.67 124.8L648.9 123.55L653.8 106.82V106.84Z" fill="#F5F9FF"/>
<path d="M602.64 184.75L600.22 183.59C599.87 183.42 599.47 183.43 599.13 183.59L581.55 192.38C580.92 192.03 580.29 191.67 579.65 191.31C571.97 187 566.45 188.11 565.87 189.31C565.29 190.51 567.89 195.52 576.06 198.8C576.74 199.08 577.42 199.35 578.09 199.61L582.25 218.82C582.33 219.19 582.58 219.51 582.93 219.68L585.35 220.84L588.16 203.64L599.32 207.6L601.49 216.54L603.24 217.38L604.65 209.49C604.65 209.49 607.74 210.5 608.17 209.59C608.6 208.68 605.88 206.91 605.88 206.91L611.15 200.87L609.4 200.03L601.08 203.94L591 197.73L602.65 184.76L602.64 184.75Z" fill="#F5F9FF"/>
<path d="M797.91 281.84L800.11 280.3C800.42 280.08 800.62 279.73 800.64 279.34L801.6 259.71C802.21 259.34 802.83 258.96 803.47 258.58C810.99 254 812.73 248.64 811.97 247.55C811.21 246.46 805.57 246.27 798.7 251.78C798.12 252.24 797.56 252.7 797 253.15L778.22 247.37C777.85 247.26 777.46 247.32 777.14 247.54L774.94 249.08L788.56 259.97L779.64 267.75L770.79 265.26L769.2 266.38L775.39 271.48C775.39 271.48 773 273.68 773.57 274.5C774.14 275.32 777.03 273.82 777.03 273.82L779.72 281.38L781.31 280.26L781.98 271.09L792.34 265.35L797.94 281.86L797.91 281.84Z" fill="#F5F9FF"/>
</g>
<defs>
<clipPath id="clip0_18_7888">
<rect width="948.6" height="510.96" fill="white"/>
</clipPath>
</defs>
</svg>
