<svg width="32" height="32" viewBox="0 0 32 32" fill="none" xmlns="http://www.w3.org/2000/svg">
<path d="M10.7292 25.1107C10.4384 26.3436 10.5513 28.0733 10.6779 29.2L11.6685 29.5436C12.2571 28.5971 13.1399 27.0459 13.4667 25.808C13.643 25.1411 14.3684 22.4211 14.3684 22.4211C14.8406 23.307 16.2196 24.0581 17.6876 24.0581C22.0522 24.0581 25.1987 20.1053 25.1987 15.1941C25.1987 10.4867 21.296 6.96338 16.2744 6.96338C10.0277 6.96338 6.71021 11.0931 6.71021 15.5882C6.71021 17.6766 7.83943 20.2804 9.64619 21.1091C9.92165 21.2337 10.0688 21.1781 10.1321 20.9171C10.18 20.72 10.4247 19.7516 10.5342 19.3019C10.5684 19.1571 10.5513 19.0341 10.4332 18.8926C9.83439 18.1785 9.35704 16.8649 9.35704 15.6404C9.35704 12.4977 11.7746 9.45601 15.8928 9.45601C19.4499 9.45601 21.9393 11.8409 21.9393 15.2531C21.9393 19.1082 19.9615 21.7794 17.3882 21.7794C15.9681 21.7794 14.9039 20.624 15.2444 19.2042C15.6533 17.5099 16.4438 15.6825 16.4438 14.4598C16.4438 13.3651 15.8466 12.4522 14.6131 12.4522C13.1588 12.4522 11.9936 13.931 11.9936 15.9133C11.9936 17.1747 12.4265 18.0286 12.4265 18.0286C12.4265 18.0286 10.991 23.9992 10.7292 25.1107Z" fill="#6F647C"/>
</svg>
