<svg width="394" height="144" viewBox="0 0 394 144" fill="none" xmlns="http://www.w3.org/2000/svg">
<g opacity="0.6">
<path d="M190.498 118.751C190.498 118.751 18.2984 156.243 1.1168 126.969C-6.89379 113.321 30.8155 93.0388 30.8155 93.0388C30.8155 93.0388 5.72727 110.91 17.175 117.939C38.5162 131.043 156.308 101.298 156.308 101.298L190.498 118.751Z" fill="#EBEBEB"/>
<path d="M88.0083 139.716L113.754 135.947C118.036 135.29 122.327 134.731 126.602 134.044C130.886 133.426 135.159 132.756 139.433 132.083C143.704 131.402 147.979 130.74 152.237 129.984C156.516 129.333 160.749 128.465 165.021 127.767C173.524 126.171 181.998 124.453 190.498 122.613C182.35 125.652 173.959 128.022 165.502 130.057C161.265 131.034 157.012 131.959 152.743 132.779C148.476 133.623 144.183 134.31 139.899 135.045C135.597 135.663 131.3 136.326 126.987 136.851C124.831 137.119 122.673 137.374 120.513 137.605C118.356 137.851 116.195 138.08 114.03 138.263C105.381 139.064 96.7055 139.647 88.0083 139.716Z" fill="#EBEBEB"/>
<path d="M23.018 104.595C22.6762 105.087 22.3874 105.609 22.1435 106.141C21.8887 106.667 21.6788 107.21 21.5469 107.76C21.3949 108.305 21.35 108.856 21.343 109.384C21.3959 109.906 21.4689 110.415 21.7128 110.85C22.1255 111.743 22.9191 112.422 23.8496 112.921C24.7651 113.441 25.8345 113.786 26.9039 114.084C29.0857 114.614 31.3834 114.903 33.6982 115.027C36.0069 115.202 38.3506 115.232 40.6913 115.215C43.037 115.222 45.3877 115.157 47.7444 115.061C50.1021 114.998 52.4608 114.866 54.8285 114.763C59.5629 114.56 64.3043 114.254 69.1047 114.234C64.4792 115.49 59.7888 116.447 55.0474 117.092C53.8651 117.28 52.6777 117.433 51.4854 117.543C50.293 117.661 49.1057 117.813 47.9074 117.896C45.5157 118.08 43.112 118.172 40.7013 118.213C35.889 118.141 30.9837 117.955 26.2123 116.311C25.0369 115.844 23.8446 115.373 22.7812 114.56C21.7278 113.79 20.7293 112.714 20.3365 111.349C19.9357 109.984 20.2106 108.586 20.7723 107.472C21.316 106.334 22.1185 105.387 23.018 104.595Z" fill="#EBEBEB"/>
</g>
<path d="M216.857 126.968C215.557 125.465 197.453 112.825 196.094 111.878L199.184 111.347C199.184 111.347 215.734 125.406 216.857 126.968Z" fill="#FFC725"/>
<path opacity="0.5" d="M216.857 126.968C215.557 125.465 197.453 112.825 196.094 111.878L199.184 111.347C199.184 111.347 215.734 125.406 216.857 126.968Z" fill="white"/>
<path d="M216.917 127.082C216.917 127.091 216.917 127.099 216.917 127.099C216.917 127.116 216.909 127.133 216.9 127.158C216.756 127.479 215.515 127.758 214.13 127.944C214.113 127.944 214.096 127.944 214.079 127.952C212.382 128.162 210.499 128.23 210.194 128.027C209.805 127.758 196.744 121.222 188.747 117.227C188.637 117.176 188.536 117.126 188.434 117.076C188.4 117.059 188.375 117.042 188.366 117.042H188.358V117.034C187.969 116.84 187.59 116.654 187.227 116.468C185.868 115.792 184.736 115.227 183.934 114.83C183.115 114.424 182.65 114.188 182.65 114.188L196.093 111.883C196.862 112.415 202.974 116.68 208.379 120.572C208.565 120.699 208.75 120.833 208.936 120.968C209.443 121.331 209.932 121.686 210.422 122.033C213.706 124.422 216.384 126.423 216.857 126.972C216.874 126.997 216.891 127.023 216.899 127.04C216.908 127.056 216.917 127.073 216.917 127.082Z" fill="#FFC725"/>
<g opacity="0.1">
<path d="M216.916 127.082C216.916 127.091 216.916 127.099 216.916 127.099C216.916 127.116 216.908 127.133 216.899 127.158C216.756 127.479 215.515 127.758 214.13 127.944C214.113 127.944 214.096 127.944 214.079 127.952C212.382 128.162 210.499 128.23 210.194 128.028C209.797 127.758 196.397 121.052 188.434 117.076C189.742 117.709 206.926 125.976 210.422 122.032C213.706 124.422 216.384 126.422 216.856 126.971C216.873 126.996 216.89 127.022 216.898 127.039C216.907 127.056 216.916 127.073 216.916 127.082Z" fill="black"/>
</g>
<path d="M393.991 141.833V141.841C393.991 143.64 384.087 144.223 382.736 143.834C381.258 143.411 273.447 100.981 273.447 100.981L313.116 85.2761C313.42 85.4869 313.8 85.7578 314.256 86.0696C314.416 86.1796 314.585 86.2975 314.763 86.4154C322.075 91.4817 343.911 106.621 362.985 119.946C363.365 120.208 363.737 120.47 364.109 120.732C364.616 121.077 365.113 121.432 365.612 121.779C378.835 131.017 390.301 139.08 393.991 141.833Z" fill="#FFC725"/>
<path d="M393.992 141.833C384.332 134.622 321.358 90.9839 313.116 85.276L318.14 83.2831C318.14 83.2831 391.501 139.08 393.713 141.301C393.899 141.495 393.992 141.664 393.992 141.833Z" fill="#FFC725"/>
<path opacity="0.5" d="M393.992 141.833C384.332 134.622 321.358 90.9839 313.116 85.276L318.14 83.2831C318.14 83.2831 391.501 139.08 393.713 141.301C393.899 141.495 393.992 141.664 393.992 141.833Z" fill="white"/>
<g opacity="0.5">
<path opacity="0.1" d="M393.991 141.833V141.841C393.991 143.64 384.087 144.223 382.736 143.834C381.258 143.411 273.447 100.981 273.447 100.981L313.116 85.2761C313.116 85.2761 303.304 96.4979 326.584 113.757C342.45 125.52 359.338 127.96 365.611 121.779C378.835 131.017 390.301 139.08 393.991 141.833Z" fill="black"/>
</g>
<path d="M304.084 114.901C301.02 116.389 297.686 117.558 297.446 114.479C297.347 113.217 298.325 111.866 303.254 109.494C304.411 108.937 307.234 107.701 308.066 110.261C308.865 112.727 305.237 114.339 304.084 114.901Z" fill="#FFC725"/>
<path opacity="0.1" d="M304.084 114.901C301.02 116.389 297.686 117.558 297.446 114.479C297.347 113.217 298.325 111.866 303.254 109.494C304.411 108.937 307.234 107.701 308.066 110.261C308.865 112.727 305.237 114.339 304.084 114.901Z" fill="black"/>
<path d="M329.098 125.139C326.034 126.627 322.701 127.797 322.46 124.717C322.362 123.454 323.34 122.105 328.27 119.732C329.426 119.175 332.25 117.939 333.081 120.5C333.881 122.965 330.253 124.578 329.098 125.139Z" fill="#FFC725"/>
<path opacity="0.1" d="M329.098 125.139C326.034 126.627 322.701 127.797 322.46 124.717C322.362 123.454 323.34 122.105 328.27 119.732C329.426 119.175 332.25 117.939 333.081 120.5C333.881 122.965 330.253 124.578 329.098 125.139Z" fill="black"/>
<path d="M354.114 135.377C351.049 136.865 347.716 138.034 347.475 134.955C347.377 133.691 348.355 132.342 353.285 129.97C354.441 129.413 357.265 128.176 358.096 130.737C358.896 133.204 355.268 134.816 354.114 135.377Z" fill="#FFC725"/>
<path opacity="0.1" d="M354.114 135.377C351.049 136.865 347.716 138.034 347.475 134.955C347.377 133.691 348.355 132.342 353.285 129.97C354.441 129.413 357.265 128.176 358.096 130.737C358.896 133.204 355.268 134.816 354.114 135.377Z" fill="black"/>
<path d="M345.937 108.479C342.923 113.841 336.084 115.774 331.751 117.505C320.251 122.099 311.908 124.682 307.796 114.238C307.265 112.887 306.969 111.629 306.876 110.455C306.2 102.578 314.358 98.6417 318.504 96.4639C318.512 96.4559 318.512 96.456 318.512 96.456C323.511 93.8214 327.049 92.1163 329.682 91.0099C333.98 89.1939 335.897 88.9661 337.873 88.8991C340.195 88.8231 345.447 89.4058 347.17 99.0405C347.879 103.05 347.289 106.099 345.937 108.479Z" fill="#FFC725"/>
<path d="M346.074 100.99C346.074 106.858 342.404 111.615 337.877 111.615C333.349 111.615 329.679 106.857 329.679 100.99C329.679 95.1218 333.349 90.3644 337.877 90.3644C342.404 90.3644 346.074 95.1218 346.074 100.99Z" fill="#263238"/>
<path d="M345.12 100.989C345.12 106.175 341.878 110.377 337.877 110.377C333.877 110.377 330.634 106.174 330.634 100.989C330.634 95.8053 333.877 91.6016 337.877 91.6016C341.878 91.6016 345.12 95.8053 345.12 100.989Z" fill="#455A64"/>
<path d="M174.308 98.1789L172.409 98.8715L168.136 100.426C164.303 98.7616 159.034 96.4909 153.342 94.0422C139.013 87.8866 122.057 80.6586 118.79 79.5522C118.908 79.5862 119.052 79.6281 119.204 79.6791C119.314 79.7131 119.44 79.7551 119.576 79.797C119.728 79.848 119.896 79.898 120.073 79.957C120.166 79.9909 120.259 80.0159 120.36 80.0499C120.698 80.1598 121.078 80.2778 121.492 80.4127C121.854 80.5306 122.234 80.6576 122.648 80.7925C123.61 81.1043 124.7 81.4681 125.899 81.8649C126.262 81.9918 126.634 82.1098 127.014 82.2367C127.351 82.3467 127.697 82.4646 128.052 82.5825C128.246 82.6505 128.432 82.7094 128.626 82.7684C129.199 82.9623 129.782 83.1572 130.391 83.3591C130.778 83.494 131.167 83.6209 131.564 83.7559C136.148 85.293 141.478 87.083 146.78 88.873L148.224 89.3548C150.132 90.0044 152.041 90.6471 153.89 91.2717C157.403 92.4621 160.746 93.5855 163.668 94.5729C164.141 94.7338 164.597 94.8937 165.045 95.0456C166.624 95.5774 168.059 96.0591 169.3 96.4809L169.317 96.4899C169.697 96.6158 170.06 96.7427 170.407 96.8617C170.584 96.9206 170.752 96.9796 170.913 97.0306C170.998 97.0646 171.082 97.0895 171.166 97.1145C173.151 97.7901 174.308 98.1789 174.308 98.1789Z" fill="#FFC725"/>
<path opacity="0.5" d="M174.308 98.1789L172.409 98.8715L168.136 100.426C164.303 98.7616 159.034 96.4909 153.342 94.0422C139.013 87.8866 122.057 80.6586 118.79 79.5522C118.908 79.5862 119.052 79.6281 119.204 79.6791C119.314 79.7131 119.44 79.7551 119.576 79.797C119.728 79.848 119.896 79.898 120.073 79.957C120.166 79.9909 120.259 80.0159 120.36 80.0499C120.698 80.1598 121.078 80.2778 121.492 80.4127C121.854 80.5306 122.234 80.6576 122.648 80.7925C123.61 81.1043 124.7 81.4681 125.899 81.8649C126.262 81.9918 126.634 82.1098 127.014 82.2367C127.351 82.3467 127.697 82.4646 128.052 82.5825C128.246 82.6505 128.432 82.7094 128.626 82.7684C129.199 82.9623 129.782 83.1572 130.391 83.3591C130.778 83.494 131.167 83.6209 131.564 83.7559C136.148 85.293 141.478 87.083 146.78 88.873L148.224 89.3548C150.132 90.0044 152.041 90.6471 153.89 91.2717C157.403 92.4621 160.746 93.5855 163.668 94.5729C164.141 94.7338 164.597 94.8937 165.045 95.0456C166.624 95.5774 168.059 96.0591 169.3 96.4809L169.317 96.4899C169.697 96.6158 170.06 96.7427 170.407 96.8617C170.584 96.9206 170.752 96.9796 170.913 97.0306C170.998 97.0646 171.082 97.0895 171.166 97.1145C173.151 97.7901 174.308 98.1789 174.308 98.1789Z" fill="white"/>
<path d="M168.136 100.425L156.678 104.595C156.678 104.595 131.093 92.723 115.835 85.2841C115.725 85.2331 115.666 85.2081 115.666 85.2081C115.598 85.1741 115.531 85.1401 115.463 85.1072C113.867 84.3306 112.39 83.604 111.073 82.9543C107.13 80.9784 104.63 79.6362 104.723 79.4503C105.145 78.6057 114.645 78.3948 118.445 79.4503C118.479 79.4583 118.504 79.4673 118.547 79.4753C118.615 79.4923 118.699 79.5172 118.791 79.5512C121.95 80.6236 137.892 87.4039 151.891 93.4156C152.001 93.4656 152.102 93.5085 152.212 93.5505C152.592 93.7194 152.972 93.8793 153.343 94.0403C159.033 96.4899 164.302 98.7607 168.136 100.425Z" fill="#FFC725"/>
<g opacity="0.1">
<path d="M168.136 100.425L156.677 104.595C156.677 104.595 131.093 92.7229 115.835 85.284C118.36 86.3564 144.25 97.7621 150.637 96.179C152.143 95.8052 153.006 94.9357 153.343 94.0402C159.033 96.4899 164.302 98.7606 168.136 100.425Z" fill="black"/>
</g>
<path d="M197.605 84.0938L169.808 97.4604C169.808 97.4604 170.095 73.6325 170.306 56.4909C170.314 55.9003 170.323 55.3176 170.331 54.7429C170.34 54.2702 170.34 53.8054 170.348 53.3497C170.424 47.4809 170.492 42.7525 170.517 40.6077C170.619 33.7095 171.361 32.3073 173.185 33.4306C175.017 34.554 183.132 41.6131 185.572 44.7624C187.573 47.346 192.007 62.9924 194.894 73.7505C194.919 73.8434 194.944 73.9274 194.962 74.0203C195.131 74.645 195.3 75.2536 195.452 75.8353C196.735 80.6747 197.605 84.0938 197.605 84.0938Z" fill="#FFC725"/>
<g opacity="0.1">
<path d="M197.605 84.0938L169.808 97.4604C169.808 97.4604 170.095 73.6325 170.306 56.491C174.402 65.6189 182.482 78.0901 195.452 75.8353C196.735 80.6747 197.605 84.0938 197.605 84.0938Z" fill="black"/>
</g>
<path d="M150.39 112.037C147.528 104.884 159.678 98.3859 173.47 92.1943C187.261 86.0017 323.208 26.0507 342.91 20.7026C362.612 15.3546 385.558 22.6785 389.438 33.9314C395.262 50.8191 370.742 64.9683 282.677 101.482C271.137 106.267 219.523 118.659 190.499 118.752C159.467 118.852 151.797 115.555 150.39 112.037Z" fill="#FFC725"/>
<path opacity="0.5" d="M150.39 112.037C147.528 104.884 159.678 98.3859 173.47 92.1943C187.261 86.0017 323.208 26.0507 342.91 20.7026C362.612 15.3546 385.558 22.6785 389.438 33.9314C395.262 50.8191 370.742 64.9683 282.677 101.482C271.137 106.267 219.523 118.659 190.499 118.752C159.467 118.852 151.797 115.555 150.39 112.037Z" fill="white"/>
<path opacity="0.1" d="M282.679 101.484C271.136 106.271 219.519 118.658 190.498 118.751C159.467 118.853 151.8 115.56 150.39 112.039C148.895 108.298 151.504 104.735 156.309 101.298C156.275 101.998 156.393 102.699 156.681 103.409C157.964 106.609 164.923 109.598 193.074 109.505C219.411 109.421 257.29 88.0931 267.76 83.7535C347.664 50.6197 378.873 47.8652 373.587 32.5397C371.29 25.8693 361.605 20.7182 350.172 19.308C367.887 17.1881 386.033 24.0363 389.436 33.9329C395.261 50.8206 370.74 64.9718 282.679 101.484Z" fill="black"/>
<path d="M193.484 88.4444L196.608 87.0931V91.6866L193.484 93.0379V88.4444Z" fill="#455A64"/>
<path d="M199.184 85.9786L202.519 84.5344V89.1279L199.184 90.5721V85.9786Z" fill="#455A64"/>
<path d="M205.095 83.4201L208.43 81.9769V86.5693L205.095 88.0136V83.4201Z" fill="#455A64"/>
<path d="M211.005 80.8615L214.34 79.4183V84.0107L211.005 85.455V80.8615Z" fill="#455A64"/>
<path d="M216.916 78.3029L220.251 76.8597V81.4532L216.916 82.8964V78.3029Z" fill="#455A64"/>
<path d="M222.827 75.7444L226.162 74.3011V78.8946L222.827 80.3388V75.7444Z" fill="#455A64"/>
<path d="M228.737 73.1858L232.072 71.7426V76.336L228.737 77.7802V73.1858Z" fill="#455A64"/>
<path d="M234.648 70.6281L237.984 69.184V73.7774L234.648 75.2216V70.6281Z" fill="#455A64"/>
<path d="M240.559 68.0695L243.894 66.6254V71.2188L240.559 72.663V68.0695Z" fill="#455A64"/>
<path d="M246.47 65.5109L249.805 64.0667V68.6602L246.47 70.1044V65.5109Z" fill="#455A64"/>
<path d="M252.381 62.9524L255.716 61.5082V66.1017L252.381 67.5459V62.9524Z" fill="#455A64"/>
<path d="M258.291 60.3937L261.626 58.9505V63.543L258.291 64.9872V60.3937Z" fill="#455A64"/>
<path d="M264.201 57.8352L267.537 56.392V60.9844L264.201 62.4287V57.8352Z" fill="#455A64"/>
<path d="M270.113 55.2765L273.448 53.8333V58.4268L270.113 59.87V55.2765Z" fill="#455A64"/>
<path d="M276.022 52.718L279.359 51.2748V55.8683L276.022 57.3115V52.718Z" fill="#455A64"/>
<path d="M281.934 50.1604L285.27 48.7162V53.3096L281.934 54.7539V50.1604Z" fill="#455A64"/>
<path d="M287.844 47.6018L291.179 46.1576V50.751L287.844 52.1953V47.6018Z" fill="#455A64"/>
<path d="M293.754 45.0432L297.09 43.599V48.1925L293.754 49.6367V45.0432Z" fill="#455A64"/>
<path d="M299.666 42.4846L303.001 41.0404V45.6339L299.666 47.0781V42.4846Z" fill="#455A64"/>
<path d="M305.576 39.926L308.911 38.4818V43.0752L305.576 44.5194V39.926Z" fill="#455A64"/>
<path d="M311.487 37.3674L314.822 35.9232V40.5167L311.487 41.9609V37.3674Z" fill="#455A64"/>
<path d="M320.733 33.3646V37.958L317.397 39.4023V34.8088L320.733 33.3646Z" fill="#455A64"/>
<path d="M326.644 30.807V35.3995L323.309 36.8437V32.2502L326.644 30.807Z" fill="#455A64"/>
<path d="M332.554 28.2484V32.8419L329.219 34.2851V29.6916L332.554 28.2484Z" fill="#455A64"/>
<path d="M338.465 25.6899V30.2833L335.13 31.7266V27.1331L338.465 25.6899Z" fill="#455A64"/>
<path d="M353.917 23.8108C355.741 22.3586 357.903 21.4891 360.115 20.9234V23.9797C358.122 23.9038 356.087 23.8528 353.917 23.8108Z" fill="#455A64"/>
<path d="M367.368 20.1969V24.4186C365.814 24.2747 364.261 24.1817 362.689 24.1057V20.4158C364.236 20.1969 365.806 20.1209 367.368 20.1969Z" fill="#455A64"/>
<path d="M382.238 26.1586C380.928 26.1246 379.73 25.8968 378.523 25.7528C377.307 25.6349 376.158 25.398 374.985 25.2881C373.288 25.0262 371.607 24.8403 369.943 24.6804V20.4667C371.978 20.7626 373.979 21.2683 375.854 22.0799C377.044 22.5276 378.151 23.1693 379.24 23.8109C379.781 24.1147 380.288 24.5205 380.794 24.9173C381.292 25.3141 381.782 25.7109 382.238 26.1586Z" fill="#455A64"/>
<path d="M276.023 63.586L236.847 82.4366C236.847 82.4366 174.578 49.054 129.893 24.6604C129.842 24.6354 129.809 24.6184 129.791 24.6094L129.774 24.6014C105.921 11.5716 87.7165 1.45616 88.0123 1.06737C88.7639 0.0539319 100.762 0.180852 105.508 0.822499C106.073 0.890461 106.538 0.974426 106.867 1.06737C108.877 1.61607 179.332 27.7157 228.67 46.0136C255.462 55.9532 276.023 63.586 276.023 63.586Z" fill="#FFC725"/>
<g opacity="0.1">
<path d="M276.022 63.586L236.847 82.4366C236.847 82.4366 174.577 49.054 129.893 24.6604C133.389 26.4254 213.496 66.7952 223.957 60.7326C227.909 58.4438 228.939 52.5421 228.668 46.0147C255.461 55.9532 276.022 63.586 276.022 63.586Z" fill="black"/>
</g>
<path d="M281.741 60.9934L270.108 66.5913C240.343 54.1191 116.543 5.17107 106.175 1.06732C106.057 1.01635 105.947 0.974377 105.854 0.940395C105.752 0.906414 105.668 0.872433 105.601 0.856442C105.559 0.839451 105.533 0.831444 105.508 0.822449C106.074 0.890411 106.539 0.974376 106.868 1.06732C109.966 1.91186 281.741 60.9934 281.741 60.9934Z" fill="#FFC725"/>
<path opacity="0.5" d="M281.741 60.9934L270.108 66.5913C240.343 54.1191 116.543 5.17107 106.175 1.06732C106.057 1.01635 105.947 0.974377 105.854 0.940395C105.752 0.906414 105.668 0.872433 105.601 0.856442C105.559 0.839451 105.533 0.831444 105.508 0.822449C106.074 0.890411 106.539 0.974376 106.868 1.06732C109.966 1.91186 281.741 60.9934 281.741 60.9934Z" fill="white"/>
<path d="M197.839 61.9009C194.008 63.7609 189.842 65.2221 189.542 61.3742C189.419 59.7961 190.642 58.109 196.803 55.1436C198.248 54.448 201.778 52.9019 202.816 56.1031C203.815 59.1844 199.281 61.2003 197.839 61.9009Z" fill="#FFC725"/>
<path opacity="0.1" d="M197.839 61.9009C194.008 63.7609 189.842 65.2221 189.542 61.3742C189.419 59.7961 190.642 58.109 196.803 55.1436C198.248 54.448 201.778 52.9019 202.816 56.1031C203.815 59.1844 199.281 61.2003 197.839 61.9009Z" fill="black"/>
<path d="M164.688 45.1541C160.857 47.0151 156.692 48.4753 156.392 44.6264C156.269 43.0483 157.491 41.3612 163.653 38.3958C165.098 37.7002 168.627 36.1541 169.666 39.3553C170.665 42.4376 166.132 44.4535 164.688 45.1541Z" fill="#FFC725"/>
<path opacity="0.1" d="M164.688 45.1541C160.857 47.0151 156.692 48.4753 156.392 44.6264C156.269 43.0483 157.491 41.3612 163.653 38.3958C165.098 37.7002 168.627 36.1541 169.666 39.3553C170.665 42.4376 166.132 44.4535 164.688 45.1541Z" fill="black"/>
<path d="M131.428 28.2064C127.86 29.9394 123.979 31.2997 123.699 27.7146C123.585 26.2445 124.724 24.6733 130.464 21.9109C131.81 21.2622 135.098 19.823 136.066 22.8054C136.996 25.6758 132.772 27.5537 131.428 28.2064Z" fill="#FFC725"/>
<path opacity="0.1" d="M131.428 28.2064C127.86 29.9394 123.979 31.2997 123.699 27.7146C123.585 26.2445 124.724 24.6733 130.464 21.9109C131.81 21.2622 135.098 19.823 136.066 22.8054C136.996 25.6758 132.772 27.5537 131.428 28.2064Z" fill="black"/>
<path d="M247.3 58.109C244.286 63.4711 237.447 65.405 233.115 67.135C221.614 71.7285 213.272 74.3121 209.16 63.8669C208.628 62.5156 208.333 61.2583 208.24 60.0839C207.564 52.2053 215.721 48.2704 219.866 46.0926C219.874 46.0836 219.874 46.0836 219.874 46.0836C224.874 43.4491 228.412 41.743 231.045 40.6376C235.343 38.8226 237.26 38.5938 239.236 38.5268C241.557 38.4508 246.809 39.0335 248.533 48.6682C249.243 52.68 248.651 55.7283 247.3 58.109Z" fill="#FFC725"/>
<path d="M239.24 61.2443C243.768 61.2443 247.438 56.4872 247.438 50.6191C247.438 44.751 243.768 39.994 239.24 39.994C234.713 39.994 231.043 44.751 231.043 50.6191C231.043 56.4872 234.713 61.2443 239.24 61.2443Z" fill="#263238"/>
<path d="M246.484 50.6192C246.484 55.8043 243.24 60.007 239.241 60.007C235.241 60.007 231.998 55.8033 231.998 50.6192C231.998 45.435 235.241 41.2313 239.241 41.2313C243.24 41.2313 246.484 45.434 246.484 50.6192Z" fill="#455A64"/>
<path d="M122.649 80.7926C122.244 80.6577 121.855 80.5307 121.493 80.4128C121.855 80.5307 122.235 80.6577 122.649 80.7926Z" fill="#FFC725"/>
</svg>
