<svg width="394" height="424" viewBox="0 0 394 424" fill="none" xmlns="http://www.w3.org/2000/svg">
<path d="M351.528 207.94C345.486 203.768 338.475 200.468 330.729 198.395C322.983 196.322 315.261 195.679 307.942 196.275L300.444 224.289L344.03 235.955L351.528 207.94Z" fill="#DBD8D0"/>
<path d="M348.333 207.084C343.27 203.174 337.34 200.163 330.73 198.394C324.119 196.625 317.478 196.271 311.139 197.129L303.641 225.143L340.835 235.098L348.333 207.084Z" fill="#F0ECE4"/>
<path d="M338.944 203.514C336.84 200.396 333.909 199.245 330.73 198.394C327.551 197.543 324.436 197.076 321.056 198.726L313.294 227.727L331.182 232.515L338.944 203.514Z" fill="#F7F5F0"/>
<path d="M350.887 210.336C350.64 210.27 350.399 210.16 350.176 210.006C344.15 205.845 337.392 202.744 330.088 200.79C322.785 198.835 315.382 198.146 308.082 198.74C306.765 198.847 305.635 197.83 305.558 196.469C305.481 195.107 306.485 193.917 307.803 193.809C315.629 193.172 323.559 193.908 331.37 195.999C339.182 198.09 346.42 201.412 352.881 205.874C353.969 206.625 354.244 208.158 353.497 209.299C352.904 210.205 351.843 210.592 350.887 210.336Z" fill="#CFCBC4"/>
<path d="M351.704 207.283C351.457 207.217 351.216 207.107 350.993 206.953C344.967 202.792 338.208 199.691 330.905 197.737C323.602 195.783 316.199 195.093 308.899 195.687C307.881 195.77 306.981 195.177 306.586 194.277C305.925 194.766 305.507 195.577 305.558 196.469C305.635 197.83 306.765 198.847 308.082 198.74C315.382 198.146 322.785 198.835 330.088 200.79C337.391 202.745 344.15 205.845 350.176 210.006C350.4 210.16 350.64 210.27 350.887 210.336C351.843 210.592 352.904 210.206 353.497 209.3C353.986 208.553 354.03 207.642 353.701 206.889C353.121 207.316 352.387 207.466 351.704 207.283Z" fill="#ABA7A1"/>
<path d="M315.644 217.714L318.365 207.549C319.063 204.941 317.532 202.244 314.961 201.556C312.391 200.868 309.717 202.439 309.019 205.048L305.879 216.779C309.134 216.899 312.392 217.213 315.644 217.714Z" fill="#6E6A67"/>
<path d="M343.286 226.848L346.44 215.063C347.138 212.455 345.606 209.758 343.036 209.07C340.466 208.382 337.792 209.953 337.094 212.562L334.367 222.751C337.433 223.95 340.409 225.318 343.286 226.848Z" fill="#6E6A67"/>
<path d="M341.999 226.161L345.068 214.695C345.561 212.853 344.479 210.948 342.664 210.462C340.849 209.976 338.96 211.086 338.467 212.928L335.699 223.268C337.846 224.151 339.947 225.115 341.999 226.161Z" fill="#8A8682"/>
<path d="M325.035 219.671C326.602 220.09 328.142 220.565 329.67 221.064L332.748 209.564C333.446 206.956 331.914 204.259 329.344 203.571C326.774 202.883 324.1 204.454 323.402 207.063L320.324 218.563C321.897 218.893 323.468 219.252 325.035 219.671Z" fill="#6E6A67"/>
<path d="M325.035 219.671C326.139 219.967 327.232 220.287 328.317 220.623L331.375 209.197C331.868 207.355 330.786 205.45 328.971 204.964C327.156 204.478 325.267 205.588 324.774 207.43L321.716 218.856C322.824 219.108 323.93 219.376 325.035 219.671Z" fill="#8A8682"/>
<path d="M314.233 217.491L316.992 207.182C317.485 205.34 316.403 203.435 314.588 202.949C312.773 202.463 310.884 203.573 310.391 205.415L307.334 216.837C309.634 216.963 311.935 217.176 314.233 217.491Z" fill="#8A8682"/>
<path d="M348.899 237.831C341.467 232.7 332.845 228.64 323.316 226.09C313.788 223.54 304.29 222.75 295.289 223.483L286.067 257.939L339.677 272.287L348.899 237.831Z" fill="#DBD8D0"/>
<path d="M344.968 236.779C338.741 231.97 331.447 228.266 323.316 226.09C315.185 223.914 307.016 223.479 299.22 224.535L289.998 258.992L335.746 271.236L344.968 236.779Z" fill="#F0ECE4"/>
<path d="M333.42 232.387C330.833 228.552 327.227 227.136 323.316 226.09C319.406 225.043 315.575 224.469 311.418 226.498L301.871 262.168L323.873 268.057L333.42 232.387Z" fill="#F7F5F0"/>
<path d="M348.111 240.778C347.807 240.696 347.511 240.562 347.236 240.372C339.824 235.255 331.511 231.44 322.529 229.036C313.547 226.632 304.44 225.784 295.462 226.515C293.842 226.646 292.452 225.396 292.357 223.721C292.262 222.046 293.498 220.581 295.118 220.45C304.744 219.666 314.497 220.572 324.105 223.144C333.714 225.716 342.616 229.803 350.563 235.29C351.901 236.214 352.24 238.1 351.321 239.503C350.591 240.618 349.286 241.093 348.111 240.778Z" fill="#CFCBC4"/>
<path d="M349.115 237.024C348.811 236.943 348.515 236.808 348.24 236.618C340.828 231.5 332.515 227.686 323.532 225.282C314.55 222.878 305.443 222.03 296.465 222.761C295.212 222.863 294.105 222.134 293.62 221.026C292.807 221.627 292.293 222.625 292.355 223.722C292.45 225.396 293.839 226.647 295.46 226.516C304.438 225.785 313.545 226.633 322.527 229.037C331.51 231.441 339.823 235.255 347.234 240.373C347.509 240.563 347.805 240.697 348.109 240.779C349.285 241.094 350.589 240.619 351.319 239.504C351.92 238.586 351.974 237.465 351.57 236.538C350.858 237.064 349.955 237.248 349.115 237.024Z" fill="#ABA7A1"/>
<path d="M302.394 247.603L305.766 235.002C306.434 232.505 305.018 229.937 302.62 229.295C300.221 228.653 297.712 230.17 297.043 232.667L293.134 247.271C296.217 247.217 299.305 247.315 302.394 247.603Z" fill="#6E6A67"/>
<path d="M301.047 247.506L304.485 234.659C304.957 232.896 303.957 231.082 302.263 230.628C300.569 230.175 298.797 231.246 298.325 233.01L294.514 247.25C296.689 247.248 298.868 247.338 301.047 247.506Z" fill="#8A8682"/>
<path d="M315.043 249.759L318.784 235.78C319.452 233.283 318.036 230.715 315.637 230.073C313.238 229.431 310.729 230.948 310.061 233.445L306.155 248.04C309.125 248.45 312.089 249.034 315.043 249.759Z" fill="#6E6A67"/>
<path d="M313.754 249.443L317.503 235.437C317.975 233.674 316.975 231.86 315.281 231.407C313.587 230.954 311.815 232.025 311.342 233.789L307.472 248.249C309.57 248.571 311.665 248.963 313.754 249.443Z" fill="#8A8682"/>
<path d="M327.22 253.678L331.126 239.083C331.794 236.586 330.378 234.018 327.98 233.376C325.581 232.734 323.072 234.251 322.403 236.748L318.662 250.727C321.582 251.575 324.442 252.55 327.22 253.678Z" fill="#6E6A67"/>
<path d="M325.974 253.2L329.844 238.74C330.316 236.977 329.316 235.163 327.622 234.71C325.928 234.256 324.156 235.328 323.684 237.092L319.935 251.098C321.985 251.725 323.996 252.432 325.974 253.2Z" fill="#8A8682"/>
<path d="M338.883 259.516L342.792 244.912C343.46 242.415 342.044 239.847 339.645 239.205C337.246 238.563 334.737 240.081 334.069 242.577L330.697 255.177C333.516 256.471 336.241 257.929 338.883 259.516Z" fill="#6E6A67"/>
<path d="M337.699 258.808L341.51 244.569C341.982 242.806 340.982 240.992 339.288 240.538C337.594 240.085 335.821 241.156 335.349 242.92L331.911 255.766C333.883 256.709 335.816 257.719 337.699 258.808Z" fill="#8A8682"/>
<path d="M340.785 268.148C333.353 263.017 324.731 258.957 315.202 256.407C305.674 253.857 296.176 253.067 287.175 253.8L277.953 288.257L331.563 302.605L340.785 268.148Z" fill="#DBD8D0"/>
<path d="M336.854 267.096C330.627 262.287 323.333 258.583 315.202 256.407C307.071 254.231 298.902 253.796 291.106 254.852L281.884 289.308L327.632 301.552L336.854 267.096Z" fill="#F0ECE4"/>
<path d="M325.306 262.705C322.719 258.87 319.113 257.455 315.202 256.408C311.292 255.361 307.461 254.787 303.304 256.817L293.757 292.487L315.759 298.376L325.306 262.705Z" fill="#F7F5F0"/>
<path d="M339.995 271.096C339.691 271.015 339.395 270.88 339.12 270.69C331.708 265.572 323.395 261.758 314.412 259.354C305.43 256.95 296.323 256.102 287.345 256.833C285.725 256.964 284.335 255.714 284.24 254.039C284.145 252.364 285.381 250.9 287.001 250.768C296.627 249.984 306.381 250.89 315.99 253.462C325.599 256.034 334.5 260.12 342.447 265.608C343.785 266.532 344.124 268.418 343.205 269.821C342.475 270.935 341.171 271.41 339.995 271.096Z" fill="#CFCBC4"/>
<path d="M341 267.341C340.696 267.26 340.4 267.125 340.125 266.935C332.713 261.818 324.4 258.004 315.417 255.599C306.435 253.195 297.328 252.347 288.35 253.078C287.097 253.18 285.99 252.451 285.505 251.343C284.692 251.944 284.178 252.942 284.24 254.039C284.335 255.713 285.724 256.964 287.345 256.833C296.323 256.102 305.43 256.95 314.412 259.354C323.395 261.758 331.708 265.572 339.12 270.69C339.395 270.88 339.691 271.015 339.995 271.096C341.171 271.411 342.475 270.936 343.205 269.821C343.806 268.903 343.86 267.782 343.457 266.855C342.742 267.381 341.84 267.566 341 267.341Z" fill="#ABA7A1"/>
<path d="M294.28 277.92L297.652 265.32C298.32 262.823 296.904 260.255 294.505 259.613C292.106 258.971 289.597 260.488 288.929 262.985L285.02 277.589C288.102 277.535 291.191 277.633 294.28 277.92Z" fill="#6E6A67"/>
<path d="M292.932 277.824L296.37 264.977C296.842 263.214 295.842 261.4 294.148 260.947C292.454 260.494 290.681 261.565 290.209 263.329L286.398 277.569C288.574 277.565 290.753 277.656 292.932 277.824Z" fill="#8A8682"/>
<path d="M306.928 280.077L310.67 266.098C311.338 263.601 309.922 261.033 307.523 260.391C305.124 259.749 302.615 261.266 301.947 263.763L298.041 278.358C301.01 278.768 303.975 279.352 306.928 280.077Z" fill="#6E6A67"/>
<path d="M305.639 279.76L309.388 265.754C309.86 263.991 308.86 262.177 307.166 261.723C305.472 261.27 303.7 262.341 303.228 264.105L299.358 278.565C301.454 278.889 303.549 279.28 305.639 279.76Z" fill="#8A8682"/>
<path d="M319.104 283.995L323.01 269.4C323.678 266.903 322.262 264.335 319.864 263.693C317.465 263.051 314.956 264.568 314.287 267.065L310.546 281.044C313.467 281.893 316.327 282.867 319.104 283.995Z" fill="#6E6A67"/>
<path d="M317.859 283.518L321.729 269.058C322.201 267.295 321.201 265.481 319.507 265.027C317.813 264.574 316.041 265.645 315.569 267.409L311.82 281.415C313.87 282.043 315.881 282.749 317.859 283.518Z" fill="#8A8682"/>
<path d="M330.769 289.833L334.678 275.229C335.346 272.732 333.93 270.164 331.532 269.522C329.133 268.88 326.624 270.398 325.955 272.894L322.583 285.494C325.401 286.789 328.126 288.247 330.769 289.833Z" fill="#6E6A67"/>
<path d="M329.584 289.126L333.395 274.887C333.867 273.124 332.867 271.31 331.173 270.856C329.479 270.402 327.707 271.474 327.235 273.238L323.797 286.084C325.768 287.027 327.7 288.037 329.584 289.126Z" fill="#8A8682"/>
<path d="M332.765 298.111C325.333 292.98 316.71 288.92 307.182 286.37C297.654 283.82 288.156 283.03 279.155 283.763L269.933 318.219L323.543 332.567L332.765 298.111Z" fill="#DBD8D0"/>
<path d="M328.835 297.059C322.608 292.25 315.314 288.546 307.183 286.37C299.052 284.194 290.883 283.759 283.087 284.815L273.865 319.272L319.613 331.516L328.835 297.059Z" fill="#F0ECE4"/>
<path d="M317.286 292.667C314.699 288.832 311.093 287.416 307.182 286.37C303.272 285.323 299.441 284.749 295.284 286.778L285.737 322.448L307.739 328.337L317.286 292.667Z" fill="#F7F5F0"/>
<path d="M331.976 301.058C331.672 300.977 331.376 300.842 331.101 300.652C323.689 295.534 315.376 291.72 306.393 289.316C297.411 286.912 288.304 286.064 279.326 286.795C277.706 286.926 276.316 285.676 276.221 284.001C276.126 282.326 277.362 280.862 278.982 280.73C288.608 279.946 298.361 280.852 307.969 283.423C317.578 285.995 326.48 290.081 334.427 295.569C335.765 296.493 336.104 298.379 335.185 299.782C334.456 300.898 333.152 301.373 331.976 301.058Z" fill="#CFCBC4"/>
<path d="M332.982 297.304C332.678 297.223 332.382 297.088 332.107 296.898C324.695 291.78 316.382 287.966 307.399 285.562C298.417 283.158 289.31 282.31 280.332 283.041C279.079 283.143 277.972 282.414 277.487 281.306C276.674 281.907 276.16 282.905 276.222 284.002C276.317 285.676 277.706 286.927 279.327 286.796C288.305 286.065 297.412 286.913 306.394 289.317C315.377 291.721 323.69 295.535 331.102 300.653C331.377 300.843 331.673 300.977 331.977 301.059C333.153 301.374 334.457 300.899 335.187 299.784C335.788 298.866 335.842 297.745 335.438 296.818C334.724 297.344 333.822 297.529 332.982 297.304Z" fill="#ABA7A1"/>
<path d="M286.26 307.883L289.632 295.282C290.3 292.785 288.884 290.217 286.485 289.575C284.086 288.933 281.577 290.45 280.909 292.947L277 307.551C280.083 307.497 283.172 307.595 286.26 307.883Z" fill="#6E6A67"/>
<path d="M284.912 307.786L288.35 294.939C288.822 293.176 287.822 291.362 286.128 290.908C284.434 290.455 282.662 291.526 282.19 293.29L278.379 307.53C280.555 307.528 282.733 307.618 284.912 307.786Z" fill="#8A8682"/>
<path d="M298.909 310.039L302.65 296.06C303.318 293.563 301.902 290.995 299.503 290.353C297.104 289.711 294.595 291.229 293.927 293.725L290.021 308.32C292.991 308.73 295.955 309.314 298.909 310.039Z" fill="#6E6A67"/>
<path d="M297.62 309.723L301.369 295.717C301.841 293.954 300.841 292.14 299.147 291.686C297.453 291.233 295.681 292.304 295.208 294.068L291.338 308.528C293.435 308.851 295.53 309.243 297.62 309.723Z" fill="#8A8682"/>
<path d="M311.085 313.958L314.991 299.363C315.659 296.866 314.243 294.298 311.844 293.656C309.445 293.014 306.936 294.532 306.268 297.028L302.527 311.007C305.448 311.855 308.307 312.83 311.085 313.958Z" fill="#6E6A67"/>
<path d="M309.84 313.48L313.71 299.02C314.182 297.257 313.182 295.443 311.488 294.99C309.794 294.537 308.022 295.608 307.55 297.372L303.801 311.378C305.851 312.005 307.861 312.712 309.84 313.48Z" fill="#8A8682"/>
<path d="M322.748 319.796L326.658 305.192C327.326 302.695 325.909 300.127 323.51 299.485C321.111 298.843 318.602 300.36 317.934 302.857L314.562 315.457C317.382 316.751 320.106 318.209 322.748 319.796Z" fill="#6E6A67"/>
<path d="M321.565 319.088L325.376 304.849C325.848 303.086 324.848 301.272 323.154 300.819C321.46 300.365 319.688 301.437 319.216 303.201L315.778 316.048C317.749 316.99 319.681 317.999 321.565 319.088Z" fill="#8A8682"/>
<path d="M324.637 328.482C317.205 323.351 308.582 319.291 299.054 316.741C289.526 314.191 280.028 313.401 271.027 314.134L261.805 348.59L315.415 362.938L324.637 328.482Z" fill="#DBD8D0"/>
<path d="M320.706 327.43C314.479 322.621 307.185 318.917 299.054 316.741C290.923 314.565 282.754 314.13 274.958 315.186L265.736 349.643L311.484 361.887L320.706 327.43Z" fill="#F0ECE4"/>
<path d="M309.158 323.039C306.571 319.204 302.965 317.788 299.054 316.742C295.144 315.696 291.313 315.121 287.156 317.151L277.609 352.821L299.611 358.71L309.158 323.039Z" fill="#F7F5F0"/>
<path d="M323.848 331.43C323.544 331.349 323.248 331.214 322.973 331.024C315.561 325.906 307.248 322.092 298.265 319.688C289.283 317.284 280.176 316.436 271.198 317.167C269.578 317.298 268.188 316.048 268.093 314.373C267.998 312.698 269.234 311.233 270.854 311.102C280.48 310.318 290.233 311.224 299.842 313.796C309.451 316.368 318.353 320.454 326.3 325.942C327.638 326.866 327.977 328.752 327.058 330.155C326.328 331.269 325.024 331.744 323.848 331.43Z" fill="#CFCBC4"/>
<path d="M324.853 327.675C324.549 327.594 324.253 327.459 323.978 327.269C316.566 322.151 308.253 318.337 299.27 315.933C290.288 313.529 281.181 312.681 272.203 313.412C270.95 313.514 269.843 312.785 269.358 311.677C268.545 312.278 268.031 313.276 268.093 314.373C268.188 316.047 269.577 317.298 271.198 317.167C280.176 316.436 289.283 317.284 298.265 319.688C307.248 322.092 315.561 325.906 322.973 331.024C323.248 331.214 323.544 331.349 323.848 331.43C325.024 331.745 326.328 331.27 327.058 330.155C327.659 329.237 327.713 328.116 327.31 327.189C326.595 327.715 325.693 327.9 324.853 327.675Z" fill="#ABA7A1"/>
<path d="M278.132 338.254L281.504 325.654C282.172 323.157 280.756 320.589 278.358 319.947C275.959 319.305 273.45 320.822 272.781 323.319L268.872 337.923C271.954 337.869 275.043 337.967 278.132 338.254Z" fill="#6E6A67"/>
<path d="M276.784 338.157L280.222 325.31C280.694 323.547 279.694 321.733 278 321.28C276.306 320.826 274.534 321.898 274.062 323.662L270.251 337.902C272.426 337.899 274.604 337.989 276.784 338.157Z" fill="#8A8682"/>
<path d="M290.78 340.411L294.522 326.432C295.19 323.935 293.774 321.367 291.375 320.725C288.976 320.083 286.467 321.601 285.799 324.097L281.892 338.692C284.862 339.102 287.827 339.686 290.78 340.411Z" fill="#6E6A67"/>
<path d="M289.491 340.094L293.24 326.088C293.712 324.325 292.712 322.511 291.018 322.058C289.324 321.604 287.552 322.676 287.08 324.44L283.21 338.9C285.306 339.223 287.401 339.614 289.491 340.094Z" fill="#8A8682"/>
<path d="M302.956 344.329L306.862 329.734C307.53 327.237 306.114 324.669 303.715 324.027C301.316 323.385 298.807 324.903 298.138 327.399L294.397 341.378C297.319 342.227 300.179 343.201 302.956 344.329Z" fill="#6E6A67"/>
<path d="M301.711 343.852L305.581 329.392C306.053 327.629 305.053 325.815 303.359 325.361C301.665 324.908 299.892 325.979 299.421 327.743L295.672 341.749C297.722 342.377 299.733 343.083 301.711 343.852Z" fill="#8A8682"/>
<path d="M314.62 350.167L318.529 335.563C319.197 333.066 317.781 330.498 315.382 329.856C312.983 329.214 310.474 330.732 309.805 333.228L306.433 345.828C309.253 347.123 311.978 348.581 314.62 350.167Z" fill="#6E6A67"/>
<path d="M313.436 349.46L317.247 335.221C317.719 333.458 316.719 331.644 315.025 331.191C313.331 330.738 311.559 331.809 311.087 333.573L307.649 346.42C309.62 347.361 311.552 348.371 313.436 349.46Z" fill="#8A8682"/>
<path d="M316.617 358.445C309.185 353.314 300.562 349.254 291.034 346.704C281.506 344.154 272.008 343.363 263.007 344.097L253.785 378.554L307.395 392.902L316.617 358.445Z" fill="#DBD8D0"/>
<path d="M312.687 357.393C306.46 352.584 299.166 348.88 291.035 346.704C282.904 344.528 274.735 344.093 266.939 345.149L257.717 379.606L303.465 391.85L312.687 357.393Z" fill="#F0ECE4"/>
<path d="M301.138 353.001C298.551 349.166 294.945 347.75 291.034 346.704C287.124 345.657 283.293 345.083 279.136 347.113L269.589 382.783L291.591 388.672L301.138 353.001Z" fill="#F7F5F0"/>
<path d="M315.828 361.392C315.524 361.311 315.228 361.176 314.953 360.986C307.541 355.868 299.228 352.054 290.245 349.65C281.263 347.246 272.156 346.398 263.178 347.129C261.558 347.26 260.168 346.01 260.073 344.335C259.978 342.66 261.215 341.196 262.835 341.064C272.461 340.28 282.214 341.186 291.822 343.758C301.431 346.33 310.332 350.416 318.279 355.904C319.617 356.828 319.956 358.714 319.037 360.117C318.308 361.232 317.004 361.707 315.828 361.392Z" fill="#CFCBC4"/>
<path d="M316.834 357.637C316.53 357.556 316.234 357.421 315.959 357.231C308.547 352.113 300.234 348.299 291.251 345.895C282.269 343.491 273.162 342.643 264.184 343.374C262.931 343.476 261.824 342.747 261.339 341.639C260.526 342.24 260.012 343.238 260.074 344.335C260.169 346.009 261.558 347.26 263.179 347.129C272.157 346.398 281.264 347.246 290.246 349.65C299.229 352.054 307.542 355.868 314.954 360.986C315.229 361.176 315.525 361.311 315.829 361.392C317.005 361.707 318.309 361.232 319.039 360.117C319.64 359.199 319.694 358.078 319.291 357.151C318.576 357.678 317.674 357.862 316.834 357.637Z" fill="#ABA7A1"/>
<path d="M270.112 368.217L273.484 355.616C274.152 353.119 272.736 350.551 270.337 349.909C267.938 349.267 265.429 350.784 264.761 353.281L260.852 367.885C263.935 367.831 267.024 367.929 270.112 368.217Z" fill="#6E6A67"/>
<path d="M268.764 368.12L272.202 355.273C272.674 353.51 271.674 351.696 269.98 351.243C268.286 350.79 266.514 351.861 266.042 353.625L262.231 367.865C264.406 367.862 266.585 367.952 268.764 368.12Z" fill="#8A8682"/>
<path d="M282.761 370.373L286.502 356.394C287.17 353.897 285.754 351.329 283.356 350.687C280.957 350.045 278.448 351.562 277.779 354.059L273.873 368.654C276.843 369.064 279.807 369.648 282.761 370.373Z" fill="#6E6A67"/>
<path d="M281.472 370.057L285.221 356.051C285.693 354.288 284.693 352.474 282.999 352.021C281.305 351.568 279.533 352.639 279.061 354.403L275.191 368.863C277.287 369.185 279.382 369.577 281.472 370.057Z" fill="#8A8682"/>
<path d="M294.937 374.292L298.843 359.697C299.511 357.2 298.095 354.632 295.697 353.99C293.298 353.348 290.789 354.866 290.12 357.362L286.379 371.341C289.299 372.189 292.159 373.164 294.937 374.292Z" fill="#6E6A67"/>
<path d="M293.692 373.814L297.562 359.354C298.034 357.591 297.034 355.777 295.34 355.323C293.646 354.87 291.874 355.941 291.402 357.705L287.653 371.71C289.703 372.339 291.713 373.046 293.692 373.814Z" fill="#8A8682"/>
<path d="M306.601 380.13L310.51 365.526C311.178 363.029 309.762 360.461 307.364 359.819C304.965 359.177 302.456 360.695 301.787 363.191L298.415 375.791C301.234 377.085 303.959 378.543 306.601 380.13Z" fill="#6E6A67"/>
<path d="M305.416 379.422L309.227 365.183C309.699 363.42 308.699 361.606 307.005 361.152C305.311 360.699 303.539 361.77 303.067 363.534L299.629 376.38C301.6 377.323 303.533 378.333 305.416 379.422Z" fill="#8A8682"/>
<path d="M308.471 388.884C301.039 383.753 292.417 379.693 282.888 377.143C273.36 374.593 263.862 373.803 254.861 374.535L245.639 408.992L299.249 423.34L308.471 388.884Z" fill="#DBD8D0"/>
<path d="M304.54 387.831C298.313 383.022 291.019 379.318 282.888 377.142C274.757 374.966 266.588 374.531 258.792 375.587L249.57 410.044L295.318 422.288L304.54 387.831Z" fill="#F0ECE4"/>
<path d="M292.992 383.44C290.405 379.605 286.799 378.189 282.888 377.143C278.977 376.097 275.146 375.522 270.99 377.551L261.443 413.221L283.445 419.11L292.992 383.44Z" fill="#F7F5F0"/>
<path d="M307.682 391.831C307.378 391.75 307.082 391.615 306.807 391.425C299.395 386.307 291.082 382.493 282.099 380.089C273.117 377.685 264.01 376.837 255.032 377.568C253.412 377.699 252.022 376.449 251.927 374.774C251.832 373.099 253.068 371.635 254.688 371.503C264.314 370.719 274.067 371.625 283.675 374.196C293.284 376.768 302.186 380.855 310.133 386.342C311.471 387.266 311.81 389.152 310.891 390.555C310.162 391.671 308.858 392.145 307.682 391.831Z" fill="#CFCBC4"/>
<path d="M308.687 388.076C308.383 387.995 308.087 387.86 307.812 387.67C300.4 382.552 292.087 378.738 283.104 376.334C274.122 373.93 265.015 373.082 256.037 373.813C254.784 373.915 253.677 373.186 253.192 372.078C252.379 372.679 251.865 373.677 251.927 374.774C252.022 376.448 253.411 377.699 255.032 377.568C264.01 376.837 273.117 377.685 282.099 380.089C291.082 382.493 299.395 386.307 306.807 391.425C307.082 391.615 307.378 391.749 307.682 391.831C308.858 392.146 310.162 391.671 310.892 390.556C311.493 389.638 311.547 388.517 311.143 387.59C310.429 388.116 309.527 388.301 308.687 388.076Z" fill="#ABA7A1"/>
<path d="M258.293 412.378L264.888 387.738C265.556 385.241 264.14 382.673 261.742 382.031C259.343 381.389 256.834 382.906 256.165 385.403L249.57 410.044L258.293 412.378Z" fill="#6E6A67"/>
<path d="M257.011 412.036L263.606 387.396C264.078 385.633 263.078 383.819 261.384 383.365C259.69 382.912 257.918 383.983 257.446 385.747L250.851 410.387L257.011 412.036Z" fill="#8A8682"/>
<path d="M270.634 415.682L277.905 388.517C278.573 386.02 277.157 383.452 274.758 382.81C272.359 382.168 269.85 383.686 269.182 386.182L261.911 413.347L270.634 415.682Z" fill="#6E6A67"/>
<path d="M269.352 415.339L276.623 388.174C277.095 386.411 276.095 384.597 274.401 384.143C272.707 383.69 270.935 384.761 270.463 386.525L263.192 413.69L269.352 415.339Z" fill="#8A8682"/>
<path d="M282.975 418.985L290.246 391.82C290.914 389.323 289.498 386.755 287.099 386.113C284.7 385.471 282.191 386.989 281.522 389.485L274.251 416.65L282.975 418.985Z" fill="#6E6A67"/>
<path d="M281.695 418.642L288.966 391.477C289.438 389.714 288.438 387.9 286.744 387.446C285.05 386.993 283.278 388.064 282.806 389.828L275.535 416.993L281.695 418.642Z" fill="#8A8682"/>
<path d="M295.318 422.288L301.913 397.648C302.581 395.151 301.165 392.583 298.767 391.941C296.368 391.299 293.859 392.816 293.19 395.313L286.595 419.953L295.318 422.288Z" fill="#6E6A67"/>
<path d="M294.036 421.945L300.631 397.305C301.103 395.542 300.103 393.728 298.409 393.275C296.715 392.822 294.943 393.893 294.471 395.657L287.876 420.297L294.036 421.945Z" fill="#8A8682"/>
<path d="M204.57 373.537C204.106 373.537 203.729 373.161 203.729 372.696V354.503C203.729 354.039 204.106 353.662 204.57 353.662C205.034 353.662 205.411 354.039 205.411 354.503V372.696C205.411 373.161 205.034 373.537 204.57 373.537Z" fill="#003847"/>
<path d="M259.829 404.599C259.714 404.599 259.597 404.577 259.485 404.529L241.235 396.789C240.965 396.674 240.769 396.433 240.714 396.144C240.658 395.856 240.749 395.559 240.958 395.352L250.673 385.689L233.23 381.496C232.868 381.409 232.601 381.105 232.559 380.736C232.519 380.367 232.713 380.011 233.046 379.848L244.335 374.297L226.162 373.576C225.745 373.56 225.398 373.253 225.328 372.843C225.259 372.432 225.487 372.028 225.875 371.876L237.919 367.142L220.512 369.278C220.117 369.334 219.728 369.099 219.582 368.722C219.437 368.346 219.565 367.918 219.894 367.685L234.506 357.317L212.053 365.016C211.704 365.134 211.32 365.025 211.086 364.741C210.852 364.457 210.82 364.058 211.004 363.739L214.446 357.806L205.099 364.817C204.786 365.053 204.355 365.053 204.041 364.817L194.694 357.806L198.136 363.739C198.321 364.057 198.288 364.457 198.055 364.741C197.821 365.025 197.436 365.133 197.088 365.016L174.634 357.316L189.245 367.685C189.574 367.918 189.703 368.346 189.557 368.722C189.411 369.099 189.032 369.339 188.627 369.278L171.22 367.142L183.264 371.876C183.652 372.028 183.88 372.432 183.811 372.843C183.742 373.254 183.394 373.56 182.977 373.576L164.804 374.297L176.093 379.848C176.426 380.012 176.621 380.367 176.58 380.736C176.539 381.105 176.271 381.409 175.91 381.496L158.467 385.689L168.182 395.352C168.39 395.559 168.481 395.856 168.426 396.144C168.37 396.432 168.175 396.674 167.905 396.789L149.655 404.529C149.208 404.718 148.689 404.509 148.499 404.062C148.309 403.614 148.518 403.096 148.966 402.906L166.009 395.678L156.105 385.826C155.878 385.6 155.792 385.271 155.878 384.963C155.964 384.655 156.21 384.418 156.521 384.343L173.125 380.351L160.907 374.344C160.545 374.166 160.35 373.765 160.434 373.37C160.518 372.975 160.858 372.688 161.262 372.672L178.716 371.979L164.11 366.238C163.697 366.075 163.469 365.631 163.578 365.201C163.686 364.771 164.091 364.481 164.54 364.543L185.381 367.101L168.637 355.219C168.28 354.966 168.163 354.488 168.363 354.098C168.562 353.708 169.019 353.524 169.433 353.666L195.428 362.579L190.997 354.942C190.787 354.579 190.86 354.119 191.174 353.841C191.486 353.563 191.952 353.543 192.288 353.795L204.57 363.01L216.853 353.798C217.187 353.547 217.654 353.566 217.967 353.844C218.28 354.123 218.354 354.583 218.144 354.945L213.713 362.582L239.707 353.669C240.118 353.527 240.577 353.71 240.777 354.101C240.977 354.491 240.86 354.968 240.503 355.222L223.759 367.104L244.6 364.546C245.033 364.484 245.453 364.774 245.562 365.204C245.67 365.634 245.443 366.079 245.03 366.241L230.424 371.982L247.878 372.675C248.281 372.691 248.622 372.978 248.705 373.373C248.788 373.767 248.593 374.168 248.232 374.347L236.014 380.354L252.618 384.346C252.929 384.421 253.175 384.658 253.261 384.966C253.347 385.273 253.26 385.603 253.034 385.829L243.13 395.681L260.173 402.909C260.621 403.099 260.831 403.617 260.64 404.065C260.498 404.398 260.172 404.599 259.829 404.599Z" fill="#005E78"/>
<path d="M186.577 339.074C186.356 339.074 186.135 338.991 185.964 338.826L176.714 329.864C176.512 329.668 176.415 329.388 176.455 329.109C176.494 328.831 176.664 328.587 176.912 328.454L188.107 322.459L181.078 312.918C180.918 312.7 180.866 312.421 180.938 312.16C181.01 311.899 181.198 311.686 181.448 311.582L191.666 307.313L184.443 299.316C184.248 299.1 184.172 298.802 184.24 298.52C184.308 298.238 184.51 298.007 184.782 297.902L194.19 294.293L187.272 285.155C187.081 284.903 187.04 284.568 187.165 284.277C187.289 283.986 187.56 283.784 187.874 283.748L195.166 282.9L189.305 275.682C189.112 275.444 189.056 275.123 189.158 274.835C189.259 274.546 189.503 274.331 189.802 274.266L202.346 271.542L191.516 264.35C191.266 264.184 191.118 263.901 191.122 263.602C191.127 263.301 191.284 263.024 191.54 262.866L202.858 255.868L194.006 250.707C193.761 250.565 193.6 250.313 193.573 250.031C193.545 249.749 193.655 249.471 193.867 249.284L202.997 241.235L195.677 237.65C195.408 237.519 195.225 237.26 195.189 236.963C195.154 236.666 195.271 236.372 195.502 236.181L203.399 229.627L197.456 220.646C197.211 220.275 197.28 219.78 197.617 219.49L203.269 214.645L199.001 210.425C198.827 210.253 198.732 210.016 198.74 209.771C198.748 209.526 198.857 209.295 199.042 209.135L203.278 205.44L199.296 201.472C198.951 201.128 198.95 200.571 199.294 200.225C199.638 199.88 200.196 199.879 200.541 200.223L205.192 204.858C205.365 205.031 205.459 205.267 205.451 205.512C205.443 205.756 205.334 205.986 205.149 206.147L200.916 209.84L205.19 214.065C205.365 214.238 205.46 214.477 205.451 214.723C205.442 214.969 205.331 215.2 205.144 215.361L199.356 220.323L205.306 229.315C205.554 229.69 205.48 230.192 205.134 230.479L197.678 236.667L204.959 240.233C205.223 240.362 205.406 240.615 205.445 240.907C205.484 241.199 205.375 241.491 205.154 241.685L195.95 249.799L205.015 255.084C205.283 255.24 205.448 255.524 205.453 255.834C205.457 256.143 205.298 256.433 205.035 256.595L193.638 263.642L205.059 271.227C205.354 271.423 205.503 271.776 205.438 272.124C205.372 272.472 205.105 272.747 204.759 272.822L191.578 275.684L197.547 283.036C197.75 283.286 197.8 283.626 197.679 283.924C197.558 284.222 197.284 284.43 196.964 284.467L189.609 285.322L196.304 294.165C196.471 294.386 196.525 294.672 196.449 294.939C196.373 295.206 196.176 295.421 195.917 295.52L186.613 299.089L193.809 307.057C194 307.269 194.078 307.561 194.015 307.84C193.952 308.119 193.758 308.351 193.494 308.461L183.162 312.777L190.129 322.233C190.281 322.439 190.336 322.701 190.279 322.95C190.223 323.2 190.061 323.412 189.835 323.533L178.807 329.438L187.19 337.56C187.539 337.899 187.549 338.457 187.21 338.806C187.037 338.984 186.807 339.074 186.577 339.074Z" fill="#005E78"/>
<path d="M222.563 339.074C222.333 339.074 222.103 338.985 221.93 338.806C221.591 338.457 221.599 337.898 221.949 337.56L230.332 329.438L219.305 323.533C219.079 323.413 218.918 323.2 218.861 322.95C218.805 322.701 218.859 322.439 219.012 322.233L225.977 312.777L215.645 308.461C215.382 308.351 215.187 308.119 215.125 307.84C215.062 307.561 215.139 307.269 215.331 307.057L222.528 299.089L213.224 295.52C212.966 295.421 212.769 295.206 212.692 294.939C212.616 294.672 212.67 294.386 212.837 294.165L219.533 285.322L212.177 284.467C211.858 284.43 211.583 284.222 211.462 283.924C211.341 283.626 211.392 283.286 211.594 283.036L217.563 275.684L204.383 272.822C204.037 272.747 203.77 272.472 203.704 272.124C203.639 271.776 203.787 271.422 204.083 271.227L215.504 263.642L204.107 256.595C203.844 256.432 203.685 256.143 203.689 255.834C203.693 255.525 203.859 255.24 204.127 255.084L213.193 249.799L203.989 241.685C203.768 241.491 203.659 241.198 203.698 240.907C203.737 240.615 203.92 240.362 204.184 240.233L211.465 236.667L204.009 230.479C203.663 230.192 203.588 229.69 203.837 229.315L209.786 220.323L203.998 215.361C203.811 215.201 203.7 214.969 203.691 214.723C203.682 214.476 203.777 214.238 203.952 214.065L208.226 209.84L203.992 206.147C203.808 205.987 203.699 205.757 203.69 205.512C203.682 205.268 203.776 205.031 203.949 204.858L208.6 200.223C208.945 199.879 209.503 199.881 209.846 200.225C210.19 200.57 210.188 201.128 209.844 201.472L205.862 205.44L210.099 209.135C210.284 209.296 210.393 209.527 210.401 209.771C210.408 210.016 210.313 210.253 210.139 210.426L205.871 214.645L211.522 219.49C211.86 219.779 211.929 220.275 211.684 220.646L205.741 229.627L213.637 236.181C213.867 236.372 213.985 236.667 213.949 236.963C213.914 237.26 213.73 237.519 213.461 237.65L206.141 241.235L215.272 249.284C215.485 249.471 215.594 249.749 215.566 250.031C215.539 250.313 215.378 250.564 215.133 250.707L206.281 255.868L217.599 262.866C217.854 263.024 218.011 263.301 218.016 263.602C218.021 263.902 217.872 264.184 217.622 264.35L206.793 271.542L219.336 274.266C219.635 274.331 219.879 274.547 219.981 274.835C220.083 275.124 220.027 275.445 219.834 275.682L213.972 282.9L221.266 283.748C221.58 283.784 221.85 283.986 221.975 284.277C222.099 284.568 222.058 284.903 221.867 285.155L214.949 294.293L224.358 297.902C224.629 298.006 224.831 298.237 224.899 298.52C224.966 298.803 224.89 299.101 224.696 299.316L217.473 307.313L227.691 311.581C227.941 311.685 228.128 311.899 228.201 312.159C228.273 312.419 228.222 312.699 228.061 312.917L221.034 322.458L232.228 328.453C232.477 328.586 232.646 328.829 232.685 329.108C232.724 329.387 232.627 329.667 232.426 329.863L223.176 338.825C223.006 338.991 222.784 339.074 222.563 339.074Z" fill="#005E78"/>
<path d="M209 196.61C208.852 196.61 208.703 196.571 208.567 196.49L199.705 191.156C199.307 190.916 199.179 190.399 199.418 190.001C199.657 189.603 200.175 189.475 200.573 189.714L209.435 195.048C209.833 195.288 209.962 195.805 209.722 196.203C209.564 196.465 209.286 196.61 209 196.61Z" fill="#003847"/>
<path d="M200.14 196.61C199.855 196.61 199.576 196.465 199.418 196.202C199.179 195.804 199.307 195.287 199.705 195.047L208.567 189.713C208.966 189.474 209.482 189.602 209.721 190C209.961 190.398 209.832 190.915 209.434 191.155L200.572 196.489C200.437 196.571 200.287 196.61 200.14 196.61Z" fill="#003847"/>
<path d="M261.14 404.599H237.3L237.074 404.055C236.951 403.759 224.579 374.458 204.57 374.458C184.547 374.458 172.189 403.759 172.066 404.055L171.841 404.599H148L148.494 403.385C148.64 403.025 163.21 367.205 170.777 345.742C194.216 279.25 199.355 196.544 199.404 195.716L199.453 194.887H209.687L209.736 195.716C209.785 196.543 214.926 279.257 238.363 345.742C245.93 367.207 260.499 403.025 260.645 403.385L261.14 404.599ZM238.469 402.837H258.52C255.901 396.37 243.489 365.591 236.699 346.329C214.442 283.19 208.632 205.516 208.03 196.651H201.109C200.507 205.516 194.697 283.19 172.438 346.329C165.648 365.591 153.237 396.37 150.618 402.837H170.67C172.531 398.591 184.695 372.696 204.57 372.696C224.445 372.696 236.609 398.591 238.469 402.837ZM224.397 341.989H184.742L185.012 340.896C185.117 340.469 195.567 298.024 195.98 283.566L196.005 282.709H213.134L213.159 283.565C213.572 298.025 224.022 340.469 224.127 340.896L224.397 341.989ZM186.992 340.227H222.148C220.497 333.457 212.134 298.594 211.43 284.473H197.708C197.005 298.594 188.643 333.456 186.992 340.227Z" fill="#003847"/>
<path d="M237.341 338.192H171.798C170.678 338.192 169.637 338.769 169.043 339.718L166.349 344.023H242.791L240.097 339.718C239.502 338.769 238.461 338.192 237.341 338.192Z" fill="#005E78"/>
<path d="M210.36 198.667H198.78V185.816H210.36V198.667ZM200.463 196.984H208.679V187.498H200.463V196.984Z" fill="#003847"/>
<path d="M209.215 188.462H199.924L204.57 166L209.215 188.462ZM201.99 186.779H207.149L204.57 174.307L201.99 186.779Z" fill="#003847"/>
<path d="M204.056 187.621L204.57 170.153L205.084 187.621C205.092 187.905 204.869 188.142 204.585 188.15C204.301 188.158 204.064 187.935 204.056 187.651C204.056 187.641 204.056 187.63 204.056 187.621Z" fill="#003847"/>
<path d="M208.483 190.434H200.657C199.109 190.434 197.843 189.168 197.843 187.62C197.843 186.072 199.109 184.806 200.657 184.806H208.483C210.031 184.806 211.297 186.072 211.297 187.62C211.297 189.168 210.031 190.434 208.483 190.434Z" fill="#003847"/>
<path d="M243.907 403.977C243.78 403.587 230.954 364.953 204.57 364.953C178.172 364.953 165.359 403.587 165.233 403.977L163.632 403.459C164.164 401.818 176.96 363.271 204.57 363.271C232.179 363.271 244.976 401.818 245.508 403.459L243.907 403.977Z" fill="#003847"/>
<path d="M171.251 404.559C170.856 404.559 170.504 404.28 170.426 403.878L168.294 392.91C168.215 392.504 168.444 392.1 168.833 391.959L178.912 388.308V376.771C178.912 376.321 179.267 375.951 179.716 375.931L192.033 375.388V366.687C192.033 366.393 192.186 366.121 192.436 365.969C192.685 365.816 192.998 365.805 193.258 365.939L204.57 371.75L215.879 365.938C216.142 365.805 216.452 365.816 216.702 365.968C216.953 366.12 217.105 366.392 217.105 366.686V375.387L229.423 375.93C229.873 375.95 230.227 376.32 230.227 376.77V388.307L240.307 391.958C240.696 392.099 240.925 392.503 240.846 392.909L238.715 403.877C238.627 404.333 238.185 404.636 237.729 404.542C237.273 404.453 236.975 404.012 237.064 403.556L239.057 393.294L229.099 389.687C228.766 389.567 228.545 389.25 228.545 388.896V377.574L216.227 377.031C215.777 377.011 215.423 376.641 215.423 376.191V368.063L204.955 373.442C204.714 373.566 204.427 373.566 204.186 373.442L193.718 368.063V376.191C193.718 376.641 193.363 377.011 192.914 377.031L180.597 377.574V388.896C180.597 389.25 180.375 389.567 180.042 389.687L170.084 393.294L172.078 403.556C172.167 404.011 171.869 404.453 171.413 404.542C171.358 404.555 171.304 404.559 171.251 404.559Z" fill="#003847"/>
<path d="M192.876 377.033C192.698 377.033 192.519 376.977 192.367 376.861L185.453 371.586C185.083 371.305 185.012 370.776 185.294 370.407C185.576 370.037 186.104 369.967 186.473 370.249L193.387 375.524C193.757 375.805 193.828 376.334 193.546 376.703C193.379 376.919 193.129 377.033 192.876 377.033Z" fill="#003847"/>
<path d="M184.814 383.073C184.588 383.073 184.363 382.983 184.197 382.804L179.138 377.343C178.823 377.002 178.843 376.47 179.184 376.154C179.524 375.839 180.057 375.858 180.373 376.2L185.432 381.661C185.747 382.002 185.727 382.534 185.386 382.85C185.224 382.999 185.019 383.073 184.814 383.073Z" fill="#003847"/>
<path d="M179.754 389.738C179.61 389.738 179.464 389.702 179.331 389.624L172.994 385.929C172.593 385.695 172.457 385.18 172.691 384.779C172.926 384.377 173.44 384.241 173.841 384.476L180.178 388.171C180.579 388.405 180.715 388.92 180.481 389.321C180.325 389.589 180.043 389.738 179.754 389.738Z" fill="#003847"/>
<path d="M174.815 396.819C174.675 396.819 174.532 396.784 174.401 396.71L168.705 393.481C168.301 393.252 168.159 392.739 168.388 392.335C168.617 391.932 169.128 391.789 169.534 392.018L175.23 395.246C175.634 395.475 175.776 395.988 175.547 396.393C175.393 396.666 175.108 396.819 174.815 396.819Z" fill="#003847"/>
<path d="M216.265 377.033C216.011 377.033 215.761 376.919 215.595 376.702C215.314 376.333 215.384 375.804 215.753 375.523L222.667 370.248C223.038 369.965 223.565 370.039 223.846 370.406C224.127 370.775 224.057 371.304 223.688 371.585L216.774 376.86C216.622 376.977 216.442 377.033 216.265 377.033Z" fill="#003847"/>
<path d="M224.326 383.073C224.121 383.073 223.916 382.999 223.754 382.849C223.413 382.533 223.392 382.001 223.708 381.66L228.767 376.199C229.085 375.857 229.616 375.839 229.956 376.153C230.297 376.469 230.318 377.001 230.002 377.342L224.943 382.803C224.777 382.982 224.552 383.073 224.326 383.073Z" fill="#003847"/>
<path d="M229.386 389.738C229.097 389.738 228.814 389.589 228.659 389.321C228.425 388.92 228.56 388.405 228.962 388.171L235.299 384.476C235.701 384.24 236.216 384.376 236.449 384.779C236.683 385.18 236.548 385.695 236.146 385.929L229.809 389.624C229.675 389.702 229.53 389.738 229.386 389.738Z" fill="#003847"/>
<path d="M234.324 396.819C234.031 396.819 233.747 396.666 233.592 396.393C233.363 395.988 233.505 395.475 233.909 395.246L239.605 392.018C240.01 391.79 240.523 391.932 240.751 392.335C240.98 392.739 240.838 393.253 240.434 393.481L234.738 396.71C234.607 396.784 234.465 396.819 234.324 396.819Z" fill="#003847"/>
<path d="M239.836 354.503H169.305C168.681 354.503 168.123 354.113 167.909 353.527L165.164 346.02C164.809 345.05 165.527 344.023 166.56 344.023H242.581C243.614 344.023 244.332 345.05 243.977 346.02L241.232 353.527C241.017 354.113 240.46 354.503 239.836 354.503Z" fill="#003847"/>
<path d="M204.57 284.473C204.083 284.473 203.689 284.078 203.689 283.592V200.849C203.689 200.362 204.084 199.968 204.57 199.968C205.057 199.968 205.451 200.363 205.451 200.849V283.592C205.451 284.078 205.057 284.473 204.57 284.473Z" fill="#003847"/>
<path d="M210.535 200.849H198.605C197.208 200.849 196.065 199.706 196.065 198.309C196.065 196.912 197.208 195.769 198.605 195.769H210.535C211.932 195.769 213.075 196.912 213.075 198.309C213.075 199.706 211.932 200.849 210.535 200.849Z" fill="#003847"/>
<g opacity="0.6">
<path d="M190.498 118.751C190.498 118.751 18.2984 156.243 1.1168 126.969C-6.89379 113.321 30.8155 93.0388 30.8155 93.0388C30.8155 93.0388 5.72727 110.91 17.175 117.939C38.5162 131.043 156.308 101.298 156.308 101.298L190.498 118.751Z" fill="#EBEBEB"/>
<path d="M88.0081 139.716L113.754 135.947C118.036 135.29 122.327 134.731 126.602 134.044C130.885 133.426 135.159 132.756 139.433 132.083C143.703 131.402 147.979 130.74 152.237 129.984C156.515 129.333 160.749 128.465 165.021 127.767C173.524 126.171 181.997 124.453 190.498 122.613C182.35 125.652 173.959 128.022 165.501 130.057C161.265 131.034 157.012 131.959 152.742 132.779C148.476 133.623 144.183 134.31 139.899 135.045C135.597 135.663 131.3 136.326 126.987 136.851C124.831 137.119 122.673 137.374 120.513 137.605C118.355 137.851 116.195 138.08 114.03 138.263C105.381 139.064 96.7053 139.647 88.0081 139.716Z" fill="#EBEBEB"/>
<path d="M23.0178 104.595C22.676 105.087 22.3871 105.609 22.1433 106.141C21.8884 106.667 21.6785 107.21 21.5466 107.76C21.3947 108.305 21.3497 108.856 21.3427 109.384C21.3957 109.906 21.4686 110.415 21.7125 110.85C22.1253 111.743 22.9189 112.422 23.8493 112.921C24.7648 113.441 25.8342 113.786 26.9037 114.084C29.0855 114.614 31.3832 114.903 33.6979 115.027C36.0066 115.202 38.3504 115.232 40.6911 115.215C43.0368 115.222 45.3875 115.157 47.7442 115.061C50.1019 114.998 52.4606 114.866 54.8283 114.763C59.5627 114.56 64.3041 114.254 69.1044 114.234C64.479 115.49 59.7886 116.447 55.0472 117.092C53.8648 117.28 52.6775 117.433 51.4851 117.543C50.2928 117.661 49.1054 117.813 47.9071 117.896C45.5154 118.08 43.1117 118.172 40.7011 118.213C35.8887 118.141 30.9834 117.955 26.212 116.311C25.0367 115.844 23.8443 115.373 22.7809 114.56C21.7275 113.79 20.729 112.714 20.3363 111.349C19.9355 109.984 20.2103 108.586 20.772 107.472C21.3157 106.334 22.1183 105.387 23.0178 104.595Z" fill="#EBEBEB"/>
</g>
<path d="M216.857 126.968C215.557 125.465 197.453 112.825 196.093 111.878L199.184 111.347C199.184 111.347 215.733 125.406 216.857 126.968Z" fill="#FFC725"/>
<path opacity="0.5" d="M216.857 126.968C215.557 125.465 197.453 112.825 196.093 111.878L199.184 111.347C199.184 111.347 215.733 125.406 216.857 126.968Z" fill="white"/>
<path d="M216.916 127.082C216.916 127.091 216.916 127.099 216.916 127.099C216.916 127.116 216.908 127.133 216.899 127.158C216.755 127.479 215.515 127.758 214.129 127.944C214.112 127.944 214.095 127.944 214.078 127.952C212.381 128.162 210.498 128.23 210.193 128.027C209.805 127.758 196.743 121.222 188.746 117.227C188.636 117.176 188.535 117.126 188.433 117.076C188.399 117.059 188.375 117.042 188.366 117.042H188.358V117.034C187.969 116.84 187.589 116.654 187.226 116.468C185.867 115.792 184.736 115.227 183.933 114.83C183.114 114.424 182.65 114.188 182.65 114.188L196.092 111.883C196.861 112.415 202.973 116.68 208.379 120.572C208.564 120.699 208.749 120.833 208.935 120.968C209.442 121.331 209.932 121.686 210.421 122.033C213.706 124.422 216.383 126.423 216.856 126.972C216.873 126.997 216.89 127.023 216.898 127.04C216.907 127.056 216.916 127.073 216.916 127.082Z" fill="#FFC725"/>
<g opacity="0.1">
<path d="M216.916 127.082C216.916 127.091 216.916 127.099 216.916 127.099C216.916 127.116 216.908 127.133 216.899 127.158C216.755 127.479 215.515 127.758 214.129 127.944C214.112 127.944 214.095 127.944 214.078 127.952C212.381 128.162 210.498 128.23 210.194 128.028C209.797 127.758 196.396 121.052 188.434 117.076C189.742 117.709 206.925 125.976 210.422 122.032C213.706 124.422 216.383 126.422 216.856 126.971C216.873 126.996 216.89 127.022 216.898 127.039C216.907 127.056 216.916 127.073 216.916 127.082Z" fill="black"/>
</g>
<path d="M393.991 141.833V141.841C393.991 143.64 384.087 144.223 382.736 143.834C381.258 143.411 273.447 100.981 273.447 100.981L313.116 85.2761C313.42 85.4869 313.8 85.7578 314.256 86.0696C314.416 86.1796 314.585 86.2975 314.763 86.4154C322.075 91.4817 343.911 106.621 362.985 119.946C363.365 120.208 363.737 120.47 364.109 120.732C364.616 121.077 365.113 121.432 365.612 121.779C378.835 131.017 390.301 139.08 393.991 141.833Z" fill="#FFC725"/>
<path d="M393.992 141.833C384.332 134.622 321.358 90.9839 313.116 85.276L318.14 83.2831C318.14 83.2831 391.501 139.08 393.713 141.301C393.899 141.495 393.992 141.664 393.992 141.833Z" fill="#FFC725"/>
<path opacity="0.5" d="M393.992 141.833C384.332 134.622 321.358 90.9839 313.116 85.276L318.14 83.2831C318.14 83.2831 391.501 139.08 393.713 141.301C393.899 141.495 393.992 141.664 393.992 141.833Z" fill="white"/>
<g opacity="0.5">
<path opacity="0.1" d="M393.991 141.833V141.841C393.991 143.64 384.087 144.223 382.736 143.834C381.258 143.411 273.447 100.981 273.447 100.981L313.116 85.2761C313.116 85.2761 303.304 96.4979 326.584 113.757C342.45 125.52 359.338 127.96 365.611 121.779C378.835 131.017 390.301 139.08 393.991 141.833Z" fill="black"/>
</g>
<path d="M304.084 114.901C301.02 116.389 297.686 117.558 297.446 114.479C297.347 113.217 298.325 111.866 303.254 109.494C304.411 108.937 307.234 107.701 308.066 110.261C308.865 112.727 305.237 114.339 304.084 114.901Z" fill="#FFC725"/>
<path opacity="0.1" d="M304.084 114.901C301.02 116.389 297.686 117.558 297.446 114.479C297.347 113.217 298.325 111.866 303.254 109.494C304.411 108.937 307.234 107.701 308.066 110.261C308.865 112.727 305.237 114.339 304.084 114.901Z" fill="black"/>
<path d="M329.098 125.139C326.034 126.627 322.701 127.797 322.46 124.717C322.362 123.454 323.34 122.105 328.27 119.732C329.426 119.175 332.25 117.939 333.081 120.5C333.881 122.965 330.253 124.578 329.098 125.139Z" fill="#FFC725"/>
<path opacity="0.1" d="M329.098 125.139C326.034 126.627 322.701 127.797 322.46 124.717C322.362 123.454 323.34 122.105 328.27 119.732C329.426 119.175 332.25 117.939 333.081 120.5C333.881 122.965 330.253 124.578 329.098 125.139Z" fill="black"/>
<path d="M354.114 135.377C351.049 136.865 347.716 138.034 347.475 134.955C347.377 133.691 348.355 132.342 353.285 129.97C354.441 129.413 357.265 128.176 358.096 130.737C358.896 133.204 355.268 134.816 354.114 135.377Z" fill="#FFC725"/>
<path opacity="0.1" d="M354.114 135.377C351.049 136.865 347.716 138.034 347.475 134.955C347.377 133.691 348.355 132.342 353.285 129.97C354.441 129.413 357.265 128.176 358.096 130.737C358.896 133.204 355.268 134.816 354.114 135.377Z" fill="black"/>
<path d="M345.937 108.479C342.923 113.841 336.084 115.774 331.751 117.505C320.251 122.099 311.908 124.682 307.796 114.238C307.265 112.887 306.969 111.629 306.876 110.455C306.2 102.578 314.358 98.6417 318.504 96.4639C318.512 96.4559 318.512 96.456 318.512 96.456C323.511 93.8214 327.049 92.1163 329.682 91.0099C333.98 89.1939 335.897 88.9661 337.873 88.8991C340.195 88.8231 345.447 89.4058 347.17 99.0405C347.879 103.05 347.289 106.099 345.937 108.479Z" fill="#FFC725"/>
<path d="M346.074 100.99C346.074 106.858 342.404 111.615 337.877 111.615C333.349 111.615 329.679 106.857 329.679 100.99C329.679 95.1218 333.349 90.3644 337.877 90.3644C342.404 90.3644 346.074 95.1218 346.074 100.99Z" fill="#263238"/>
<path d="M345.12 100.989C345.12 106.175 341.878 110.377 337.877 110.377C333.877 110.377 330.634 106.174 330.634 100.989C330.634 95.8053 333.877 91.6016 337.877 91.6016C341.878 91.6016 345.12 95.8053 345.12 100.989Z" fill="#455A64"/>
<path d="M174.308 98.1789L172.408 98.8715L168.136 100.426C164.303 98.7616 159.034 96.4909 153.342 94.0422C139.013 87.8866 122.057 80.6586 118.79 79.5522C118.908 79.5862 119.052 79.6281 119.204 79.6791C119.313 79.7131 119.439 79.7551 119.575 79.797C119.727 79.848 119.896 79.898 120.073 79.957C120.166 79.9909 120.259 80.0159 120.36 80.0499C120.698 80.1598 121.078 80.2778 121.491 80.4127C121.854 80.5306 122.234 80.6576 122.648 80.7925C123.61 81.1043 124.7 81.4681 125.899 81.8649C126.262 81.9918 126.633 82.1098 127.013 82.2367C127.351 82.3467 127.697 82.4646 128.052 82.5825C128.246 82.6505 128.431 82.7094 128.625 82.7684C129.199 82.9623 129.782 83.1572 130.39 83.3591C130.778 83.494 131.167 83.6209 131.564 83.7559C136.148 85.293 141.477 87.083 146.779 88.873L148.224 89.3548C150.132 90.0044 152.04 90.6471 153.889 91.2717C157.403 92.4621 160.746 93.5855 163.668 94.5729C164.141 94.7338 164.597 94.8937 165.044 95.0456C166.623 95.5774 168.059 96.0591 169.3 96.4809L169.317 96.4899C169.697 96.6158 170.06 96.7427 170.406 96.8617C170.583 96.9206 170.752 96.9796 170.913 97.0306C170.998 97.0646 171.082 97.0895 171.166 97.1145C173.151 97.7901 174.308 98.1789 174.308 98.1789Z" fill="#FFC725"/>
<path opacity="0.5" d="M174.308 98.1789L172.408 98.8715L168.136 100.426C164.303 98.7616 159.034 96.4909 153.342 94.0422C139.013 87.8866 122.057 80.6586 118.79 79.5522C118.908 79.5862 119.052 79.6281 119.204 79.6791C119.313 79.7131 119.439 79.7551 119.575 79.797C119.727 79.848 119.896 79.898 120.073 79.957C120.166 79.9909 120.259 80.0159 120.36 80.0499C120.698 80.1598 121.078 80.2778 121.491 80.4127C121.854 80.5306 122.234 80.6576 122.648 80.7925C123.61 81.1043 124.7 81.4681 125.899 81.8649C126.262 81.9918 126.633 82.1098 127.013 82.2367C127.351 82.3467 127.697 82.4646 128.052 82.5825C128.246 82.6505 128.431 82.7094 128.625 82.7684C129.199 82.9623 129.782 83.1572 130.39 83.3591C130.778 83.494 131.167 83.6209 131.564 83.7559C136.148 85.293 141.477 87.083 146.779 88.873L148.224 89.3548C150.132 90.0044 152.04 90.6471 153.889 91.2717C157.403 92.4621 160.746 93.5855 163.668 94.5729C164.141 94.7338 164.597 94.8937 165.044 95.0456C166.623 95.5774 168.059 96.0591 169.3 96.4809L169.317 96.4899C169.697 96.6158 170.06 96.7427 170.406 96.8617C170.583 96.9206 170.752 96.9796 170.913 97.0306C170.998 97.0646 171.082 97.0895 171.166 97.1145C173.151 97.7901 174.308 98.1789 174.308 98.1789Z" fill="white"/>
<path d="M168.136 100.425L156.677 104.595C156.677 104.595 131.092 92.723 115.835 85.2841C115.725 85.2331 115.666 85.2081 115.666 85.2081C115.598 85.1741 115.531 85.1401 115.463 85.1072C113.867 84.3306 112.39 83.604 111.072 82.9543C107.129 80.9784 104.63 79.6362 104.723 79.4503C105.144 78.6057 114.644 78.3948 118.444 79.4503C118.478 79.4583 118.503 79.4673 118.546 79.4753C118.614 79.4923 118.698 79.5172 118.791 79.5512C121.949 80.6236 137.891 87.4039 151.891 93.4156C152.001 93.4656 152.102 93.5085 152.212 93.5505C152.591 93.7194 152.971 93.8793 153.343 94.0403C159.033 96.4899 164.302 98.7607 168.136 100.425Z" fill="#FFC725"/>
<g opacity="0.1">
<path d="M168.136 100.425L156.677 104.595C156.677 104.595 131.092 92.7229 115.834 85.284C118.359 86.3564 144.25 97.7621 150.636 96.179C152.142 95.8052 153.005 94.9357 153.343 94.0402C159.033 96.4899 164.302 98.7606 168.136 100.425Z" fill="black"/>
</g>
<path d="M197.605 84.0938L169.808 97.4604C169.808 97.4604 170.095 73.6325 170.306 56.4909C170.314 55.9003 170.323 55.3176 170.331 54.7429C170.34 54.2702 170.34 53.8054 170.348 53.3497C170.424 47.4809 170.491 42.7525 170.516 40.6077C170.618 33.7095 171.361 32.3073 173.185 33.4306C175.017 34.554 183.132 41.6131 185.572 44.7624C187.573 47.346 192.007 62.9924 194.894 73.7505C194.919 73.8434 194.944 73.9274 194.962 74.0203C195.131 74.645 195.3 75.2536 195.452 75.8353C196.735 80.6747 197.605 84.0938 197.605 84.0938Z" fill="#FFC725"/>
<g opacity="0.1">
<path d="M197.605 84.0938L169.808 97.4604C169.808 97.4604 170.095 73.6325 170.306 56.491C174.401 65.6189 182.482 78.0901 195.452 75.8353C196.735 80.6747 197.605 84.0938 197.605 84.0938Z" fill="black"/>
</g>
<path d="M150.389 112.037C147.528 104.884 159.677 98.3859 173.47 92.1943C187.261 86.0017 323.207 26.0507 342.91 20.7026C362.612 15.3546 385.558 22.6785 389.438 33.9314C395.262 50.8191 370.741 64.9683 282.677 101.482C271.137 106.267 219.522 118.659 190.498 118.752C159.466 118.852 151.797 115.555 150.389 112.037Z" fill="#FFC725"/>
<path opacity="0.5" d="M150.389 112.037C147.528 104.884 159.677 98.3859 173.47 92.1943C187.261 86.0017 323.207 26.0507 342.91 20.7026C362.612 15.3546 385.558 22.6785 389.438 33.9314C395.262 50.8191 370.741 64.9683 282.677 101.482C271.137 106.267 219.522 118.659 190.498 118.752C159.466 118.852 151.797 115.555 150.389 112.037Z" fill="white"/>
<path opacity="0.1" d="M282.679 101.484C271.136 106.271 219.518 118.658 190.497 118.751C159.466 118.853 151.8 115.56 150.389 112.039C148.895 108.298 151.504 104.735 156.309 101.298C156.275 101.998 156.393 102.699 156.681 103.409C157.964 106.609 164.922 109.598 193.074 109.505C219.41 109.421 257.29 88.0931 267.76 83.7535C347.664 50.6197 378.873 47.8652 373.587 32.5397C371.29 25.8693 361.605 20.7182 350.172 19.308C367.887 17.1881 386.033 24.0363 389.436 33.9329C395.261 50.8206 370.74 64.9718 282.679 101.484Z" fill="black"/>
<path d="M193.484 88.4444L196.608 87.0931V91.6866L193.484 93.0379V88.4444Z" fill="#455A64"/>
<path d="M199.184 85.9786L202.519 84.5344V89.1279L199.184 90.5721V85.9786Z" fill="#455A64"/>
<path d="M205.095 83.4201L208.43 81.9769V86.5693L205.095 88.0136V83.4201Z" fill="#455A64"/>
<path d="M211.005 80.8615L214.34 79.4183V84.0107L211.005 85.455V80.8615Z" fill="#455A64"/>
<path d="M216.916 78.3029L220.251 76.8597V81.4532L216.916 82.8964V78.3029Z" fill="#455A64"/>
<path d="M222.827 75.7444L226.162 74.3011V78.8946L222.827 80.3388V75.7444Z" fill="#455A64"/>
<path d="M228.737 73.1858L232.072 71.7426V76.336L228.737 77.7802V73.1858Z" fill="#455A64"/>
<path d="M234.648 70.6281L237.984 69.184V73.7774L234.648 75.2216V70.6281Z" fill="#455A64"/>
<path d="M240.559 68.0695L243.894 66.6254V71.2188L240.559 72.663V68.0695Z" fill="#455A64"/>
<path d="M246.47 65.5109L249.805 64.0667V68.6602L246.47 70.1044V65.5109Z" fill="#455A64"/>
<path d="M252.381 62.9524L255.716 61.5082V66.1017L252.381 67.5459V62.9524Z" fill="#455A64"/>
<path d="M258.291 60.3937L261.626 58.9505V63.543L258.291 64.9872V60.3937Z" fill="#455A64"/>
<path d="M264.201 57.8352L267.537 56.392V60.9844L264.201 62.4287V57.8352Z" fill="#455A64"/>
<path d="M270.113 55.2765L273.448 53.8333V58.4268L270.113 59.87V55.2765Z" fill="#455A64"/>
<path d="M276.022 52.718L279.359 51.2748V55.8683L276.022 57.3115V52.718Z" fill="#455A64"/>
<path d="M281.934 50.1604L285.27 48.7162V53.3096L281.934 54.7539V50.1604Z" fill="#455A64"/>
<path d="M287.844 47.6018L291.179 46.1576V50.751L287.844 52.1953V47.6018Z" fill="#455A64"/>
<path d="M293.754 45.0432L297.09 43.599V48.1925L293.754 49.6367V45.0432Z" fill="#455A64"/>
<path d="M299.666 42.4846L303.001 41.0404V45.6339L299.666 47.0781V42.4846Z" fill="#455A64"/>
<path d="M305.576 39.926L308.911 38.4818V43.0752L305.576 44.5194V39.926Z" fill="#455A64"/>
<path d="M311.487 37.3674L314.822 35.9232V40.5167L311.487 41.9609V37.3674Z" fill="#455A64"/>
<path d="M320.733 33.3646V37.958L317.397 39.4023V34.8088L320.733 33.3646Z" fill="#455A64"/>
<path d="M326.644 30.807V35.3995L323.309 36.8437V32.2502L326.644 30.807Z" fill="#455A64"/>
<path d="M332.554 28.2484V32.8419L329.219 34.2851V29.6916L332.554 28.2484Z" fill="#455A64"/>
<path d="M338.465 25.6899V30.2833L335.13 31.7266V27.1331L338.465 25.6899Z" fill="#455A64"/>
<path d="M353.917 23.8108C355.741 22.3586 357.903 21.4891 360.115 20.9234V23.9797C358.122 23.9038 356.087 23.8528 353.917 23.8108Z" fill="#455A64"/>
<path d="M367.368 20.1969V24.4186C365.814 24.2747 364.261 24.1817 362.689 24.1057V20.4158C364.236 20.1969 365.806 20.1209 367.368 20.1969Z" fill="#455A64"/>
<path d="M382.238 26.1586C380.928 26.1246 379.73 25.8968 378.523 25.7528C377.307 25.6349 376.158 25.398 374.985 25.2881C373.288 25.0262 371.607 24.8403 369.943 24.6804V20.4667C371.978 20.7626 373.979 21.2683 375.854 22.0799C377.044 22.5276 378.151 23.1693 379.24 23.8109C379.781 24.1147 380.288 24.5205 380.794 24.9173C381.292 25.3141 381.782 25.7109 382.238 26.1586Z" fill="#455A64"/>
<path d="M276.023 63.586L236.847 82.4366C236.847 82.4366 174.577 49.054 129.893 24.6604C129.842 24.6354 129.809 24.6184 129.791 24.6094L129.774 24.6014C105.921 11.5716 87.7163 1.45616 88.0121 1.06737C88.7637 0.0539319 100.762 0.180852 105.507 0.822499C106.073 0.890461 106.538 0.974426 106.867 1.06737C108.877 1.61607 179.332 27.7157 228.67 46.0136C255.462 55.9532 276.023 63.586 276.023 63.586Z" fill="#FFC725"/>
<g opacity="0.1">
<path d="M276.022 63.586L236.847 82.4366C236.847 82.4366 174.577 49.054 129.893 24.6604C133.389 26.4254 213.496 66.7952 223.957 60.7326C227.909 58.4438 228.939 52.5421 228.668 46.0147C255.461 55.9532 276.022 63.586 276.022 63.586Z" fill="black"/>
</g>
<path d="M281.741 60.9934L270.108 66.5913C240.343 54.1191 116.543 5.17107 106.175 1.06732C106.057 1.01635 105.947 0.974377 105.854 0.940395C105.752 0.906414 105.668 0.872433 105.601 0.856442C105.559 0.839451 105.533 0.831444 105.508 0.822449C106.074 0.890411 106.539 0.974376 106.868 1.06732C109.966 1.91186 281.741 60.9934 281.741 60.9934Z" fill="#FFC725"/>
<path opacity="0.5" d="M281.741 60.9934L270.108 66.5913C240.343 54.1191 116.543 5.17107 106.175 1.06732C106.057 1.01635 105.947 0.974377 105.854 0.940395C105.752 0.906414 105.668 0.872433 105.601 0.856442C105.559 0.839451 105.533 0.831444 105.508 0.822449C106.074 0.890411 106.539 0.974376 106.868 1.06732C109.966 1.91186 281.741 60.9934 281.741 60.9934Z" fill="white"/>
<path d="M197.838 61.9009C194.007 63.7609 189.842 65.2221 189.542 61.3742C189.419 59.7961 190.641 58.109 196.803 55.1436C198.248 54.448 201.777 52.9019 202.815 56.1031C203.815 59.1844 199.28 61.2003 197.838 61.9009Z" fill="#FFC725"/>
<path opacity="0.1" d="M197.838 61.9009C194.007 63.7609 189.842 65.2221 189.542 61.3742C189.419 59.7961 190.641 58.109 196.803 55.1436C198.248 54.448 201.777 52.9019 202.815 56.1031C203.815 59.1844 199.28 61.2003 197.838 61.9009Z" fill="black"/>
<path d="M164.688 45.1541C160.857 47.0151 156.691 48.4753 156.391 44.6264C156.268 43.0483 157.491 41.3612 163.652 38.3958C165.098 37.7002 168.627 36.1541 169.665 39.3553C170.665 42.4376 166.131 44.4535 164.688 45.1541Z" fill="#FFC725"/>
<path opacity="0.1" d="M164.688 45.1541C160.857 47.0151 156.691 48.4753 156.391 44.6264C156.268 43.0483 157.491 41.3612 163.652 38.3958C165.098 37.7002 168.627 36.1541 169.665 39.3553C170.665 42.4376 166.131 44.4535 164.688 45.1541Z" fill="black"/>
<path d="M131.428 28.2064C127.86 29.9394 123.979 31.2997 123.699 27.7146C123.584 26.2445 124.724 24.6733 130.464 21.9109C131.81 21.2622 135.098 19.823 136.065 22.8054C136.996 25.6758 132.771 27.5537 131.428 28.2064Z" fill="#FFC725"/>
<path opacity="0.1" d="M131.428 28.2064C127.86 29.9394 123.979 31.2997 123.699 27.7146C123.584 26.2445 124.724 24.6733 130.464 21.9109C131.81 21.2622 135.098 19.823 136.065 22.8054C136.996 25.6758 132.771 27.5537 131.428 28.2064Z" fill="black"/>
<path d="M247.3 58.109C244.286 63.4711 237.447 65.405 233.115 67.135C221.614 71.7285 213.272 74.3121 209.16 63.8669C208.628 62.5156 208.333 61.2583 208.24 60.0839C207.564 52.2053 215.721 48.2704 219.866 46.0926C219.874 46.0836 219.874 46.0836 219.874 46.0836C224.874 43.4491 228.412 41.743 231.045 40.6376C235.343 38.8226 237.26 38.5938 239.236 38.5268C241.557 38.4508 246.809 39.0335 248.533 48.6682C249.243 52.68 248.651 55.7283 247.3 58.109Z" fill="#FFC725"/>
<path d="M239.24 61.2443C243.768 61.2443 247.438 56.4872 247.438 50.6191C247.438 44.751 243.768 39.994 239.24 39.994C234.713 39.994 231.043 44.751 231.043 50.6191C231.043 56.4872 234.713 61.2443 239.24 61.2443Z" fill="#263238"/>
<path d="M246.484 50.6192C246.484 55.8043 243.24 60.007 239.241 60.007C235.241 60.007 231.998 55.8033 231.998 50.6192C231.998 45.435 235.241 41.2313 239.241 41.2313C243.24 41.2313 246.484 45.434 246.484 50.6192Z" fill="#455A64"/>
<path d="M122.649 80.7926C122.244 80.6577 121.855 80.5307 121.493 80.4128C121.855 80.5307 122.235 80.6577 122.649 80.7926Z" fill="#FFC725"/>
</svg>
