<svg width="206" height="258" viewBox="0 0 206 258" fill="none" xmlns="http://www.w3.org/2000/svg">
<path d="M203.528 41.9401C197.486 37.7681 190.475 34.4681 182.729 32.3951C174.983 30.3221 167.261 29.6791 159.942 30.2751L152.444 58.2891L196.03 69.9551L203.528 41.9401Z" fill="#DBD8D0"/>
<path d="M200.333 41.0841C195.27 37.1741 189.34 34.1631 182.73 32.3941C176.119 30.6251 169.478 30.271 163.139 31.129L155.641 59.143L192.835 69.0981L200.333 41.0841Z" fill="#F0ECE4"/>
<path d="M190.944 37.514C188.84 34.396 185.909 33.245 182.73 32.394C179.551 31.543 176.436 31.076 173.056 32.726L165.294 61.727L183.182 66.515L190.944 37.514Z" fill="#F7F5F0"/>
<path d="M202.887 44.336C202.64 44.27 202.399 44.16 202.176 44.006C196.15 39.845 189.392 36.744 182.088 34.79C174.785 32.835 167.382 32.146 160.082 32.74C158.765 32.847 157.635 31.83 157.558 30.469C157.481 29.107 158.485 27.917 159.803 27.809C167.629 27.172 175.559 27.908 183.37 29.999C191.182 32.09 198.42 35.412 204.881 39.874C205.969 40.625 206.244 42.158 205.497 43.299C204.904 44.205 203.843 44.592 202.887 44.336Z" fill="#CFCBC4"/>
<path d="M203.704 41.283C203.457 41.217 203.216 41.107 202.993 40.953C196.967 36.792 190.208 33.691 182.905 31.737C175.602 29.783 168.199 29.093 160.899 29.687C159.881 29.77 158.981 29.177 158.586 28.277C157.925 28.766 157.507 29.577 157.558 30.469C157.635 31.83 158.765 32.847 160.082 32.74C167.382 32.146 174.785 32.835 182.088 34.79C189.391 36.745 196.15 39.845 202.176 44.006C202.4 44.16 202.64 44.27 202.887 44.336C203.843 44.592 204.904 44.206 205.497 43.3C205.986 42.553 206.03 41.642 205.701 40.889C205.121 41.316 204.387 41.466 203.704 41.283Z" fill="#ABA7A1"/>
<path d="M167.644 51.714L170.365 41.549C171.063 38.941 169.532 36.244 166.961 35.556C164.391 34.868 161.717 36.439 161.019 39.048L157.879 50.779C161.134 50.899 164.392 51.213 167.644 51.714Z" fill="#6E6A67"/>
<path d="M195.286 60.848L198.44 49.063C199.138 46.455 197.606 43.758 195.036 43.07C192.466 42.382 189.792 43.953 189.094 46.562L186.367 56.751C189.433 57.95 192.409 59.318 195.286 60.848Z" fill="#6E6A67"/>
<path d="M193.999 60.161L197.068 48.695C197.561 46.853 196.479 44.948 194.664 44.462C192.849 43.976 190.96 45.086 190.467 46.928L187.699 57.268C189.846 58.151 191.947 59.115 193.999 60.161Z" fill="#8A8682"/>
<path d="M177.035 53.6711C178.602 54.0901 180.142 54.5651 181.67 55.0641L184.748 43.5641C185.446 40.9561 183.914 38.2591 181.344 37.5711C178.774 36.8831 176.1 38.4541 175.402 41.0631L172.324 52.5631C173.897 52.8931 175.468 53.2521 177.035 53.6711Z" fill="#6E6A67"/>
<path d="M177.035 53.671C178.139 53.967 179.232 54.287 180.317 54.623L183.375 43.197C183.868 41.355 182.786 39.45 180.971 38.964C179.156 38.478 177.267 39.588 176.774 41.43L173.716 52.856C174.824 53.108 175.93 53.376 177.035 53.671Z" fill="#8A8682"/>
<path d="M166.233 51.491L168.992 41.182C169.485 39.34 168.403 37.435 166.588 36.949C164.773 36.463 162.884 37.573 162.391 39.415L159.334 50.837C161.634 50.963 163.935 51.176 166.233 51.491Z" fill="#8A8682"/>
<path d="M200.899 71.831C193.467 66.7 184.845 62.64 175.316 60.09C165.788 57.54 156.29 56.75 147.289 57.483L138.067 91.939L191.677 106.287L200.899 71.831Z" fill="#DBD8D0"/>
<path d="M196.968 70.779C190.741 65.97 183.447 62.266 175.316 60.09C167.185 57.914 159.016 57.479 151.22 58.535L141.998 92.992L187.746 105.236L196.968 70.779Z" fill="#F0ECE4"/>
<path d="M185.42 66.387C182.833 62.552 179.227 61.136 175.316 60.09C171.406 59.043 167.575 58.469 163.418 60.498L153.871 96.168L175.873 102.057L185.42 66.387Z" fill="#F7F5F0"/>
<path d="M200.111 74.778C199.807 74.696 199.511 74.562 199.236 74.372C191.824 69.255 183.511 65.44 174.529 63.036C165.547 60.632 156.44 59.784 147.462 60.515C145.842 60.646 144.452 59.396 144.357 57.721C144.262 56.046 145.498 54.581 147.118 54.45C156.744 53.666 166.497 54.572 176.105 57.144C185.714 59.716 194.616 63.803 202.563 69.29C203.901 70.214 204.24 72.1 203.321 73.503C202.591 74.618 201.286 75.093 200.111 74.778Z" fill="#CFCBC4"/>
<path d="M201.115 71.024C200.811 70.943 200.515 70.808 200.24 70.618C192.828 65.5 184.515 61.686 175.532 59.282C166.55 56.878 157.443 56.03 148.465 56.761C147.212 56.863 146.105 56.134 145.62 55.026C144.807 55.627 144.293 56.625 144.355 57.722C144.45 59.396 145.839 60.647 147.46 60.516C156.438 59.785 165.545 60.633 174.527 63.037C183.51 65.441 191.823 69.255 199.234 74.373C199.509 74.563 199.805 74.697 200.109 74.779C201.285 75.094 202.589 74.619 203.319 73.504C203.92 72.586 203.974 71.465 203.57 70.538C202.858 71.064 201.955 71.248 201.115 71.024Z" fill="#ABA7A1"/>
<path d="M154.394 81.603L157.766 69.002C158.434 66.505 157.018 63.937 154.62 63.295C152.221 62.653 149.712 64.17 149.043 66.667L145.134 81.271C148.217 81.217 151.305 81.315 154.394 81.603Z" fill="#6E6A67"/>
<path d="M153.047 81.506L156.485 68.659C156.957 66.896 155.957 65.082 154.263 64.628C152.569 64.175 150.797 65.246 150.325 67.01L146.514 81.25C148.689 81.248 150.868 81.338 153.047 81.506Z" fill="#8A8682"/>
<path d="M167.043 83.759L170.784 69.78C171.452 67.283 170.036 64.715 167.637 64.073C165.238 63.431 162.729 64.948 162.061 67.445L158.155 82.04C161.125 82.45 164.089 83.034 167.043 83.759Z" fill="#6E6A67"/>
<path d="M165.754 83.443L169.503 69.437C169.975 67.674 168.975 65.86 167.281 65.407C165.587 64.954 163.815 66.025 163.342 67.789L159.472 82.249C161.57 82.571 163.665 82.963 165.754 83.443Z" fill="#8A8682"/>
<path d="M179.22 87.678L183.126 73.083C183.794 70.586 182.378 68.018 179.98 67.376C177.581 66.734 175.072 68.251 174.403 70.748L170.662 84.727C173.582 85.575 176.442 86.55 179.22 87.678Z" fill="#6E6A67"/>
<path d="M177.974 87.2L181.844 72.74C182.316 70.977 181.316 69.163 179.622 68.71C177.928 68.256 176.156 69.328 175.684 71.092L171.935 85.098C173.985 85.725 175.996 86.432 177.974 87.2Z" fill="#8A8682"/>
<path d="M190.883 93.516L194.792 78.912C195.46 76.415 194.044 73.847 191.645 73.205C189.246 72.563 186.737 74.081 186.069 76.577L182.697 89.177C185.516 90.471 188.241 91.929 190.883 93.516Z" fill="#6E6A67"/>
<path d="M189.699 92.808L193.51 78.569C193.982 76.806 192.982 74.992 191.288 74.538C189.594 74.085 187.821 75.156 187.349 76.92L183.911 89.766C185.883 90.709 187.816 91.719 189.699 92.808Z" fill="#8A8682"/>
<path d="M192.785 102.148C185.353 97.0171 176.731 92.9571 167.202 90.4071C157.674 87.8571 148.176 87.0671 139.175 87.8001L129.953 122.257L183.563 136.605L192.785 102.148Z" fill="#DBD8D0"/>
<path d="M188.854 101.096C182.627 96.2871 175.333 92.5831 167.202 90.4071C159.071 88.2311 150.902 87.7961 143.106 88.8521L133.884 123.308L179.632 135.552L188.854 101.096Z" fill="#F0ECE4"/>
<path d="M177.306 96.7051C174.719 92.8701 171.113 91.4551 167.202 90.4081C163.292 89.3611 159.461 88.7871 155.304 90.8171L145.757 126.487L167.759 132.376L177.306 96.7051Z" fill="#F7F5F0"/>
<path d="M191.995 105.096C191.691 105.015 191.395 104.88 191.12 104.69C183.708 99.5721 175.395 95.7581 166.412 93.3541C157.43 90.9501 148.323 90.1021 139.345 90.8331C137.725 90.9641 136.335 89.7141 136.24 88.0391C136.145 86.3641 137.381 84.9001 139.001 84.7681C148.627 83.9841 158.381 84.8901 167.99 87.4621C177.599 90.0341 186.5 94.1201 194.447 99.6081C195.785 100.532 196.124 102.418 195.205 103.821C194.475 104.935 193.171 105.41 191.995 105.096Z" fill="#CFCBC4"/>
<path d="M193 101.341C192.696 101.26 192.4 101.125 192.125 100.935C184.713 95.8181 176.4 92.0041 167.417 89.5991C158.435 87.1951 149.328 86.3471 140.35 87.0781C139.097 87.1801 137.99 86.4511 137.505 85.3431C136.692 85.9441 136.178 86.9421 136.24 88.0391C136.335 89.7131 137.724 90.9641 139.345 90.8331C148.323 90.1021 157.43 90.9501 166.412 93.3541C175.395 95.7581 183.708 99.5721 191.12 104.69C191.395 104.88 191.691 105.015 191.995 105.096C193.171 105.411 194.475 104.936 195.205 103.821C195.806 102.903 195.86 101.782 195.457 100.855C194.742 101.381 193.84 101.566 193 101.341Z" fill="#ABA7A1"/>
<path d="M146.28 111.92L149.652 99.3201C150.32 96.8231 148.904 94.2551 146.505 93.6131C144.106 92.9711 141.597 94.4881 140.929 96.9851L137.02 111.589C140.102 111.535 143.191 111.633 146.28 111.92Z" fill="#6E6A67"/>
<path d="M144.932 111.824L148.37 98.977C148.842 97.214 147.842 95.4 146.148 94.947C144.454 94.494 142.681 95.565 142.209 97.329L138.398 111.569C140.574 111.565 142.753 111.656 144.932 111.824Z" fill="#8A8682"/>
<path d="M158.928 114.077L162.67 100.098C163.338 97.6011 161.922 95.0331 159.523 94.3911C157.124 93.7491 154.615 95.2661 153.947 97.7631L150.041 112.358C153.01 112.768 155.975 113.352 158.928 114.077Z" fill="#6E6A67"/>
<path d="M157.639 113.76L161.388 99.7541C161.86 97.9911 160.86 96.1771 159.166 95.7231C157.472 95.2701 155.7 96.3411 155.228 98.1051L151.358 112.565C153.454 112.889 155.549 113.28 157.639 113.76Z" fill="#8A8682"/>
<path d="M171.104 117.995L175.01 103.4C175.678 100.903 174.262 98.3351 171.864 97.6931C169.465 97.0511 166.956 98.5681 166.287 101.065L162.546 115.044C165.467 115.893 168.327 116.867 171.104 117.995Z" fill="#6E6A67"/>
<path d="M169.859 117.518L173.729 103.058C174.201 101.295 173.201 99.4811 171.507 99.0271C169.813 98.5741 168.041 99.6451 167.569 101.409L163.82 115.415C165.87 116.043 167.881 116.749 169.859 117.518Z" fill="#8A8682"/>
<path d="M182.769 123.833L186.678 109.229C187.346 106.732 185.93 104.164 183.532 103.522C181.133 102.88 178.624 104.398 177.955 106.894L174.583 119.494C177.401 120.789 180.126 122.247 182.769 123.833Z" fill="#6E6A67"/>
<path d="M181.584 123.126L185.395 108.887C185.867 107.124 184.867 105.31 183.173 104.856C181.479 104.402 179.707 105.474 179.235 107.238L175.797 120.084C177.768 121.027 179.7 122.037 181.584 123.126Z" fill="#8A8682"/>
<path d="M184.765 132.111C177.333 126.98 168.71 122.92 159.182 120.37C149.654 117.82 140.156 117.03 131.155 117.763L121.933 152.219L175.543 166.567L184.765 132.111Z" fill="#DBD8D0"/>
<path d="M180.835 131.059C174.608 126.25 167.314 122.546 159.183 120.37C151.052 118.194 142.883 117.759 135.087 118.815L125.865 153.272L171.613 165.516L180.835 131.059Z" fill="#F0ECE4"/>
<path d="M169.286 126.667C166.699 122.832 163.093 121.416 159.182 120.37C155.272 119.323 151.441 118.749 147.284 120.778L137.737 156.448L159.739 162.337L169.286 126.667Z" fill="#F7F5F0"/>
<path d="M183.976 135.058C183.672 134.977 183.376 134.842 183.101 134.652C175.689 129.534 167.376 125.72 158.393 123.316C149.411 120.912 140.304 120.064 131.326 120.795C129.706 120.926 128.316 119.676 128.221 118.001C128.126 116.326 129.362 114.862 130.982 114.73C140.608 113.946 150.361 114.852 159.969 117.423C169.578 119.995 178.48 124.081 186.427 129.569C187.765 130.493 188.104 132.379 187.185 133.782C186.456 134.898 185.152 135.373 183.976 135.058Z" fill="#CFCBC4"/>
<path d="M184.982 131.304C184.678 131.223 184.382 131.088 184.107 130.898C176.695 125.78 168.382 121.966 159.399 119.562C150.417 117.158 141.31 116.31 132.332 117.041C131.079 117.143 129.972 116.414 129.487 115.306C128.674 115.907 128.16 116.905 128.222 118.002C128.317 119.676 129.706 120.927 131.327 120.796C140.305 120.065 149.412 120.913 158.394 123.317C167.377 125.721 175.69 129.535 183.102 134.653C183.377 134.843 183.673 134.977 183.977 135.059C185.153 135.374 186.457 134.899 187.187 133.784C187.788 132.866 187.842 131.745 187.438 130.818C186.724 131.344 185.822 131.529 184.982 131.304Z" fill="#ABA7A1"/>
<path d="M138.26 141.883L141.632 129.282C142.3 126.785 140.884 124.217 138.485 123.575C136.086 122.933 133.577 124.45 132.909 126.947L129 141.551C132.083 141.497 135.172 141.595 138.26 141.883Z" fill="#6E6A67"/>
<path d="M136.912 141.786L140.35 128.939C140.822 127.176 139.822 125.362 138.128 124.908C136.434 124.455 134.662 125.526 134.19 127.29L130.379 141.53C132.555 141.528 134.733 141.618 136.912 141.786Z" fill="#8A8682"/>
<path d="M150.909 144.039L154.65 130.06C155.318 127.563 153.902 124.995 151.503 124.353C149.104 123.711 146.595 125.229 145.927 127.725L142.021 142.32C144.991 142.73 147.955 143.314 150.909 144.039Z" fill="#6E6A67"/>
<path d="M149.62 143.723L153.369 129.717C153.841 127.954 152.841 126.14 151.147 125.686C149.453 125.233 147.681 126.304 147.208 128.068L143.338 142.528C145.435 142.851 147.53 143.243 149.62 143.723Z" fill="#8A8682"/>
<path d="M163.085 147.958L166.991 133.363C167.659 130.866 166.243 128.298 163.844 127.656C161.445 127.014 158.936 128.532 158.268 131.028L154.527 145.007C157.448 145.855 160.307 146.83 163.085 147.958Z" fill="#6E6A67"/>
<path d="M161.84 147.48L165.71 133.02C166.182 131.257 165.182 129.443 163.488 128.99C161.794 128.537 160.022 129.608 159.55 131.372L155.801 145.378C157.851 146.005 159.861 146.712 161.84 147.48Z" fill="#8A8682"/>
<path d="M174.748 153.796L178.658 139.192C179.326 136.695 177.909 134.127 175.51 133.485C173.111 132.843 170.602 134.36 169.934 136.857L166.562 149.457C169.382 150.751 172.106 152.209 174.748 153.796Z" fill="#6E6A67"/>
<path d="M173.565 153.088L177.376 138.849C177.848 137.086 176.848 135.272 175.154 134.819C173.46 134.365 171.688 135.437 171.216 137.201L167.778 150.048C169.749 150.99 171.681 151.999 173.565 153.088Z" fill="#8A8682"/>
<path d="M176.637 162.482C169.205 157.351 160.582 153.291 151.054 150.741C141.526 148.191 132.028 147.401 123.027 148.134L113.805 182.59L167.415 196.938L176.637 162.482Z" fill="#DBD8D0"/>
<path d="M172.706 161.43C166.479 156.621 159.185 152.917 151.054 150.741C142.923 148.565 134.754 148.13 126.958 149.186L117.736 183.643L163.484 195.887L172.706 161.43Z" fill="#F0ECE4"/>
<path d="M161.158 157.039C158.571 153.204 154.965 151.788 151.054 150.742C147.144 149.696 143.313 149.121 139.156 151.151L129.609 186.821L151.611 192.71L161.158 157.039Z" fill="#F7F5F0"/>
<path d="M175.848 165.43C175.544 165.349 175.248 165.214 174.973 165.024C167.561 159.906 159.248 156.092 150.265 153.688C141.283 151.284 132.176 150.436 123.198 151.167C121.578 151.298 120.188 150.048 120.093 148.373C119.998 146.698 121.234 145.233 122.854 145.102C132.48 144.318 142.233 145.224 151.842 147.796C161.451 150.368 170.353 154.454 178.3 159.942C179.638 160.866 179.977 162.752 179.058 164.155C178.328 165.269 177.024 165.744 175.848 165.43Z" fill="#CFCBC4"/>
<path d="M176.853 161.675C176.549 161.594 176.253 161.459 175.978 161.269C168.566 156.151 160.253 152.337 151.27 149.933C142.288 147.529 133.181 146.681 124.203 147.412C122.95 147.514 121.843 146.785 121.358 145.677C120.545 146.278 120.031 147.276 120.093 148.373C120.188 150.047 121.577 151.298 123.198 151.167C132.176 150.436 141.283 151.284 150.265 153.688C159.248 156.092 167.561 159.906 174.973 165.024C175.248 165.214 175.544 165.349 175.848 165.43C177.024 165.745 178.328 165.27 179.058 164.155C179.659 163.237 179.713 162.116 179.31 161.189C178.595 161.715 177.693 161.9 176.853 161.675Z" fill="#ABA7A1"/>
<path d="M130.132 172.254L133.504 159.654C134.172 157.157 132.756 154.589 130.358 153.947C127.959 153.305 125.45 154.822 124.781 157.319L120.872 171.923C123.954 171.869 127.043 171.967 130.132 172.254Z" fill="#6E6A67"/>
<path d="M128.784 172.157L132.222 159.31C132.694 157.547 131.694 155.733 130 155.28C128.306 154.826 126.534 155.898 126.062 157.662L122.251 171.902C124.426 171.899 126.604 171.989 128.784 172.157Z" fill="#8A8682"/>
<path d="M142.78 174.411L146.522 160.432C147.19 157.935 145.774 155.367 143.375 154.725C140.976 154.083 138.467 155.601 137.799 158.097L133.892 172.692C136.862 173.102 139.827 173.686 142.78 174.411Z" fill="#6E6A67"/>
<path d="M141.491 174.094L145.24 160.088C145.712 158.325 144.712 156.511 143.018 156.058C141.324 155.604 139.552 156.676 139.08 158.44L135.21 172.9C137.306 173.223 139.401 173.614 141.491 174.094Z" fill="#8A8682"/>
<path d="M154.956 178.329L158.862 163.734C159.53 161.237 158.114 158.669 155.715 158.027C153.316 157.385 150.807 158.903 150.138 161.399L146.397 175.378C149.319 176.227 152.179 177.201 154.956 178.329Z" fill="#6E6A67"/>
<path d="M153.711 177.852L157.581 163.392C158.053 161.629 157.053 159.815 155.359 159.361C153.665 158.908 151.892 159.979 151.421 161.743L147.672 175.749C149.722 176.377 151.733 177.083 153.711 177.852Z" fill="#8A8682"/>
<path d="M166.62 184.167L170.529 169.563C171.197 167.066 169.781 164.498 167.382 163.856C164.983 163.214 162.474 164.732 161.805 167.228L158.433 179.828C161.253 181.123 163.978 182.581 166.62 184.167Z" fill="#6E6A67"/>
<path d="M165.436 183.46L169.247 169.221C169.719 167.458 168.719 165.644 167.025 165.191C165.331 164.738 163.559 165.809 163.087 167.573L159.649 180.42C161.62 181.361 163.552 182.371 165.436 183.46Z" fill="#8A8682"/>
<path d="M168.617 192.445C161.185 187.314 152.562 183.254 143.034 180.704C133.506 178.154 124.008 177.363 115.007 178.097L105.785 212.554L159.395 226.902L168.617 192.445Z" fill="#DBD8D0"/>
<path d="M164.687 191.393C158.46 186.584 151.166 182.88 143.035 180.704C134.904 178.528 126.735 178.093 118.939 179.149L109.717 213.606L155.465 225.85L164.687 191.393Z" fill="#F0ECE4"/>
<path d="M153.138 187.001C150.551 183.166 146.945 181.75 143.034 180.704C139.124 179.657 135.293 179.083 131.136 181.113L121.589 216.783L143.591 222.672L153.138 187.001Z" fill="#F7F5F0"/>
<path d="M167.828 195.392C167.524 195.311 167.228 195.176 166.953 194.986C159.541 189.868 151.228 186.054 142.245 183.65C133.263 181.246 124.156 180.398 115.178 181.129C113.558 181.26 112.168 180.01 112.073 178.335C111.978 176.66 113.215 175.196 114.835 175.064C124.461 174.28 134.214 175.186 143.822 177.758C153.431 180.33 162.332 184.416 170.279 189.904C171.617 190.828 171.956 192.714 171.037 194.117C170.308 195.232 169.004 195.707 167.828 195.392Z" fill="#CFCBC4"/>
<path d="M168.834 191.637C168.53 191.556 168.234 191.421 167.959 191.231C160.547 186.113 152.234 182.299 143.251 179.895C134.269 177.491 125.162 176.643 116.184 177.374C114.931 177.476 113.824 176.747 113.339 175.639C112.526 176.24 112.012 177.238 112.074 178.335C112.169 180.009 113.558 181.26 115.179 181.129C124.157 180.398 133.264 181.246 142.246 183.65C151.229 186.054 159.542 189.868 166.954 194.986C167.229 195.176 167.525 195.311 167.829 195.392C169.005 195.707 170.309 195.232 171.039 194.117C171.64 193.199 171.694 192.078 171.291 191.151C170.576 191.678 169.674 191.862 168.834 191.637Z" fill="#ABA7A1"/>
<path d="M122.112 202.217L125.484 189.616C126.152 187.119 124.736 184.551 122.337 183.909C119.938 183.267 117.429 184.784 116.761 187.281L112.852 201.885C115.935 201.831 119.024 201.929 122.112 202.217Z" fill="#6E6A67"/>
<path d="M120.764 202.12L124.202 189.273C124.674 187.51 123.674 185.696 121.98 185.243C120.286 184.79 118.514 185.861 118.042 187.625L114.231 201.865C116.406 201.862 118.585 201.952 120.764 202.12Z" fill="#8A8682"/>
<path d="M134.761 204.373L138.502 190.394C139.17 187.897 137.754 185.329 135.356 184.687C132.957 184.045 130.448 185.562 129.779 188.059L125.873 202.654C128.843 203.064 131.807 203.648 134.761 204.373Z" fill="#6E6A67"/>
<path d="M133.472 204.057L137.221 190.051C137.693 188.288 136.693 186.474 134.999 186.021C133.305 185.568 131.533 186.639 131.061 188.403L127.191 202.863C129.287 203.185 131.382 203.577 133.472 204.057Z" fill="#8A8682"/>
<path d="M146.937 208.292L150.843 193.697C151.511 191.2 150.095 188.632 147.697 187.99C145.298 187.348 142.789 188.866 142.12 191.362L138.379 205.341C141.299 206.189 144.159 207.164 146.937 208.292Z" fill="#6E6A67"/>
<path d="M145.692 207.814L149.562 193.354C150.034 191.591 149.034 189.777 147.34 189.323C145.646 188.87 143.874 189.941 143.402 191.705L139.653 205.71C141.703 206.339 143.713 207.046 145.692 207.814Z" fill="#8A8682"/>
<path d="M158.601 214.13L162.51 199.526C163.178 197.029 161.762 194.461 159.364 193.819C156.965 193.177 154.456 194.695 153.787 197.191L150.415 209.791C153.234 211.085 155.959 212.543 158.601 214.13Z" fill="#6E6A67"/>
<path d="M157.416 213.422L161.227 199.183C161.699 197.42 160.699 195.606 159.005 195.152C157.311 194.699 155.539 195.77 155.067 197.534L151.629 210.38C153.6 211.323 155.533 212.333 157.416 213.422Z" fill="#8A8682"/>
<path d="M160.471 222.884C153.039 217.753 144.417 213.693 134.888 211.143C125.36 208.593 115.862 207.803 106.861 208.535L97.6387 242.992L151.249 257.34L160.471 222.884Z" fill="#DBD8D0"/>
<path d="M156.54 221.831C150.313 217.022 143.019 213.318 134.888 211.142C126.757 208.966 118.588 208.531 110.792 209.587L101.57 244.044L147.318 256.288L156.54 221.831Z" fill="#F0ECE4"/>
<path d="M144.992 217.44C142.405 213.605 138.799 212.189 134.888 211.143C130.977 210.097 127.146 209.522 122.99 211.551L113.443 247.221L135.445 253.11L144.992 217.44Z" fill="#F7F5F0"/>
<path d="M159.682 225.831C159.378 225.75 159.082 225.615 158.807 225.425C151.395 220.307 143.082 216.493 134.099 214.089C125.117 211.685 116.01 210.837 107.032 211.568C105.412 211.699 104.022 210.449 103.927 208.774C103.832 207.099 105.068 205.635 106.688 205.503C116.314 204.719 126.067 205.625 135.675 208.196C145.284 210.768 154.186 214.855 162.133 220.342C163.471 221.266 163.81 223.152 162.891 224.555C162.162 225.671 160.858 226.145 159.682 225.831Z" fill="#CFCBC4"/>
<path d="M160.687 222.076C160.383 221.995 160.087 221.86 159.812 221.67C152.4 216.552 144.087 212.738 135.104 210.334C126.122 207.93 117.015 207.082 108.037 207.813C106.784 207.915 105.677 207.186 105.192 206.078C104.379 206.679 103.865 207.677 103.927 208.774C104.022 210.448 105.411 211.699 107.032 211.568C116.01 210.837 125.117 211.685 134.099 214.089C143.082 216.493 151.395 220.307 158.807 225.425C159.082 225.615 159.378 225.749 159.682 225.831C160.858 226.146 162.162 225.671 162.892 224.556C163.493 223.638 163.547 222.517 163.143 221.59C162.429 222.116 161.527 222.301 160.687 222.076Z" fill="#ABA7A1"/>
<path d="M110.293 246.378L116.888 221.738C117.556 219.241 116.14 216.673 113.742 216.031C111.343 215.389 108.834 216.906 108.165 219.403L101.57 244.044L110.293 246.378Z" fill="#6E6A67"/>
<path d="M109.011 246.036L115.606 221.396C116.078 219.633 115.078 217.819 113.384 217.365C111.69 216.912 109.918 217.983 109.446 219.747L102.851 244.387L109.011 246.036Z" fill="#8A8682"/>
<path d="M122.634 249.682L129.905 222.517C130.573 220.02 129.157 217.452 126.758 216.81C124.359 216.168 121.85 217.686 121.182 220.182L113.911 247.347L122.634 249.682Z" fill="#6E6A67"/>
<path d="M121.352 249.339L128.623 222.174C129.095 220.411 128.095 218.597 126.401 218.143C124.707 217.69 122.935 218.761 122.463 220.525L115.192 247.69L121.352 249.339Z" fill="#8A8682"/>
<path d="M134.975 252.985L142.246 225.82C142.914 223.323 141.498 220.755 139.099 220.113C136.7 219.471 134.191 220.989 133.522 223.485L126.251 250.65L134.975 252.985Z" fill="#6E6A67"/>
<path d="M133.695 252.642L140.966 225.477C141.438 223.714 140.438 221.9 138.744 221.446C137.05 220.993 135.278 222.064 134.806 223.828L127.535 250.993L133.695 252.642Z" fill="#8A8682"/>
<path d="M147.318 256.288L153.913 231.648C154.581 229.151 153.165 226.583 150.767 225.941C148.368 225.299 145.859 226.816 145.19 229.313L138.595 253.953L147.318 256.288Z" fill="#6E6A67"/>
<path d="M146.036 255.945L152.631 231.305C153.103 229.542 152.103 227.728 150.409 227.275C148.715 226.822 146.943 227.893 146.471 229.657L139.876 254.297L146.036 255.945Z" fill="#8A8682"/>
<path d="M56.57 207.537C56.106 207.537 55.729 207.161 55.729 206.696V188.503C55.729 188.039 56.106 187.662 56.57 187.662C57.034 187.662 57.411 188.039 57.411 188.503V206.696C57.411 207.161 57.034 207.537 56.57 207.537Z" fill="#003847"/>
<path d="M111.829 238.599C111.714 238.599 111.597 238.577 111.485 238.529L93.2349 230.789C92.9649 230.674 92.7689 230.433 92.7139 230.144C92.6579 229.856 92.7489 229.559 92.9579 229.352L102.673 219.689L85.2299 215.496C84.8679 215.409 84.6009 215.105 84.5589 214.736C84.5189 214.367 84.7129 214.011 85.0459 213.848L96.3349 208.297L78.1619 207.576C77.7449 207.56 77.3979 207.253 77.3279 206.843C77.2589 206.432 77.4869 206.028 77.8749 205.876L89.9189 201.142L72.5119 203.278C72.1169 203.334 71.7279 203.099 71.5819 202.722C71.4369 202.346 71.5649 201.918 71.8939 201.685L86.5059 191.317L64.0529 199.016C63.7039 199.134 63.3199 199.025 63.0859 198.741C62.8519 198.457 62.8199 198.058 63.0039 197.739L66.4459 191.806L57.0989 198.817C56.7859 199.053 56.3549 199.053 56.0409 198.817L46.6939 191.806L50.1359 197.739C50.3209 198.057 50.2879 198.457 50.0549 198.741C49.8209 199.025 49.4359 199.133 49.0879 199.016L26.6339 191.316L41.2449 201.685C41.5739 201.918 41.7029 202.346 41.5569 202.722C41.4109 203.099 41.0319 203.339 40.6269 203.278L23.2199 201.142L35.2639 205.876C35.6519 206.028 35.8799 206.432 35.8109 206.843C35.7419 207.254 35.3939 207.56 34.9769 207.576L16.8039 208.297L28.0929 213.848C28.4259 214.012 28.6209 214.367 28.5799 214.736C28.5389 215.105 28.2709 215.409 27.9099 215.496L10.4669 219.689L20.1819 229.352C20.3899 229.559 20.4809 229.856 20.4259 230.144C20.3699 230.432 20.1749 230.674 19.9049 230.789L1.65491 238.529C1.20791 238.718 0.6889 238.509 0.4989 238.062C0.3089 237.614 0.517895 237.096 0.965895 236.906L18.0089 229.678L8.1049 219.826C7.8779 219.6 7.7919 219.271 7.8779 218.963C7.9639 218.655 8.2099 218.418 8.5209 218.343L25.1249 214.351L12.9069 208.344C12.5449 208.166 12.3499 207.765 12.4339 207.37C12.5179 206.975 12.8579 206.688 13.2619 206.672L30.7159 205.979L16.1099 200.238C15.6969 200.075 15.4689 199.631 15.5779 199.201C15.6859 198.771 16.0909 198.481 16.5399 198.543L37.3809 201.101L20.6369 189.219C20.2799 188.966 20.1629 188.488 20.3629 188.098C20.5619 187.708 21.0189 187.524 21.4329 187.666L47.4279 196.579L42.9969 188.942C42.7869 188.579 42.8599 188.119 43.1739 187.841C43.4859 187.563 43.9519 187.543 44.2879 187.795L56.5699 197.01L68.8529 187.798C69.1869 187.547 69.6539 187.566 69.9669 187.844C70.2799 188.123 70.3539 188.583 70.1439 188.945L65.7129 196.582L91.7069 187.669C92.1179 187.527 92.5769 187.71 92.7769 188.101C92.9769 188.491 92.8599 188.968 92.5029 189.222L75.7589 201.104L96.5999 198.546C97.0329 198.484 97.4529 198.774 97.5619 199.204C97.6699 199.634 97.4429 200.079 97.0299 200.241L82.4239 205.982L99.8779 206.675C100.281 206.691 100.622 206.978 100.705 207.373C100.788 207.767 100.593 208.168 100.232 208.347L88.0139 214.354L104.618 218.346C104.929 218.421 105.175 218.658 105.261 218.966C105.347 219.273 105.26 219.603 105.034 219.829L95.1299 229.681L112.173 236.909C112.621 237.099 112.831 237.617 112.64 238.065C112.498 238.398 112.172 238.599 111.829 238.599Z" fill="#005E78"/>
<path d="M38.5772 173.074C38.3562 173.074 38.1352 172.991 37.9642 172.826L28.7142 163.864C28.5122 163.668 28.4152 163.388 28.4552 163.109C28.4942 162.831 28.6642 162.587 28.9122 162.454L40.1072 156.459L33.0782 146.918C32.9182 146.7 32.8662 146.421 32.9382 146.16C33.0102 145.899 33.1982 145.686 33.4482 145.582L43.6661 141.313L36.4432 133.316C36.2482 133.1 36.1722 132.802 36.2402 132.52C36.3082 132.238 36.5102 132.007 36.7822 131.902L46.1902 128.293L39.2722 119.155C39.0812 118.903 39.0402 118.568 39.1652 118.277C39.2892 117.986 39.5602 117.784 39.8742 117.748L47.1661 116.9L41.3052 109.682C41.1122 109.444 41.0562 109.123 41.1582 108.835C41.2592 108.546 41.5032 108.331 41.8022 108.266L54.3462 105.542L43.5162 98.35C43.2662 98.184 43.1182 97.901 43.1222 97.602C43.1272 97.301 43.2842 97.024 43.5402 96.866L54.8582 89.868L46.0062 84.707C45.7612 84.565 45.6002 84.313 45.5732 84.031C45.5452 83.749 45.6552 83.471 45.8672 83.284L54.9972 75.235L47.6772 71.65C47.4082 71.519 47.2252 71.26 47.1892 70.963C47.1542 70.666 47.2712 70.372 47.5022 70.181L55.3992 63.627L49.4562 54.646C49.2112 54.275 49.2802 53.78 49.6172 53.49L55.2692 48.645L51.0012 44.425C50.8272 44.253 50.7322 44.016 50.7402 43.771C50.7482 43.526 50.8572 43.295 51.0422 43.135L55.2781 39.44L51.2962 35.472C50.9512 35.128 50.9502 34.571 51.2942 34.225C51.6382 33.88 52.1961 33.879 52.5411 34.223L57.1922 38.858C57.3652 39.031 57.4592 39.267 57.4512 39.512C57.4432 39.756 57.3342 39.986 57.1492 40.147L52.9161 43.84L57.1902 48.065C57.3652 48.238 57.4602 48.477 57.4512 48.723C57.4422 48.969 57.3312 49.2 57.1442 49.361L51.3562 54.323L57.3061 63.315C57.5541 63.69 57.4802 64.192 57.1342 64.479L49.6782 70.667L56.9592 74.233C57.2232 74.362 57.4062 74.615 57.4452 74.907C57.4842 75.199 57.3752 75.491 57.1542 75.685L47.9502 83.799L57.0152 89.084C57.2832 89.24 57.4482 89.524 57.4532 89.834C57.4572 90.143 57.2982 90.433 57.0352 90.595L45.6381 97.642L57.0592 105.227C57.3542 105.423 57.5032 105.776 57.4382 106.124C57.3722 106.472 57.1052 106.747 56.7592 106.822L43.5782 109.684L49.5472 117.036C49.7502 117.286 49.8001 117.626 49.6791 117.924C49.5581 118.222 49.2842 118.43 48.9642 118.467L41.6092 119.322L48.3041 128.165C48.4711 128.386 48.5252 128.672 48.4492 128.939C48.3732 129.206 48.1762 129.421 47.9172 129.52L38.6132 133.089L45.8092 141.057C46.0002 141.269 46.0782 141.561 46.0152 141.84C45.9522 142.119 45.7582 142.351 45.4942 142.461L35.1622 146.777L42.1292 156.233C42.2812 156.439 42.3362 156.701 42.2792 156.95C42.2232 157.2 42.0612 157.412 41.8352 157.533L30.8072 163.438L39.1902 171.56C39.5392 171.899 39.5492 172.457 39.2102 172.806C39.0372 172.984 38.8072 173.074 38.5772 173.074Z" fill="#005E78"/>
<path d="M74.5631 173.074C74.3331 173.074 74.1031 172.985 73.9301 172.806C73.5911 172.457 73.5991 171.898 73.9491 171.56L82.3321 163.438L71.3051 157.533C71.0791 157.413 70.9181 157.2 70.8611 156.95C70.8051 156.701 70.8591 156.439 71.0121 156.233L77.9771 146.777L67.6451 142.461C67.3821 142.351 67.1871 142.119 67.1251 141.84C67.0621 141.561 67.1391 141.269 67.3311 141.057L74.5281 133.089L65.2241 129.52C64.9661 129.421 64.7691 129.206 64.6921 128.939C64.6161 128.672 64.6701 128.386 64.8371 128.165L71.5331 119.322L64.1771 118.467C63.8581 118.43 63.5831 118.222 63.4621 117.924C63.3411 117.626 63.3921 117.286 63.5941 117.036L69.5631 109.684L56.3831 106.822C56.0371 106.747 55.7701 106.472 55.7041 106.124C55.6391 105.776 55.7871 105.422 56.0831 105.227L67.5041 97.642L56.1071 90.595C55.8441 90.432 55.6851 90.143 55.6891 89.834C55.6931 89.525 55.8591 89.24 56.1271 89.084L65.1931 83.799L55.9891 75.685C55.7681 75.491 55.6591 75.198 55.6981 74.907C55.7371 74.615 55.9201 74.362 56.1841 74.233L63.4651 70.667L56.0091 64.479C55.6631 64.192 55.5881 63.69 55.8371 63.315L61.7861 54.323L55.9981 49.361C55.8111 49.201 55.7001 48.969 55.6911 48.723C55.6821 48.476 55.7771 48.238 55.9521 48.065L60.2261 43.84L55.9921 40.147C55.8081 39.987 55.6991 39.757 55.6901 39.512C55.6821 39.268 55.7761 39.031 55.9491 38.858L60.6001 34.223C60.9451 33.879 61.5031 33.881 61.8461 34.225C62.1901 34.57 62.1881 35.128 61.8441 35.472L57.8621 39.44L62.0991 43.135C62.2841 43.296 62.3931 43.527 62.4011 43.771C62.4081 44.016 62.3131 44.253 62.1391 44.426L57.8711 48.645L63.5221 53.49C63.8601 53.779 63.9291 54.275 63.6841 54.646L57.7411 63.627L65.6371 70.181C65.8671 70.372 65.9851 70.667 65.9491 70.963C65.9141 71.26 65.7301 71.519 65.4611 71.65L58.1411 75.235L67.2721 83.284C67.4851 83.471 67.5941 83.749 67.5661 84.031C67.5391 84.313 67.3781 84.564 67.1331 84.707L58.2811 89.868L69.5991 96.866C69.8541 97.024 70.0111 97.301 70.0161 97.602C70.0211 97.902 69.8721 98.184 69.6221 98.35L58.7931 105.542L71.3361 108.266C71.6351 108.331 71.8791 108.547 71.9811 108.835C72.0831 109.124 72.0271 109.445 71.8341 109.682L65.9721 116.9L73.2661 117.748C73.5801 117.784 73.8501 117.986 73.9751 118.277C74.0991 118.568 74.0581 118.903 73.8671 119.155L66.9491 128.293L76.3581 131.902C76.6291 132.006 76.8311 132.237 76.8991 132.52C76.9661 132.803 76.8901 133.101 76.6961 133.316L69.4731 141.313L79.6911 145.581C79.9411 145.685 80.1281 145.899 80.2011 146.159C80.2731 146.419 80.2221 146.699 80.0611 146.917L73.0341 156.458L84.2281 162.453C84.4771 162.586 84.6461 162.829 84.6851 163.108C84.7241 163.387 84.6271 163.667 84.4261 163.863L75.1761 172.825C75.0061 172.991 74.7841 173.074 74.5631 173.074Z" fill="#005E78"/>
<path d="M61.0002 30.61C60.8522 30.61 60.7032 30.571 60.5672 30.49L51.7052 25.156C51.3072 24.916 51.1792 24.399 51.4182 24.001C51.6572 23.603 52.1752 23.475 52.5732 23.714L61.4352 29.048C61.8332 29.288 61.9622 29.805 61.7222 30.203C61.5642 30.465 61.2862 30.61 61.0002 30.61Z" fill="#003847"/>
<path d="M52.1402 30.61C51.8552 30.61 51.5762 30.465 51.4182 30.202C51.1792 29.804 51.3072 29.287 51.7052 29.047L60.5672 23.713C60.9662 23.474 61.4822 23.602 61.7212 24C61.9612 24.398 61.8322 24.915 61.4342 25.155L52.5722 30.489C52.4372 30.571 52.2872 30.61 52.1402 30.61Z" fill="#003847"/>
<path d="M113.14 238.599H89.3L89.074 238.055C88.951 237.759 76.579 208.458 56.57 208.458C36.547 208.458 24.189 237.759 24.066 238.055L23.841 238.599H0L0.494003 237.385C0.640003 237.025 15.21 201.205 22.777 179.742C46.216 113.25 51.355 30.544 51.404 29.716L51.453 28.887H61.687L61.736 29.716C61.785 30.543 66.926 113.257 90.363 179.742C97.93 201.207 112.499 237.025 112.645 237.385L113.14 238.599ZM90.469 236.837H110.52C107.901 230.37 95.489 199.591 88.699 180.329C66.442 117.19 60.632 39.516 60.03 30.651H53.109C52.507 39.516 46.697 117.19 24.438 180.329C17.648 199.591 5.23701 230.37 2.61801 236.837H22.67C24.531 232.591 36.695 206.696 56.57 206.696C76.445 206.696 88.609 232.591 90.469 236.837ZM76.397 175.989H36.742L37.012 174.896C37.117 174.469 47.567 132.024 47.98 117.566L48.005 116.709H65.134L65.159 117.565C65.572 132.025 76.022 174.469 76.127 174.896L76.397 175.989ZM38.992 174.227H74.148C72.497 167.457 64.134 132.594 63.43 118.473H49.708C49.005 132.594 40.643 167.456 38.992 174.227Z" fill="#003847"/>
<path d="M89.3411 172.192H23.7981C22.6781 172.192 21.6371 172.769 21.0431 173.718L18.3491 178.023H94.7911L92.0971 173.718C91.5021 172.769 90.4611 172.192 89.3411 172.192Z" fill="#005E78"/>
<path d="M62.3598 32.667H50.7798V19.816H62.3598V32.667ZM52.4628 30.984H60.6788V21.498H52.4628V30.984Z" fill="#003847"/>
<path d="M61.2148 22.462H51.9238L56.5698 0L61.2148 22.462ZM53.9898 20.779H59.1488L56.5698 8.307L53.9898 20.779Z" fill="#003847"/>
<path d="M56.0562 21.621L56.5702 4.15302L57.0842 21.621C57.0922 21.905 56.8692 22.142 56.5852 22.15C56.3012 22.158 56.0642 21.935 56.0562 21.651C56.0562 21.641 56.0562 21.63 56.0562 21.621Z" fill="#003847"/>
<path d="M60.4828 24.434H52.6568C51.1088 24.434 49.8428 23.168 49.8428 21.62C49.8428 20.072 51.1088 18.806 52.6568 18.806H60.4828C62.0308 18.806 63.2968 20.072 63.2968 21.62C63.2968 23.168 62.0308 24.434 60.4828 24.434Z" fill="#003847"/>
<path d="M95.9068 237.977C95.7798 237.587 82.9538 198.953 56.5698 198.953C30.1718 198.953 17.3588 237.587 17.2328 237.977L15.6318 237.459C16.1638 235.818 28.9598 197.271 56.5698 197.271C84.1788 197.271 96.9758 235.818 97.5078 237.459L95.9068 237.977Z" fill="#003847"/>
<path d="M23.2508 238.559C22.8558 238.559 22.5038 238.28 22.4258 237.878L20.2938 226.91C20.2148 226.504 20.4438 226.1 20.8328 225.959L30.9118 222.308V210.771C30.9118 210.321 31.2668 209.951 31.7158 209.931L44.0328 209.388V200.687C44.0328 200.393 44.1858 200.121 44.4358 199.969C44.6848 199.816 44.9978 199.805 45.2578 199.939L56.5698 205.75L67.8788 199.938C68.1418 199.805 68.4518 199.816 68.7018 199.968C68.9528 200.12 69.1049 200.392 69.1049 200.686V209.387L81.4228 209.93C81.8728 209.95 82.2269 210.32 82.2269 210.77V222.307L92.3068 225.958C92.6958 226.099 92.9249 226.503 92.8458 226.909L90.7148 237.877C90.6268 238.333 90.1848 238.636 89.7288 238.542C89.2728 238.453 88.9748 238.012 89.0638 237.556L91.0568 227.294L81.0988 223.687C80.7658 223.567 80.5449 223.25 80.5449 222.896V211.574L68.2269 211.031C67.7769 211.011 67.4228 210.641 67.4228 210.191V202.063L56.9548 207.442C56.7138 207.566 56.4268 207.566 56.1858 207.442L45.7178 202.063V210.191C45.7178 210.641 45.3628 211.011 44.9138 211.031L32.5968 211.574V222.896C32.5968 223.25 32.3748 223.567 32.0418 223.687L22.0839 227.294L24.0778 237.556C24.1668 238.011 23.8688 238.453 23.4128 238.542C23.3578 238.555 23.3038 238.559 23.2508 238.559Z" fill="#003847"/>
<path d="M44.8762 211.033C44.6982 211.033 44.5192 210.977 44.3672 210.861L37.4531 205.586C37.0831 205.305 37.0122 204.776 37.2942 204.407C37.5762 204.037 38.1042 203.967 38.4732 204.249L45.3872 209.524C45.7572 209.805 45.8282 210.334 45.5462 210.703C45.3792 210.919 45.1292 211.033 44.8762 211.033Z" fill="#003847"/>
<path d="M36.8142 217.073C36.5882 217.073 36.3632 216.983 36.1972 216.804L31.1382 211.343C30.8232 211.002 30.8432 210.47 31.1842 210.154C31.5242 209.839 32.0572 209.858 32.3732 210.2L37.4322 215.661C37.7472 216.002 37.7272 216.534 37.3862 216.85C37.2242 216.999 37.0192 217.073 36.8142 217.073Z" fill="#003847"/>
<path d="M31.7542 223.738C31.6102 223.738 31.4642 223.702 31.3312 223.624L24.9942 219.929C24.5932 219.695 24.4572 219.18 24.6912 218.779C24.9262 218.377 25.4402 218.241 25.8412 218.476L32.1782 222.171C32.5792 222.405 32.7152 222.92 32.4812 223.321C32.3252 223.589 32.0432 223.738 31.7542 223.738Z" fill="#003847"/>
<path d="M26.8148 230.819C26.6748 230.819 26.5318 230.784 26.4008 230.71L20.7048 227.481C20.3008 227.252 20.1588 226.739 20.3878 226.335C20.6168 225.932 21.1278 225.789 21.5338 226.018L27.2298 229.246C27.6338 229.475 27.7758 229.988 27.5468 230.393C27.3928 230.666 27.1078 230.819 26.8148 230.819Z" fill="#003847"/>
<path d="M68.2651 211.033C68.0111 211.033 67.7611 210.919 67.5951 210.702C67.3141 210.333 67.3841 209.804 67.7531 209.523L74.667 204.248C75.038 203.965 75.5651 204.039 75.8461 204.406C76.1271 204.775 76.0571 205.304 75.6881 205.585L68.7741 210.86C68.6221 210.977 68.4421 211.033 68.2651 211.033Z" fill="#003847"/>
<path d="M76.3259 217.073C76.1209 217.073 75.9159 216.999 75.7539 216.849C75.4129 216.533 75.3919 216.001 75.7079 215.66L80.7669 210.199C81.0849 209.857 81.6159 209.839 81.9559 210.153C82.2969 210.469 82.3179 211.001 82.0019 211.342L76.9429 216.803C76.7769 216.982 76.5519 217.073 76.3259 217.073Z" fill="#003847"/>
<path d="M81.3862 223.738C81.0972 223.738 80.8142 223.589 80.6592 223.321C80.4252 222.92 80.5602 222.405 80.9622 222.171L87.2992 218.476C87.7012 218.24 88.2162 218.376 88.4492 218.779C88.6832 219.18 88.5482 219.695 88.1462 219.929L81.8092 223.624C81.6752 223.702 81.5302 223.738 81.3862 223.738Z" fill="#003847"/>
<path d="M86.3239 230.819C86.0309 230.819 85.7469 230.666 85.5919 230.393C85.3629 229.988 85.5049 229.475 85.9089 229.246L91.6049 226.018C92.0099 225.79 92.5229 225.932 92.7509 226.335C92.9799 226.739 92.8379 227.253 92.4339 227.481L86.7379 230.71C86.6069 230.784 86.4649 230.819 86.3239 230.819Z" fill="#003847"/>
<path d="M91.8361 188.503H21.3051C20.6811 188.503 20.1231 188.113 19.9091 187.527L17.1641 180.02C16.8091 179.05 17.5271 178.023 18.5601 178.023H94.5811C95.6141 178.023 96.3321 179.05 95.9771 180.02L93.2321 187.527C93.0171 188.113 92.4601 188.503 91.8361 188.503Z" fill="#003847"/>
<path d="M56.57 118.473C56.083 118.473 55.689 118.078 55.689 117.592V34.849C55.689 34.362 56.084 33.968 56.57 33.968C57.057 33.968 57.451 34.363 57.451 34.849V117.592C57.451 118.078 57.057 118.473 56.57 118.473Z" fill="#003847"/>
<path d="M62.5349 34.849H50.6049C49.2079 34.849 48.0649 33.706 48.0649 32.309C48.0649 30.912 49.2079 29.769 50.6049 29.769H62.5349C63.9319 29.769 65.075 30.912 65.075 32.309C65.075 33.706 63.9319 34.849 62.5349 34.849Z" fill="#003847"/>
</svg>
