<svg width="174" height="141" viewBox="0 0 174 141" fill="none" xmlns="http://www.w3.org/2000/svg">
<path d="M103.103 120.004C102.1 120.273 101.086 120.198 100.183 119.854C99.5721 120.603 98.7294 121.176 97.7257 121.445L33.7707 138.581C30.082 139.57 26.2788 137.372 25.2898 133.681L1.79197 45.9858C0.803563 42.297 2.99894 38.4945 6.68773 37.5061L70.6403 20.3701C71.6439 20.1012 72.66 20.1755 73.5632 20.5188C74.1738 19.7699 75.0165 19.1975 76.0178 18.9292L139.975 1.79186C143.664 0.803459 147.466 2.99883 148.455 6.68762L171.953 94.3826C172.941 98.0714 170.747 101.879 167.058 102.867L103.101 120.004L103.103 120.004Z" fill="#375478"/>
<path d="M140.49 3.70516L76.5331 20.8425C75.048 21.2404 74.1677 22.7651 74.5657 24.2502C74.1677 22.7651 72.6407 21.8855 71.1532 22.284L7.20063 39.4201C4.56338 40.1267 2.99926 42.8358 3.70591 45.4731L27.2037 133.168C27.9104 135.805 30.6208 137.374 33.258 136.668L97.2106 119.532C98.6957 119.134 99.5801 117.605 99.1815 116.118C99.5794 117.603 101.105 118.488 102.59 118.09L166.548 100.953C169.185 100.246 170.749 97.5345 170.041 94.8948L146.543 7.19988C145.837 4.56263 143.128 2.99851 140.49 3.70516Z" fill="#FEE6D0"/>
<path d="M43.8045 39.8015L12.8354 48.0996L22.4262 83.8928L53.3953 75.5947L43.8045 39.8015Z" fill="white"/>
<path d="M70.2243 35.6234L48.585 41.4216L50.1131 47.1249L71.7524 41.3266L70.2243 35.6234Z" fill="#DAC29A"/>
<path d="M73.5304 47.9618L51.8911 53.76L53.4193 59.4633L75.0586 53.665L73.5304 47.9618Z" fill="#DAC29A"/>
<path d="M76.8366 60.2999L55.1973 66.0981L56.7254 71.8014L78.3647 66.0032L76.8366 60.2999Z" fill="#DAC29A"/>
<path d="M80.1426 72.6383L23.479 87.8213L25.0072 93.5245L81.6708 78.3416L80.1426 72.6383Z" fill="#DAC29A"/>
<path d="M84.2125 87.8268L27.5488 103.01L29.077 108.713L85.7406 93.5301L84.2125 87.8268Z" fill="#DAC29A"/>
<path d="M89.7042 108.324L33.0405 123.507L34.5687 129.21L91.2323 114.027L89.7042 108.324Z" fill="#DAC29A"/>
<g style="mix-blend-mode:overlay" opacity="0.3">
<path d="M94.4548 16.0403L76.5306 20.8431C75.0455 21.241 74.1652 22.7656 74.5632 24.2507C74.1652 22.7656 72.6382 21.886 71.1507 22.2846L54.4554 26.7581C72.7352 73.2778 63.6712 104.306 22.9718 117.394L27.1988 133.169C27.9055 135.807 30.6159 137.375 33.2531 136.669L97.2057 119.533C98.6908 119.135 99.5752 117.606 99.1766 116.119C99.5746 117.604 101.1 118.489 102.586 118.091L166.543 100.954C169.18 100.247 170.744 97.5357 170.036 94.8961L164.897 75.7168C127.115 87.2731 93.5427 49.6775 94.4524 16.0409L94.4548 16.0403Z" fill="#010101"/>
</g>
<path opacity="0.1" d="M76.8874 20.7473L102.945 117.995L102.588 118.09C101.103 118.488 99.5775 117.606 99.179 116.118C99.5769 117.603 98.6955 119.133 97.208 119.532L96.638 119.685L70.5806 22.4373L71.1507 22.2845C72.6357 21.8866 74.1652 22.7655 74.5631 24.2506C74.1652 22.7655 75.0454 21.2409 76.5305 20.843L76.8874 20.7473Z" fill="#010101"/>
<path d="M149.81 29.7768L119.32 100.491L97.2162 90.9612L127.707 20.2469L149.81 29.7768ZM118.382 98.1314L147.451 30.7146L128.644 22.6041L99.5752 90.021L118.382 98.1314Z" fill="#E94D3D"/>
<path d="M112.668 87.7295L116.372 89.3274L115.718 90.8429L106.444 86.8453L107.573 84.2271C108.089 83.031 108.694 82.2424 109.39 81.8584C110.085 81.4744 110.886 81.4808 111.791 81.8698C112.946 82.3664 113.51 83.3218 113.481 84.7365L118.713 83.8863L117.969 85.6108L113.307 86.2336L112.661 87.7315L112.668 87.7295ZM111.411 87.1882L111.866 86.1345C112.169 85.4292 112.261 84.8605 112.135 84.4295C112.009 83.9985 111.689 83.6736 111.172 83.4502C110.647 83.2238 110.197 83.2338 109.821 83.4783C109.445 83.7228 109.108 84.1881 108.813 84.8782L108.38 85.8798L111.411 87.1882Z" fill="#E94C3D"/>
<path d="M121.56 77.2932L119.3 82.538L110.026 78.5405L112.287 73.2956L113.567 73.8486L111.958 77.5786L114.483 78.6658L115.991 75.1709L117.259 75.7168L115.751 79.2117L118.663 80.4675L120.272 76.7374L121.56 77.2932Z" fill="#E94C3D"/>
<path d="M124.507 77.5793C124.328 77.9943 124.127 78.3177 123.9 78.5507L122.625 78.0013C122.867 77.6851 123.046 77.3957 123.158 77.1322C123.515 76.3021 123.17 75.663 122.121 75.2097L113.134 71.333L113.792 69.8115L122.729 73.6656C123.676 74.0743 124.305 74.6117 124.609 75.2773C124.916 75.9446 124.883 76.711 124.509 77.5762L124.507 77.5793Z" fill="#E94C3D"/>
<path d="M126.359 66.1618L124.098 71.4067L114.825 67.4092L117.086 62.1643L118.366 62.7172L116.757 66.4473L119.282 67.5345L120.789 64.0395L122.058 64.5854L120.55 68.0804L123.461 69.3361L125.07 65.6061L126.359 66.1618Z" fill="#E94C3D"/>
<path d="M120.82 56.7173C120.445 57.588 120.458 58.4058 120.859 59.1715C121.261 59.9364 122.004 60.5537 123.093 61.0221C124.23 61.513 125.194 61.6424 125.983 61.4156C126.775 61.1881 127.364 60.6194 127.758 59.7105C127.927 59.3184 128.052 58.9205 128.134 58.5185C128.214 58.1172 128.279 57.6914 128.328 57.2394L129.628 57.7998C129.59 58.6444 129.37 59.5299 128.972 60.4504C128.387 61.8088 127.527 62.6733 126.389 63.0449C125.254 63.4183 123.919 63.2729 122.39 62.6147C121.426 62.1978 120.657 61.6592 120.086 60.9932C119.515 60.3273 119.181 59.5798 119.086 58.7453C118.988 57.9114 119.135 57.0428 119.523 56.143C119.932 55.1965 120.508 54.4054 121.253 53.7745L122.28 54.8653C121.997 55.113 121.724 55.3889 121.461 55.6905C121.198 55.9921 120.984 56.3343 120.817 56.7179L120.82 56.7173Z" fill="#E94C3D"/>
<path d="M132.154 52.7225L131.5 54.238L123.527 50.8008L122.35 53.5293L121.05 52.9689L124.055 45.9972L125.355 46.5576L124.179 49.286L132.152 52.7232L132.154 52.7225Z" fill="#E94C3D"/>
<path d="M136.207 43.3288L133.946 48.5737L124.672 44.5761L126.933 39.3313L128.214 39.8842L126.605 43.6143L129.13 44.7015L130.637 41.2065L131.905 41.7524L130.398 45.2474L133.309 46.5031L134.918 42.773L136.207 43.3288Z" fill="#E94C3D"/>
<path d="M135.596 31.7447C137.126 32.4053 138.114 33.3343 138.556 34.5329C139 35.7309 138.877 37.1297 138.186 38.7294L137.069 41.3239L127.795 37.3263L129.032 34.4585C129.669 32.9837 130.559 32.0056 131.71 31.5279C132.858 31.0508 134.153 31.1223 135.596 31.7447ZM134.957 33.3663C132.736 32.4081 131.179 32.9691 130.285 35.0444L129.718 36.3568L136.446 39.2597L136.912 38.1823C137.875 35.9501 137.225 34.3453 134.958 33.3687L134.957 33.3663Z" fill="#E94C3D"/>
<path d="M36.2272 60.7991C37.6802 63.5007 37.0004 65.9652 34.8339 68.2658C32.3068 67.7928 30.6089 65.95 29.8916 62.4967C30.0204 60.3236 29.6243 58.7302 28.6304 57.7899L34.966 56.0923C34.5754 57.4036 35.0291 58.9816 36.2272 60.7991Z" fill="#EB8761"/>
<path d="M50.1399 76.4669L25.6741 83.0225C25.1709 81.3936 24.1918 77.615 23.3871 74.4393C22.6045 71.3654 23.7821 68.1334 26.3459 66.2809L28.634 64.6255L28.6387 64.6242L29.8914 62.4966L33.1055 66.4722L35.4337 65.8483L36.2223 60.8003L36.227 60.799L36.2283 60.8038L38.3787 62.017L41.1879 62.3066C44.3346 62.629 46.9703 64.8392 47.8343 67.8912C48.7247 71.0415 49.7636 74.804 50.1405 76.4693L50.1399 76.4669Z" fill="#716794"/>
<path d="M28.6396 64.6267L31.947 70.2537L33.1063 66.4747L29.894 62.4961L28.6396 64.6267Z" fill="#857CA3"/>
<path d="M38.3788 62.0169L38.328 68.5437L35.4344 65.8506L36.2271 60.7989L38.3788 62.0169Z" fill="#857CA3"/>
<path d="M31.6313 81.4264L30.321 81.7774L28.5239 75.0706C30.0734 77.3177 31.0733 79.7942 31.6313 81.4264Z" fill="#59527E"/>
<path d="M43.8567 70.9622L45.6538 77.6691L44.3484 78.0189C44.0107 76.3277 43.6384 73.683 43.8567 70.9622Z" fill="#59527E"/>
<path d="M29.0496 46.0837L28.8724 46.1312C26.1776 46.8532 24.5761 49.6237 25.2988 52.3209L26.6479 57.3558C26.9194 58.369 27.5883 59.227 28.5034 59.7391L29.6474 60.3774C30.4441 60.8211 31.3844 60.9389 32.2683 60.702L33.3941 60.4004C34.2756 60.1642 35.0311 59.592 35.5015 58.8088L36.1732 57.684C36.7103 56.7853 36.8599 55.7055 36.5884 54.6923L35.2393 49.6573C34.5173 46.9626 31.7468 45.361 29.0496 46.0837Z" fill="#F4A07D"/>
<path d="M35.2684 49.7753L35.7646 51.6269C35.148 51.0219 34.4538 50.0886 33.613 48.5219C32.5118 48.9248 31.4006 48.8118 30.2756 48.302C28.6111 48.5092 27.4376 49.3037 26.886 50.8379C27.0229 52.2209 26.6991 53.3885 25.8264 54.2898L25.3303 52.4383C25.0626 51.4394 25.0662 50.4372 25.2902 49.5197C25.397 49.0752 25.5607 48.6514 25.7682 48.2569C26.4059 47.0437 27.488 46.1094 28.8581 45.7423C30.8462 45.2095 32.9019 46.0117 34.1849 47.619C34.6722 48.2304 35.0472 48.9592 35.266 49.776L35.2684 49.7753Z" fill="#8B433B"/>
<path d="M26.8852 50.8353C27.0221 52.2183 26.6983 53.3859 25.8256 54.2873L25.3295 52.4357C25.0618 51.4368 25.0654 50.4346 25.2894 49.5171C25.7935 50.4501 26.3272 50.8513 26.8828 50.836L26.8852 50.8353Z" fill="#682B2B"/>
<path d="M35.2681 49.7753L35.7643 51.6269C35.1478 51.0219 34.4535 50.0886 33.6127 48.5219C34.0631 48.3345 34.1705 47.9977 34.187 47.6184C34.6743 48.2298 35.0493 48.9585 35.2681 49.7753Z" fill="#682B2B"/>
<path d="M26.729 55.121C27.2212 56.3831 27.2297 58.2062 26.5692 58.491C25.9087 58.7759 24.8294 57.4117 24.3372 56.1495C23.845 54.8874 24.1288 54.2029 24.7893 53.9181C25.4498 53.6333 26.2368 53.8589 26.729 55.121Z" fill="#F4A07D"/>
<path d="M25.7211 57.1831C25.7744 57.3819 25.8615 57.5537 25.9666 57.6873C25.6795 57.7463 25.2255 57.2594 24.8898 56.5048C24.5153 55.6629 24.4348 54.8065 24.7037 54.5932C24.9756 54.3817 25.4979 54.8939 25.8724 55.7357C25.9293 55.8617 25.9753 55.9854 26.0189 56.1098C25.7185 56.2057 25.5863 56.6801 25.7211 57.1831Z" fill="#EB8761"/>
<path d="M35.4434 52.786C35.6482 54.1252 36.5524 55.7083 37.2668 55.6247C37.9812 55.5411 38.2338 53.82 38.029 52.4809C37.8242 51.1417 37.2362 50.6908 36.5217 50.7744C35.8073 50.858 35.2386 51.4469 35.4458 52.7854L35.4434 52.786Z" fill="#F4A07D"/>
<path d="M37.398 54.0542C37.4513 54.2531 37.4641 54.4447 37.4447 54.6117C37.7013 54.525 37.827 53.8828 37.7284 53.0646C37.6198 52.1515 37.2734 51.3663 36.9578 51.3097C36.6405 51.256 36.4706 51.9537 36.5792 52.8668C36.5953 53.0036 36.6174 53.1338 36.6418 53.2633C36.9259 53.2026 37.2584 53.5525 37.3932 54.0555L37.398 54.0542Z" fill="#EB8761"/>
<path d="M26.024 54.0698C26.545 55.3627 26.8271 56.6838 26.919 58.0711C26.2977 56.8256 26.0082 55.4578 26.024 54.0698Z" fill="#EB8761"/>
<path d="M35.5968 51.3843C36.2711 52.6361 36.7051 54.0165 36.7549 55.4383C36.1694 54.1344 35.7572 52.8072 35.5968 51.3843Z" fill="#EB8761"/>
</svg>
